<svg width="116" height="36" viewBox="0 0 116 36" fill="none" xmlns="http://www.w3.org/2000/svg">
<path fill-rule="evenodd" clip-rule="evenodd" d="M71.9607 27.85C65.2449 32.8156 55.4765 35.4612 47.0512 35.4612C35.2477 35.4612 24.6653 31.1061 16.6063 23.8612C15.9958 23.2914 16.5249 22.518 17.2982 22.9657C25.9677 28.0128 36.6723 31.0247 47.7431 31.0247C55.1916 31.0247 63.4133 29.478 70.9839 26.2626C72.1235 25.8149 73.0596 27.0359 71.9607 27.85Z" fill="#7B7B7B"/>
<path fill-rule="evenodd" clip-rule="evenodd" d="M74.7691 24.6344C73.9144 23.5354 69.0709 24.1053 66.9137 24.3902C66.2625 24.4716 66.1404 23.9018 66.7509 23.4947C70.6175 20.7677 76.9263 21.5818 77.6589 22.4772C78.3916 23.3726 77.4554 29.7221 73.833 32.734C73.2632 33.1818 72.734 32.9376 72.9782 32.327C73.7923 30.2919 75.6239 25.774 74.7691 24.6344Z" fill="#7B7B7B"/>
<path fill-rule="evenodd" clip-rule="evenodd" d="M67.0358 4.36503V1.71941C67.0358 1.31239 67.3207 1.06818 67.687 1.06818H79.4905C79.8568 1.06818 80.1825 1.3531 80.1825 1.71941V3.95801C80.1825 4.32432 79.8568 4.81275 79.287 5.62678L73.1817 14.337C75.461 14.2963 77.8624 14.6219 79.8975 15.7615C80.3453 16.0057 80.4674 16.4127 80.5081 16.7791V19.5875C80.5081 19.9945 80.1011 20.4422 79.6533 20.198C76.0309 18.285 71.1874 18.0815 67.1986 20.2387C66.7916 20.4422 66.3439 20.0352 66.3439 19.6282V16.9419C66.3439 16.5348 66.3439 15.8022 66.7916 15.151L73.8737 5.01626H67.7277C67.3614 5.01626 67.0358 4.73134 67.0358 4.36503ZM24.014 20.7678H20.4323C20.1067 20.7271 19.8218 20.4829 19.7811 20.1573V1.76012C19.7811 1.3938 20.1067 1.10888 20.473 1.10888H23.8105C24.1768 1.10888 24.4211 1.3938 24.4618 1.71941V4.12081H24.5432C25.3979 1.80081 27.0667 0.701867 29.2646 0.701867C31.5032 0.701867 32.9277 1.80081 33.9046 4.12081C34.7593 1.80081 36.7537 0.701867 38.8702 0.701867C40.3761 0.701867 42.0042 1.31239 43.0218 2.73695C44.1614 4.28362 43.9172 6.52222 43.9172 8.51661V20.1573C43.9172 20.5236 43.5916 20.8085 43.2253 20.8085H39.6842C39.3179 20.7678 39.033 20.4829 39.033 20.1573V10.3889C39.033 9.61555 39.1144 7.66186 38.9516 6.92923C38.6667 5.70818 37.8933 5.34186 36.8351 5.34186C35.9804 5.34186 35.0442 5.91169 34.6779 6.84783C34.3116 7.78398 34.3523 9.33063 34.3523 10.3889V20.1573C34.3523 20.5236 34.0267 20.8085 33.6603 20.8085H30.0786C29.7123 20.7678 29.4274 20.4829 29.4274 20.1573V10.3889C29.4274 8.35379 29.753 5.30116 27.2295 5.30116C24.6653 5.30116 24.7467 8.23169 24.7467 10.3889V20.1573C24.706 20.4829 24.4211 20.7678 24.014 20.7678ZM90.3579 0.701867C95.6898 0.701867 98.5797 5.26046 98.5797 11.0808C98.5797 16.6977 95.4049 21.1748 90.3579 21.1748C85.1481 21.1748 82.299 16.6163 82.299 10.918C82.2582 5.17906 85.1481 0.701867 90.3579 0.701867ZM90.3579 4.48713C87.7123 4.48713 87.5495 8.10959 87.5495 10.3482C87.5495 12.5868 87.5088 17.3896 90.3172 17.3896C93.0849 17.3896 93.2477 13.5229 93.2477 11.1622C93.2477 9.61556 93.1663 7.74328 92.7186 6.27801C92.3116 4.97556 91.4975 4.48713 90.3579 4.48713ZM105.458 20.7678H101.876C101.51 20.7271 101.225 20.4422 101.225 20.1166V1.67871C101.266 1.35309 101.551 1.06818 101.917 1.06818H105.255C105.58 1.06818 105.825 1.3124 105.906 1.59731V4.40573H105.987C107.005 1.88222 108.389 0.701867 110.872 0.701867C112.459 0.701867 114.046 1.27169 115.064 2.85906C116 4.32432 116 6.80713 116 8.59801V20.198C115.959 20.5236 115.674 20.7678 115.308 20.7678H111.726C111.401 20.7271 111.116 20.4829 111.075 20.198V10.1854C111.075 8.15028 111.319 5.21976 108.836 5.21976C107.982 5.21976 107.168 5.78959 106.761 6.68503C106.272 7.82468 106.191 8.92362 106.191 10.1854V20.1166C106.15 20.4829 105.825 20.7678 105.458 20.7678ZM57.6337 11.9763C57.6337 13.3601 57.6744 14.5405 56.9825 15.8022C56.4126 16.8198 55.5172 17.4303 54.4996 17.4303C53.1158 17.4303 52.3018 16.372 52.3018 14.8254C52.3018 11.7727 55.0288 11.2029 57.6337 11.2029V11.9763ZM61.2561 20.7271C61.0119 20.9306 60.6863 20.9713 60.4014 20.8085C59.221 19.8317 58.9768 19.3433 58.3256 18.4071C56.3719 20.4015 54.9474 21.012 52.4239 21.012C49.4119 21.012 47.0512 19.1398 47.0512 15.4359C47.0512 12.5054 48.6386 10.5517 50.8772 9.57485C52.8309 8.72011 55.5579 8.55731 57.6337 8.3131V7.86538C57.6337 7.01064 57.7151 5.9931 57.186 5.26047C56.7382 4.60924 55.9242 4.32432 55.1916 4.32432C53.8077 4.32432 52.5867 5.01626 52.3018 6.48152C52.2203 6.80714 52.0168 7.13274 51.6912 7.13274L48.2316 6.76643C47.9467 6.68502 47.6211 6.48152 47.7025 6.0338C48.5165 1.80082 52.3018 0.539062 55.7207 0.539062C57.4709 0.539062 59.7502 0.986779 61.134 2.32994C62.8842 3.95801 62.7214 6.15591 62.7214 8.51661V14.0927C62.7214 15.7615 63.4133 16.4942 64.0646 17.4303C64.3088 17.7559 64.3495 18.1629 64.0646 18.3664C63.2912 18.977 61.9888 20.1166 61.2561 20.7271ZM10.6232 11.9763C10.6232 13.3601 10.6639 14.5405 9.97193 15.8022C9.40211 16.8198 8.50666 17.4303 7.48912 17.4303C6.10526 17.4303 5.29123 16.372 5.29123 14.8254C5.29123 11.7727 8.01825 11.2029 10.6232 11.2029V11.9763ZM14.2049 20.7271C13.9607 20.9306 13.6351 20.9713 13.3502 20.8085C12.1698 19.8317 11.9256 19.3433 11.2744 18.4071C9.3207 20.4015 7.89614 21.012 5.37263 21.012C2.3607 21.012 0 19.1398 0 15.4359C0 12.5054 1.58737 10.5517 3.82596 9.57485C5.77965 8.72011 8.50667 8.55731 10.5825 8.3131V7.86538C10.5825 7.01064 10.6639 5.9931 10.1347 5.26047C9.68701 4.60924 8.87298 4.32432 8.14035 4.32432C6.75649 4.32432 5.53544 5.01626 5.25052 6.48152C5.16912 6.80714 4.96561 7.13274 4.64 7.13274L1.18035 6.76643C0.895436 6.68502 0.569827 6.48152 0.651231 6.0338C1.46527 1.80082 5.25053 0.539062 8.66947 0.539062C10.4197 0.539062 12.6989 0.986779 14.0828 2.32994C15.833 3.95801 15.6702 6.15591 15.6702 8.51661V14.0927C15.6702 15.7615 16.3621 16.4942 17.0133 17.4303C17.2575 17.7559 17.2982 18.1629 17.0133 18.3664C16.24 18.977 14.9375 20.1166 14.2049 20.7271Z" fill="#7B7B7B"/>
</svg>
