<svg width="30" height="17" viewBox="0 0 30 17" fill="none" xmlns="http://www.w3.org/2000/svg">
<path d="M0.333374 16.9996C0.533374 14.6218 1.26137 12.4329 2.51737 10.4329C3.77337 8.43294 5.44537 6.84405 7.53337 5.66628L5.06671 1.39961C4.93337 1.19961 4.90004 0.988498 4.96671 0.766276C5.03337 0.544054 5.17782 0.377387 5.40004 0.266276C5.57782 0.155165 5.77782 0.132943 6.00004 0.19961C6.22226 0.266276 6.40004 0.399609 6.53337 0.599609L9.00004 4.86628C10.9112 4.06628 12.9112 3.66628 15 3.66628C17.0889 3.66628 19.0889 4.06628 21 4.86628L23.4667 0.599609C23.6 0.399609 23.7778 0.266276 24 0.19961C24.2223 0.132943 24.4223 0.155165 24.6 0.266276C24.8223 0.377387 24.9667 0.544054 25.0334 0.766276C25.1 0.988498 25.0667 1.19961 24.9334 1.39961L22.4667 5.66628C24.5556 6.84405 26.2276 8.43294 27.4827 10.4329C28.7378 12.4329 29.4658 14.6218 29.6667 16.9996H0.333374ZM8.33337 13.3329C8.80004 13.3329 9.19471 13.1716 9.51737 12.8489C9.84004 12.5263 10.0009 12.1321 10 11.6663C10 11.1996 9.83871 10.8049 9.51604 10.4823C9.19337 10.1596 8.79915 9.99872 8.33337 9.99961C7.86671 9.99961 7.47204 10.1609 7.14937 10.4836C6.82671 10.8063 6.66582 11.2005 6.66671 11.6663C6.66671 12.1329 6.82804 12.5276 7.15071 12.8503C7.47337 13.1729 7.8676 13.3338 8.33337 13.3329ZM21.6667 13.3329C22.1334 13.3329 22.528 13.1716 22.8507 12.8489C23.1734 12.5263 23.3343 12.1321 23.3334 11.6663C23.3334 11.1996 23.172 10.8049 22.8494 10.4823C22.5267 10.1596 22.1325 9.99872 21.6667 9.99961C21.2 9.99961 20.8054 10.1609 20.4827 10.4836C20.16 10.8063 19.9992 11.2005 20 11.6663C20 12.1329 20.1614 12.5276 20.484 12.8503C20.8067 13.1729 21.2009 13.3338 21.6667 13.3329Z" fill="black"/>
</svg>
