<svg width="30" height="17" viewBox="0 0 30 17" fill="none" xmlns="http://www.w3.org/2000/svg">
<path d="M0.333008 16.9996C0.533008 14.6218 1.26101 12.4329 2.51701 10.4329C3.77301 8.43294 5.44501 6.84405 7.53301 5.66628L5.06634 1.39961C4.93301 1.19961 4.89967 0.988498 4.96634 0.766276C5.03301 0.544054 5.17745 0.377387 5.39967 0.266276C5.57745 0.155165 5.77745 0.132943 5.99967 0.19961C6.2219 0.266276 6.39967 0.399609 6.53301 0.599609L8.99967 4.86628C10.9108 4.06628 12.9108 3.66628 14.9997 3.66628C17.0886 3.66628 19.0886 4.06628 20.9997 4.86628L23.4663 0.599609C23.5997 0.399609 23.7775 0.266276 23.9997 0.19961C24.2219 0.132943 24.4219 0.155165 24.5997 0.266276C24.8219 0.377387 24.9663 0.544054 25.033 0.766276C25.0997 0.988498 25.0663 1.19961 24.933 1.39961L22.4663 5.66628C24.5552 6.84405 26.2272 8.43294 27.4823 10.4329C28.7375 12.4329 29.4655 14.6218 29.6663 16.9996H0.333008ZM8.33301 13.3329C8.79967 13.3329 9.19434 13.1716 9.51701 12.8489C9.83967 12.5263 10.0006 12.1321 9.99967 11.6663C9.99967 11.1996 9.83834 10.8049 9.51567 10.4823C9.19301 10.1596 8.79879 9.99872 8.33301 9.99961C7.86634 9.99961 7.47167 10.1609 7.14901 10.4836C6.82634 10.8063 6.66545 11.2005 6.66634 11.6663C6.66634 12.1329 6.82767 12.5276 7.15034 12.8503C7.47301 13.1729 7.86723 13.3338 8.33301 13.3329ZM21.6663 13.3329C22.133 13.3329 22.5277 13.1716 22.8503 12.8489C23.173 12.5263 23.3339 12.1321 23.333 11.6663C23.333 11.1996 23.1717 10.8049 22.849 10.4823C22.5263 10.1596 22.1321 9.99872 21.6663 9.99961C21.1997 9.99961 20.805 10.1609 20.4823 10.4836C20.1597 10.8063 19.9988 11.2005 19.9997 11.6663C19.9997 12.1329 20.161 12.5276 20.4837 12.8503C20.8063 13.1729 21.2006 13.3338 21.6663 13.3329Z" fill="#F8F8F8"/>
</svg>
