<svg width="20" height="20" viewBox="0 0 20 20" fill="none" xmlns="http://www.w3.org/2000/svg">
<path d="M10 0C15.523 0 20 4.477 20 10C20 15.523 15.523 20 10 20C4.477 20 0 15.523 0 10C0 4.477 4.477 0 10 0ZM10 2C7.87827 2 5.84344 2.84285 4.34315 4.34315C2.84285 5.84344 2 7.87827 2 10C2 12.1217 2.84285 14.1566 4.34315 15.6569C5.84344 17.1571 7.87827 18 10 18C12.1217 18 14.1566 17.1571 15.6569 15.6569C17.1571 14.1566 18 12.1217 18 10C18 7.87827 17.1571 5.84344 15.6569 4.34315C14.1566 2.84285 12.1217 2 10 2ZM6.823 13.343L6.033 14.713C5.97903 14.8068 5.90711 14.889 5.82137 14.955C5.73562 15.0209 5.63772 15.0694 5.53325 15.0975C5.42879 15.1256 5.3198 15.1329 5.21252 15.1189C5.10524 15.1049 5.00176 15.07 4.908 15.016C4.81424 14.962 4.73202 14.8901 4.66605 14.8044C4.60008 14.7186 4.55164 14.6207 4.5235 14.5163C4.49537 14.4118 4.48808 14.3028 4.50207 14.1955C4.51605 14.0882 4.55103 13.9848 4.605 13.891L5.194 12.875C5.854 12.669 6.395 12.827 6.823 13.343ZM11.21 6.66L13.633 10.854H15.774C15.8821 10.8536 15.9892 10.8746 16.0892 10.9157C16.1891 10.9569 16.28 11.0174 16.3565 11.0938C16.433 11.1702 16.4936 11.261 16.5349 11.3609C16.5762 11.4608 16.5973 11.5679 16.597 11.676C16.5974 11.7842 16.5764 11.8914 16.5352 11.9914C16.4939 12.0914 16.4333 12.1823 16.3568 12.2588C16.2803 12.3353 16.1894 12.3959 16.0894 12.4372C15.9894 12.4784 15.8822 12.4994 15.774 12.499H14.584L15.387 13.89C15.4887 14.0788 15.5129 14.2997 15.4543 14.506C15.3958 14.7123 15.2591 14.8876 15.0733 14.9948C14.8876 15.1019 14.6674 15.1324 14.4595 15.0798C14.2516 15.0272 14.0724 14.8956 13.96 14.713L10.92 9.447C10.23 8.257 10.722 7.064 11.21 6.66ZM11.488 3.616C11.883 3.842 12.016 4.346 11.79 4.741L8.262 10.85H10.815C11.641 10.85 12.105 11.822 11.746 12.495H4.266C4.15789 12.4953 4.0508 12.4741 3.95089 12.4329C3.85098 12.3916 3.76021 12.331 3.68381 12.2545C3.60742 12.178 3.5469 12.0871 3.50574 11.9872C3.46459 11.8872 3.4436 11.7801 3.444 11.672C3.44374 11.564 3.46482 11.457 3.50603 11.3571C3.54725 11.2573 3.60779 11.1666 3.68417 11.0902C3.76055 11.0138 3.85127 10.9532 3.95112 10.912C4.05097 10.8708 4.15798 10.8497 4.266 10.85H6.363L9.048 6.197L8.21 4.741C8.10825 4.55224 8.0841 4.33125 8.14267 4.12497C8.20124 3.91869 8.33791 3.74336 8.52367 3.63623C8.70942 3.5291 8.92963 3.4986 9.13751 3.55121C9.34539 3.60382 9.52457 3.7354 9.637 3.918L9.996 4.551L10.363 3.918C10.417 3.82424 10.4889 3.74204 10.5747 3.6761C10.6605 3.61017 10.7584 3.56179 10.8629 3.53374C10.9674 3.50569 11.0764 3.49852 11.1836 3.51263C11.2909 3.52675 11.3943 3.56187 11.488 3.616Z" fill="white"/>
</svg>
