<svg width="21" height="24" viewBox="0 0 21 24" fill="none" xmlns="http://www.w3.org/2000/svg">
<path d="M17.2332 23.04C15.9266 24.3067 14.4999 24.1067 13.1266 23.5067C11.6732 22.8933 10.3399 22.8667 8.80656 23.5067C6.88656 24.3333 5.87323 24.0933 4.72656 23.04C-1.78011 16.3333 -0.820107 6.12 6.56656 5.74667C8.36656 5.84 9.61989 6.73333 10.6732 6.81333C12.2466 6.49333 13.7532 5.57333 15.4332 5.69333C17.4466 5.85333 18.9666 6.65333 19.9666 8.09333C15.8066 10.5867 16.7932 16.0667 20.6066 17.6C19.8466 19.6 18.8599 21.5867 17.2199 23.0533L17.2332 23.04ZM10.5399 5.66667C10.3399 2.69333 12.7532 0.24 15.5266 0C15.9132 3.44 12.4066 6 10.5399 5.66667Z" fill="#F8F8F8"/>
</svg>
