<svg width="415" height="245" viewBox="0 0 415 245" fill="none" xmlns="http://www.w3.org/2000/svg">
<g opacity="0.15">
<path d="M310.499 5.13965H277.97V244.999H310.499V5.13965Z" fill="#FF260F"/>
<path d="M275.929 39.5811H243.4V244.998H275.929V39.5811Z" fill="#FF260F"/>
<path d="M241.359 68.7949H208.83V245H241.359V68.7949Z" fill="#FF260F"/>
<path d="M206.788 0H174.26V244.999H206.788V0Z" fill="#FF260F"/>
<path d="M68.5073 68.7949H35.9788V245H68.5073V68.7949Z" fill="#FF260F"/>
<path d="M103.078 41.083H70.5496V244.999H103.078V41.083Z" fill="#FF260F"/>
<path d="M137.648 12.8262H105.119V244.998H137.648V12.8262Z" fill="#FF260F"/>
<path d="M172.218 53.29H139.69V244.999H172.218V53.29Z" fill="#FF260F"/>
<path d="M345.069 52.624H312.54V244.999H345.069V52.624Z" fill="#FF260F"/>
<path d="M414.209 31.7861H381.68V245.001H414.209V31.7861Z" fill="#FF260F"/>
<path d="M33.2383 24.5127H0.709717V28.8272H33.2383V24.5127Z" fill="#FF260F"/>
<path d="M33.2383 18.6699H0.709717V22.9844H33.2383V18.6699Z" fill="#FF260F"/>
<path d="M33.2383 30.3535H0.709717V34.668H33.2383V30.3535Z" fill="#FF260F"/>
<path d="M33.2383 12.8281H0.709717V17.1426H33.2383V12.8281Z" fill="#FF260F"/>
<path d="M33.2383 53.7197H0.709717V245H33.2383V53.7197Z" fill="#FF260F"/>
<path d="M33.2383 5.14062H0.709717V11.3012H33.2383V5.14062Z" fill="#FF260F"/>
<path d="M33.2383 36.1943H0.709717V40.5088H33.2383V36.1943Z" fill="#FF260F"/>
<path d="M33.2383 47.8789H0.709717V52.1934H33.2383V47.8789Z" fill="#FF260F"/>
<path d="M33.2383 42.0371H0.709717V46.3516H33.2383V42.0371Z" fill="#FF260F"/>
<path d="M379.376 25.8701H346.847V30.1579H379.376V25.8701Z" fill="#FF260F"/>
<path d="M379.376 20.0654H346.847V24.3532H379.376V20.0654Z" fill="#FF260F"/>
<path d="M379.376 31.6758H346.847V35.9636H379.376V31.6758Z" fill="#FF260F"/>
<path d="M379.376 14.2588H346.847V18.5466H379.376V14.2588Z" fill="#FF260F"/>
<path d="M379.376 54.8984H346.847V244.998H379.376V54.8984Z" fill="#FF260F"/>
<path d="M379.376 6.61816H346.847V12.7409H379.376V6.61816Z" fill="#FF260F"/>
<path d="M379.376 37.4824H346.847V41.7702H379.376V37.4824Z" fill="#FF260F"/>
<path d="M379.376 49.0928H346.847V53.3806H379.376V49.0928Z" fill="#FF260F"/>
<path d="M379.376 43.2861H346.847V47.5739H379.376V43.2861Z" fill="#FF260F"/>
</g>
</svg>
