<svg width="19" height="20" viewBox="0 0 19 20" fill="none" xmlns="http://www.w3.org/2000/svg">
<path d="M16 14.28V9L19 6L15 2L12 5H5V4H8V0H0V4H3V10H0V14H3V19H7.28C7.45451 19.3023 7.70509 19.5536 8.00683 19.7291C8.30857 19.9045 8.65097 19.9979 9 20C9.35157 20.0021 9.6975 19.9115 10.0029 19.7373C10.3083 19.5631 10.5624 19.3115 10.7395 19.0078C10.9167 18.7042 11.0107 18.3591 11.012 18.0076C11.0133 17.656 10.922 17.3103 10.7471 17.0053C10.5722 16.7003 10.32 16.4467 10.016 16.2703C9.71188 16.0938 9.36665 16.0006 9.01507 16C8.66349 15.9995 8.31798 16.0917 8.01336 16.2672C7.70875 16.4428 7.4558 16.6955 7.28 17H5V14H8V10H5V7H12L14 9V14.27C13.6187 14.4901 13.3207 14.8299 13.1522 15.2367C12.9838 15.6434 12.9542 16.0944 13.0681 16.5197C13.1821 16.945 13.4332 17.3207 13.7825 17.5888C14.1318 17.8568 14.5597 18.0021 15 18.0021C15.4403 18.0021 15.8682 17.8568 16.2175 17.5888C16.5668 17.3207 16.8179 16.945 16.9319 16.5197C17.0458 16.0944 17.0162 15.6434 16.8478 15.2367C16.6793 14.8299 16.3813 14.4901 16 14.27V14.28ZM1 3V1H7V3H1ZM9 17C9.19778 17 9.39112 17.0586 9.55557 17.1685C9.72002 17.2784 9.84819 17.4346 9.92388 17.6173C9.99957 17.8 10.0194 18.0011 9.98079 18.1951C9.9422 18.3891 9.84696 18.5673 9.70711 18.7071C9.56725 18.847 9.38907 18.9422 9.19509 18.9808C9.00111 19.0194 8.80004 18.9996 8.61732 18.9239C8.43459 18.8482 8.27841 18.72 8.16853 18.5556C8.05865 18.3911 8 18.1978 8 18C8 17.7348 8.10536 17.4804 8.29289 17.2929C8.48043 17.1054 8.73478 17 9 17ZM7 11V13H1V11H7ZM15 3.41L17.59 6L15 8.59L12.41 6L15 3.41ZM15 17C14.8022 17 14.6089 16.9414 14.4444 16.8315C14.28 16.7216 14.1518 16.5654 14.0761 16.3827C14.0004 16.2 13.9806 15.9989 14.0192 15.8049C14.0578 15.6109 14.153 15.4327 14.2929 15.2929C14.4327 15.153 14.6109 15.0578 14.8049 15.0192C14.9989 14.9806 15.2 15.0004 15.3827 15.0761C15.5654 15.1518 15.7216 15.28 15.8315 15.4444C15.9414 15.6089 16 15.8022 16 16C16 16.2652 15.8946 16.5196 15.7071 16.7071C15.5196 16.8946 15.2652 17 15 17Z" fill="url(#paint0_linear_695_2931)"/>
<defs>
<linearGradient id="paint0_linear_695_2931" x1="0.863637" y1="10" x2="19" y2="10" gradientUnits="userSpaceOnUse">
<stop stop-color="#FC321C"/>
<stop offset="1" stop-color="#B3308D"/>
</linearGradient>
</defs>
</svg>
