<svg width="330" height="440" viewBox="0 0 330 440" fill="none" xmlns="http://www.w3.org/2000/svg">
<g clip-path="url(#clip0_896_18204)">
<path d="M381.417 269.553L269.553 381.417C268.565 382.405 266.962 382.405 265.974 381.417L223.458 338.901C222.47 337.912 222.47 336.31 223.458 335.322L335.322 223.458C336.31 222.47 337.912 222.47 338.901 223.458L381.417 265.974C382.405 266.962 382.405 268.565 381.417 269.553ZM267.763 376.049L376.049 267.764L337.111 228.826L228.826 337.111L267.763 376.049Z" fill="#FFB6AE"/>
<path d="M318.056 247.879C317.068 248.867 315.465 248.867 314.477 247.879L272.364 205.766C271.536 204.938 271.384 203.65 271.997 202.652C272.032 202.593 276.103 195.682 275.353 184.107C274.654 173.314 269.51 156.138 248.974 135.602C223.219 109.847 206.837 119.285 194.207 131.914L163.061 163.061C157.533 168.588 154.578 174.789 154.515 180.994C154.461 186.357 156.559 191.438 160.423 195.302C167.244 202.122 179.406 204.641 189.993 194.055L221.013 163.035C222.001 162.047 223.603 162.047 224.591 163.035C225.58 164.023 225.58 165.625 224.591 166.613L193.571 197.633C181.106 210.099 165.66 207.696 156.845 198.88C152.011 194.046 149.386 187.677 149.454 180.943C149.532 173.386 152.998 165.966 159.482 159.483L190.628 128.336C200.064 118.9 208.783 114.399 218.065 114.172C228.991 113.904 240.272 119.744 252.552 132.023C274.391 153.863 279.765 172.45 280.429 184.197C280.967 193.739 278.615 200.448 277.238 203.485L318.054 244.301C319.044 245.289 319.043 246.891 318.056 247.879Z" fill="#FFB6AE"/>
<path d="M247.881 318.054C246.893 319.043 245.291 319.043 244.303 318.054L203.491 277.243C198.351 279.593 182.732 284.737 160.641 273.872C159.386 273.256 158.87 271.739 159.487 270.485C160.103 269.23 161.62 268.714 162.873 269.331C187.095 281.243 202.502 272.09 202.654 271.996C203.653 271.383 204.94 271.535 205.768 272.363L247.882 314.477C248.87 315.464 248.869 317.067 247.881 318.054Z" fill="#FFB6AE"/>
<path d="M224.586 233.734C223.598 234.723 221.996 234.723 221.008 233.734C208.988 221.715 202.72 209.451 202.377 197.283C202.101 187.492 205.829 178.221 212.874 171.177C213.862 170.188 215.464 170.188 216.452 171.177C217.441 172.165 217.441 173.767 216.452 174.755C205.027 186.18 201.164 206.734 224.587 230.156C225.574 231.144 225.574 232.747 224.586 233.734Z" fill="#FFB6AE"/>
<path d="M140.75 232.913C132.93 240.733 119.607 240.135 111.051 231.579L93.0311 213.56C84.4752 205.004 83.8771 191.68 91.6972 183.86C99.5173 176.04 112.842 176.638 121.397 185.194L139.417 203.213C147.973 211.77 148.571 225.093 140.75 232.913ZM95.2758 187.439C89.4288 193.286 90.0273 203.399 96.6097 209.981L114.629 228.001C121.212 234.584 131.325 235.182 137.172 229.335C143.019 223.487 142.421 213.375 135.838 206.792L117.819 188.772C111.236 182.19 101.124 181.591 95.2758 187.439Z" fill="#FFB6AE"/>
<path d="M165.539 208.124C157.718 215.945 144.394 215.348 135.838 206.792L108.634 179.587C100.078 171.031 99.4803 157.707 107.301 149.886C115.121 142.066 128.446 142.664 137.001 151.22L155.759 169.977C156.747 170.965 156.747 172.567 155.759 173.555C154.77 174.544 153.168 174.544 152.18 173.555L133.423 154.798C126.84 148.215 116.727 147.617 110.88 153.465C105.032 159.313 105.63 169.426 112.212 176.009L139.417 203.213C146 209.796 156.113 210.394 161.961 204.546C162.957 203.55 163.786 202.408 164.425 201.151C165.061 199.905 166.583 199.41 167.828 200.043C169.074 200.677 169.569 202.2 168.936 203.446C168.055 205.177 166.912 206.751 165.539 208.124Z" fill="#FFB6AE"/>
<path d="M155.76 173.557C154.772 174.546 153.169 174.546 152.181 173.557L126.051 147.427C117.495 138.871 116.896 125.548 124.716 117.729C132.537 109.908 145.861 110.505 154.417 119.061L178.952 143.597C179.94 144.585 179.94 146.187 178.952 147.175C177.964 148.163 176.361 148.163 175.373 147.175L150.838 122.64C144.255 116.057 134.142 115.46 128.294 121.307C122.448 127.154 123.047 137.266 129.629 143.848L155.76 169.979C156.748 170.967 156.748 172.569 155.76 173.557Z" fill="#FFB6AE"/>
<path d="M204.715 123.358C203.727 124.346 202.124 124.346 201.136 123.358L179.696 101.918C173.113 95.3355 163.001 94.7375 157.153 100.585C151.305 106.433 151.902 116.547 158.485 123.13L178.951 143.595C179.939 144.583 179.939 146.186 178.951 147.174C177.962 148.162 176.36 148.162 175.372 147.174L154.906 126.708C146.351 118.152 145.753 104.828 153.575 97.0063C161.395 89.1857 174.719 89.7838 183.275 98.3398L204.715 119.78C205.703 120.768 205.703 122.37 204.715 123.358Z" fill="#FFB6AE"/>
<path d="M298.632 121.264C298.508 121.388 298.369 121.501 298.219 121.598C298.053 121.706 281.407 132.502 261.452 146.127C260.298 146.915 258.724 146.618 257.936 145.464C257.148 144.309 257.443 142.736 258.599 141.947C274.01 131.424 287.454 122.584 292.895 119.027C285.548 111.096 283.496 104.894 290.996 96.3533L250.785 57.8874C242.493 65.3962 235.855 65.614 227.68 58.5494C223.316 66.7824 210.344 91.0006 196.538 114.292C195.826 115.495 194.274 115.891 193.071 115.178C191.868 114.466 191.472 112.914 192.184 111.712C209.005 83.3334 224.589 53.5658 224.745 53.267C225.119 52.5557 225.808 52.0605 226.604 51.9389C227.401 51.8172 228.207 52.0807 228.777 52.6506C236.789 60.6622 240.947 60.6519 249 52.5987C249.972 51.6262 251.544 51.6083 252.538 52.5593L296.308 94.4284C296.8 94.8995 297.081 95.5485 297.089 96.2294C297.097 96.9102 296.83 97.5651 296.349 98.0464C288.811 105.584 290.142 109.192 298.634 117.684C299.174 118.224 299.442 118.98 299.361 119.739C299.299 120.322 299.037 120.859 298.632 121.264Z" fill="#FFB6AE"/>
<path d="M230.318 120.224C229.489 121.053 228.163 121.218 227.143 120.548C225.974 119.783 225.648 118.214 226.414 117.045L244.105 90.0507C244.869 88.8756 246.439 88.5557 247.608 89.3215C248.778 90.0874 249.104 91.6561 248.337 92.825L230.646 119.82C230.549 119.968 230.439 120.103 230.318 120.224Z" fill="#FFB6AE"/>
<path d="M268.058 113.271C267.919 113.41 267.764 113.533 267.589 113.641L243.549 128.38C242.358 129.109 240.799 128.736 240.07 127.545C239.34 126.353 239.712 124.798 240.904 124.065L264.944 109.326C266.136 108.596 267.695 108.969 268.424 110.161C269.048 111.178 268.866 112.463 268.058 113.271Z" fill="#FFB6AE"/>
<path d="M345.174 119.722C344.932 119.964 344.64 120.158 344.312 120.287C343.924 120.44 305.133 135.76 266.791 153.953C265.529 154.553 264.02 154.015 263.42 152.753C262.821 151.489 263.36 149.981 264.621 149.382C296.122 134.433 327.919 121.421 338.654 117.099L223.992 14.6041C220.33 27.9371 207.74 72.3246 192.549 109.799C192.024 111.096 190.548 111.72 189.254 111.194C187.959 110.669 187.334 109.193 187.859 107.898C205.753 63.753 220.033 9.87949 220.176 9.34046C220.4 8.4892 221.052 7.81553 221.895 7.56235C222.738 7.30916 223.653 7.51225 224.31 8.09914L345.072 116.047C345.726 116.633 346.031 117.515 345.876 118.379C345.783 118.896 345.534 119.362 345.174 119.722Z" fill="#FFB6AE"/>
<path d="M135.37 312.736C135.01 313.097 134.544 313.345 134.03 313.437C133.214 313.585 132.378 313.322 131.792 312.736C126.724 307.669 123.678 305.68 121.276 305.87C119.217 306.032 116.862 307.977 114.078 311.813C113.633 312.422 112.949 312.801 112.201 312.852C111.452 312.903 110.719 312.619 110.2 312.076L68.1798 268.154C67.3339 267.27 67.2422 265.908 67.9606 264.919C74.8382 255.44 74.4969 250.621 66.3731 242.497C65.851 241.975 65.5831 241.25 65.6395 240.514C65.6958 239.777 66.0725 239.101 66.667 238.666C66.8074 238.563 80.9536 228.191 98.1653 214.687C99.2648 213.824 100.856 214.016 101.718 215.115C102.58 216.215 102.389 217.815 101.289 218.668C88.0875 229.026 76.6785 237.551 71.9642 241.045C79.4425 249.447 79.7762 256.421 73.269 266.152L111.835 306.463C114.903 302.835 117.764 301.069 120.876 300.823C124.846 300.509 128.51 302.749 132.768 306.653C140.5 289.884 175.271 215.213 191.762 192.333C192.583 191.2 194.161 190.943 195.294 191.76C196.428 192.577 196.684 194.159 195.867 195.292C177.935 220.173 136.3 311.084 135.881 311.998C135.754 312.277 135.581 312.526 135.37 312.736Z" fill="#FFB6AE"/>
<path d="M137.651 363.101C137.329 363.422 136.921 363.658 136.464 363.769C135.555 363.991 134.599 363.696 133.976 362.999L25.0089 241.218C24.4592 240.604 24.2431 239.761 24.4305 238.958C24.6157 238.155 25.1825 237.494 25.9452 237.184C26.2659 237.055 58.4567 223.979 91.4196 206.879C92.6605 206.235 94.1876 206.719 94.8309 207.959C95.4746 209.2 94.9874 210.729 93.7501 211.371C66.7492 225.379 40.2658 236.701 31.1619 240.504L134.595 356.102C140.902 331.942 170.129 222.96 191.856 192.448C192.658 191.315 194.246 191.043 195.384 191.854C196.522 192.665 196.788 194.245 195.978 195.383C172.561 228.271 138.653 360.603 138.314 361.936C138.199 362.386 137.967 362.785 137.651 363.101Z" fill="#FFB6AE"/>
<path d="M139.862 256.816C139.033 257.646 137.706 257.81 136.686 257.141C135.518 256.374 135.191 254.806 135.958 253.637C144.557 240.526 169.038 202.525 169.285 202.142C170.042 200.967 171.607 200.629 172.782 201.385C173.957 202.142 174.296 203.708 173.539 204.882C173.293 205.264 148.799 243.284 140.19 256.411C140.093 256.561 139.983 256.695 139.862 256.816Z" fill="#FFB6AE"/>
</g>
<defs>
<clipPath id="clip0_896_18204">
<rect width="440" height="440" fill="white"/>
</clipPath>
</defs>
</svg>
