<svg width="69" height="69" viewBox="0 0 69 69" fill="none" xmlns="http://www.w3.org/2000/svg">
<circle cx="34.5" cy="34.5" r="34.5" fill="#FF260F"/>
<path fill-rule="evenodd" clip-rule="evenodd" d="M29.6693 25.0705C33.2644 24.7996 36.8756 24.8175 40.4679 25.1239L42.6333 25.3079C43.4276 25.3758 44.1761 25.7088 44.7584 26.2534C45.3407 26.798 45.723 27.5225 45.8439 28.3105L45.9799 29.2025C46.4435 32.2264 46.4002 35.3063 45.8519 38.3159C45.7208 39.0354 45.3414 39.6862 44.7798 40.1547C44.2182 40.6232 43.51 40.8799 42.7786 40.8799H30.8106C30.5346 40.8799 30.2639 40.9479 30.0213 41.0785L24.8066 43.8812C24.6542 43.9631 24.4832 44.004 24.3102 44.0001C24.1373 43.9961 23.9684 43.9473 23.8199 43.8585C23.6714 43.7697 23.5486 43.6439 23.4633 43.4934C23.378 43.3429 23.3332 43.1729 23.3333 42.9999V31.6439C23.3336 29.9864 23.9601 28.3902 25.0873 27.175C26.2145 25.9598 27.7591 25.2153 29.4119 25.0905L29.6693 25.0705ZM29.6666 31.6665C29.2246 31.6665 28.8006 31.8421 28.4881 32.1547C28.1755 32.4673 27.9999 32.8912 27.9999 33.3332C27.9999 33.7752 28.1755 34.1992 28.4881 34.5117C28.8006 34.8243 29.2246 34.9999 29.6666 34.9999C30.1086 34.9999 30.5325 34.8243 30.8451 34.5117C31.1577 34.1992 31.3333 33.7752 31.3333 33.3332C31.3333 32.8912 31.1577 32.4673 30.8451 32.1547C30.5325 31.8421 30.1086 31.6665 29.6666 31.6665ZM34.9999 31.6665C34.5579 31.6665 34.134 31.8421 33.8214 32.1547C33.5088 32.4673 33.3333 32.8912 33.3333 33.3332C33.3333 33.7752 33.5088 34.1992 33.8214 34.5117C34.134 34.8243 34.5579 34.9999 34.9999 34.9999C35.4419 34.9999 35.8659 34.8243 36.1784 34.5117C36.491 34.1992 36.6666 33.7752 36.6666 33.3332C36.6666 32.8912 36.491 32.4673 36.1784 32.1547C35.8659 31.8421 35.4419 31.6665 34.9999 31.6665ZM38.6666 33.3332C38.6666 32.8912 38.8422 32.4673 39.1547 32.1547C39.4673 31.8421 39.8912 31.6665 40.3333 31.6665C40.7753 31.6665 41.1992 31.8421 41.5118 32.1547C41.8243 32.4673 41.9999 32.8912 41.9999 33.3332C41.9999 33.7752 41.8243 34.1992 41.5118 34.5117C41.1992 34.8243 40.7753 34.9999 40.3333 34.9999C39.8912 34.9999 39.4673 34.8243 39.1547 34.5117C38.8422 34.1992 38.6666 33.7752 38.6666 33.3332Z" fill="white"/>
</svg>
