<?xml version="1.0" standalone="no"?>
<!DOCTYPE svg PUBLIC "-//W3C//DTD SVG 20010904//EN"
 "http://www.w3.org/TR/2001/REC-SVG-20010904/DTD/svg10.dtd">
<svg version="1.0" xmlns="http://www.w3.org/2000/svg"
 width="225.000000pt" height="225.000000pt" viewBox="0 0 225.000000 225.000000"
 preserveAspectRatio="xMidYMid meet">

<g transform="translate(0.000000,225.000000) scale(0.100000,-0.100000)"
fill="#000000" stroke="none">
<path d="M422 1903 c-80 -39 -114 -141 -74 -219 11 -21 138 -156 281 -299
l261 -260 -264 -265 c-145 -146 -272 -280 -281 -299 -22 -43 -16 -122 12 -159
49 -66 137 -91 204 -57 19 9 153 136 299 281 l265 264 260 -261 c143 -143 278
-270 299 -281 97 -50 219 12 233 119 11 83 -1 99 -288 388 l-269 270 261 260
c143 143 270 278 281 299 26 50 21 120 -11 165 -27 38 -88 71 -131 71 -67 0
-102 -28 -370 -295 l-265 -265 -260 261 c-166 167 -274 268 -300 280 -49 23
-99 24 -143 2z"/>
</g>
</svg>
