<svg width="20" height="23" viewBox="0 0 20 23" fill="none" xmlns="http://www.w3.org/2000/svg">
<path d="M5 8.50002H1C0.716667 8.50002 0.479333 8.40402 0.288 8.21202C0.0966668 8.02002 0.000666667 7.78269 0 7.50002C0 7.21669 0.0960001 6.97936 0.288 6.78802C0.48 6.59669 0.717333 6.50069 1 6.50002H5V4.35002L4.125 5.22502C3.925 5.42502 3.68767 5.52102 3.413 5.51302C3.13833 5.50502 2.90067 5.40069 2.7 5.20002C2.51667 5.00002 2.42067 4.76669 2.412 4.50002C2.40333 4.23336 2.49933 4.00002 2.7 3.80002L5.3 1.20002C5.5 1.00002 5.73333 0.900024 6 0.900024C6.26667 0.900024 6.5 1.00002 6.7 1.20002L9.3 3.80002C9.5 4.00002 9.59567 4.23336 9.587 4.50002C9.57833 4.76669 9.48267 5.00002 9.3 5.20002C9.1 5.40002 8.86267 5.50436 8.588 5.51302C8.31333 5.52169 8.07567 5.42569 7.875 5.22502L7 4.35002V14.5H19C19.2833 14.5 19.521 14.596 19.713 14.788C19.905 14.98 20.0007 15.2174 20 15.5C20 15.7834 19.904 16.021 19.712 16.213C19.52 16.405 19.2827 16.5007 19 16.5H15V18.65L15.875 17.775C16.075 17.575 16.3127 17.479 16.588 17.487C16.8633 17.495 17.1007 17.5994 17.3 17.8C17.4833 18 17.5793 18.2334 17.588 18.5C17.5967 18.7667 17.5007 19 17.3 19.2L14.7 21.8C14.5 22 14.2667 22.1 14 22.1C13.7333 22.1 13.5 22 13.3 21.8L10.7 19.2C10.5 19 10.4043 18.7667 10.413 18.5C10.4217 18.2334 10.5173 18 10.7 17.8C10.9 17.6 11.1377 17.496 11.413 17.488C11.6883 17.48 11.9257 17.5757 12.125 17.775L13 18.65V16.5H7C6.45 16.5 5.97933 16.3044 5.588 15.913C5.19667 15.5217 5.00067 15.0507 5 14.5V8.50002ZM13 12.5V8.50002H9V6.50002H13C13.55 6.50002 14.021 6.69602 14.413 7.08802C14.805 7.48002 15.0007 7.95069 15 8.50002V12.5H13Z" fill="white"/>
</svg>
