<svg width="238" height="476" viewBox="0 0 238 476" fill="none" xmlns="http://www.w3.org/2000/svg">
<g clip-path="url(#clip0_896_18221)">
<path d="M47.9431 235.52C34.9451 225.395 17.9169 219.82 -0.00279236 219.82C-18.0183 219.82 -33.8211 209.391 -33.8211 197.501C-33.8211 185.611 -18.0183 175.182 -0.00279236 175.182C18.0146 175.182 33.8202 185.611 33.8202 197.501C33.8202 207.527 41.9763 215.684 52.003 215.684C62.0297 215.684 70.1858 207.528 70.1858 197.501C70.1858 181.191 62.0789 165.523 47.9431 154.516C39.534 147.969 29.2982 143.259 18.1828 140.799V123.422C18.1828 113.395 10.0267 105.238 0 105.238C-10.0267 105.238 -18.1828 113.395 -18.1828 123.422V140.798C-29.301 143.258 -39.5378 147.969 -47.9449 154.518C-62.0799 165.525 -70.1858 181.191 -70.1858 197.502C-70.1858 213.809 -62.0799 229.475 -47.9458 240.485C-34.947 250.609 -17.9197 256.185 -0.00279236 256.185C18.0146 256.185 33.8202 266.615 33.8202 278.506C33.8202 290.395 18.0155 300.825 -0.00279236 300.825C-18.0183 300.825 -33.8211 290.395 -33.8211 278.506C-33.8211 268.48 -41.9782 260.323 -52.003 260.323C-62.0297 260.323 -70.1858 268.479 -70.1858 278.506C-70.1858 294.814 -62.0799 310.481 -47.9458 321.49C-39.5378 328.037 -29.301 332.748 -18.1828 335.209V352.582C-18.1828 362.608 -10.0267 370.765 0 370.765C10.0267 370.765 18.1828 362.609 18.1828 352.582V335.208C29.3 332.748 39.5359 328.038 47.944 321.491C62.0789 310.482 70.1858 294.814 70.1858 278.506C70.1858 262.196 62.078 246.529 47.9431 235.52ZM10.7453 332.163V352.58C10.7453 358.505 5.9249 363.326 0 363.326C-5.9249 363.326 -10.7453 358.505 -10.7453 352.58V332.163C-10.7453 330.365 -12.0311 328.826 -13.7993 328.504C-24.9184 326.484 -35.1459 322.029 -43.3755 315.62C-55.6874 306.031 -62.7483 292.502 -62.7483 278.504C-62.7483 272.579 -57.9288 267.758 -52.003 267.758C-46.0781 267.758 -41.2586 272.579 -41.2586 278.504C-41.2586 294.634 -22.3655 308.26 -0.00279236 308.26C22.3627 308.26 41.2577 294.634 41.2577 278.504C41.2577 262.373 22.3627 248.745 -0.00279236 248.745C-16.2723 248.745 -31.6763 243.728 -43.3755 234.615C-55.6874 225.024 -62.7483 211.497 -62.7483 197.5C-62.7483 183.5 -55.6874 169.972 -43.3755 160.384C-35.1459 153.975 -24.9193 149.52 -13.7993 147.5C-12.0311 147.178 -10.7453 145.638 -10.7453 143.84V123.42C-10.7453 117.494 -5.9249 112.674 0 112.674C5.9249 112.674 10.7453 117.494 10.7453 123.42V143.841C10.7453 145.638 12.0311 147.179 13.7993 147.501C24.9165 149.521 35.1431 153.975 43.3736 160.383C55.6864 169.972 62.7483 183.501 62.7483 197.5C62.7483 203.425 57.9279 208.245 52.003 208.245C46.0781 208.245 41.2577 203.425 41.2577 197.5C41.2577 181.37 22.3627 167.744 -0.00279236 167.744C-22.3655 167.744 -41.2586 181.37 -41.2586 197.5C-41.2586 213.63 -22.3655 227.257 -0.00279236 227.257C16.2695 227.257 31.6745 232.274 43.3727 241.387C55.6855 250.978 62.7474 264.506 62.7474 278.504C62.7474 292.503 55.6855 306.031 43.3727 315.621C35.1431 322.029 24.9166 326.484 13.7984 328.503C12.0302 328.825 10.7453 330.365 10.7453 332.163ZM198.205 316.598C195.652 316.683 193.062 316.56 190.578 316.225C183.44 315.26 176.823 312.685 170.908 308.573C169.992 307.935 168.839 307.743 167.77 308.049C166.698 308.354 165.818 309.123 165.374 310.146C153.668 337.113 135.356 360.946 112.287 379.285L102.248 366.104C101.443 365.048 100.136 364.504 98.8174 364.669C97.5 364.838 96.3714 365.696 95.8592 366.923L68.3599 432.647C67.8467 433.872 68.0271 435.279 68.8322 436.336C69.5406 437.266 70.6386 437.801 71.7905 437.801C71.9467 437.801 72.1047 437.791 72.2628 437.771L142.932 428.723C144.25 428.553 145.378 427.695 145.89 426.469C146.403 425.243 146.223 423.837 145.418 422.78L135.336 409.545C164.628 386.434 187.558 356.145 201.769 321.734C202.252 320.566 202.108 319.233 201.387 318.195C200.667 317.156 199.468 316.562 198.205 316.598ZM127.891 405.906C127.106 406.504 126.591 407.389 126.459 408.366C126.327 409.343 126.588 410.333 127.186 411.118L135.6 422.162L77.7089 429.574L100.235 375.733L108.647 386.778C109.891 388.411 112.224 388.727 113.859 387.483C138.166 368.969 157.652 344.692 170.422 317.066C176.321 320.478 182.747 322.669 189.581 323.594C190.622 323.735 191.676 323.845 192.739 323.922C178.422 356.169 156.087 384.43 127.891 405.906ZM199.345 206.104C178.031 206.104 160.691 223.444 160.691 244.758C160.691 266.072 178.031 283.412 199.345 283.412C220.659 283.412 238 266.072 238 244.758C238 223.445 220.659 206.104 199.345 206.104ZM199.345 275.976C182.132 275.976 168.128 261.972 168.128 244.759C168.128 227.546 182.132 213.543 199.345 213.543C216.559 213.543 230.562 227.547 230.562 244.759C230.562 261.972 216.559 275.976 199.345 275.976ZM-206.942 168.118C-207.344 169.317 -207.111 170.637 -206.322 171.624C-205.533 172.612 -204.294 173.129 -203.039 173.002C-199.486 172.639 -195.891 172.695 -192.392 173.168C-186.291 173.994 -180.532 176.01 -175.276 179.161C-174.691 179.511 -174.029 179.69 -173.363 179.69C-172.94 179.69 -172.516 179.618 -172.107 179.472C-171.059 179.095 -170.233 178.269 -169.859 177.218C-158.551 145.446 -138.683 117.685 -112.29 96.7145L-102.25 109.895C-101.445 110.952 -100.138 111.495 -98.8193 111.33C-97.5019 111.161 -96.3733 110.303 -95.861 109.077L-68.3618 43.3523C-67.8486 42.127 -68.0299 40.7204 -68.8341 39.6633C-69.6392 38.6063 -70.9454 38.0605 -72.2646 38.2279L-142.934 47.2747C-144.251 47.4439 -145.38 48.302 -145.893 49.5282C-146.405 50.7535 -146.225 52.1602 -145.421 53.2172L-135.338 66.4532C-168.688 92.7531 -193.408 127.828 -206.942 168.118ZM-127.892 70.0929C-127.107 69.4951 -126.592 68.6101 -126.46 67.633C-126.327 66.6559 -126.589 65.6657 -127.186 64.8811L-135.6 53.8355L-77.7079 46.424L-100.234 100.265L-108.647 89.2203C-109.891 87.5868 -112.224 87.2707 -113.859 88.5156C-141.715 109.733 -162.912 138.062 -175.363 170.655C-180.397 168.19 -185.77 166.56 -191.393 165.8C-193.6 165.501 -195.848 165.343 -198.084 165.33C-184.271 127.458 -160.087 94.6153 -127.892 70.0929ZM-160.692 244.759C-160.692 223.445 -178.032 206.105 -199.346 206.105C-220.66 206.105 -238 223.445 -238 244.759C-238 266.073 -220.659 283.413 -199.345 283.413C-178.031 283.413 -160.692 266.073 -160.692 244.759ZM-199.345 213.542C-182.132 213.542 -168.128 227.546 -168.128 244.758C-168.128 261.971 -182.132 275.975 -199.345 275.975C-216.559 275.975 -230.562 261.972 -230.562 244.759C-230.562 227.546 -216.559 213.542 -199.345 213.542ZM-68.1786 405.046C-96.8149 393.42 -122.018 374.528 -141.284 350.29L-128.104 340.251C-127.046 339.446 -126.5 338.139 -126.668 336.82C-126.837 335.503 -127.695 334.374 -128.922 333.862L-194.646 306.363C-195.87 305.85 -197.277 306.03 -198.335 306.835C-199.392 307.64 -199.939 308.947 -199.77 310.266L-190.723 380.933C-190.553 382.25 -189.695 383.378 -188.469 383.891C-187.244 384.405 -185.838 384.225 -184.781 383.419L-171.544 373.339C-146.436 405.172 -113.149 429.265 -75.063 443.13C-74.6502 443.281 -74.2207 443.354 -73.7912 443.354C-73.1208 443.354 -72.4552 443.173 -71.8676 442.818C-70.9045 442.236 -70.2565 441.248 -70.1059 440.134L-65.8925 408.991C-65.6657 407.307 -66.6065 405.685 -68.1786 405.046ZM-167.906 365.892C-168.638 364.931 -169.746 364.426 -170.867 364.426C-171.653 364.426 -172.445 364.675 -173.117 365.187L-184.163 373.599L-191.574 315.709L-137.733 338.236L-148.779 346.649C-149.563 347.247 -150.079 348.132 -150.211 349.109C-150.343 350.086 -150.081 351.076 -149.484 351.861C-129.725 377.801 -103.549 398.143 -73.6452 410.829L-76.8489 434.509C-112.942 420.468 -144.351 396.818 -167.906 365.892ZM32.0984 400.529H-32.0984C-34.1511 400.529 -35.8171 402.194 -35.8171 404.248V468.445C-35.8171 470.499 -34.1511 472.164 -32.0984 472.164H32.0984C34.1512 472.164 35.8171 470.499 35.8171 468.445V404.248C35.8171 402.194 34.1512 400.529 32.0984 400.529ZM28.3796 464.727H-28.3796V407.966H28.3796V464.727ZM126.668 139.182C126.837 140.499 127.695 141.628 128.922 142.14L194.646 169.639C195.108 169.833 195.595 169.927 196.08 169.927C196.882 169.927 197.676 169.669 198.334 169.167C199.391 168.362 199.939 167.055 199.769 165.736L190.723 95.0671C190.553 93.7497 189.695 92.622 188.469 92.1088C187.245 91.5966 185.838 91.776 184.781 92.5811L171.543 102.662C146.436 70.8292 113.149 46.7364 75.062 32.871C74.0041 32.4852 72.8299 32.5995 71.8667 33.1825C70.9026 33.7644 70.2556 34.7518 70.1049 35.8665L65.8916 67.0082C65.6638 68.6909 66.6047 70.3132 68.1768 70.9519C96.8139 82.5795 122.017 101.471 141.283 125.711L128.103 135.749C127.046 136.556 126.499 137.864 126.668 139.182ZM148.779 129.352C149.563 128.754 150.079 127.869 150.211 126.892C150.343 125.915 150.08 124.925 149.484 124.14C129.725 98.2001 103.548 77.8567 73.6452 65.1702L76.8489 41.4911C112.942 55.5331 144.351 79.1834 167.905 110.109C169.149 111.742 171.484 112.058 173.116 110.813L184.163 102.4L191.574 160.292L137.733 137.765L148.779 129.352ZM-32.0984 3.83594C-34.1511 3.83594 -35.8171 5.50101 -35.8171 7.55469V71.7524C-35.8171 73.8061 -34.1511 75.4712 -32.0984 75.4712H32.0984C34.1512 75.4712 35.8171 73.8061 35.8171 71.7524V7.55469C35.8171 5.50101 34.1512 3.83594 32.0984 3.83594H-32.0984ZM28.3796 68.0337H-28.3796V11.2734H28.3796V68.0337Z" fill="#FFC6BF"/>
</g>
<defs>
<clipPath id="clip0_896_18221">
<rect width="476" height="476" fill="white" transform="translate(-238)"/>
</clipPath>
</defs>
</svg>
