<svg width="8" height="4" viewBox="0 0 8 4" fill="none" xmlns="http://www.w3.org/2000/svg">
<path fill-rule="evenodd" clip-rule="evenodd" d="M4.35318 3.85318C4.25942 3.94692 4.13227 3.99958 3.99968 3.99958C3.8671 3.99958 3.73995 3.94692 3.64618 3.85318L0.817683 1.02468C0.769928 0.97856 0.731837 0.923388 0.705632 0.862386C0.679428 0.801384 0.665635 0.735774 0.665058 0.669384C0.664481 0.602994 0.677132 0.537155 0.702272 0.475706C0.727413 0.414258 0.764539 0.358432 0.811486 0.311486C0.858432 0.264539 0.914258 0.227413 0.975706 0.202272C1.03715 0.177132 1.10299 0.164481 1.16938 0.165058C1.23577 0.165635 1.30138 0.179428 1.36239 0.205632C1.42339 0.231837 1.47856 0.269928 1.52468 0.317683L3.99968 2.79268L6.47468 0.317683C6.56899 0.226604 6.69529 0.176207 6.82638 0.177346C6.95748 0.178485 7.08289 0.23107 7.17559 0.323774C7.2683 0.416478 7.32088 0.541884 7.32202 0.672983C7.32316 0.804081 7.27276 0.930382 7.18168 1.02468L4.35318 3.85318Z" fill="white"/>
</svg>
