<svg width="8" height="4" viewBox="0 0 8 4" fill="none" xmlns="http://www.w3.org/2000/svg">
<path fill-rule="evenodd" clip-rule="evenodd" d="M4.35349 3.85355C4.25972 3.94729 4.13257 3.99994 3.99999 3.99994C3.86741 3.99994 3.74025 3.94729 3.64649 3.85355L0.817988 1.02505C0.770233 0.978926 0.732142 0.923754 0.705938 0.862752C0.679733 0.80175 0.66594 0.73614 0.665363 0.66975C0.664786 0.60336 0.677437 0.537521 0.702578 0.476073C0.727718 0.414624 0.764845 0.358798 0.811791 0.311852C0.858737 0.264905 0.914563 0.227779 0.976011 0.202638C1.03746 0.177498 1.1033 0.164847 1.16969 0.165424C1.23608 0.166001 1.30169 0.179794 1.36269 0.205999C1.42369 0.232203 1.47887 0.270294 1.52499 0.318049L3.99999 2.79305L6.47499 0.318049C6.56929 0.22697 6.69559 0.176573 6.82669 0.177712C6.95779 0.178851 7.08319 0.231436 7.1759 0.32414C7.2686 0.416844 7.32119 0.54225 7.32233 0.673349C7.32347 0.804447 7.27307 0.930749 7.18199 1.02505L4.35349 3.85355Z" fill="#0A0A0A"/>
</svg>
