<svg width="24" height="24" viewBox="0 0 24 24" fill="none" xmlns="http://www.w3.org/2000/svg">
<path d="M7 8C8.06087 8 9.07828 8.42143 9.82843 9.17157C10.5786 9.92172 11 10.9391 11 12C11 13.0609 10.5786 14.0783 9.82843 14.8284C9.07828 15.5786 8.06087 16 7 16C5.93913 16 4.92172 15.5786 4.17157 14.8284C3.42143 14.0783 3 13.0609 3 12C3 10.9391 3.42143 9.92172 4.17157 9.17157C4.92172 8.42143 5.93913 8 7 8ZM14.76 8.36C16.78 10.56 16.78 13.61 14.76 15.63L13.08 13.94C13.92 12.76 13.92 11.23 13.08 10.05L14.76 8.36ZM18.07 5C22 9.05 21.97 15.11 18.07 19L16.44 17.37C19.21 14.19 19.21 9.65 16.44 6.63L18.07 5Z" fill="white"/>
</svg>
