<svg width="18" height="14" viewBox="0 0 18 14" fill="none" xmlns="http://www.w3.org/2000/svg">
<path d="M4 3C5.06087 3 6.07828 3.42143 6.82843 4.17157C7.57857 4.92172 8 5.93913 8 7C8 8.06087 7.57857 9.07828 6.82843 9.82843C6.07828 10.5786 5.06087 11 4 11C2.93913 11 1.92172 10.5786 1.17157 9.82843C0.421427 9.07828 0 8.06087 0 7C0 5.93913 0.421427 4.92172 1.17157 4.17157C1.92172 3.42143 2.93913 3 4 3ZM11.76 3.36C13.78 5.56 13.78 8.61 11.76 10.63L10.08 8.94C10.92 7.76 10.92 6.23 10.08 5.05L11.76 3.36ZM15.07 0C19 4.05 18.97 10.11 15.07 14L13.44 12.37C16.21 9.19 16.21 4.65 13.44 1.63L15.07 0Z" fill="#0A0A0A"/>
</svg>
