<svg width="17" height="18" viewBox="0 0 17 18" fill="none" xmlns="http://www.w3.org/2000/svg">
<path d="M5.92211 1.05953C4.22355 1.64877 2.75871 2.76719 1.74275 4.25048C0.726801 5.73378 0.213286 7.50378 0.277635 9.3005C0.341984 11.0972 0.980805 12.8259 2.10027 14.2328C3.21973 15.6396 4.76082 16.6503 6.49719 17.1166C7.9049 17.4798 9.37976 17.4957 10.795 17.163C12.0771 16.8751 13.2624 16.2591 14.2348 15.3754C15.247 14.4276 15.9816 13.2218 16.3598 11.8877C16.7708 10.437 16.8439 8.91132 16.5737 7.42789H8.66867V10.707H13.2467C13.1552 11.23 12.9592 11.7292 12.6702 12.1746C12.3813 12.6201 12.0055 13.0027 11.5653 13.2995C11.0064 13.6695 10.3761 13.9183 9.71523 14.03C9.05243 14.1533 8.37257 14.1533 7.70977 14.03C7.03794 13.8913 6.40241 13.614 5.84375 13.2159C4.94614 12.5805 4.27215 11.6778 3.91797 10.6366C3.5579 9.57597 3.5579 8.42613 3.91797 7.36546C4.17008 6.622 4.58686 5.94508 5.13719 5.38523C5.76697 4.73278 6.5643 4.26641 7.44169 4.03728C8.31908 3.80816 9.24263 3.82512 10.111 4.08632C10.7894 4.29447 11.4098 4.65832 11.9226 5.14882C12.4388 4.63528 12.9541 4.12041 13.4685 3.60421C13.7341 3.32664 14.0237 3.06234 14.2853 2.77812C13.5024 2.04967 12.5835 1.48281 11.5813 1.11C9.75601 0.447248 7.75888 0.429437 5.92211 1.05953Z" fill="white"/>
<path d="M5.92211 1.05822C7.75872 0.427701 9.75586 0.445043 11.5812 1.10736C12.5837 1.4827 13.5022 2.05229 14.284 2.78345C14.0184 3.06767 13.7381 3.3333 13.4672 3.60955C12.9519 4.12397 12.437 4.63663 11.9226 5.14752C11.4098 4.65701 10.7894 4.29316 10.111 4.08502C9.24292 3.8229 8.3194 3.80495 7.44178 4.03314C6.56415 4.26133 5.76634 4.72685 5.13586 5.37861C4.58553 5.93846 4.16875 6.61538 3.91664 7.35884L1.16344 5.2272C2.14892 3.27295 3.85521 1.7781 5.92211 1.05822Z" fill="#E33629"/>
<path d="M0.432968 7.34023C0.58084 6.60681 0.826525 5.89655 1.16344 5.22852L3.91664 7.36547C3.55657 8.42613 3.55657 9.57598 3.91664 10.6366C2.99935 11.345 2.08161 12.0568 1.16344 12.7723C0.320277 11.0939 0.0631281 9.18168 0.432968 7.34023Z" fill="#F8BD00"/>
<path d="M8.66867 7.42578H16.5737C16.8439 8.90922 16.7708 10.4348 16.3598 11.8856C15.9816 13.2197 15.247 14.4255 14.2348 15.3733C13.3463 14.68 12.4538 13.992 11.5653 13.2987C12.0058 13.0016 12.3818 12.6186 12.6707 12.1727C12.9596 11.7267 13.1556 11.2271 13.2467 10.7036H8.66867C8.66735 9.61188 8.66867 8.51883 8.66867 7.42578Z" fill="#587DBD"/>
<path d="M1.16211 12.7723C2.08029 12.064 2.99802 11.3521 3.91531 10.6367C4.2702 11.6782 4.94515 12.581 5.84375 13.2159C6.40415 13.6122 7.04105 13.8872 7.71375 14.0234C8.37656 14.1467 9.05641 14.1467 9.71922 14.0234C10.3801 13.9117 11.0103 13.6629 11.5693 13.293C12.4578 13.9862 13.3503 14.6742 14.2388 15.3675C13.2665 16.2517 12.0812 16.8681 10.799 17.1565C9.38375 17.4892 7.90888 17.4732 6.50117 17.11C5.38781 16.8127 4.34785 16.2887 3.44648 15.5707C2.49253 14.8132 1.71333 13.8586 1.16211 12.7723Z" fill="#319F43"/>
</svg>
