<svg width="25" height="24" viewBox="0 0 25 24" fill="none" xmlns="http://www.w3.org/2000/svg">
<path d="M21 16H17.5V12.5C17.5 10.57 15.93 9 14 9H11C9.07 9 7.5 10.57 7.5 12.5V13H4C2.07 13 0.5 14.57 0.5 16.5V20.5C0.5 22.43 2.07 24 4 24H21C22.93 24 24.5 22.43 24.5 20.5V19.5C24.5 17.57 22.93 16 21 16ZM9.5 12.5C9.5 11.673 10.173 11 11 11H14C14.827 11 15.5 11.673 15.5 12.5V22H9.5V12.5ZM2.5 20.5V16.5C2.5 15.673 3.173 15 4 15H7.5V22H4C3.173 22 2.5 21.327 2.5 20.5ZM22.5 20.5C22.5 21.327 21.827 22 21 22H17.5V18H21C21.827 18 22.5 18.673 22.5 19.5V20.5ZM8.541 2.857C8.637 2.595 8.887 2.42 9.167 2.42H11.168L11.876 0.433001C11.973 0.172001 12.222 -0.000999451 12.501 -0.000999451C12.78 -0.000999451 13.029 0.172001 13.126 0.433001L13.834 2.42H15.835C16.115 2.42 16.365 2.595 16.461 2.858C16.557 3.121 16.478 3.416 16.264 3.597L14.687 4.882L15.339 6.869C15.428 7.138 15.338 7.434 15.113 7.607C14.888 7.78 14.579 7.792 14.342 7.638L12.506 6.442L10.701 7.65C10.589 7.725 10.459 7.763 10.33 7.763C10.189 7.763 10.048 7.718 9.93 7.63C9.703 7.46 9.609 7.166 9.694 6.896L10.321 4.885L8.736 3.595C8.523 3.414 8.444 3.119 8.541 2.857Z" fill="#FF260F"/>
</svg>
