<svg width="152" height="113" viewBox="0 0 152 113" fill="none" xmlns="http://www.w3.org/2000/svg">
<g clip-path="url(#clip0_1126_2657)">
<path d="M121.949 89.6631H30.0509C27.5981 89.6631 25.6097 87.3635 25.6097 84.5267V21.3063C25.6097 18.4695 27.5981 16.1699 30.0509 16.1699H121.949C124.402 16.1699 126.39 18.4695 126.39 21.3063V84.5267C126.39 87.3635 124.402 89.6631 121.949 89.6631Z" fill="#FFC6BF"/>
<path d="M89.8405 89.6621H62.1595V112.767H89.8405V89.6621Z" fill="#FFC6BF"/>
<path d="M97.515 107.496H54.4849C53.2263 107.496 52.2057 108.676 52.2057 110.132C52.2057 111.588 53.2261 112.768 54.4849 112.768H97.515C98.7737 112.768 99.7943 111.588 99.7943 110.132C99.7943 108.676 98.7737 107.496 97.515 107.496Z" fill="#FFC6BF"/>
<path d="M123.079 23.8748V81.7796C123.079 83.1972 122.084 84.3478 120.858 84.3478H31.1419C29.9161 84.3478 28.9213 83.1972 28.9213 81.7796V23.8748C28.9213 22.4546 29.9161 21.3066 31.1419 21.3066H120.858C122.084 21.3066 123.079 22.4546 123.079 23.8748Z" fill="#D6E0F4"/>
<path d="M62.1595 107.592H89.8405" stroke="#92A9D1" stroke-miterlimit="10" stroke-linecap="round" stroke-linejoin="round"/>
<path d="M120.857 84.3477H31.1425" stroke="#92A9D1" stroke-miterlimit="10" stroke-linecap="round" stroke-linejoin="round"/>
<path d="M89.8405 94.913V89.6626L68.0052 89.5742L89.8405 94.913Z" fill="#92A9D1"/>
<path d="M0.762238 112.768H151.238" stroke="#7B7B7B" stroke-width="0.75" stroke-miterlimit="10" stroke-linecap="round" stroke-linejoin="round"/>
<path opacity="0.6" d="M123.079 68.6428V81.7791C123.079 83.1967 122.084 84.3473 120.858 84.3473H31.1419C29.9161 84.3473 28.9213 83.1967 28.9213 81.7791V72.1227C30.0294 71.8171 31.2018 71.8248 32.2988 72.1869C34.6615 72.9702 36.358 75.3971 36.8332 78.1862C36.7955 76.7737 37.4417 75.3612 38.4743 74.6061C39.5046 73.8485 40.8858 73.774 41.9739 74.4187C43.062 75.0607 44.0813 76.4989 44.1568 77.9088C46.2041 75.6077 47.7474 72.7083 48.6113 69.5597H58.8526C59.43 72.4489 60.9311 75.1326 62.9718 76.9072C63.5425 75.2559 65.0547 73.8665 66.5891 73.7509C68.1258 73.6354 69.6824 74.6138 70.4352 76.165C70.2398 73.4838 71.712 70.5715 73.5529 68.9305C75.3938 67.2868 77.792 66.614 80.1147 66.727C82.0511 66.822 84.0208 67.4743 85.4952 68.9279C86.9697 70.384 87.8624 72.7237 87.4604 74.9169C88.7106 72.7904 91.3287 71.586 93.5004 72.1458C95.6722 72.7057 97.4553 74.8989 97.8062 77.4388C98.459 74.9606 100.797 72.9137 103.033 72.8418C105.272 72.7673 107.47 74.4906 108.241 76.9201C108.303 73.6688 110.241 70.8001 112.753 69.3337C115.262 67.8647 118.211 67.6875 120.998 68.1446C121.697 68.2602 122.401 68.4143 123.079 68.6428Z" fill="white"/>
<g opacity="0.8">
<path d="M87.1429 83.4049C87.1429 83.7234 87.1274 84.0367 87.0985 84.3474H71.9918C71.963 84.0367 71.9474 83.7234 71.9474 83.4049C71.9474 78.5536 75.3494 74.6191 79.544 74.6191C83.741 74.6191 87.1429 78.5536 87.1429 83.4049Z" fill="white"/>
<path d="M35.7252 83.4036C35.7252 83.7247 35.7008 84.0405 35.6519 84.3462H31.1419C29.9161 84.3462 28.9213 83.1956 28.9213 81.778V78.7706C29.5786 78.3469 30.3358 78.1055 31.1419 78.1055C33.6734 78.1055 35.7252 80.4785 35.7252 83.4036Z" fill="white"/>
<path d="M123.079 78.1401V81.7792C123.079 83.1969 122.084 84.3474 120.858 84.3474H111.05C110.897 83.7028 110.817 83.0274 110.817 82.3288C110.817 78.0708 113.801 74.6191 117.483 74.6191C119.83 74.6191 121.893 76.0214 123.079 78.1401Z" fill="white"/>
<path d="M66.759 81.8142C67.8726 81.8142 68.7753 80.7702 68.7753 79.4823C68.7753 78.1944 67.8726 77.1504 66.759 77.1504C65.6454 77.1504 64.7427 78.1944 64.7427 79.4823C64.7427 80.7702 65.6454 81.8142 66.759 81.8142Z" fill="white"/>
<path d="M122.064 71.3647C122.208 70.3395 121.606 69.3733 120.72 69.2066C119.834 69.0399 118.998 69.7358 118.854 70.761C118.71 71.7861 119.312 72.7523 120.198 72.919C121.084 73.0857 121.92 72.3898 122.064 71.3647Z" fill="white"/>
<path d="M56.0829 72.1986C56.0829 71.3694 56.664 70.6973 57.381 70.6973C58.098 70.6973 58.6792 71.3694 58.6792 72.1986C58.6792 73.0279 58.0978 73.7 57.381 73.7C56.6642 73.7002 56.0829 73.0279 56.0829 72.1986Z" fill="white"/>
<path d="M40.8292 82.1404C42.0985 82.1404 43.1275 80.9503 43.1275 79.4823C43.1275 78.0143 42.0985 76.8242 40.8292 76.8242C39.5599 76.8242 38.5309 78.0143 38.5309 79.4823C38.5309 80.9503 39.5599 82.1404 40.8292 82.1404Z" fill="white"/>
<path d="M56.3318 79.0068C56.7302 77.1526 55.7536 75.2759 54.1503 74.8151C52.5471 74.3543 50.9244 75.4838 50.526 77.338C50.1275 79.1922 51.1042 81.0689 52.7074 81.5297C54.3107 81.9905 55.9333 80.861 56.3318 79.0068Z" fill="white"/>
</g>
<path opacity="0.4" d="M69.006 65.5917H38.582C36.75 65.5917 35.2511 63.8582 35.2511 61.7394V29.7273C35.2511 27.6085 36.75 25.875 38.582 25.875H69.006C70.838 25.875 72.3369 27.6085 72.3369 29.7273V61.7394C72.3369 63.8582 70.838 65.5917 69.006 65.5917Z" fill="white"/>
<path opacity="0.4" d="M94.2321 62.8594H78.8941C77.0621 62.8594 75.5632 61.1259 75.5632 59.0071V29.7273C75.5632 27.6085 77.0621 25.875 78.8941 25.875H94.2321C96.0641 25.875 97.563 27.6085 97.563 29.7273V59.0071C97.563 61.1259 96.0641 62.8594 94.2321 62.8594Z" fill="white"/>
<path opacity="0.4" d="M115.265 62.8594H103.897C102.365 62.8594 101.112 61.4096 101.112 59.6376V29.0968C101.112 27.3247 102.365 25.875 103.897 25.875H114.719C116.551 25.875 118.05 27.6085 118.05 29.7273V59.6376C118.05 61.4096 116.797 62.8594 115.265 62.8594Z" fill="white"/>
<path d="M77.3916 37.8418H95.7343" stroke="#FFC6BF" stroke-miterlimit="10" stroke-linecap="round" stroke-linejoin="round"/>
<path d="M79.4601 29.1426V37.8415" stroke="#FFC6BF" stroke-miterlimit="10" stroke-linecap="round" stroke-linejoin="round"/>
<path d="M82.7281 32.3496V37.8409" stroke="#FFC6BF" stroke-miterlimit="10" stroke-linecap="round" stroke-linejoin="round"/>
<path d="M85.8536 30.3418V37.8424" stroke="#FFC6BF" stroke-miterlimit="10" stroke-linecap="round" stroke-linejoin="round"/>
<path d="M93.3752 29.8496V37.8418" stroke="#FFC6BF" stroke-miterlimit="10" stroke-linecap="round" stroke-linejoin="round"/>
<path d="M90.0845 30.7188V37.8411" stroke="#FFC6BF" stroke-miterlimit="10" stroke-linecap="round" stroke-linejoin="round"/>
<path d="M77.3916 44.4043H95.7343" stroke="#FFC6BF" stroke-miterlimit="10" stroke-linecap="round" stroke-linejoin="round"/>
<path d="M77.3916 49.541H95.7343" stroke="#FFC6BF" stroke-miterlimit="10" stroke-linecap="round" stroke-linejoin="round"/>
<path d="M77.3916 57.2461H95.7343" stroke="#FFC6BF" stroke-miterlimit="10" stroke-linecap="round" stroke-linejoin="round"/>
<path d="M79.4601 45.2305C79.8546 45.2305 80.1745 44.8606 80.1745 44.4043C80.1745 43.948 79.8546 43.5781 79.4601 43.5781C79.0656 43.5781 78.7457 43.948 78.7457 44.4043C78.7457 44.8606 79.0656 45.2305 79.4601 45.2305Z" fill="#FFC6BF"/>
<path d="M84.1193 50.3672C84.5139 50.3672 84.8337 49.9973 84.8337 49.541C84.8337 49.0847 84.5139 48.7148 84.1193 48.7148C83.7248 48.7148 83.405 49.0847 83.405 49.541C83.405 49.9973 83.7248 50.3672 84.1193 50.3672Z" fill="#FFC6BF"/>
<path d="M79.4601 58.0332C79.8546 58.0332 80.1745 57.6633 80.1745 57.207C80.1745 56.7508 79.8546 56.3809 79.4601 56.3809C79.0656 56.3809 78.7457 56.7508 78.7457 57.207C78.7457 57.6633 79.0656 58.0332 79.4601 58.0332Z" fill="#FFC6BF"/>
<path d="M106.308 28.6641L102.842 40.6808H109.774L106.308 28.6641Z" stroke="#FFC6BF" stroke-miterlimit="10" stroke-linecap="round" stroke-linejoin="round"/>
<path d="M113.055 32.1895L109.789 40.6814H116.32L113.055 32.1895Z" stroke="#FFC6BF" stroke-miterlimit="10" stroke-linecap="round" stroke-linejoin="round"/>
<path d="M106.308 28.6641L104.305 35.6059H108.31L106.308 28.6641Z" fill="#FFC6BF"/>
<path d="M103.195 58.0322L106.83 51.9852L110.418 54.6956L115.44 44.7383" stroke="#FFC6BF" stroke-miterlimit="10" stroke-linecap="round" stroke-linejoin="round"/>
<path d="M115.44 46.9901V44.7383L113.643 45.7943" stroke="#FFC6BF" stroke-miterlimit="10" stroke-linecap="round" stroke-linejoin="round"/>
<path d="M116.947 44.7383V58.9663H102.842" stroke="#FFC6BF" stroke-miterlimit="10" stroke-linecap="round" stroke-linejoin="round"/>
<path d="M0.812866 42.1494C4.47928 38.0621 8.16612 33.9479 11.1664 29.189C14.1666 24.4299 16.4738 18.9441 17.026 13.0894C17.2386 10.8366 17.1808 8.50106 16.4796 6.38487C15.7783 4.26869 14.3618 2.39264 12.4994 1.68844C10.7793 1.03792 8.86272 1.44138 7.2357 2.35745C4.22347 4.05348 2.01931 7.54287 1.53855 11.3774C1.05757 15.212 2.31354 19.282 4.78505 21.898C6.84887 24.0825 9.60795 25.2125 12.3728 25.7084C17.4926 26.6265 22.8711 25.4886 27.3782 22.5336C31.8856 19.5787 35.4922 14.826 37.4408 9.27382" stroke="#92A9D1" stroke-miterlimit="10" stroke-linecap="round" stroke-linejoin="round" stroke-dasharray="12 10"/>
<path d="M34.0522 10.9414L39.8737 4.80469L37.9331 13.7735L36.9629 10.8831L34.0522 10.9414Z" fill="#FFC6BF"/>
<path d="M147.619 44.1764C150.128 38.8458 149.789 32.0877 147.417 26.6737C145.046 21.2597 140.845 17.1188 136.158 14.3906C130.477 11.084 123.346 9.82384 117.899 13.6196C116.623 14.509 115.451 15.6911 114.788 17.2346C114.126 18.7783 114.047 20.724 114.844 22.1799C116.254 24.7542 119.752 24.6733 121.844 22.8209C124.326 20.623 125.315 16.6059 124.654 13.0726C123.994 9.53928 121.877 6.51936 119.27 4.52491C116.663 2.53046 113.596 1.47468 110.514 0.87167C102.832 -0.631487 94.7684 0.584804 87.6769 4.31611C80.5853 8.04743 73.2367 14.8156 69.9384 23.126" stroke="#92A9D1" stroke-miterlimit="10" stroke-linecap="round" stroke-linejoin="round" stroke-dasharray="12 10"/>
<path d="M67.5884 21.7734L68.9843 24.9739L72.3565 23.9079L66.6695 31.1784L67.5884 21.7734Z" fill="#FFC6BF"/>
<path d="M62.803 37.669C62.6987 42.5332 62.2168 47.3716 61.5018 52.0354C60.8067 56.5914 59.8918 60.983 58.897 65.0741L60.8001 69.5607H46.7881L48.6912 65.0741C47.8585 61.6533 47.0835 58.0244 46.4462 54.262C46.3218 53.525 46.1997 52.7828 46.0864 52.0354C44.2544 40.0574 43.9347 26.9443 47.6586 15.1409C49.0731 10.6543 51.0717 6.35774 53.7941 2.38477C56.5165 6.35774 58.5151 10.6543 59.9296 15.1409C62.2035 22.3472 62.9696 30.0415 62.803 37.669Z" fill="white"/>
<path d="M47.5447 60.0333C44.709 63.1357 42.6283 67.1549 41.6246 71.5182C40.8585 67.3347 40.501 62.9302 41.216 58.7338C41.8511 55.0023 43.3167 51.3965 45.6195 48.7051C46.1102 52.601 46.7808 56.4045 47.5447 60.0333Z" fill="#FF260F"/>
<path d="M60.0435 60.0333C62.8792 63.1357 64.9599 67.1549 65.9636 71.5182C66.7297 67.3347 67.0872 62.9302 66.3722 58.7338C65.7371 55.0023 64.2715 51.3965 61.9688 48.7051C61.478 52.601 60.8074 56.4045 60.0435 60.0333Z" fill="#FF260F"/>
<path d="M59.9296 15.1409H47.6586C49.0731 10.6543 51.0717 6.35774 53.7941 2.38477C56.5166 6.35774 58.5151 10.6543 59.9296 15.1409Z" fill="#FF260F"/>
<path d="M58.897 65.0738L60.8001 69.5604H46.7882L48.6912 65.0738C47.6964 60.9827 46.7815 56.5911 46.0865 52.0352H61.5018C60.8067 56.5911 59.8919 60.9827 58.897 65.0738Z" fill="#C8C3CA"/>
<path d="M57.9493 25.1326C58.3314 22.4797 56.7816 19.9708 54.4877 19.5289C52.1938 19.087 50.0245 20.8794 49.6425 23.5324C49.2604 26.1853 50.8102 28.6942 53.1041 29.136C55.3979 29.5779 57.5672 27.7855 57.9493 25.1326Z" fill="#FF260F"/>
<path d="M56.5943 24.3303C56.5943 26.1203 55.3419 27.5688 53.7941 27.5688C53.5787 27.5688 53.37 27.5405 53.1701 27.4866C52.9281 27.4249 52.6971 27.3248 52.484 27.1938C52.1575 26.9935 51.8689 26.7213 51.6379 26.3951C51.4914 26.1922 51.367 25.9713 51.2693 25.7325C51.1894 25.5399 51.125 25.337 51.0806 25.1238C51.0561 25.0263 51.0406 24.9261 51.0273 24.8234V24.8208C51.0051 24.6616 50.994 24.4972 50.994 24.3303C50.994 22.5403 52.2464 21.0918 53.7941 21.0918C53.9385 21.0918 54.0806 21.1046 54.2205 21.1303C54.3093 21.1457 54.3959 21.1637 54.4803 21.192C54.6668 21.2433 54.8467 21.3204 55.0154 21.4154C55.222 21.531 55.4129 21.6722 55.5861 21.8443C55.8615 22.1062 56.0946 22.435 56.2634 22.8048C56.3789 23.0513 56.4655 23.3184 56.521 23.5983C56.5699 23.832 56.5943 24.0786 56.5943 24.3303Z" fill="#C8C3CA"/>
<path d="M59.1151 40.0698C59.6035 36.6727 57.6181 33.4609 54.6807 32.8961C51.7434 32.3314 48.9663 34.6275 48.478 38.0247C47.9896 41.4218 49.975 44.6336 52.9124 45.1984C55.8497 45.7631 58.6268 43.467 59.1151 40.0698Z" fill="#FF260F"/>
<path d="M57.3804 39.05C57.3804 41.3408 55.7749 43.1976 53.7941 43.1976C53.7142 43.1976 53.6342 43.195 53.5543 43.1873C53.2789 43.1668 53.0125 43.1103 52.7593 43.0204C52.4506 42.9151 52.162 42.761 51.8955 42.5684C51.578 42.3398 51.2937 42.0547 51.0539 41.7234C50.8518 41.4486 50.6831 41.1456 50.5476 40.8169C50.4432 40.56 50.3611 40.2878 50.3056 40.0053C50.2523 39.7562 50.2212 39.4994 50.2123 39.2374C50.2101 39.1758 50.2079 39.1142 50.2079 39.05C50.2079 38.9909 50.2079 38.9318 50.2123 38.8753C50.2878 36.7258 51.7778 34.9999 53.6364 34.9075C53.6875 34.9049 53.7408 34.9023 53.7941 34.9023C53.8474 34.9023 53.9007 34.9049 53.9518 34.9075C54.1805 34.9178 54.4048 34.9537 54.6202 35.0153C54.8644 35.0795 55.0976 35.1746 55.3196 35.2953C55.6083 35.4519 55.8726 35.6497 56.1124 35.8885C56.3966 36.1633 56.6431 36.4946 56.8408 36.8619C57.0029 37.1649 57.1339 37.4911 57.2249 37.8403C57.3026 38.1331 57.3537 38.4439 57.3715 38.7623C57.3781 38.8573 57.3804 38.9524 57.3804 39.05Z" fill="#C8C3CA"/>
<g opacity="0.5">
<path d="M56.2634 22.8053L52.484 27.1943C52.6971 27.3253 52.9281 27.4255 53.1701 27.4871C54.2871 26.1902 55.404 24.8958 56.521 23.5989C56.4655 23.319 56.3789 23.0519 56.2634 22.8053ZM55.0154 21.4159C53.7652 22.8541 52.5173 24.2949 51.2693 25.733C51.367 25.9719 51.4914 26.1927 51.6379 26.3956L55.5861 21.8448C55.4129 21.6727 55.2219 21.5315 55.0154 21.4159ZM54.4803 21.1925C54.3959 21.1642 54.3093 21.1463 54.2205 21.1309C53.1568 22.361 52.0909 23.5912 51.0273 24.8213V24.8239C51.0406 24.9266 51.0561 25.0268 51.0805 25.1244L53.9074 21.8551C54.0983 21.6342 54.2893 21.4134 54.4803 21.1925Z" fill="#FFF9F2"/>
<path d="M57.2249 37.8423C55.7371 39.5681 54.2471 41.2965 52.7593 43.0223C53.0125 43.1122 53.2789 43.1687 53.5543 43.1893C54.8289 41.7151 56.0991 40.2384 57.3715 38.7643C57.3537 38.4458 57.3026 38.1351 57.2249 37.8423ZM56.1124 35.8905C54.427 37.8346 52.7393 39.7813 51.0539 41.7254C51.2937 42.0567 51.578 42.3418 51.8955 42.5703L56.8408 36.8638C56.6431 36.4966 56.3966 36.1653 56.1124 35.8905ZM54.6202 35.0173L50.3056 40.0073C50.3611 40.2898 50.4432 40.562 50.5476 40.8188C52.1375 38.9774 53.7297 37.136 55.3196 35.2972C55.0976 35.1765 54.8644 35.0815 54.6202 35.0173ZM53.9518 34.9094C53.9007 34.9069 53.8474 34.9043 53.7941 34.9043C53.7408 34.9043 53.6875 34.9069 53.6364 34.9094L50.2123 38.8773C50.2079 38.9338 50.2079 38.9928 50.2079 39.0519C50.2079 39.1161 50.2101 39.1778 50.2123 39.2394C51.1916 38.1043 52.1731 36.9691 53.1524 35.834C53.4188 35.5258 53.6853 35.2176 53.9518 34.9094Z" fill="#FFF9F2"/>
</g>
<path d="M58.897 65.0742H48.6912" stroke="#ADA7B0" stroke-miterlimit="10"/>
<path d="M61.5018 52.0352H46.0865" stroke="#ADA7B0" stroke-miterlimit="10"/>
<path d="M60.4494 58.041H47.139" stroke="#ADA7B0" stroke-miterlimit="10"/>
<path d="M53.7941 56.7918C54.6314 56.7918 55.3101 56.0068 55.3101 55.0385C55.3101 54.0701 54.6314 53.2852 53.7941 53.2852C52.9568 53.2852 52.2781 54.0701 52.2781 55.0385C52.2781 56.0068 52.9568 56.7918 53.7941 56.7918Z" stroke="#ADA7B0" stroke-miterlimit="10"/>
<path d="M48.9088 56.7918C49.7461 56.7918 50.4248 56.0068 50.4248 55.0385C50.4248 54.0701 49.7461 53.2852 48.9088 53.2852C48.0716 53.2852 47.3928 54.0701 47.3928 55.0385C47.3928 56.0068 48.0716 56.7918 48.9088 56.7918Z" stroke="#ADA7B0" stroke-miterlimit="10"/>
<path d="M58.6794 56.7918C59.5167 56.7918 60.1954 56.0068 60.1954 55.0385C60.1954 54.0701 59.5167 53.2852 58.6794 53.2852C57.8422 53.2852 57.1634 54.0701 57.1634 55.0385C57.1634 56.0068 57.8422 56.7918 58.6794 56.7918Z" stroke="#ADA7B0" stroke-miterlimit="10"/>
<path d="M49.7453 15.5215C46.4046 26.9882 45.7092 39.47 47.7497 51.3379" stroke="#E1DEE2" stroke-miterlimit="10"/>
<path d="M58.813 15.6738C61.029 27.3157 61.2948 39.4498 59.5916 51.2067" stroke="#E1DEE2" stroke-miterlimit="10"/>
<path opacity="0.15" d="M62.8031 37.6699C62.6987 42.5341 62.2168 47.3725 61.5018 52.0363C60.8067 56.5923 59.8919 60.9839 58.897 65.075H48.6912C47.8585 61.6542 47.0835 58.0253 46.4462 54.2629C50.3722 52.7657 54.0828 50.5006 57.1228 47.2826C59.6187 44.6451 61.6284 41.3219 62.8031 37.6699Z" fill="#522840"/>
<path d="M53.7941 14.1428C54.2867 14.1428 54.6859 13.6811 54.6859 13.1115C54.6859 12.5418 54.2867 12.0801 53.7941 12.0801C53.3016 12.0801 52.9023 12.5418 52.9023 13.1115C52.9023 13.6811 53.3016 14.1428 53.7941 14.1428Z" stroke="#FF260F" stroke-width="0.75" stroke-miterlimit="10" stroke-linecap="round" stroke-linejoin="round"/>
<path d="M44.6 55.2854C45.0925 55.2854 45.4918 54.8237 45.4918 54.254C45.4918 53.6844 45.0925 53.2227 44.6 53.2227C44.1075 53.2227 43.7082 53.6844 43.7082 54.254C43.7082 54.8237 44.1075 55.2854 44.6 55.2854Z" stroke="#FF260F" stroke-width="0.75" stroke-miterlimit="10" stroke-linecap="round" stroke-linejoin="round"/>
<path d="M63.0264 55.2854C63.5189 55.2854 63.9182 54.8237 63.9182 54.254C63.9182 53.6844 63.5189 53.2227 63.0264 53.2227C62.5339 53.2227 62.1346 53.6844 62.1346 54.254C62.1346 54.8237 62.5339 55.2854 63.0264 55.2854Z" stroke="#FF260F" stroke-width="0.75" stroke-miterlimit="10" stroke-linecap="round" stroke-linejoin="round"/>
<path d="M65.2424 63.6096C65.7349 63.6096 66.1342 63.1479 66.1342 62.5783C66.1342 62.0086 65.7349 61.5469 65.2424 61.5469C64.7499 61.5469 64.3506 62.0086 64.3506 62.5783C64.3506 63.1479 64.7499 63.6096 65.2424 63.6096Z" stroke="#FF260F" stroke-width="0.75" stroke-miterlimit="10" stroke-linecap="round" stroke-linejoin="round"/>
<path d="M44.187 57.8224C44.187 58.392 43.7877 58.8538 43.2952 58.8538C42.8026 58.8538 42.4034 58.392 42.4034 57.8224C42.4034 57.2528 42.8026 56.791 43.2952 56.791C43.7877 56.791 44.187 57.2528 44.187 57.8224Z" stroke="#FF260F" stroke-width="0.75" stroke-miterlimit="10" stroke-linecap="round" stroke-linejoin="round"/>
<path d="M65.4478 58.1993C65.4478 58.769 65.0485 59.2307 64.556 59.2307C64.0634 59.2307 63.6642 58.769 63.6642 58.1993C63.6642 57.6297 64.0634 57.168 64.556 57.168C65.0485 57.168 65.4478 57.6297 65.4478 58.1993Z" stroke="#FF260F" stroke-width="0.75" stroke-miterlimit="10" stroke-linecap="round" stroke-linejoin="round"/>
<path d="M43.4766 61.8283C43.4766 62.3979 43.0773 62.8596 42.5848 62.8596C42.0923 62.8596 41.693 62.3979 41.693 61.8283C41.693 61.2586 42.0923 60.7969 42.5848 60.7969C43.0773 60.7969 43.4766 61.2586 43.4766 61.8283Z" stroke="#FF260F" stroke-width="0.75" stroke-miterlimit="10" stroke-linecap="round" stroke-linejoin="round"/>
<path d="M50.6853 14.1428C51.1778 14.1428 51.5771 13.6811 51.5771 13.1115C51.5771 12.5418 51.1778 12.0801 50.6853 12.0801C50.1928 12.0801 49.7935 12.5418 49.7935 13.1115C49.7935 13.6811 50.1928 14.1428 50.6853 14.1428Z" stroke="#FF260F" stroke-width="0.75" stroke-miterlimit="10" stroke-linecap="round" stroke-linejoin="round"/>
<path d="M56.903 14.1428C57.3955 14.1428 57.7947 13.6811 57.7947 13.1115C57.7947 12.5418 57.3955 12.0801 56.903 12.0801C56.4104 12.0801 56.0112 12.5418 56.0112 13.1115C56.0112 13.6811 56.4104 14.1428 56.903 14.1428Z" stroke="#FF260F" stroke-width="0.75" stroke-miterlimit="10" stroke-linecap="round" stroke-linejoin="round"/>
</g>
<defs>
<clipPath id="clip0_1126_2657">
<rect width="151" height="113" fill="white" transform="translate(0.5)"/>
</clipPath>
</defs>
</svg>
