<svg width="27" height="27" viewBox="0 0 27 27" fill="none" xmlns="http://www.w3.org/2000/svg">
<path fill-rule="evenodd" clip-rule="evenodd" d="M12.0003 0.666992C10.1931 0.667146 8.41216 1.09948 6.80601 1.92792C5.19987 2.75636 3.81513 3.95688 2.76732 5.42933C1.71951 6.90178 1.03902 8.60345 0.782616 10.3924C0.526214 12.1813 0.701337 14.0056 1.29338 15.7131C1.88541 17.4206 2.8772 18.9617 4.18599 20.208C5.49477 21.4542 7.08261 22.3694 8.81702 22.8771C10.5514 23.3849 12.3821 23.4705 14.1564 23.1269C15.9306 22.7832 17.5969 22.0203 19.0163 20.9017L23.8857 25.771C24.1371 26.0139 24.4739 26.1483 24.8235 26.1452C25.1731 26.1422 25.5076 26.002 25.7548 25.7548C26.002 25.5075 26.1422 25.1731 26.1452 24.8235C26.1483 24.4739 26.0139 24.1371 25.771 23.8857L20.9017 19.0163C22.219 17.3451 23.0392 15.3369 23.2685 13.2213C23.4977 11.1057 23.1267 8.96835 22.198 7.05378C21.2692 5.13921 19.8202 3.5248 18.0167 2.3953C16.2133 1.2658 14.1283 0.666849 12.0003 0.666992ZM3.33367 12.0003C3.33367 9.70178 4.24676 7.49738 5.87208 5.87207C7.49739 4.24675 9.7018 3.33366 12.0003 3.33366C14.2989 3.33366 16.5033 4.24675 18.1286 5.87207C19.7539 7.49738 20.667 9.70178 20.667 12.0003C20.667 14.2989 19.7539 16.5033 18.1286 18.1286C16.5033 19.7539 14.2989 20.667 12.0003 20.667C9.7018 20.667 7.49739 19.7539 5.87208 18.1286C4.24676 16.5033 3.33367 14.2989 3.33367 12.0003Z" fill="white"/>
</svg>
