<svg width="64" height="64" viewBox="0 0 64 64" fill="none" xmlns="http://www.w3.org/2000/svg">
<rect width="64" height="64" rx="32" fill="#FF260F"/>
<path fill-rule="evenodd" clip-rule="evenodd" d="M30.0001 18.667C28.1929 18.6671 26.4119 19.0995 24.8058 19.9279C23.1996 20.7564 21.8149 21.9569 20.7671 23.4293C19.7193 24.9018 19.0388 26.6035 18.7824 28.3924C18.526 30.1813 18.7011 32.0056 19.2931 33.7131C19.8852 35.4206 20.877 36.9617 22.1857 38.208C23.4945 39.4542 25.0824 40.3694 26.8168 40.8771C28.5512 41.3849 30.3819 41.4705 32.1561 41.1269C33.9304 40.7832 35.5967 40.0203 37.0161 38.9017L41.8854 43.771C42.1369 44.0139 42.4737 44.1483 42.8233 44.1452C43.1729 44.1422 43.5073 44.002 43.7545 43.7548C44.0017 43.5075 44.142 43.1731 44.145 42.8235C44.148 42.4739 44.0136 42.1371 43.7708 41.8857L38.9014 37.0163C40.2188 35.3451 41.039 33.3369 41.2682 31.2213C41.4975 29.1057 41.1265 26.9684 40.1977 25.0538C39.269 23.1392 37.8199 21.5248 36.0165 20.3953C34.2131 19.2658 32.128 18.6668 30.0001 18.667ZM21.3334 30.0003C21.3334 27.7018 22.2465 25.4974 23.8718 23.8721C25.4972 22.2468 27.7016 21.3337 30.0001 21.3337C32.2986 21.3337 34.503 22.2468 36.1284 23.8721C37.7537 25.4974 38.6668 27.7018 38.6668 30.0003C38.6668 32.2989 37.7537 34.5033 36.1284 36.1286C34.503 37.7539 32.2986 38.667 30.0001 38.667C27.7016 38.667 25.4972 37.7539 23.8718 36.1286C22.2465 34.5033 21.3334 32.2989 21.3334 30.0003Z" fill="white"/>
</svg>
