<svg width="20" height="17" viewBox="0 0 20 17" fill="none" xmlns="http://www.w3.org/2000/svg">
<path d="M8 8C6.9 8 5.95833 7.60833 5.175 6.825C4.39167 6.04167 4 5.1 4 4C4 2.9 4.39167 1.95833 5.175 1.175C5.95833 0.391667 6.9 0 8 0C9.1 0 10.0417 0.391667 10.825 1.175C11.6083 1.95833 12 2.9 12 4C12 5.1 11.6083 6.04167 10.825 6.825C10.0417 7.60833 9.1 8 8 8ZM0 16V13.2C0 12.65 0.141667 12.1333 0.425 11.65C0.708333 11.1667 1.1 10.8 1.6 10.55C2.45 10.1167 3.40833 9.75 4.475 9.45C5.54167 9.15 6.71667 9 8 9H8.35C8.45 9 8.55 9.01667 8.65 9.05C8.51667 9.35 8.40433 9.66267 8.313 9.988C8.22167 10.3133 8.15067 10.6507 8.1 11H8C6.81667 11 5.75433 11.15 4.813 11.45C3.87167 11.75 3.10067 12.05 2.5 12.35C2.35 12.4333 2.229 12.55 2.137 12.7C2.045 12.85 1.99933 13.0167 2 13.2V14H8.3C8.4 14.35 8.53333 14.696 8.7 15.038C8.86667 15.38 9.05 15.7007 9.25 16H0ZM14 17L13.7 15.5C13.5 15.4167 13.3127 15.3293 13.138 15.238C12.9633 15.1467 12.784 15.034 12.6 14.9L11.15 15.35L10.15 13.65L11.3 12.65C11.2667 12.4167 11.25 12.2 11.25 12C11.25 11.8 11.2667 11.5833 11.3 11.35L10.15 10.35L11.15 8.65L12.6 9.1C12.7833 8.96667 12.9627 8.85433 13.138 8.763C13.3133 8.67167 13.5007 8.584 13.7 8.5L14 7H16L16.3 8.5C16.5 8.58333 16.6877 8.675 16.863 8.775C17.0383 8.875 17.2173 9 17.4 9.15L18.85 8.65L19.85 10.4L18.7 11.4C18.7333 11.6 18.75 11.8083 18.75 12.025C18.75 12.2417 18.7333 12.45 18.7 12.65L19.85 13.65L18.85 15.35L17.4 14.9C17.2167 15.0333 17.0377 15.146 16.863 15.238C16.6883 15.33 16.5007 15.4173 16.3 15.5L16 17H14ZM15 14C15.55 14 16.021 13.8043 16.413 13.413C16.805 13.0217 17.0007 12.5507 17 12C17 11.45 16.8043 10.9793 16.413 10.588C16.0217 10.1967 15.5507 10.0007 15 10C14.45 10 13.9793 10.196 13.588 10.588C13.1967 10.98 13.0007 11.4507 13 12C13 12.55 13.196 13.021 13.588 13.413C13.98 13.805 14.4507 14.0007 15 14ZM8 6C8.55 6 9.021 5.80433 9.413 5.413C9.805 5.02167 10.0007 4.55067 10 4C10 3.45 9.80433 2.97933 9.413 2.588C9.02167 2.19667 8.55067 2.00067 8 2C7.45 2 6.97933 2.196 6.588 2.588C6.19667 2.98 6.00067 3.45067 6 4C6 4.55 6.196 5.021 6.588 5.413C6.98 5.805 7.45067 6.00067 8 6Z" fill="url(#paint0_linear_690_6707)"/>
<defs>
<linearGradient id="paint0_linear_690_6707" x1="0.902273" y1="8.5" x2="19.85" y2="8.5" gradientUnits="userSpaceOnUse">
<stop stop-color="#FC321C"/>
<stop offset="1" stop-color="#B3308D"/>
</linearGradient>
</defs>
</svg>
