<svg width="32" height="32" viewBox="0 0 32 32" fill="none" xmlns="http://www.w3.org/2000/svg">
<path d="M16 28C14.3484 28 12.7929 27.6844 11.3333 27.0533C9.87378 26.4222 8.60267 25.5644 7.52 24.48C6.43556 23.3982 5.57778 22.1271 4.94667 20.6667C4.31556 19.2071 4 17.6516 4 16C4 14.344 4.31556 12.7871 4.94667 11.3293C5.57867 9.87156 6.43644 8.60133 7.52 7.51867C8.60178 6.436 9.87289 5.57911 11.3333 4.948C12.7929 4.316 14.3484 4 16 4C17.656 4 19.2129 4.31556 20.6707 4.94667C22.1284 5.57867 23.3987 6.43644 24.4813 7.52C25.564 8.60267 26.4209 9.87244 27.052 11.3293C27.684 12.7871 28 14.344 28 16C28 17.6516 27.6844 19.2071 27.0533 20.6667C26.4222 22.1262 25.5644 23.3973 24.48 24.48C23.3973 25.5636 22.1276 26.4213 20.6707 27.0533C19.2129 27.6844 17.656 28 16 28ZM16 26.6773C16.7822 25.672 17.4276 24.6849 17.936 23.716C18.4436 22.7471 18.8564 21.6627 19.1747 20.4627H12.8253C13.1773 21.7302 13.5987 22.8484 14.0893 23.8173C14.58 24.7862 15.2169 25.7396 16 26.6773ZM14.3027 26.4773C13.6804 25.744 13.1124 24.8373 12.5987 23.7573C12.0849 22.6782 11.7027 21.5796 11.452 20.4613H6.33733C7.10178 22.12 8.18489 23.48 9.58667 24.5413C10.9893 25.6027 12.5609 26.248 14.3013 26.4773M17.696 26.4773C19.4364 26.248 21.008 25.6027 22.4107 24.5413C23.8133 23.48 24.8964 22.12 25.66 20.4613H20.548C20.2102 21.5964 19.7849 22.704 19.272 23.784C18.7582 24.8631 18.2329 25.7609 17.696 26.4773ZM5.79333 19.128H11.1733C11.072 18.5813 11.0009 18.0484 10.96 17.5293C10.9173 17.0102 10.896 16.5004 10.896 16C10.896 15.4996 10.9169 14.9898 10.9587 14.4707C11.0004 13.9516 11.0716 13.4182 11.172 12.8707H5.796C5.65111 13.3329 5.53778 13.8364 5.456 14.3813C5.37422 14.9262 5.33333 15.4658 5.33333 16C5.33333 16.5351 5.37378 17.0747 5.45467 17.6187C5.53644 18.1636 5.64978 18.6667 5.79467 19.128M12.508 19.128H19.492C19.5933 18.5813 19.6644 18.0569 19.7053 17.5547C19.748 17.0533 19.7693 16.5351 19.7693 16C19.7693 15.4649 19.7484 14.9467 19.7067 14.4453C19.6649 13.9431 19.5938 13.4187 19.4933 12.872H12.5067C12.4062 13.4187 12.3351 13.9431 12.2933 14.4453C12.2516 14.9467 12.2307 15.4649 12.2307 16C12.2307 16.5351 12.2516 17.0533 12.2933 17.5547C12.3351 18.0569 12.4076 18.5813 12.508 19.128ZM20.8267 19.128H26.2053C26.3502 18.6658 26.4636 18.1627 26.5453 17.6187C26.6271 17.0747 26.6676 16.5351 26.6667 16C26.6667 15.4649 26.6262 14.9253 26.5453 14.3813C26.4636 13.8364 26.3502 13.3333 26.2053 12.872H20.8253C20.9267 13.4187 20.9978 13.9516 21.0387 14.4707C21.0813 14.9898 21.1027 15.4996 21.1027 16C21.1027 16.5004 21.0818 17.0102 21.04 17.5293C20.9982 18.0484 20.9271 18.5818 20.8267 19.1293M20.5493 11.5387H25.6613C24.88 9.84622 23.8098 8.48622 22.4507 7.45867C21.0907 6.43111 19.5062 5.77778 17.6973 5.49867C18.3196 6.31644 18.8791 7.25244 19.376 8.30667C19.872 9.36 20.2631 10.4373 20.5493 11.5387ZM12.8253 11.5387H19.1747C18.8227 10.2871 18.3884 9.15556 17.872 8.144C17.3564 7.13156 16.7324 6.19111 16 5.32267C15.2684 6.19111 14.6444 7.13156 14.128 8.144C13.6124 9.15556 13.1782 10.2871 12.8253 11.5387ZM6.33867 11.5387H11.4507C11.7369 10.4373 12.128 9.36 12.624 8.30667C13.1209 7.25244 13.6804 6.316 14.3027 5.49733C12.4769 5.77733 10.8884 6.43511 9.53733 7.47067C8.18622 8.50711 7.11956 9.86267 6.33733 11.5373" fill="white"/>
</svg>
