<svg width="16" height="16" viewBox="0 0 16 16" fill="none" xmlns="http://www.w3.org/2000/svg">
<path d="M8 15.5C6.96778 15.5 5.99556 15.3028 5.08333 14.9083C4.17111 14.5139 3.37667 13.9778 2.7 13.3C2.02222 12.6239 1.48611 11.8294 1.09167 10.9167C0.697222 10.0044 0.5 9.03222 0.5 8C0.5 6.965 0.697222 5.99194 1.09167 5.08083C1.48667 4.16972 2.02278 3.37583 2.7 2.69917C3.37611 2.0225 4.17056 1.48694 5.08333 1.0925C5.99556 0.6975 6.96778 0.5 8 0.5C9.035 0.5 10.0081 0.697222 10.9192 1.09167C11.8303 1.48667 12.6242 2.02278 13.3008 2.7C13.9775 3.37667 14.5131 4.17028 14.9075 5.08083C15.3025 5.99194 15.5 6.965 15.5 8C15.5 9.03222 15.3028 10.0044 14.9083 10.9167C14.5139 11.8289 13.9778 12.6233 13.3 13.3C12.6233 13.9772 11.8297 14.5133 10.9192 14.9083C10.0081 15.3028 9.035 15.5 8 15.5ZM8 14.6733C8.48889 14.045 8.89222 13.4281 9.21 12.8225C9.52722 12.2169 9.78528 11.5392 9.98417 10.7892H6.01583C6.23583 11.5814 6.49917 12.2803 6.80583 12.8858C7.1125 13.4914 7.51056 14.0872 8 14.6733ZM6.93917 14.5483C6.55028 14.09 6.19528 13.5233 5.87417 12.8483C5.55306 12.1739 5.31417 11.4872 5.1575 10.7883H1.96083C2.43861 11.825 3.11556 12.675 3.99167 13.3383C4.86833 14.0017 5.85056 14.405 6.93833 14.5483M9.06 14.5483C10.1478 14.405 11.13 14.0017 12.0067 13.3383C12.8833 12.675 13.5603 11.825 14.0375 10.7883H10.8425C10.6314 11.4978 10.3656 12.19 10.045 12.865C9.72389 13.5394 9.39556 14.1006 9.06 14.5483ZM1.62083 9.955H4.98333C4.92 9.61333 4.87556 9.28028 4.85 8.95583C4.82333 8.63139 4.81 8.31278 4.81 8C4.81 7.68722 4.82306 7.36861 4.84917 7.04417C4.87528 6.71972 4.91972 6.38639 4.9825 6.04417H1.6225C1.53194 6.33306 1.46111 6.64778 1.41 6.98833C1.35889 7.32889 1.33333 7.66611 1.33333 8C1.33333 8.33444 1.35861 8.67167 1.40917 9.01167C1.46028 9.35222 1.53111 9.66667 1.62167 9.955M5.8175 9.955H10.1825C10.2458 9.61333 10.2903 9.28556 10.3158 8.97167C10.3425 8.65833 10.3558 8.33444 10.3558 8C10.3558 7.66556 10.3428 7.34167 10.3167 7.02833C10.2906 6.71444 10.2461 6.38667 10.1833 6.045H5.81667C5.75389 6.38667 5.70944 6.71444 5.68333 7.02833C5.65722 7.34167 5.64417 7.66556 5.64417 8C5.64417 8.33444 5.65722 8.65833 5.68333 8.97167C5.70944 9.28556 5.75472 9.61333 5.8175 9.955ZM11.0167 9.955H14.3783C14.4689 9.66611 14.5397 9.35167 14.5908 9.01167C14.6419 8.67167 14.6672 8.33444 14.6667 8C14.6667 7.66556 14.6414 7.32833 14.5908 6.98833C14.5397 6.64778 14.4689 6.33333 14.3783 6.045H11.0158C11.0792 6.38667 11.1236 6.71972 11.1492 7.04417C11.1758 7.36861 11.1892 7.68722 11.1892 8C11.1892 8.31278 11.1761 8.63139 11.15 8.95583C11.1239 9.28028 11.0794 9.61361 11.0167 9.95583M10.8433 5.21167H14.0383C13.55 4.15389 12.8811 3.30389 12.0317 2.66167C11.1817 2.01944 10.1914 1.61111 9.06083 1.43667C9.44972 1.94778 9.79944 2.53278 10.11 3.19167C10.42 3.85 10.6644 4.52333 10.8433 5.21167ZM6.01583 5.21167H9.98417C9.76417 4.42944 9.49278 3.72222 9.17 3.09C8.84778 2.45722 8.45778 1.86944 8 1.32667C7.54278 1.86944 7.15278 2.45722 6.83 3.09C6.50778 3.72222 6.23639 4.42944 6.01583 5.21167ZM1.96167 5.21167H5.15667C5.33556 4.52333 5.58 3.85 5.89 3.19167C6.20056 2.53278 6.55028 1.9475 6.93917 1.43583C5.79806 1.61083 4.80528 2.02194 3.96083 2.66917C3.11639 3.31694 2.44972 4.16417 1.96083 5.21083" fill="#0A0A0A"/>
</svg>
