<svg width="16" height="16" viewBox="0 0 16 16" fill="none" xmlns="http://www.w3.org/2000/svg">
<path d="M8 15.5C5.91667 15.5 4.14583 14.7708 2.6875 13.3125C1.22917 11.8542 0.5 10.0833 0.5 8C0.5 5.91667 1.22917 4.14583 2.6875 2.6875C4.14583 1.22917 5.91667 0.5 8 0.5C8.19444 0.5 8.38556 0.506945 8.57333 0.520833C8.76111 0.534722 8.945 0.555555 9.125 0.583333C8.55556 0.986111 8.10056 1.51056 7.76 2.15667C7.41944 2.80278 7.24944 3.50056 7.25 4.25C7.25 5.5 7.6875 6.5625 8.5625 7.4375C9.4375 8.3125 10.5 8.75 11.75 8.75C12.5139 8.75 13.2153 8.57972 13.8542 8.23917C14.4931 7.89861 15.0139 7.44389 15.4167 6.875C15.4444 7.05555 15.4653 7.23944 15.4792 7.42667C15.4931 7.61389 15.5 7.805 15.5 8C15.5 10.0833 14.7708 11.8542 13.3125 13.3125C11.8542 14.7708 10.0833 15.5 8 15.5Z" fill="#0A0A0A"/>
</svg>
