<svg width="286" height="24" viewBox="0 0 286 24" fill="none" xmlns="http://www.w3.org/2000/svg">
<line x1="0.75" y1="11.75" x2="123.25" y2="11.75" stroke="black" stroke-width="0.5" stroke-linecap="round"/>
<path d="M138.18 9.71C138.92 9.71 139.587 9.83333 140.18 10.08C140.773 10.3267 141.28 10.6767 141.7 11.13C142.12 11.5833 142.44 12.1333 142.66 12.78C142.887 13.42 143 14.1367 143 14.93C143 15.73 142.887 16.45 142.66 17.09C142.44 17.73 142.12 18.2767 141.7 18.73C141.28 19.1833 140.773 19.5333 140.18 19.78C139.587 20.02 138.92 20.14 138.18 20.14C137.433 20.14 136.76 20.02 136.16 19.78C135.567 19.5333 135.06 19.1833 134.64 18.73C134.22 18.2767 133.897 17.73 133.67 17.09C133.45 16.45 133.34 15.73 133.34 14.93C133.34 14.1367 133.45 13.42 133.67 12.78C133.897 12.1333 134.22 11.5833 134.64 11.13C135.06 10.6767 135.567 10.3267 136.16 10.08C136.76 9.83333 137.433 9.71 138.18 9.71ZM138.18 18.75C139.18 18.75 139.927 18.4167 140.42 17.75C140.913 17.0767 141.16 16.14 141.16 14.94C141.16 13.7333 140.913 12.7933 140.42 12.12C139.927 11.4467 139.18 11.11 138.18 11.11C137.673 11.11 137.23 11.1967 136.85 11.37C136.477 11.5433 136.163 11.7933 135.91 12.12C135.663 12.4467 135.477 12.85 135.35 13.33C135.23 13.8033 135.17 14.34 135.17 14.94C135.17 16.14 135.417 17.0767 135.91 17.75C136.41 18.4167 137.167 18.75 138.18 18.75ZM146.948 11.9C147.268 11.2067 147.661 10.6667 148.128 10.28C148.594 9.88667 149.164 9.69 149.838 9.69C150.051 9.69 150.254 9.71333 150.448 9.76C150.648 9.80667 150.824 9.88 150.978 9.98L150.848 11.31C150.808 11.4767 150.708 11.56 150.548 11.56C150.454 11.56 150.318 11.54 150.138 11.5C149.958 11.46 149.754 11.44 149.528 11.44C149.208 11.44 148.921 11.4867 148.668 11.58C148.421 11.6733 148.198 11.8133 147.998 12C147.804 12.18 147.628 12.4067 147.468 12.68C147.314 12.9467 147.174 13.2533 147.048 13.6V20H145.258V9.87H146.278C146.471 9.87 146.604 9.90667 146.678 9.98C146.751 10.0533 146.801 10.18 146.828 10.36L146.948 11.9Z" fill="#7B7B7B"/>
<line x1="162.75" y1="11.75" x2="285.25" y2="11.75" stroke="black" stroke-width="0.5" stroke-linecap="round"/>
</svg>
