<svg width="24" height="25" viewBox="0 0 24 25" fill="none" xmlns="http://www.w3.org/2000/svg">
<path d="M16.125 6.6875C16.125 6.58437 16.0406 6.5 15.9375 6.5H6.9375C6.83438 6.5 6.75 6.58437 6.75 6.6875V7.8125C6.75 7.91563 6.83438 8 6.9375 8H15.9375C16.0406 8 16.125 7.91563 16.125 7.8125V6.6875ZM15.9375 9.875H6.9375C6.83438 9.875 6.75 9.95937 6.75 10.0625V11.1875C6.75 11.2906 6.83438 11.375 6.9375 11.375H15.9375C16.0406 11.375 16.125 11.2906 16.125 11.1875V10.0625C16.125 9.95937 16.0406 9.875 15.9375 9.875ZM11.25 13.25H6.9375C6.83438 13.25 6.75 13.3344 6.75 13.4375V14.5625C6.75 14.6656 6.83438 14.75 6.9375 14.75H11.25C11.3531 14.75 11.4375 14.6656 11.4375 14.5625V13.4375C11.4375 13.3344 11.3531 13.25 11.25 13.25ZM10.125 20.4688H4.875V3.96875H18V12.0312C18 12.1344 18.0844 12.2188 18.1875 12.2188H19.5C19.6031 12.2188 19.6875 12.1344 19.6875 12.0312V3.03125C19.6875 2.61641 19.3523 2.28125 18.9375 2.28125H3.9375C3.52266 2.28125 3.1875 2.61641 3.1875 3.03125V21.4062C3.1875 21.8211 3.52266 22.1562 3.9375 22.1562H10.125C10.2281 22.1562 10.3125 22.0719 10.3125 21.9688V20.6562C10.3125 20.5531 10.2281 20.4688 10.125 20.4688ZM18.4875 18.725C19.1672 18.1086 19.5938 17.218 19.5938 16.2266C19.5938 14.3633 18.082 12.8516 16.2188 12.8516C14.3555 12.8516 12.8438 14.3633 12.8438 16.2266C12.8438 17.218 13.2703 18.1086 13.95 18.725C12.6141 19.4867 11.6953 20.8977 11.625 22.5242C11.6203 22.6297 11.707 22.7188 11.8125 22.7188H12.9398C13.0383 22.7188 13.1203 22.6414 13.1273 22.5406C13.2188 20.9188 14.5711 19.625 16.2188 19.625C17.8664 19.625 19.2188 20.9188 19.3102 22.5406C19.3148 22.6391 19.3969 22.7188 19.4977 22.7188H20.625C20.7328 22.7188 20.8172 22.6297 20.8125 22.5242C20.7445 20.8953 19.8234 19.4867 18.4875 18.725ZM16.2188 14.3516C17.2547 14.3516 18.0938 15.1906 18.0938 16.2266C18.0938 17.2625 17.2547 18.1016 16.2188 18.1016C15.1828 18.1016 14.3438 17.2625 14.3438 16.2266C14.3438 15.1906 15.1828 14.3516 16.2188 14.3516Z" fill="white"/>
</svg>
