<svg width="116" height="116" viewBox="0 0 116 116" fill="none" xmlns="http://www.w3.org/2000/svg">
<path fill-rule="evenodd" clip-rule="evenodd" d="M52.8776 58.5124L53.3826 55.2954L52.2576 55.2692H46.8858L50.619 31.5301C50.6306 31.4582 50.6682 31.3915 50.7232 31.344C50.7784 31.2965 50.8486 31.2705 50.9222 31.2705H59.9802C62.9874 31.2705 65.0626 31.8979 66.146 33.1365C66.654 33.7176 66.9774 34.3249 67.134 34.9931C67.2982 35.6943 67.301 36.5319 67.1408 37.5538L67.1292 37.6281V38.283L67.6372 38.5716C68.0648 38.7992 68.4048 39.0596 68.6656 39.3576C69.1 39.8546 69.381 40.4862 69.4998 41.2346C69.6226 42.0044 69.582 42.9208 69.381 43.958C69.1492 45.151 68.7746 46.1902 68.2686 47.0404C67.8032 47.8238 67.2104 48.4738 66.5062 48.9772C65.8342 49.4558 65.0356 49.819 64.1328 50.0514C63.2576 50.2798 62.2602 50.395 61.166 50.395H60.461C59.9572 50.395 59.4676 50.5772 59.0832 50.9034C58.6978 51.2366 58.443 51.6918 58.3648 52.1894L58.3116 52.4792L57.4192 58.1494L57.3788 58.3574C57.368 58.4234 57.3496 58.4562 57.3226 58.4784C57.2986 58.4988 57.264 58.5124 57.23 58.5124H52.8776Z" fill="#7B7B7B"/>
<path fill-rule="evenodd" clip-rule="evenodd" d="M68.1178 37.7036C68.091 37.877 68.06 38.054 68.0252 38.2362C66.8308 44.3868 62.744 46.5116 57.5246 46.5116H54.867C54.2286 46.5116 53.6906 46.9762 53.5914 47.6076L51.8454 58.7146C51.7808 59.1294 52.0994 59.5028 52.5164 59.5028H57.23C57.788 59.5028 58.2622 59.0962 58.3502 58.5442L58.3964 58.3042L59.2838 52.6562L59.341 52.3464C59.4278 51.7924 59.903 51.3856 60.461 51.3856H61.166C65.7326 51.3856 69.3076 49.5264 70.3526 44.1456C70.7888 41.8978 70.563 40.021 69.408 38.701C69.0586 38.3032 68.625 37.9727 68.1178 37.7036Z" fill="#7B7B7B"/>
<path fill-rule="evenodd" clip-rule="evenodd" d="M66.8684 37.2039C66.6858 37.1504 66.4976 37.1022 66.3044 37.0585C66.1102 37.0159 65.9114 36.9782 65.7066 36.9451C64.9902 36.829 64.205 36.7739 63.364 36.7739H56.2644C56.0894 36.7739 55.9234 36.8135 55.7748 36.8851C55.4472 37.043 55.204 37.3539 55.1452 37.7345L53.6348 47.328L53.5914 47.6076C53.6908 46.9762 54.2288 46.5114 54.867 46.5114H57.5246C62.744 46.5114 66.8308 44.3856 68.0254 38.236C68.061 38.054 68.091 37.8769 68.1178 37.7035C67.8156 37.5427 67.4884 37.4052 67.136 37.288C67.0488 37.2589 66.959 37.231 66.8684 37.2039Z" fill="#7B7B7B"/>
<path fill-rule="evenodd" clip-rule="evenodd" d="M55.1452 37.7347C55.2042 37.3542 55.4472 37.0433 55.7748 36.8865C55.9244 36.8146 56.0894 36.775 56.2644 36.775H63.364C64.205 36.775 64.9902 36.8304 65.7068 36.9465C65.9114 36.9793 66.1102 37.0173 66.3044 37.0598C66.4976 37.1032 66.6858 37.1518 66.8684 37.205C66.959 37.2321 67.0488 37.2603 67.1368 37.2882C67.4892 37.4054 67.8168 37.544 68.119 37.7038C68.4744 35.4309 68.116 33.8834 66.8906 32.482C65.5396 30.9391 63.1014 30.2788 59.9812 30.2788H50.923C50.2858 30.2788 49.7422 30.7435 49.6436 31.3761L45.8708 55.3592C45.7964 55.8336 46.1614 56.2618 46.6386 56.2618H52.2306L55.1452 37.7347Z" fill="#7B7B7B"/>
<path fill-rule="evenodd" clip-rule="evenodd" d="M26.1892 65.042H19.585C19.133 65.042 18.7486 65.3712 18.678 65.8188L16.0069 82.802C15.9539 83.1374 16.2128 83.4392 16.5517 83.4392H19.7045C20.1564 83.4392 20.5408 83.1102 20.6114 82.6618L21.3318 78.081C21.4012 77.6326 21.7864 77.3034 22.2376 77.3034H24.3282C28.6786 77.3034 31.1892 75.192 31.8452 71.0086C32.1406 69.1782 31.8576 67.7402 31.0028 66.733C30.0642 65.627 28.3994 65.042 26.1892 65.042ZM26.951 71.245C26.5898 73.6214 24.7792 73.6214 23.0286 73.6214H22.0318L22.731 69.183C22.7726 68.9148 23.0042 68.7172 23.2748 68.7172H23.7316C24.9242 68.7172 26.0492 68.7172 26.6304 69.399C26.9772 69.8056 27.0832 70.41 26.951 71.245Z" fill="#7B7B7B"/>
<path fill-rule="evenodd" clip-rule="evenodd" d="M46.0992 71.0396H42.9366C42.6672 71.0396 42.4342 71.2372 42.3928 71.5054L42.2528 72.3924L42.0318 72.071C41.3472 71.0744 39.8202 70.7412 38.2966 70.7412C34.8016 70.7412 31.8168 73.3958 31.2354 77.1194C30.9332 78.9768 31.3628 80.753 32.4136 81.9916C33.3774 83.1304 34.7564 83.605 36.397 83.605C39.213 83.605 40.7742 81.7892 40.7742 81.7892L40.6334 82.6706C40.5804 83.0074 40.8392 83.3096 41.1762 83.3096H44.0248C44.4778 83.3096 44.8602 82.9804 44.9318 82.532L46.641 71.6768C46.695 71.3426 46.437 71.0396 46.0992 71.0396ZM41.6906 77.2126C41.3856 79.0242 39.9518 80.2406 38.1226 80.2406C37.2044 80.2406 36.4706 79.9452 35.999 79.3856C35.5316 78.8298 35.3542 78.0386 35.5026 77.1572C35.7878 75.3608 37.2458 74.1046 39.047 74.1046C39.945 74.1046 40.675 74.4042 41.156 74.9684C41.6376 75.5388 41.829 76.335 41.6906 77.2126Z" fill="#7B7B7B"/>
<path fill-rule="evenodd" clip-rule="evenodd" d="M62.699 71.311H59.5208C59.2176 71.311 58.9328 71.4622 58.761 71.715L54.3776 78.1898L52.5196 71.9676C52.4028 71.5782 52.0446 71.311 51.639 71.311H48.5162C48.1364 71.311 47.873 71.683 47.9936 72.0414L51.4942 82.3434L48.2032 87.0026C47.9444 87.3696 48.205 87.8742 48.6522 87.8742H51.8264C52.1278 87.8742 52.4096 87.7268 52.5806 87.4792L63.1508 72.1778C63.404 71.8118 63.144 71.311 62.699 71.311Z" fill="#7B7B7B"/>
<path fill-rule="evenodd" clip-rule="evenodd" d="M73.2938 65.042H66.6888C66.2378 65.042 65.8534 65.3712 65.7828 65.8188L63.1118 82.802C63.0588 83.1374 63.3176 83.4392 63.6546 83.4392H67.0442C67.3588 83.4392 67.6282 83.209 67.6774 82.8952L68.4356 78.081C68.505 77.6326 68.8906 77.3034 69.3414 77.3034H71.4312C75.7824 77.3034 78.2922 75.192 78.949 71.0086C79.2454 69.1782 78.9606 67.7402 78.1058 66.733C77.168 65.627 75.5042 65.042 73.2938 65.042ZM74.0558 71.245C73.6956 73.6214 71.8848 73.6214 70.1332 73.6214H69.1378L69.8378 69.183C69.8792 68.9148 70.109 68.7172 70.3804 68.7172H70.8372C72.0288 68.7172 73.1548 68.7172 73.736 69.399C74.0828 69.8056 74.188 70.41 74.0558 71.245Z" fill="#7B7B7B"/>
<path fill-rule="evenodd" clip-rule="evenodd" d="M93.1998 71.0396H90.039C89.7678 71.0396 89.537 71.2372 89.4964 71.5054L89.3564 72.3924L89.1342 72.071C88.4496 71.0744 86.9238 70.7412 85.3998 70.7412C81.9052 70.7412 78.9214 73.3958 78.3402 77.1194C78.0388 78.9768 78.4664 80.753 79.517 81.9916C80.483 83.1304 81.8598 83.605 83.5006 83.605C86.3164 83.605 87.8778 81.7892 87.8778 81.7892L87.737 82.6706C87.684 83.0074 87.9426 83.3096 88.2816 83.3096H91.1294C91.5804 83.3096 91.9646 82.9804 92.0352 82.532L93.7454 71.6768C93.7976 71.3426 93.5386 71.0396 93.1998 71.0396ZM88.7916 77.2126C88.4884 79.0242 87.0524 80.2406 85.2232 80.2406C84.3068 80.2406 83.5712 79.9452 83.0996 79.3856C82.6326 78.8298 82.4566 78.0386 82.6032 77.1572C82.8902 75.3608 84.3464 74.1046 86.1476 74.1046C87.0456 74.1046 87.7756 74.4042 88.2566 74.9684C88.7402 75.5388 88.9314 76.335 88.7916 77.2126Z" fill="#7B7B7B"/>
<path fill-rule="evenodd" clip-rule="evenodd" d="M96.6648 65.5088L93.9542 82.8028C93.9012 83.1382 94.1598 83.44 94.4968 83.44H97.222C97.675 83.44 98.0592 83.111 98.1286 82.6626L100.802 65.6802C100.855 65.345 100.596 65.042 100.259 65.042H97.2076C96.9382 65.0428 96.7064 65.2406 96.6648 65.5088Z" fill="#7B7B7B"/>
</svg>
