<svg width="270" height="269" viewBox="0 0 270 269" fill="none" xmlns="http://www.w3.org/2000/svg">
<path d="M254.019 180.149C254.224 142.204 201.109 111.155 135.383 110.8C69.6572 110.446 16.2098 140.919 16.0049 178.864C15.8 216.81 68.9152 247.858 134.641 248.213C200.367 248.568 253.814 218.095 254.019 180.149Z" fill="#949494"/>
<path d="M174.572 210.756L121.636 180.204C120.503 179.55 120.645 178.407 121.953 177.652L124.958 175.917C126.267 175.162 128.246 175.079 129.379 175.734L182.316 206.285C183.449 206.94 183.306 208.082 181.998 208.838L178.993 210.573C177.684 211.328 175.705 211.409 174.572 210.756Z" fill="#707070"/>
<path d="M179.779 60.6521L131.068 32.5287C130.154 32.0004 129.328 31.9853 128.684 32.3506L123.879 35.1304L129.536 39.5286L130.919 39.1783V154.609C130.919 157.317 132.565 160.462 134.595 161.634L177.306 192.897V194.824L182.277 191.922L182.276 191.903C182.997 191.424 183.455 190.422 183.455 189.005V67.6762C183.455 64.969 181.809 61.8238 179.779 60.6521Z" fill="#707070"/>
<path d="M172.33 70.9576V65.5098L167.54 69.1085L146.605 60.3348L130.919 48.9179V39.1768L129.529 39.5244L123.883 35.1316L128.686 32.3518C129.331 31.9919 130.15 32.0042 131.068 32.5256L179.776 60.6581C181.116 61.4275 182.283 63.0533 182.916 64.84L172.33 70.9576Z" fill="#E6E6E6"/>
<path d="M174.944 194.603L126.233 166.48C124.203 165.307 122.557 162.162 122.557 159.455V38.127C122.557 35.4198 124.203 34.1754 126.233 35.3477L174.944 63.4706C176.974 64.6429 178.62 67.788 178.62 70.4952V191.823C178.62 194.53 176.974 195.774 174.944 194.603Z" fill="#CCCCCC"/>
<path d="M123.631 160.171V38.6511C123.631 36.6777 124.831 35.7712 126.31 36.6255L174.866 64.6591C176.346 65.5134 177.545 67.8053 177.545 69.7787V191.299C177.545 193.272 176.345 194.179 174.866 193.324L126.31 165.291C124.831 164.437 123.631 162.145 123.631 160.171Z" fill="#333333"/>
<path d="M176.12 71.0688V188.779C176.12 190.53 174.885 191.223 173.369 190.348L127.812 164.045C126.287 163.165 125.05 161.032 125.05 159.281V41.5837C125.05 39.8331 126.287 39.1283 127.812 40.009L136.135 44.8144C136.483 45.0151 136.788 45.4547 136.884 45.8937L137.27 47.6524C137.56 49.3369 138.882 51.2102 140.43 52.1033L160.741 63.8306C162.288 64.7242 163.622 64.3836 163.901 63.0279L164.287 61.7146C164.383 61.387 164.688 61.2998 165.035 61.5005L173.369 66.3118C174.885 67.1861 176.12 69.3176 176.12 71.0688Z" fill="url(#paint0_linear_608_6216)"/>
<path d="M142.287 50.3971C142.287 51.3337 141.625 51.7109 140.809 51.2396C139.993 50.7683 139.331 49.6272 139.331 48.6905C139.331 47.7539 139.993 47.3768 140.809 47.848C141.625 48.3199 142.287 49.461 142.287 50.3971Z" fill="#666666"/>
<path d="M141.62 50.0118C141.62 50.5251 141.257 50.7317 140.81 50.4734C140.363 50.2152 140 49.5895 140 49.0768C140 48.5635 140.363 48.3569 140.81 48.6152C141.257 48.8729 141.62 49.4986 141.62 50.0118Z" fill="#333333"/>
<path d="M157.686 57.2066L143.234 48.8628C142.995 48.7256 142.803 48.3565 142.803 48.0391V47.4543C142.803 47.1369 142.996 46.9911 143.234 47.1288L157.686 55.4727C157.924 55.6104 158.117 55.9789 158.117 56.2963V56.8811C158.117 57.198 157.924 57.3444 157.686 57.2066Z" fill="black"/>
<path d="M182.105 86.375C181.818 86.2082 181.421 86.2319 180.983 86.4853C180.111 86.9883 179.409 88.2058 179.411 89.2076L179.452 103.629C179.454 104.123 179.63 104.473 179.914 104.638L180.789 105.146C180.505 104.981 180.329 104.631 180.327 104.137L180.286 89.716C180.283 88.7148 180.986 87.4973 181.858 86.9937C182.296 86.7403 182.693 86.7166 182.98 86.8834L182.105 86.375Z" fill="#E6E6E6"/>
<path d="M181.858 86.9937C182.729 86.4906 183.437 86.8936 183.439 87.8953L183.48 102.316C183.483 103.309 182.78 104.535 181.909 105.038C181.037 105.541 180.33 105.129 180.327 104.136L180.286 89.7154C180.283 88.7142 180.986 87.4967 181.858 86.9937Z" fill="#BFBFBF"/>
<path d="M182.114 88.6147C182.829 88.2021 183.41 88.5324 183.412 89.3539L183.446 101.183C183.448 101.997 182.872 103.004 182.157 103.416C181.442 103.829 180.862 103.491 180.859 102.676L180.826 90.8469C180.823 90.0264 181.399 89.0274 182.114 88.6147Z" fill="#CCCCCC"/>
<path d="M211.111 111.563L171.107 88.4676C170.404 88.0615 169.766 88.0243 169.305 88.2923L167.293 89.4619C167.754 89.1939 168.392 89.2311 169.095 89.6373L209.099 112.733C210.502 113.544 211.629 115.502 211.625 117.108L211.37 207.108C211.367 207.905 211.087 208.466 210.634 208.729L212.646 207.559C213.1 207.296 213.38 206.735 213.382 205.938L213.637 115.938C213.641 114.333 212.515 112.374 211.111 111.563Z" fill="white"/>
<path d="M211.624 117.108L211.609 122.958L211.371 207.11C211.363 208.716 210.233 209.362 208.829 208.552L168.826 185.451C167.421 184.649 166.292 182.694 166.299 181.088L166.537 96.9358L166.552 91.0861C166.559 89.4807 167.696 88.8265 169.094 89.6368L209.096 112.73C210.501 113.541 211.631 115.503 211.624 117.108Z" fill="#CCCCCC"/>
<path d="M210.494 118.703L210.48 124.261L210.254 204.218C210.247 205.743 209.174 206.358 207.839 205.588L169.831 183.639C168.496 182.876 167.423 181.019 167.43 179.493L167.656 99.5364L167.67 93.9784C167.677 92.4531 168.757 91.8317 170.085 92.6011L208.093 114.543C209.427 115.313 210.501 117.177 210.494 118.703Z" fill="#333333"/>
<path d="M181.046 113.278C181.761 113.691 182.34 114.692 182.337 115.512L182.302 127.823C182.3 128.643 181.718 128.975 181.002 128.562L169.592 121.974C168.876 121.561 168.298 120.559 168.301 119.74L168.336 107.428C168.338 106.608 168.92 106.277 169.635 106.689L181.046 113.278Z" fill="#CCCCCC"/>
<path d="M174.93 113.495C172.922 112.336 171.296 113.263 171.296 115.568C171.296 117.87 172.922 120.677 174.93 121.837C176.937 122.995 178.565 122.067 178.565 119.765C178.565 117.46 176.937 114.654 174.93 113.495ZM174.043 119.076V115.326L176.873 118.836L174.043 119.076Z" fill="#FF260F"/>
<path d="M177.919 137.16C178.433 137.457 178.85 138.178 178.848 138.77L178.822 147.904C178.821 148.496 178.402 148.732 177.887 148.435L169.938 143.845C169.423 143.548 169.009 142.83 169.011 142.239L169.037 133.105C169.038 132.514 169.455 132.274 169.969 132.571L177.919 137.16Z" fill="#CCCCCC"/>
<path d="M173.361 140.978L172.614 142.982L169.503 141.186L171.434 138.461C171.706 138.079 172.383 138.47 172.655 139.166L173.361 140.978Z" fill="url(#paint1_linear_608_6216)"/>
<path d="M174.587 144.122L172.614 142.983L173.361 140.978L174.587 144.122Z" fill="#FF260F"/>
<path d="M177.698 145.917L174.587 144.121L173.361 140.978L174.305 138.446C174.588 137.688 175.723 138.344 176.006 139.428L177.698 145.917Z" fill="url(#paint2_linear_608_6216)"/>
<path d="M173.375 137.415C173.375 137.855 173.064 138.033 172.68 137.811C172.297 137.589 171.986 137.053 171.986 136.613C171.986 136.173 172.297 135.995 172.68 136.217C173.064 136.438 173.375 136.975 173.375 137.415Z" fill="#FF260F"/>
<path d="M207.164 127.655C207.697 127.963 208.127 128.707 208.125 129.323L208.116 132.656C208.115 133.269 207.682 133.518 207.149 133.21L187.613 121.931C187.079 121.622 186.649 120.876 186.651 120.263L186.66 116.93C186.662 116.315 187.095 116.068 187.628 116.376L207.164 127.655Z" fill="#CCCCCC"/>
<path d="M206.515 129.696L188.598 119.3C188.393 119.182 188.227 119.308 188.227 119.581C188.227 119.855 188.393 120.172 188.598 120.291L206.515 130.687C206.72 130.805 206.887 130.68 206.887 130.406C206.886 130.132 206.72 129.814 206.515 129.696Z" fill="#FF260F"/>
<path d="M207.164 139.313C207.697 139.622 208.127 140.368 208.125 140.981L208.116 144.316C208.115 144.93 207.682 145.176 207.149 144.868L187.613 133.589C187.079 133.28 186.649 132.536 186.651 131.923L186.66 128.588C186.662 127.974 187.095 127.726 187.628 128.034L207.164 139.313Z" fill="#CCCCCC"/>
<path d="M206.515 141.167L188.598 130.772C188.393 130.653 188.227 130.779 188.227 131.052C188.227 131.326 188.393 131.644 188.598 131.763L206.515 142.158C206.72 142.276 206.887 142.15 206.887 141.877C206.886 141.603 206.72 141.285 206.515 141.167Z" fill="#FF260F"/>
<path d="M177.919 158.55C178.433 158.847 178.85 159.568 178.848 160.159L178.822 169.294C178.821 169.884 178.402 170.121 177.887 169.824L169.938 165.234C169.423 164.937 169.009 164.22 169.011 163.628L169.037 154.494C169.038 153.903 169.455 153.663 169.969 153.96L177.919 158.55Z" fill="#CCCCCC"/>
<path d="M177.659 161.653V161.666L173.872 161.984L170.028 157.248C170.028 157.099 170.133 157.039 170.263 157.114L177.424 161.248C177.554 161.324 177.659 161.504 177.659 161.653Z" fill="#FF260F"/>
<path d="M173.872 162.284L177.659 161.965V166.576C177.659 166.725 177.554 166.785 177.424 166.709L170.263 162.575C170.133 162.5 170.028 162.319 170.028 162.17V157.545L173.815 162.214L173.872 162.284Z" fill="#FF260F"/>
<path d="M206.835 195.277C207.551 195.69 208.127 196.688 208.125 197.51L208.117 200.172C208.115 200.995 207.535 201.328 206.82 200.914L171.451 180.494C170.737 180.082 170.159 179.081 170.161 178.259L170.169 175.597C170.171 174.775 170.753 174.445 171.466 174.857L206.835 195.277Z" fill="#CCCCCC"/>
<path d="M205.903 197.284L171.858 177.51C171.653 177.391 171.487 177.517 171.487 177.791C171.487 178.065 171.653 178.382 171.858 178.501L205.903 198.275C206.109 198.393 206.275 198.268 206.275 197.994C206.275 197.72 206.109 197.402 205.903 197.284Z" fill="#FF260F"/>
<path d="M192.432 166.913C192.946 167.21 193.363 167.931 193.361 168.523L193.335 177.657C193.334 178.248 192.915 178.484 192.4 178.188L184.451 173.598C183.936 173.301 183.522 172.583 183.524 171.992L183.55 162.858C183.551 162.267 183.968 162.027 184.483 162.324L192.432 166.913Z" fill="#CCCCCC"/>
<path d="M191.719 175.124L185.153 171.333C184.757 171.104 184.435 170.549 184.435 170.094V166.476C184.435 166.021 184.757 165.838 185.153 166.067L191.719 169.857C192.115 170.086 192.437 170.642 192.437 171.096V174.714C192.437 175.169 192.115 175.353 191.719 175.124ZM185.153 166.41C184.923 166.276 184.734 166.384 184.734 166.649V170.267C184.734 170.532 184.922 170.856 185.153 170.99L191.719 174.781C191.951 174.914 192.138 174.806 192.138 174.542V170.924C192.138 170.658 191.951 170.334 191.719 170.201L185.153 166.41Z" fill="#FF260F"/>
<path d="M188.436 172.639C187.473 172.083 186.69 170.732 186.69 169.627C186.69 168.523 187.473 168.076 188.436 168.632C189.399 169.188 190.182 170.539 190.182 171.644C190.182 172.749 189.399 173.195 188.436 172.639ZM188.436 168.975C187.638 168.515 186.989 168.885 186.989 169.8C186.989 170.716 187.638 171.835 188.436 172.296C189.234 172.756 189.883 172.386 189.883 171.471C189.883 170.555 189.234 169.436 188.436 168.975Z" fill="#FF260F"/>
<path d="M190.509 169.439L186.363 167.046V166.179C186.363 165.88 186.574 165.759 186.834 165.91L190.037 167.759C190.297 167.909 190.508 168.274 190.508 168.572V169.439H190.509ZM186.663 166.875L190.21 168.923V168.399C190.21 168.29 190.132 168.157 190.037 168.102L186.835 166.253C186.74 166.198 186.663 166.242 186.663 166.351V166.875Z" fill="#FF260F"/>
<path d="M207.198 175.423C207.712 175.72 208.127 176.44 208.125 177.031L208.099 186.165C208.098 186.757 207.681 186.994 207.166 186.697L199.217 182.108C198.702 181.811 198.286 181.092 198.288 180.501L198.313 171.366C198.315 170.775 198.734 170.536 199.248 170.833L207.198 175.423Z" fill="#CCCCCC"/>
<path d="M203.241 175.224C201.424 174.175 199.951 174.723 199.951 176.448C199.951 177.565 200.571 178.9 201.499 179.988C201.456 180.28 201.267 180.891 200.436 180.422C200.436 180.422 201.583 181.687 202.671 181.092C202.856 181.23 203.046 181.358 203.24 181.471C205.057 182.52 206.53 181.971 206.53 180.247C206.531 178.521 205.058 176.273 203.241 175.224Z" fill="#FF260F"/>
<path d="M206.628 153.702C207.457 154.181 208.128 155.343 208.126 156.298L208.103 164.118C208.101 165.071 207.426 165.456 206.596 164.977L184.034 151.95C183.204 151.471 182.534 150.309 182.536 149.356L182.558 141.537C182.561 140.582 183.236 140.197 184.066 140.676L206.628 153.702Z" fill="#CCCCCC"/>
<path d="M206.06 155.579L184.787 143.247C184.581 143.129 184.415 143.255 184.415 143.528C184.415 143.802 184.581 144.119 184.787 144.238L206.06 156.57C206.265 156.688 206.432 156.563 206.432 156.289C206.432 156.016 206.266 155.698 206.06 155.579Z" fill="#FF260F"/>
<path d="M206.06 158.532L184.787 146.2C184.581 146.082 184.415 146.208 184.415 146.481C184.415 146.754 184.581 147.072 184.787 147.191L206.06 159.523C206.265 159.641 206.432 159.516 206.432 159.242C206.432 158.968 206.266 158.651 206.06 158.532Z" fill="#FF260F"/>
<path d="M206.06 161.485L184.787 149.153C184.581 149.035 184.415 149.16 184.415 149.434C184.415 149.707 184.581 150.025 184.787 150.143L206.06 162.476C206.265 162.594 206.432 162.468 206.432 162.195C206.432 161.921 206.266 161.603 206.06 161.485Z" fill="#FF260F"/>
<path d="M211.624 117.108L211.609 122.958L166.537 96.9363L166.552 91.0866C166.559 89.4812 167.696 88.827 169.094 89.6373L209.096 112.73C210.501 113.541 211.631 115.503 211.624 117.108Z" fill="#CCCCCC"/>
<path d="M128.301 63.6177L88.2973 40.5218C87.5942 40.1157 86.9561 40.0785 86.495 40.3465L84.4824 41.5161C84.9434 41.2481 85.5815 41.2853 86.2847 41.6915L126.288 64.7873C127.692 65.5975 128.818 67.5558 128.814 69.1623L128.559 159.162C128.557 159.959 128.277 160.52 127.823 160.783L129.836 159.614C130.289 159.35 130.57 158.789 130.572 157.993L130.827 67.9927C130.831 66.3867 129.704 64.4279 128.301 63.6177Z" fill="#FFDD8C"/>
<path d="M128.814 69.1623L128.798 75.0115L128.561 159.164C128.553 160.769 127.423 161.416 126.019 160.606L86.0162 137.505C84.6115 136.702 83.4817 134.748 83.4892 133.142L83.727 48.9895L83.7421 43.1403C83.7496 41.5349 84.8869 40.8807 86.2841 41.691L126.287 64.7841C127.691 65.5948 128.821 67.5569 128.814 69.1623Z" fill="#FFAD66"/>
<path d="M127.684 70.7569L127.67 76.315L127.444 156.272C127.437 157.797 126.364 158.412 125.029 157.642L87.0206 135.693C85.6859 134.93 84.6125 133.073 84.6195 131.548L84.8455 51.5906L84.8595 46.0325C84.8665 44.5073 85.9468 43.8854 87.2746 44.6553L125.283 66.5971C126.617 67.3669 127.691 69.2317 127.684 70.7569Z" fill="#333333"/>
<path d="M99.208 83.1803C99.9235 83.5935 100.502 84.5947 100.499 85.4146L100.464 97.7268C100.462 98.5467 99.8799 98.8781 99.1644 98.4654L87.7534 91.8776C87.0379 91.4644 86.4595 90.4632 86.4622 89.6433L86.4972 77.3317C86.4993 76.5118 87.0814 76.1804 87.797 76.593L99.208 83.1803Z" fill="#FFAD66"/>
<path d="M93.0925 83.3983C91.0841 82.2389 89.4578 83.1659 89.4578 85.4707C89.4578 87.7733 91.0841 90.58 93.0925 91.74C95.0992 92.8983 96.7272 91.9702 96.7272 89.6676C96.7272 87.3628 95.0992 84.5566 93.0925 83.3983ZM92.2048 88.9789V85.2291L95.0347 88.7385L92.2048 88.9789Z" fill="white"/>
<path d="M99.9299 62.3769C100.67 62.8041 101.268 63.8408 101.266 64.6909L101.229 77.8277C101.226 78.6778 100.623 79.0178 99.8837 78.5906L88.4512 71.9899C87.7114 71.5627 87.1153 70.5303 87.118 69.6803L87.1551 56.5434C87.1578 55.6933 87.7572 55.3485 88.4969 55.7757L99.9299 62.3769Z" fill="#FFAD66"/>
<path d="M93.3744 67.8666L92.3006 70.7498L87.826 68.1663L90.6037 64.248C90.9938 63.6982 91.9692 64.261 92.3592 65.2616L93.3744 67.8666Z" fill="white"/>
<path d="M95.1374 72.3873L92.3006 70.7496L93.3744 67.8665L95.1374 72.3873Z" fill="#E6E6E6"/>
<path d="M99.612 74.9708L95.1375 72.3874L93.3744 67.8665L94.7318 64.2259C95.1385 63.1354 96.7724 64.079 97.1792 65.6392L99.612 74.9708Z" fill="white"/>
<path d="M93.3949 62.7427C93.3949 63.3759 92.9478 63.6309 92.3958 63.3124C91.8438 62.994 91.3967 62.2225 91.3967 61.5892C91.3967 60.956 91.8438 60.701 92.3958 61.0195C92.9478 61.338 93.3949 62.11 93.3949 62.7427Z" fill="#E6E6E6"/>
<path d="M124.353 78.9915C124.887 79.2998 125.317 80.0438 125.315 80.6593L125.306 83.9922C125.304 84.6055 124.872 84.8541 124.338 84.5458L104.802 73.2666C104.268 72.9584 103.839 72.2116 103.84 71.5988L103.85 68.2659C103.851 67.6505 104.285 67.404 104.818 67.7118L124.353 78.9915Z" fill="#FFAD66"/>
<path d="M123.705 81.032L105.788 70.6368C105.583 70.5184 105.416 70.6443 105.416 70.9176C105.416 71.1909 105.583 71.5089 105.788 71.6272L123.705 82.0225C123.91 82.1408 124.076 82.0155 124.076 81.7416C124.076 81.4683 123.91 81.1504 123.705 81.032Z" fill="white"/>
<path d="M124.353 86.8527C124.887 87.161 125.317 87.9077 125.315 88.521L125.306 91.8561C125.304 92.4694 124.872 92.7158 124.338 92.4075L104.802 81.1284C104.268 80.8201 103.839 80.0755 103.84 79.4627L103.85 76.1277C103.851 75.5143 104.285 75.2658 104.818 75.574L124.353 86.8527Z" fill="#FFAD66"/>
<path d="M123.705 88.7061L105.788 78.3109C105.583 78.1925 105.416 78.3184 105.416 78.5917C105.416 78.865 105.583 79.183 105.788 79.3019L123.705 89.6971C123.91 89.8155 124.076 89.6896 124.076 89.4163C124.076 89.1424 123.91 88.8245 123.705 88.7061Z" fill="white"/>
<path d="M95.1089 103.867C95.6233 104.164 96.0397 104.885 96.0381 105.476L96.0122 114.61C96.0106 115.202 95.5915 115.438 95.0772 115.141L87.1277 110.551C86.6134 110.254 86.1991 109.537 86.2007 108.945L86.2265 99.8106C86.2282 99.2193 86.6451 98.9794 87.1594 99.2764L95.1089 103.867Z" fill="#FFAD66"/>
<path d="M94.8485 106.97V106.983L91.0615 107.301L87.2181 102.565C87.2181 102.416 87.323 102.356 87.4526 102.431L94.614 106.565C94.7436 106.64 94.8485 106.822 94.8485 106.97Z" fill="white"/>
<path d="M91.0615 107.602L94.8485 107.283V111.893C94.8485 112.042 94.7436 112.102 94.614 112.027L87.4526 107.893C87.323 107.818 87.2181 107.637 87.2181 107.488V102.863L91.0051 107.532L91.0615 107.602Z" fill="white"/>
<path d="M124.025 147.262C124.741 147.675 125.317 148.673 125.315 149.495L125.307 152.157C125.305 152.979 124.725 153.312 124.01 152.899L88.6405 132.478C87.9272 132.066 87.3488 131.065 87.351 130.242L87.3585 127.581C87.3606 126.759 87.9428 126.429 88.6567 126.841L124.025 147.262Z" fill="#FFAD66"/>
<path d="M123.093 149.269L89.0478 129.495C88.8428 129.376 88.6761 129.502 88.6761 129.776C88.6761 130.049 88.8423 130.367 89.0478 130.486L123.093 150.26C123.298 150.378 123.465 150.253 123.465 149.979C123.465 149.705 123.299 149.387 123.093 149.269Z" fill="white"/>
<path d="M124.025 138.372C124.741 138.785 125.317 139.783 125.315 140.605L125.307 143.268C125.305 144.09 124.725 144.423 124.01 144.009L88.6405 123.589C87.9272 123.177 87.3488 122.176 87.351 121.354L87.3585 118.692C87.3606 117.87 87.9428 117.54 88.6567 117.952L124.025 138.372Z" fill="#FFAD66"/>
<path d="M123.093 140.379L89.0478 120.605C88.8428 120.486 88.6761 120.612 88.6761 120.886C88.6761 121.159 88.8423 121.477 89.0478 121.596L123.093 141.371C123.298 141.489 123.465 141.364 123.465 141.09C123.465 140.815 123.299 140.497 123.093 140.379Z" fill="white"/>
<path d="M109.622 112.23C110.136 112.527 110.553 113.248 110.551 113.84L110.525 122.974C110.524 123.565 110.105 123.802 109.59 123.505L101.641 118.915C101.126 118.618 100.712 117.9 100.714 117.309L100.74 108.175C100.741 107.584 101.158 107.344 101.673 107.641L109.622 112.23Z" fill="#FFAD66"/>
<path d="M108.909 120.441L102.343 116.651C101.947 116.422 101.625 115.866 101.625 115.411V111.793C101.625 111.339 101.947 111.155 102.343 111.384L108.909 115.175C109.305 115.403 109.627 115.959 109.627 116.414V120.032C109.627 120.486 109.305 120.67 108.909 120.441ZM102.343 111.727C102.112 111.594 101.924 111.701 101.924 111.966V115.584C101.924 115.849 102.112 116.174 102.343 116.307L108.909 120.098C109.139 120.231 109.328 120.124 109.328 119.859V116.241C109.328 115.976 109.14 115.651 108.909 115.518L102.343 111.727Z" fill="white"/>
<path d="M105.626 117.956C104.663 117.4 103.879 116.049 103.879 114.944C103.879 113.839 104.663 113.393 105.626 113.949C106.588 114.505 107.372 115.856 107.372 116.961C107.372 118.065 106.589 118.512 105.626 117.956ZM105.626 114.292C104.828 113.832 104.179 114.202 104.179 115.117C104.179 116.032 104.828 117.152 105.626 117.613C106.424 118.073 107.072 117.703 107.072 116.788C107.072 115.873 106.424 114.753 105.626 114.292Z" fill="white"/>
<path d="M107.699 114.756L103.553 112.363V111.495C103.553 111.197 103.764 111.076 104.024 111.226L107.227 113.075C107.487 113.226 107.698 113.59 107.698 113.889L107.699 114.756ZM103.853 112.192L107.4 114.24V113.716C107.4 113.608 107.322 113.474 107.227 113.419L104.025 111.57C103.929 111.515 103.853 111.559 103.853 111.668V112.192Z" fill="white"/>
<path d="M124.388 120.74C124.902 121.037 125.317 121.757 125.315 122.348L125.289 131.483C125.288 132.074 124.871 132.312 124.356 132.015L116.406 127.425C115.892 127.128 115.475 126.409 115.477 125.818L115.503 116.684C115.505 116.093 115.924 115.854 116.438 116.151L124.388 120.74Z" fill="#FFAD66"/>
<path d="M120.431 120.541C118.614 119.492 117.141 120.04 117.141 121.765C117.141 122.882 117.761 124.217 118.689 125.306C118.646 125.597 118.457 126.208 117.626 125.739C117.626 125.739 118.773 127.004 119.861 126.409C120.046 126.547 120.236 126.676 120.43 126.788C122.247 127.837 123.72 127.289 123.72 125.564C123.72 123.839 122.248 121.59 120.431 120.541Z" fill="white"/>
<path d="M123.818 100.871C124.647 101.35 125.318 102.512 125.315 103.468L125.293 111.287C125.29 112.24 124.615 112.625 123.785 112.146L104.034 100.773C103.205 100.294 102.534 99.132 102.537 98.1792L102.559 90.3599C102.561 89.4044 103.237 89.0198 104.066 89.4986L123.818 100.871Z" fill="#FFAD66"/>
<path d="M123.25 102.748L104.788 92.0696C104.583 91.9513 104.416 92.0772 104.416 92.3505C104.416 92.6243 104.583 92.9423 104.788 93.0607L123.25 103.739C123.455 103.858 123.622 103.732 123.622 103.459C123.622 103.185 123.456 102.867 123.25 102.748Z" fill="white"/>
<path d="M123.25 105.702L104.788 95.0228C104.583 94.9044 104.416 95.0303 104.416 95.3036C104.416 95.5775 104.583 95.8949 104.788 96.0138L123.25 106.693C123.455 106.811 123.622 106.685 123.622 106.412C123.622 106.138 123.456 105.82 123.25 105.702Z" fill="white"/>
<path d="M123.25 108.654L104.788 97.9754C104.583 97.8565 104.416 97.9829 104.416 98.2562C104.416 98.5295 104.583 98.8475 104.788 98.9659L123.25 109.645C123.455 109.763 123.622 109.637 123.622 109.364C123.622 109.09 123.456 108.773 123.25 108.654Z" fill="white"/>
<path d="M128.814 69.1623L128.799 75.0114L83.727 48.99L83.7421 43.1408C83.7496 41.5354 84.8869 40.8812 86.2841 41.6915L126.287 64.7846C127.691 65.5948 128.821 67.5569 128.814 69.1623Z" fill="#FFAD66"/>
<path d="M139.881 118.738L99.8778 95.6415C99.1746 95.2353 98.5365 95.1982 98.0755 95.4661L96.0628 96.6357C96.5239 96.3678 97.1619 96.4049 97.8651 96.8111L137.869 119.907C139.272 120.718 140.399 122.676 140.395 124.282L140.14 214.282C140.137 215.079 139.857 215.64 139.404 215.903L141.416 214.733C141.87 214.47 142.15 213.909 142.152 213.112L142.407 123.112C142.412 121.506 141.285 119.548 139.881 118.738Z" fill="#FF260F"/>
<path d="M140.394 124.282L140.379 130.132L140.141 214.284C140.134 215.89 139.004 216.537 137.599 215.726L97.5966 192.626C96.1919 191.823 95.0621 189.868 95.0696 188.262L95.3074 104.11L95.322 98.2605C95.3295 96.6551 96.4668 96.0009 97.864 96.8111L137.866 119.904C139.272 120.714 140.402 122.677 140.394 124.282Z" fill="#FF260F"/>
<path d="M139.264 125.877L139.25 131.435L139.024 211.392C139.017 212.917 137.944 213.531 136.609 212.761L98.6011 190.813C97.2663 190.05 96.193 188.193 96.2 186.667L96.4259 106.71L96.4399 101.152C96.4469 99.627 97.5272 99.0056 98.855 99.7755L136.863 121.717C138.198 122.487 139.272 124.352 139.264 125.877Z" fill="#333333"/>
<path d="M110.966 137.886C111.682 138.299 112.26 139.301 112.258 140.121L112.223 152.432C112.221 153.252 111.638 153.584 110.923 153.171L99.5125 146.583C98.7969 146.17 98.2186 145.169 98.2213 144.349L98.2562 132.037C98.2584 131.217 98.8405 130.885 99.556 131.298L110.966 137.886Z" fill="#FF260F"/>
<path d="M104.851 138.104C102.843 136.945 101.216 137.872 101.216 140.176C101.216 142.479 102.843 145.286 104.851 146.445C106.858 147.604 108.486 146.676 108.486 144.373C108.486 142.069 106.858 139.262 104.851 138.104ZM103.963 143.685V139.935L106.793 143.444L103.963 143.685Z" fill="white"/>
<path d="M107.84 117.506C108.354 117.803 108.77 118.524 108.769 119.115L108.743 128.249C108.741 128.84 108.322 129.077 107.808 128.78L99.8584 124.19C99.3441 123.893 98.9298 123.176 98.9314 122.585L98.9572 113.45C98.9588 112.859 99.3758 112.619 99.8901 112.916L107.84 117.506Z" fill="#FF260F"/>
<path d="M103.282 121.323L102.535 123.327L99.4237 121.531L101.355 118.807C101.626 118.424 102.304 118.816 102.576 119.511L103.282 121.323Z" fill="white"/>
<path d="M104.507 124.466L102.535 123.327L103.282 121.323L104.507 124.466Z" fill="#E6E6E6"/>
<path d="M107.618 126.263L104.507 124.466L103.282 121.323L104.226 118.791C104.509 118.033 105.645 118.689 105.928 119.774L107.618 126.263Z" fill="white"/>
<path d="M103.296 117.76C103.296 118.2 102.985 118.378 102.601 118.156C102.218 117.934 101.907 117.398 101.907 116.958C101.907 116.518 102.218 116.34 102.601 116.562C102.985 116.784 103.296 117.32 103.296 117.76Z" fill="#E6E6E6"/>
<path d="M135.933 151.636C136.467 151.945 136.897 152.689 136.895 153.304L136.886 156.637C136.885 157.251 136.452 157.499 135.918 157.191L116.383 145.912C115.849 145.604 115.419 144.857 115.421 144.244L115.43 140.911C115.431 140.296 115.864 140.05 116.398 140.357L135.933 151.636Z" fill="#FF260F"/>
<path d="M135.285 153.677L117.369 143.282C117.164 143.164 116.997 143.289 116.997 143.563C116.997 143.836 117.163 144.154 117.369 144.272L135.285 154.668C135.49 154.786 135.657 154.661 135.657 154.387C135.656 154.113 135.49 153.795 135.285 153.677Z" fill="white"/>
<path d="M135.933 163.294C136.467 163.603 136.897 164.349 136.895 164.962L136.886 168.297C136.885 168.911 136.452 169.157 135.918 168.849L116.383 157.569C115.849 157.261 115.419 156.517 115.421 155.904L115.43 152.569C115.431 151.955 115.864 151.707 116.398 152.015L135.933 163.294Z" fill="#FF260F"/>
<path d="M135.285 165.148L117.369 154.753C117.164 154.634 116.997 154.76 116.997 155.033C116.997 155.307 117.163 155.625 117.369 155.743L135.285 166.138C135.49 166.257 135.657 166.131 135.657 165.857C135.656 165.584 135.49 165.266 135.285 165.148Z" fill="white"/>
<path d="M106.689 174.776C107.204 175.073 107.62 175.794 107.618 176.385L107.593 185.52C107.591 186.11 107.172 186.347 106.658 186.05L98.7081 181.461C98.1938 181.164 97.7795 180.446 97.7812 179.855L97.807 170.72C97.8086 170.13 98.2255 169.89 98.7399 170.187L106.689 174.776Z" fill="#FF260F"/>
<path d="M106.429 177.879V177.892L102.642 178.21L98.7985 173.473C98.7985 173.325 98.9034 173.265 99.0331 173.34L106.194 177.474C106.324 177.549 106.429 177.731 106.429 177.879Z" fill="white"/>
<path d="M102.642 178.51L106.429 178.191V182.802C106.429 182.95 106.324 183.011 106.194 182.936L99.0331 178.801C98.9034 178.726 98.7985 178.545 98.7985 178.397V173.771L102.586 178.44L102.642 178.51Z" fill="white"/>
<path d="M135.606 176.546C136.321 176.959 136.898 177.957 136.895 178.779L136.888 181.441C136.886 182.263 136.305 182.596 135.59 182.183L100.221 161.763C99.5076 161.351 98.9293 160.35 98.9314 159.527L98.9389 156.865C98.9416 156.043 99.5232 155.714 100.237 156.126L135.606 176.546Z" fill="#FF260F"/>
<path d="M134.673 178.553L100.629 158.779C100.424 158.66 100.257 158.786 100.257 159.059C100.257 159.333 100.423 159.651 100.629 159.769L134.673 179.544C134.879 179.662 135.045 179.537 135.045 179.263C135.045 178.99 134.879 178.672 134.673 178.553Z" fill="white"/>
<path d="M121.202 183.139C121.717 183.436 122.133 184.157 122.132 184.748L122.106 193.882C122.104 194.474 121.685 194.71 121.171 194.413L113.221 189.823C112.707 189.526 112.293 188.809 112.294 188.217L112.32 179.083C112.322 178.492 112.739 178.252 113.253 178.549L121.202 183.139Z" fill="#FF260F"/>
<path d="M120.489 191.35L113.923 187.559C113.527 187.331 113.205 186.775 113.205 186.32V182.702C113.205 182.248 113.527 182.064 113.923 182.293L120.489 186.084C120.885 186.312 121.207 186.868 121.207 187.323V190.941C121.208 191.395 120.886 191.579 120.489 191.35ZM113.923 182.636C113.693 182.502 113.504 182.61 113.504 182.875V186.493C113.504 186.758 113.692 187.082 113.923 187.216L120.489 191.006C120.72 191.14 120.908 191.033 120.908 190.768V187.149C120.908 186.884 120.72 186.56 120.489 186.426L113.923 182.636Z" fill="white"/>
<path d="M117.206 188.865C116.243 188.309 115.46 186.958 115.46 185.853C115.46 184.748 116.243 184.302 117.206 184.858C118.169 185.414 118.952 186.765 118.952 187.87C118.953 188.974 118.169 189.421 117.206 188.865ZM117.206 185.201C116.408 184.74 115.76 185.11 115.76 186.025C115.76 186.941 116.409 188.06 117.206 188.521C118.004 188.982 118.653 188.612 118.653 187.697C118.653 186.781 118.004 185.661 117.206 185.201Z" fill="white"/>
<path d="M119.28 185.665L115.134 183.272V182.404C115.134 182.106 115.345 181.985 115.605 182.135L118.808 183.984C119.068 184.134 119.28 184.499 119.28 184.798V185.665ZM115.433 183.101L118.98 185.149V184.625C118.98 184.516 118.903 184.383 118.808 184.328L115.605 182.479C115.51 182.424 115.432 182.468 115.432 182.577V183.101H115.433Z" fill="white"/>
<path d="M135.968 191.649C136.483 191.946 136.897 192.666 136.895 193.257L136.87 202.392C136.868 202.983 136.451 203.22 135.936 202.923L127.987 198.333C127.472 198.036 127.056 197.318 127.057 196.726L127.083 187.592C127.085 187.001 127.504 186.762 128.018 187.06L135.968 191.649Z" fill="#FF260F"/>
<path d="M132.011 191.45C130.195 190.401 128.722 190.949 128.722 192.674C128.722 193.791 129.341 195.126 130.27 196.214C130.227 196.506 130.037 197.116 129.206 196.647C129.206 196.647 130.354 197.913 131.441 197.318C131.626 197.455 131.816 197.584 132.011 197.696C133.828 198.746 135.301 198.197 135.301 196.472C135.301 194.748 133.828 192.499 132.011 191.45Z" fill="white"/>
<path d="M135.398 133.42C136.228 133.899 136.899 135.061 136.895 136.016L136.873 143.835C136.871 144.788 136.195 145.173 135.366 144.694L112.804 131.668C111.974 131.189 111.303 130.027 111.306 129.074L111.328 121.256C111.331 120.3 112.006 119.916 112.835 120.394L135.398 133.42Z" fill="#FF260F"/>
<path d="M134.831 135.297L113.557 122.965C113.352 122.847 113.185 122.972 113.185 123.246C113.185 123.52 113.351 123.838 113.557 123.956L134.831 136.288C135.036 136.407 135.202 136.28 135.202 136.007C135.202 135.733 135.036 135.415 134.831 135.297Z" fill="white"/>
<path d="M134.831 138.25L113.557 125.918C113.352 125.8 113.185 125.925 113.185 126.199C113.185 126.473 113.351 126.791 113.557 126.909L134.831 139.241C135.036 139.36 135.202 139.234 135.202 138.96C135.202 138.686 135.036 138.369 134.831 138.25Z" fill="white"/>
<path d="M134.831 141.203L113.557 128.871C113.352 128.752 113.185 128.878 113.185 129.152C113.185 129.425 113.351 129.743 113.557 129.862L134.831 142.194C135.036 142.312 135.202 142.186 135.202 141.913C135.202 141.639 135.036 141.321 134.831 141.203Z" fill="white"/>
<path d="M140.394 124.282L140.379 130.132L95.3075 104.111L95.322 98.2609C95.3295 96.6556 96.4669 96.0013 97.864 96.8116L137.866 119.905C139.272 120.714 140.402 122.677 140.394 124.282Z" fill="#FF260F"/>
<path d="M95.4985 224.778C95.5239 220.082 88.9494 216.239 80.814 216.195C72.6786 216.151 66.063 219.923 66.0377 224.619C66.0123 229.316 72.5868 233.159 80.7222 233.203C88.8576 233.247 95.4732 229.475 95.4985 224.778Z" fill="#707070"/>
<path d="M72.0417 173.339C72.011 173.311 71.9642 173.313 71.9228 173.317C71.3901 173.369 70.8661 173.515 70.383 173.745C70.001 173.928 69.6427 174.163 69.2435 174.303C69.0428 174.374 68.8083 174.493 68.599 174.43C68.5258 174.408 68.4613 174.362 68.3935 174.323C67.268 173.532 66.3432 172.481 65.555 171.351C65.0912 170.686 64.6684 169.995 64.253 169.299C64.0448 168.951 63.8388 168.602 63.6306 168.255C63.3874 167.85 63.1173 167.541 63.4826 167.113C64.5683 165.84 65.6206 164.537 66.638 163.208C67.0313 162.693 67.4251 162.165 67.6424 161.555C67.7968 161.122 67.8571 160.662 67.9163 160.206C68.0228 159.384 68.1336 158.56 68.16 157.731C68.182 157.049 67.5499 156.803 66.9393 156.752C65.2871 156.617 63.6688 157.497 62.9989 159.014C62.7837 159.501 62.6197 160.011 62.3652 160.479C61.9784 161.19 61.3989 161.772 60.8771 162.391C59.6564 163.839 58.7358 165.512 57.8497 167.186C57.6491 167.565 57.4882 168.02 57.6765 168.435C57.8971 168.923 58.32 169.345 58.6767 169.735C59.8091 170.972 60.9836 172.17 62.1979 173.327C63.1243 174.21 64.0825 175.075 65.1902 175.716C65.8364 176.09 66.5255 176.383 67.2174 176.664C68.444 177.161 69.746 177.63 71.0598 177.468C71.0684 177.083 71.0006 176.692 71.2347 176.371C71.4262 176.109 71.7248 175.924 71.848 175.616C71.9082 175.453 71.9233 175.278 71.9373 175.105C71.9819 174.559 72.0261 174.013 72.0707 173.467C72.0734 173.422 72.0745 173.37 72.0417 173.339Z" fill="#FFB78C"/>
<path d="M67.4859 154.661C67.2588 154.754 67.0356 154.857 66.8171 154.969C65.6615 155.562 64.6985 156.458 63.8049 157.39C63.2836 157.933 62.7773 158.493 62.3146 159.088C61.7029 159.874 61.1606 160.717 60.7248 161.615C60.4472 162.186 61.1698 162.92 61.5464 163.285C62.2872 164.003 63.1851 164.595 64.1955 164.803C64.8072 164.929 65.4404 164.91 66.0618 164.846C66.5341 164.799 67.0135 164.722 67.4348 164.504C67.4574 164.492 67.4821 164.478 67.4907 164.454C67.4999 164.428 67.488 164.4 67.4762 164.375C67.3611 164.136 67.1889 163.843 67.2061 163.567C67.2212 163.323 67.4444 163.04 67.5515 162.816C67.8259 162.242 68.0696 161.654 68.2794 161.053C68.5726 160.216 68.8018 159.356 69.1569 158.543C69.3194 158.171 69.5093 157.805 69.5916 157.407C69.6664 157.045 69.6492 156.671 69.6266 156.302C69.604 155.919 69.5943 155.477 69.4324 155.121C69.3646 154.972 69.2634 154.877 69.251 154.712C69.2371 154.524 69.2677 154.323 69.3129 154.14C69.1951 154.159 69.0778 154.181 68.9611 154.206C68.457 154.313 67.9631 154.466 67.4859 154.661Z" fill="#F2F2F2"/>
<path d="M69.2812 224.125C69.2553 224.894 69.3974 225.929 70.1312 226.303C70.5955 226.54 71.1604 226.556 71.6505 226.375C72.4398 226.085 72.9692 225.362 73.5905 224.796C74.0242 224.4 74.5283 224.068 75.0926 223.908C75.53 223.783 75.9895 223.766 76.4398 223.705C77.9118 223.506 79.281 222.846 80.5673 222.103C81.2796 221.691 81.4104 220.71 80.7825 220.14C80.3634 219.76 79.7469 219.719 79.1814 219.699C77.066 219.623 74.9232 219.558 72.8583 220.024C72.4371 220.119 72.0158 220.238 71.6419 220.454C71.3578 220.618 71.0991 220.824 70.8699 221.058C70.7483 221.182 70.7106 221.289 70.5299 221.223C70.4884 221.208 70.2447 221.024 70.298 220.964C70.0338 221.259 69.88 221.636 69.746 222.009C69.5136 222.656 69.3242 223.324 69.286 224.01C69.2839 224.048 69.2822 224.086 69.2812 224.125Z" fill="#FF260F"/>
<path d="M76.2219 176.994C76.0535 176.461 75.8797 175.916 75.5435 175.47C75.2218 175.043 74.7725 174.733 74.3249 174.44C73.3097 173.776 71.679 173.19 70.7919 174.398C70.4965 174.799 70.3755 175.336 70.1839 175.79C69.838 176.61 69.4442 177.408 69.1133 178.235C68.7227 179.21 68.3833 180.207 68.1449 181.231C67.6236 183.47 67.6085 185.895 68.5436 187.994C68.7862 188.539 69.0918 189.061 69.2467 189.637C69.3915 190.175 69.4001 190.739 69.4049 191.296C69.4055 191.341 69.406 191.387 69.406 191.433C69.427 193.718 69.4168 196.004 69.3753 198.289C69.3549 199.431 69.3215 200.573 69.2903 201.715C69.2769 202.211 69.3102 202.674 69.2306 203.176C69.1467 203.701 69.0176 204.219 68.9153 204.741C68.7394 205.638 68.5678 206.535 68.4591 207.443C68.3515 208.342 68.2961 209.248 68.3262 210.153C68.4005 212.405 68.9896 214.592 69.4313 216.789C69.6535 217.894 69.8429 219.011 69.908 220.138C69.9392 220.681 69.9036 221.214 69.901 221.755C69.8988 222.236 70.2889 222.483 70.7671 222.568C71.1642 222.638 71.5731 222.569 71.9626 222.464C72.4952 222.319 73.0101 222.108 73.4905 221.836C73.9187 221.594 74.3454 221.268 74.4831 220.796C74.5633 220.52 74.5348 220.226 74.5057 219.94C74.1076 215.968 73.8714 211.943 74.4718 207.996C74.5493 207.487 74.6085 206.975 74.7247 206.473C74.8339 205.998 75.0464 205.662 75.2385 205.234C75.6511 204.313 75.9561 203.344 76.1972 202.365C76.6857 200.376 76.8993 198.334 77.1446 196.305C77.2452 195.471 77.3506 194.637 77.4814 193.807C77.7843 191.889 78.2297 189.986 78.3233 188.047C78.5047 184.28 77.3566 180.59 76.2219 176.994Z" fill="#333333"/>
<path d="M79.7759 226.044C79.5693 226.738 79.4252 227.545 79.8346 228.143C80.1547 228.61 80.7438 228.824 81.3087 228.867C81.5712 228.888 81.8392 228.876 82.0926 228.804C82.4417 228.704 82.7462 228.494 83.061 228.313C83.4176 228.108 83.7975 227.937 84.2004 227.854C84.8342 227.724 85.4889 227.817 86.1362 227.822C86.7457 227.827 87.3531 227.752 87.9551 227.655C88.7987 227.52 89.6466 227.336 90.4079 226.948C91.1692 226.559 91.8433 225.945 92.1537 225.149C92.2629 224.868 92.3259 224.562 92.2844 224.264C92.2016 223.667 91.7109 223.192 91.1584 222.952C90.6059 222.713 89.9925 222.665 89.3921 222.611C88.0714 222.493 86.7527 222.329 85.4265 222.314C84.1004 222.3 82.757 222.44 81.5174 222.911C81.2425 223.016 80.9681 223.14 80.7551 223.343C80.4043 223.677 80.4845 224.107 80.3161 224.516C80.1106 225.016 79.9303 225.526 79.7759 226.044Z" fill="url(#paint3_linear_608_6216)"/>
<path d="M85.5917 196.493C85.943 193.821 85.9231 191.34 85.3878 188.697C84.5394 184.507 83.5538 180.298 83.1557 176.032C83.2434 176.981 82.2567 178.677 81.5013 179.222C81.2092 179.439 80.6179 179.469 80.2688 179.496C79.3821 179.566 78.474 179.407 77.6471 179.087C76.5065 178.644 75.5155 177.946 74.4524 177.357C73.6347 176.905 72.783 176.056 71.9185 176.796C70.3018 178.18 69.5507 180.931 69.526 182.967C69.463 188.099 74.0871 191.218 75.678 195.791C76.1466 197.136 76.4344 198.537 76.7206 199.933C76.9541 201.067 77.1866 202.202 77.4195 203.338C77.6498 204.459 77.8677 205.601 77.8397 206.75C77.8112 207.916 77.6223 209.071 77.5793 210.236C77.5449 211.176 77.7127 212.151 77.873 213.074C78.0248 213.949 78.2217 214.816 78.4412 215.676C79.1239 218.348 80.0191 220.975 80.4253 223.703C80.4544 223.898 80.4614 224.245 80.5846 224.407C80.704 224.565 80.938 224.579 81.1387 224.605C81.6476 224.671 82.1706 224.61 82.658 224.454C83.3241 224.241 83.9272 223.857 84.4587 223.403C84.9203 223.008 85.2818 222.538 85.1549 221.921C84.9929 221.136 84.8122 220.357 84.6804 219.565C84.4253 218.03 84.2736 216.479 84.2263 214.925C84.1687 213.016 84.307 211.108 84.2564 209.199C84.2268 208.074 84.1849 206.889 84.2344 205.742C84.286 204.534 84.5555 203.409 84.7406 202.226C85.0413 200.316 85.3399 198.408 85.5917 196.493Z" fill="#424242"/>
<path d="M83.4946 167.543C83.5323 166.843 83.8615 166.198 84.0918 165.536C84.3446 164.808 84.4818 164.041 84.4958 163.27C84.5023 162.935 84.4829 162.589 84.3382 162.287C84.1563 161.907 83.8018 161.644 83.4585 161.399C83.1648 161.189 82.87 160.982 82.5735 160.776C81.0924 159.747 79.5806 158.763 78.0533 157.805C77.2893 157.326 76.5216 156.853 75.7517 156.384C75.4117 156.177 75.1481 155.995 74.7693 155.889C74.3793 155.78 74.0183 155.589 73.6497 155.425C72.8653 155.074 72.0481 154.922 71.2352 154.676C70.8489 154.56 70.4567 154.456 70.0564 154.405C69.1477 154.289 68.2003 154.452 67.3992 154.897C66.6347 155.321 66.0327 155.992 65.6728 156.787C65.4086 157.37 65.2639 158.016 65.1983 158.664C65.1692 158.953 65.1558 159.242 65.1547 159.525C65.1499 160.793 65.499 162.06 66.0677 163.177C66.8074 164.629 67.657 165.99 68.5775 167.319C69.4216 168.538 69.7126 170.298 69.803 171.743C69.9289 173.758 69.5868 175.775 69.293 177.76C69.2408 178.114 69.1881 178.476 69.2467 178.829C69.3968 179.737 70.22 180.364 71.0065 180.844C72.7228 181.89 74.6009 182.715 76.5877 183.021C78.5746 183.327 80.6792 183.087 82.4423 182.122C82.813 181.919 83.1788 181.673 83.3951 181.31C83.6635 180.859 83.6581 180.302 83.6485 179.777C83.614 177.951 83.5215 176.126 83.5473 174.299C83.5645 173.112 83.762 171.938 83.8448 170.755C83.882 170.219 83.9508 169.636 83.7991 169.12C83.6447 168.593 83.4639 168.113 83.4946 167.543Z" fill="#D9D9D9"/>
<path d="M69.6266 154.655C69.5975 154.797 69.6319 154.903 69.6223 155.042C69.6088 155.23 69.5034 155.401 69.4808 155.589C69.4582 155.775 69.512 155.964 69.5927 156.133C69.7907 156.549 70.1517 156.873 70.56 157.087C70.9678 157.301 71.4224 157.412 71.8776 157.482C72.4435 157.569 73.017 157.593 73.5895 157.618C74.0979 157.64 74.609 157.661 75.1152 157.609C75.4407 157.575 75.7829 157.501 76.0191 157.275C76.3134 156.992 76.2418 156.732 76.2251 156.378C76.2009 155.874 76.2095 155.366 76.1843 154.861C76.1364 153.911 76.1552 152.956 76.2402 152.008C76.2461 151.943 76.2504 151.871 76.2117 151.817C76.1821 151.777 76.1337 151.757 76.0874 151.738C75.4515 151.48 74.8312 151.182 74.2458 150.824C73.8375 150.574 73.4448 150.294 73.0068 150.101C72.6205 149.93 72.2057 149.829 71.7877 149.77C71.3353 149.705 70.8597 149.689 70.4341 149.856C70.0753 149.996 69.7788 150.284 69.6411 150.647C69.5195 150.966 69.618 151.297 69.6545 151.627C69.7648 152.631 69.8321 153.658 69.6266 154.655Z" fill="#FFB78C"/>
<path d="M79.0701 144.857C79.1761 145.054 79.2525 145.256 79.2594 145.442C79.2707 145.754 79.0356 146.023 78.9926 146.332C78.9372 146.731 79.2099 147.101 79.5128 147.366C79.8157 147.63 80.1719 147.851 80.3839 148.193C80.4129 148.24 80.4393 148.291 80.4387 148.346C80.4377 148.491 80.2698 148.562 80.1412 148.628C79.8066 148.799 79.5946 149.15 79.4962 149.512C79.3972 149.875 79.3956 150.256 79.3773 150.631C79.3606 150.975 79.3299 151.318 79.2853 151.659C79.2444 151.97 79.2573 152.249 79.2594 152.562C79.26 152.603 79.26 152.645 79.246 152.683C79.2266 152.737 79.1814 152.778 79.1362 152.815C78.7263 153.151 78.2163 153.35 77.6955 153.452C77.1747 153.553 76.6405 153.561 76.1095 153.551C75.9846 153.548 75.8566 153.544 75.742 153.493C75.5349 153.402 75.5725 153.23 75.4714 153.074C75.3692 152.916 75.1561 152.779 75.0012 152.678C74.6574 152.454 74.2577 152.314 73.8472 152.287C73.3393 152.254 72.8325 152.382 72.3241 152.364C71.6844 152.342 71.0781 152.091 70.4874 151.845C69.8057 151.559 69.1112 151.267 68.5495 150.787C67.6209 149.993 67.1577 148.764 67.0253 147.55C66.8112 145.581 67.4536 143.462 68.9637 142.179C69.5706 141.664 70.2937 141.296 71.0485 141.043C72.0535 140.705 73.5308 140.366 74.5234 140.839C75.572 141.338 76.5323 141.888 77.3759 142.7C77.7955 143.104 78.177 143.549 78.5111 144.026C78.6714 144.253 78.9065 144.551 79.0701 144.857Z" fill="#FFE5CC"/>
<path d="M69.9956 140.803C71.3885 140.213 72.946 139.964 74.4347 140.234C76.2811 140.568 77.8338 142.116 77.8714 144.055C77.887 144.878 77.6369 145.693 77.2086 146.392C76.853 146.972 76.3564 147.734 75.7227 148.028C75.4354 148.162 75.1147 148.215 74.8366 148.366C74.1958 148.711 74.0952 149.433 74.4013 150.053C74.5692 150.393 74.8231 150.682 75.0566 150.981C75.6328 151.718 76.0982 152.541 76.4334 153.415C76.4597 153.484 76.4855 153.556 76.4759 153.629C76.4624 153.731 76.3833 153.81 76.3059 153.877C75.6737 154.429 74.8678 154.757 74.042 154.91C73.2161 155.062 72.3682 155.047 71.5322 154.973C69.8816 154.828 68.2364 154.452 66.7569 153.706C66.2582 153.455 65.5211 153.05 65.3516 152.468C65.2005 151.951 65.2349 151.26 65.2586 150.727C65.3188 149.372 65.4775 148.007 65.8299 146.696C65.9832 146.126 66.0365 145.533 66.2334 144.966C66.8984 143.053 68.1137 141.601 69.9956 140.803Z" fill="#733118"/>
<path d="M106.564 142.828C106.524 142.614 106.451 142.388 106.274 142.259C106.098 142.129 105.797 142.16 105.716 142.362C105.671 141.972 105.627 141.581 105.582 141.19C105.568 141.065 105.55 140.931 105.467 140.837C105.415 140.777 105.341 140.739 105.291 140.678C105.158 140.516 105.237 140.27 105.172 140.071C105.11 139.883 104.905 139.754 104.71 139.781C104.514 139.806 104.35 139.984 104.34 140.181C104.067 140.14 103.797 140.307 103.637 140.532C103.476 140.755 103.403 141.029 103.334 141.296C102.925 142.861 102.516 144.427 102.107 145.992C102.09 146.328 101.929 146.691 101.875 147.027C101.719 147.995 101.946 149.111 101.32 149.954C100.848 150.588 94.9325 157.014 94.586 157.351C94.1013 157.822 93.5891 158.355 92.9586 158.622C92.3668 158.873 91.7238 158.962 91.1051 159.12C90.0098 159.4 88.9015 159.635 87.7782 159.768C86.7156 159.894 85.6477 159.926 84.5792 159.816C83.79 159.735 83.0093 159.576 82.2174 159.532C81.278 159.48 80.2951 159.605 79.5021 160.112C78.7866 160.569 78.2534 161.417 78.2023 162.265C78.1194 163.638 78.1759 165.054 79.324 166.004C80.102 166.648 81.0499 166.748 82.0226 166.769C83.1336 166.792 84.2349 166.579 85.3109 166.325C88.7137 165.52 91.9998 164.289 95.2488 162.996C96.8924 162.342 98.0098 160.799 98.9745 159.382C99.6281 158.422 100.253 157.443 100.848 156.445C101.732 154.966 102.549 153.447 103.462 151.986C104.153 150.881 105.122 150.072 105.515 148.781C105.752 148.004 105.812 147.185 105.989 146.392C106.255 145.208 106.784 144.022 106.564 142.828Z" fill="#FFE5CC"/>
<path d="M80.5985 159.357C80.0299 159.452 79.4596 159.601 78.9684 159.904C78.2674 160.336 77.7729 161.066 77.5567 161.861C77.2156 163.116 77.6255 164.471 78.4858 165.423C79.5333 166.583 80.9149 166.728 82.3885 166.862C84.2564 167.032 86.1491 166.935 87.989 166.571C88.1214 166.544 88.2548 166.516 88.378 166.46C88.5432 166.385 88.682 166.261 88.8079 166.13C89.5541 165.35 89.9 164.252 89.9506 163.174C89.9904 162.324 89.8618 161.476 89.6827 160.648C89.5369 159.973 89.5153 159.374 88.7175 159.4C86.9787 159.456 85.263 159.276 83.5274 159.213C82.5493 159.177 81.5659 159.194 80.5985 159.357Z" fill="#F2F2F2"/>
<path fill-rule="evenodd" clip-rule="evenodd" d="M69.8305 121.343V120.499L68.6566 119.821V120.665L69.8305 121.343Z" fill="white"/>
<path fill-rule="evenodd" clip-rule="evenodd" d="M71.9362 122.559V121.714L70.7623 121.036V121.881L71.9362 122.559Z" fill="white"/>
<path fill-rule="evenodd" clip-rule="evenodd" d="M74.1576 123.828L73.8015 122.791L72.7793 122.2L72.9062 123.118C73.3248 123.36 73.7461 123.606 74.1576 123.828Z" fill="white"/>
<path fill-rule="evenodd" clip-rule="evenodd" d="M63.5057 117.691V116.847L62.3318 116.169V117.014L63.5057 117.691Z" fill="white"/>
<path fill-rule="evenodd" clip-rule="evenodd" d="M65.6115 118.907V118.063L64.4376 117.385V118.229L65.6115 118.907Z" fill="white"/>
<path fill-rule="evenodd" clip-rule="evenodd" d="M67.7102 120.119V119.274L66.5363 118.596V119.441L67.7102 120.119Z" fill="white"/>
<path fill-rule="evenodd" clip-rule="evenodd" d="M57.6889 112.674L58.3921 112.565L58.3894 111.391L57.6534 111.236C57.6555 111.717 57.6652 112.197 57.6889 112.674Z" fill="white"/>
<path fill-rule="evenodd" clip-rule="evenodd" d="M59.1426 115.136L59.5848 114.582C59.2432 114.382 58.908 114.008 58.6858 113.583L58.066 113.906C58.3367 114.421 58.7369 114.878 59.1426 115.136Z" fill="white"/>
<path fill-rule="evenodd" clip-rule="evenodd" d="M61.3704 116.458L61.4119 115.638L60.3897 115.048L60.1142 115.731L61.3704 116.458Z" fill="white"/>
<path fill-rule="evenodd" clip-rule="evenodd" d="M57.6534 105.23L58.3894 105.654V104.307L57.6534 103.882V105.23Z" fill="white"/>
<path fill-rule="evenodd" clip-rule="evenodd" d="M57.6534 107.646L58.3894 108.071V106.723L57.6534 106.299V107.646Z" fill="white"/>
<path fill-rule="evenodd" clip-rule="evenodd" d="M57.6534 110.073L58.3894 110.445V109.132L57.6534 108.707V110.073Z" fill="white"/>
<path fill-rule="evenodd" clip-rule="evenodd" d="M57.6534 97.9716L58.3894 98.3967V97.1743L57.6534 96.5562V97.9716Z" fill="white"/>
<path fill-rule="evenodd" clip-rule="evenodd" d="M57.6534 100.388L58.3894 100.813V99.4656L57.6534 99.0405V100.388Z" fill="white"/>
<path fill-rule="evenodd" clip-rule="evenodd" d="M57.6534 102.796L58.3894 103.221V101.874L57.6534 101.449V102.796Z" fill="white"/>
<path fill-rule="evenodd" clip-rule="evenodd" d="M60.7706 94.8706L60.9244 95.8035L61.9988 96.4243V95.5797L60.7706 94.8706Z" fill="white"/>
<path fill-rule="evenodd" clip-rule="evenodd" d="M58.5723 93.8042L59.106 94.8748C59.4208 94.8808 59.7769 95.1541 60.1132 95.3348L59.7769 94.3051C59.3675 94.0969 58.9489 93.8021 58.5723 93.8042Z" fill="white"/>
<path fill-rule="evenodd" clip-rule="evenodd" d="M57.6641 95.4053L58.3893 96.2285C58.391 96.0343 58.3856 95.8352 58.3931 95.6442C58.4033 95.4548 58.4501 95.2897 58.5292 95.1622L57.8734 94.155C57.7739 94.3051 57.712 94.4988 57.6916 94.7183C57.6738 94.941 57.6717 95.1729 57.6641 95.4053Z" fill="white"/>
<path fill-rule="evenodd" clip-rule="evenodd" d="M67.1501 98.5532V99.3979L68.3241 100.076V99.2311L67.1501 98.5532Z" fill="white"/>
<path fill-rule="evenodd" clip-rule="evenodd" d="M65.0444 97.3379V98.1825L66.2183 98.8599V98.0158L65.0444 97.3379Z" fill="white"/>
<path fill-rule="evenodd" clip-rule="evenodd" d="M62.9457 96.1257V96.9704L64.1196 97.6483V96.8036L62.9457 96.1257Z" fill="white"/>
<path fill-rule="evenodd" clip-rule="evenodd" d="M73.5631 102.257L73.3135 102.956C73.654 103.156 73.9951 103.343 74.3357 103.553L74.7967 103.017C74.3932 102.748 73.9817 102.504 73.5631 102.257Z" fill="white"/>
<path fill-rule="evenodd" clip-rule="evenodd" d="M71.3692 100.989V101.834L72.5022 102.488L72.5657 101.68L71.3692 100.989Z" fill="white"/>
<path fill-rule="evenodd" clip-rule="evenodd" d="M69.2704 99.7776V100.622L70.4443 101.3V100.455L69.2704 99.7776Z" fill="white"/>
<path fill-rule="evenodd" clip-rule="evenodd" d="M76.1649 109.212L75.4289 108.787V110.134L76.1649 110.559V109.212Z" fill="white"/>
<path fill-rule="evenodd" clip-rule="evenodd" d="M76.1638 106.691L75.4289 106.563V107.736L76.1649 108.133L76.1638 106.691Z" fill="white"/>
<path fill-rule="evenodd" clip-rule="evenodd" d="M75.6731 104.02L75.0674 104.369C75.3138 104.785 75.4418 105.256 75.4284 105.639L76.1374 105.558C76.1353 105.092 75.9712 104.525 75.6731 104.02Z" fill="white"/>
<path fill-rule="evenodd" clip-rule="evenodd" d="M76.1649 116.47L75.4289 116.045V117.392L76.1649 117.817V116.47Z" fill="white"/>
<path fill-rule="evenodd" clip-rule="evenodd" d="M76.1649 114.054L75.4289 113.629V114.976L76.1649 115.401V114.054Z" fill="white"/>
<path fill-rule="evenodd" clip-rule="evenodd" d="M76.1649 111.645L75.4289 111.22V112.568L76.1649 112.993V111.645Z" fill="white"/>
<path fill-rule="evenodd" clip-rule="evenodd" d="M76.0067 123.808L75.338 122.817C75.2099 123.106 74.9393 123.241 74.6176 123.183L75.133 124.256C75.5166 124.311 75.8431 124.147 76.0067 123.808Z" fill="white"/>
<path fill-rule="evenodd" clip-rule="evenodd" d="M76.1649 121.371L75.4289 120.78V121.952L76.1509 122.797C76.1654 122.334 76.1654 121.852 76.1649 121.371Z" fill="white"/>
<path fill-rule="evenodd" clip-rule="evenodd" d="M76.1649 118.904L75.4289 118.479V119.826L76.1649 120.251V118.904Z" fill="white"/>
<path d="M73.2258 104.819L62.3883 98.5623C62.1834 98.444 61.9956 98.4327 61.86 98.5118L60.09 99.5404C60.2256 99.4613 60.4133 99.4726 60.6183 99.591L71.4558 105.848C71.8674 106.086 72.1977 106.658 72.1961 107.131L72.1606 119.584C72.16 119.815 72.0782 119.977 71.9459 120.055L73.7159 119.026C73.8483 118.949 73.93 118.786 73.9306 118.555L73.9661 106.102C73.9677 105.629 73.6374 105.057 73.2258 104.819Z" fill="#A3A9FF"/>
<path d="M71.4563 105.847C71.8679 106.085 72.1982 106.657 72.1966 107.13L72.1611 119.583C72.16 120.049 71.8275 120.239 71.416 120.002L60.5785 113.745C60.1723 113.51 59.8366 112.935 59.8382 112.469L59.8737 100.015C59.8748 99.5425 60.2127 99.3564 60.6188 99.5909L71.4563 105.847Z" fill="#FF260F"/>
<path d="M66.3098 111.45L64.0319 110.135L63.1469 112.474L64.0099 112.973V113.224L62.2501 112.208V111.956L62.7907 112.268L65.7245 104.894L66.6676 105.438L69.5663 116.18L70.0957 116.486V116.737L66.334 114.565V114.314L67.1507 114.786L66.3098 111.45ZM64.1363 109.904L66.2183 111.106L65.2171 107.07L64.1363 109.904Z" fill="black"/>
<path d="M73.2258 83.6096L62.3883 77.3526C62.1834 77.2343 61.9956 77.223 61.86 77.302L60.09 78.3307C60.2256 78.2516 60.4133 78.2629 60.6183 78.3813L71.4558 84.6382C71.8674 84.8755 72.1977 85.4479 72.1961 85.9208L72.1606 98.3739C72.16 98.6047 72.0782 98.7677 71.9459 98.8452L73.7159 97.8165C73.8483 97.7396 73.93 97.5766 73.9306 97.3452L73.9661 84.8922C73.9677 84.4193 73.6374 83.8468 73.2258 83.6096Z" fill="#A3A9FF"/>
<path d="M71.4563 84.6381C71.8679 84.8759 72.1982 85.4478 72.1966 85.9207L72.1611 98.3738C72.16 98.8402 71.8275 99.0296 71.416 98.7924L60.5785 92.5354C60.1723 92.3009 59.8366 91.7257 59.8382 91.2593L59.8737 78.8062C59.8748 78.3333 60.2127 78.1472 60.6188 78.3817L71.4563 84.6381Z" fill="#FF260F"/>
<path d="M67.3675 90.5136L64.2541 88.7162L63.0011 91.9458L62.4615 91.6343L65.8111 83.0112L69.1547 95.4987L68.6205 95.1905L67.3675 90.5136ZM67.1819 89.8261L65.8105 84.707L64.4392 88.2422L67.1819 89.8261Z" fill="black"/>
<path d="M73.2258 41.3954L62.3883 35.1385C62.1834 35.0201 61.9956 35.0088 61.86 35.0879L60.09 36.1166C60.2256 36.038 60.4133 36.0488 60.6183 36.1672L71.4558 42.4241C71.8674 42.6619 72.1977 43.2338 72.1961 43.7067L72.1606 56.1598C72.16 56.3911 72.0782 56.5541 71.9459 56.6311L73.7159 55.6024C73.8483 55.5255 73.93 55.3625 73.9306 55.1317L73.9661 42.6786C73.9677 42.2051 73.6374 41.6332 73.2258 41.3954Z" fill="#A3A9FF"/>
<path d="M71.4563 42.424C71.8679 42.6618 72.1982 43.2337 72.1966 43.7066L72.1611 56.1597C72.16 56.6261 71.8275 56.8155 71.416 56.5783L60.5785 50.3213C60.1723 50.0867 59.8366 49.5116 59.8382 49.0452L59.8737 36.5921C59.8748 36.1192 60.2127 35.933 60.6188 36.1676L71.4563 42.424Z" fill="#FF260F"/>
<path d="M67.7393 49.7899L64.5398 47.9424L63.6537 49.94L62.5481 49.302L66.185 41.4563L66.2544 41.4966L69.8913 53.5419L68.6022 52.7979L67.7393 49.7899ZM67.36 48.4611L66.1742 44.2899L64.9427 47.0655L67.36 48.4611Z" fill="black"/>
<path d="M73.2258 62.4001L62.3883 56.1431C62.1834 56.0248 61.9956 56.0135 61.86 56.0926L60.09 57.1212C60.2256 57.0421 60.4133 57.0534 60.6183 57.1718L71.4558 63.4287C71.8674 63.666 72.1977 64.2384 72.1961 64.7113L72.1606 77.1644C72.16 77.3952 72.0782 77.5588 71.9459 77.6357L73.7159 76.6071C73.8483 76.5301 73.93 76.3671 73.9306 76.1358L73.9661 63.6827C73.9677 63.2098 73.6374 62.6373 73.2258 62.4001Z" fill="#A3A9FF"/>
<path d="M71.4563 63.4287C71.8679 63.6664 72.1982 64.2383 72.1966 64.7112L72.1611 77.1643C72.16 77.6308 71.8275 77.8201 71.416 77.5829L60.5785 71.326C60.1723 71.0914 59.8366 70.5163 59.8382 70.0498L59.8737 57.5967C59.8748 57.1238 60.2127 56.9377 60.6188 57.1722L71.4563 63.4287Z" fill="#FF260F"/>
<path d="M65.307 61.5952L66.7063 62.4033L68.3418 74.6977L67.2459 74.065L66.9651 71.736L65.1725 70.7009L64.9137 72.7184L63.8065 72.0792L65.307 61.5952ZM65.3011 69.6921L66.8182 70.568L66.037 64.1195L66.0198 64.1098L65.3011 69.6921Z" fill="black"/>
<path d="M229.207 152.34C227.241 151.205 225.457 151.099 224.168 151.847L222.134 153.029C223.422 152.281 225.206 152.386 227.173 153.522C231.086 155.781 234.245 161.253 234.232 165.749C234.226 167.978 233.438 169.547 232.168 170.285L234.202 169.103C235.473 168.365 236.26 166.796 236.266 164.567C236.279 160.071 233.119 154.599 229.207 152.34Z" fill="#FF260F"/>
<path d="M227.173 153.522C231.086 155.781 234.245 161.253 234.232 165.749C234.219 170.238 231.039 172.05 227.127 169.791C223.22 167.536 220.055 162.06 220.068 157.571C220.08 153.075 223.266 151.266 227.173 153.522Z" fill="#FF260F"/>
<path d="M227.362 156.81C224.903 155.389 222.91 156.525 222.91 159.348C222.91 162.168 224.903 165.607 227.362 167.027C229.82 168.446 231.814 167.309 231.814 164.488C231.814 161.666 229.82 158.229 227.362 156.81ZM226.275 163.645V159.052L229.741 163.352L226.275 163.645Z" fill="white"/>
<path d="M232.595 133.476L225.942 129.635C224.897 129.031 223.95 128.976 223.266 129.373L221.232 130.555C221.916 130.158 222.862 130.213 223.908 130.817L230.561 134.658C232.631 135.853 234.308 138.759 234.301 141.138L234.28 148.788C234.277 149.97 233.858 150.802 233.184 151.194L235.218 150.012C235.892 149.62 236.311 148.788 236.314 147.606L236.336 139.956C236.343 137.577 234.665 134.671 232.595 133.476Z" fill="#FFD166"/>
<path d="M230.561 134.658C232.631 135.853 234.308 138.758 234.301 141.137L234.28 148.788C234.273 151.167 232.585 152.129 230.514 150.934L223.862 147.093C221.786 145.894 220.108 142.989 220.115 140.61L220.136 132.959C220.143 130.581 221.832 129.618 223.908 130.817L230.561 134.658Z" fill="#FFAD66"/>
<path d="M227.362 135.885C224.902 134.465 222.91 135.6 222.91 138.423C222.91 141.244 224.902 144.682 227.362 146.102C229.82 147.521 231.814 146.384 231.814 143.564C231.814 140.741 229.82 137.304 227.362 135.885ZM226.275 142.721V138.128L229.741 142.427L226.275 142.721Z" fill="white"/>
<path d="M235.553 112.039L223.096 104.847C222.861 104.711 222.645 104.698 222.489 104.789L220.455 105.971C220.611 105.881 220.827 105.893 221.062 106.029L233.519 113.221C233.992 113.494 234.372 114.152 234.37 114.695L234.329 129.009C234.329 129.275 234.235 129.462 234.082 129.551L236.117 128.369C236.269 128.281 236.363 128.093 236.364 127.828L236.404 113.514C236.405 112.969 236.026 112.312 235.553 112.039Z" fill="white"/>
<path d="M233.519 113.221C233.992 113.494 234.372 114.152 234.37 114.695L234.329 129.009C234.328 129.546 233.946 129.764 233.473 129.49L221.016 122.298C220.549 122.029 220.163 121.368 220.165 120.831L220.205 106.517C220.207 105.974 220.595 105.76 221.062 106.029L233.519 113.221Z" fill="#D6D6D6"/>
<path d="M227.362 112.629C224.903 111.209 222.91 112.344 222.91 115.167C222.91 117.988 224.903 121.426 227.362 122.846C229.82 124.265 231.814 123.128 231.814 120.308C231.814 117.485 229.82 114.048 227.362 112.629ZM226.275 119.465V114.872L229.741 119.171L226.275 119.465Z" fill="url(#paint4_linear_608_6216)"/>
<path d="M45.3816 192.827C44.7328 193.201 43.6907 193.201 43.0462 192.827L26.0631 182.957C25.4267 182.588 25.4304 181.984 26.0793 181.609L43.1737 171.739C43.8144 171.369 44.8646 171.364 45.501 171.734L62.4841 181.604C63.1292 181.979 63.1173 182.587 62.4766 182.957L45.3816 192.827Z" fill="#707070"/>
<path d="M45.2874 191.315L60.7948 182.362C61.088 182.193 61.2364 181.968 61.2354 181.744L61.2273 180.178C61.2278 180.403 61.0799 180.628 60.7867 180.797L45.2794 189.75C44.6908 190.09 43.7455 190.09 43.1607 189.75L27.754 180.797C27.4683 180.63 27.3247 180.413 27.3242 180.194L27.3322 181.759C27.3328 181.978 27.4764 182.196 27.7621 182.362L43.1688 191.315C43.7536 191.655 44.6983 191.655 45.2874 191.315Z" fill="#FFAD66"/>
<path d="M45.2789 189.75C44.6903 190.09 43.745 190.09 43.1602 189.75L27.7535 180.797C27.1762 180.461 27.1795 179.914 27.768 179.574L43.2753 170.621C43.8564 170.285 44.8092 170.281 45.3865 170.617L60.7932 179.57C61.378 179.91 61.3672 180.462 60.7862 180.797L45.2789 189.75Z" fill="#FFD166"/>
<path d="M54.0246 182.262L53.45 182.594L45.0125 179.895L40.2286 174.698L40.5762 174.498C41.2008 174.137 42.2133 174.139 42.8417 174.502L54.0176 180.954C54.646 181.317 54.6492 181.901 54.0246 182.262Z" fill="#333333"/>
<path d="M44.665 180.095L53.1024 182.794L47.8435 185.831C47.2221 186.189 46.2096 186.188 45.5812 185.825L34.4053 179.372C33.7764 179.009 33.7737 178.425 34.3951 178.066L39.8779 174.901L44.665 180.095Z" fill="#333333"/>
<path d="M164.1 238.916C163.452 239.29 162.41 239.29 161.764 238.916L144.781 229.046C144.145 228.677 144.149 228.073 144.798 227.698L161.892 217.829C162.533 217.459 163.583 217.454 164.219 217.824L181.202 227.694C181.847 228.069 181.836 228.677 181.195 229.047L164.1 238.916Z" fill="#707070"/>
<path d="M164.006 237.403L179.513 228.451C179.806 228.281 179.955 228.057 179.954 227.832L179.946 226.267C179.946 226.491 179.798 226.716 179.505 226.886L163.998 235.838C163.409 236.178 162.464 236.178 161.879 235.838L146.472 226.885C146.187 226.719 146.043 226.501 146.042 226.282L146.051 227.847C146.051 228.066 146.195 228.284 146.48 228.45L161.887 237.403C162.472 237.743 163.417 237.743 164.006 237.403Z" fill="#D6D6D6"/>
<path d="M163.998 235.838C163.409 236.178 162.464 236.178 161.879 235.838L146.472 226.885C145.895 226.549 145.898 226.002 146.487 225.662L161.994 216.709C162.575 216.374 163.528 216.369 164.105 216.705L179.512 225.658C180.097 225.998 180.086 226.55 179.505 226.886L163.998 235.838Z" fill="white"/>
<path d="M169.607 229.484C172.134 228.025 171.452 225.265 168.082 223.319C164.712 221.373 159.931 220.978 157.403 222.437C155.488 223.544 155.42 225.396 156.965 227.076C155.261 227.409 152.94 227.551 151.265 226.447C151.265 226.447 154.425 229.612 159.34 228.822C162.677 230.573 167.18 230.885 169.607 229.484Z" fill="#FFAD66"/>
<defs>
<linearGradient id="paint0_linear_608_6216" x1="127.372" y1="115.178" x2="176.12" y2="115.178" gradientUnits="userSpaceOnUse">
<stop stop-color="#FC321C"/>
<stop offset="1" stop-color="#B3308D"/>
</linearGradient>
<linearGradient id="paint1_linear_608_6216" x1="169.678" y1="140.647" x2="173.361" y2="140.647" gradientUnits="userSpaceOnUse">
<stop stop-color="#FC321C"/>
<stop offset="1" stop-color="#B3308D"/>
</linearGradient>
<linearGradient id="paint2_linear_608_6216" x1="173.558" y1="142.018" x2="177.698" y2="142.018" gradientUnits="userSpaceOnUse">
<stop stop-color="#FC321C"/>
<stop offset="1" stop-color="#B3308D"/>
</linearGradient>
<linearGradient id="paint3_linear_608_6216" x1="80.1515" y1="225.595" x2="92.2973" y2="225.595" gradientUnits="userSpaceOnUse">
<stop stop-color="#FC321C"/>
<stop offset="1" stop-color="#B3308D"/>
</linearGradient>
<linearGradient id="paint4_linear_608_6216" x1="222.91" y1="117.737" x2="231.814" y2="117.737" gradientUnits="userSpaceOnUse">
<stop stop-color="#4D4D4D"/>
<stop offset="1" stop-color="#1F2125"/>
</linearGradient>
</defs>
</svg>
