<svg width="18" height="20" viewBox="0 0 18 20" fill="none" xmlns="http://www.w3.org/2000/svg">
<path d="M0.636998 1.43383L9.377 10.0048L0.701998 18.6548C0.560429 18.4698 0.45029 18.2627 0.375998 18.0418C0.336988 17.7917 0.336988 17.537 0.375998 17.2868V2.56683C0.349998 2.17183 0.440998 1.77683 0.635998 1.43383M13.142 6.26683L10.289 9.09283L1.653 0.599834C1.933 0.502834 2.233 0.475835 2.526 0.521835C2.986 0.647835 3.425 0.841834 3.828 1.09483L11.644 5.41983C12.152 5.69283 12.647 5.97983 13.142 6.26683ZM10.29 10.9298L13.129 13.7178L11.071 14.8638L4.792 18.3538C4.272 18.6408 3.75 18.9148 3.242 19.2278C3.02468 19.3633 2.78093 19.4508 2.52707 19.4844C2.27321 19.518 2.01509 19.497 1.77 19.4228L10.29 10.9298ZM17.65 10.0048C17.6578 10.3546 17.5697 10.6999 17.3952 11.0031C17.2207 11.3063 16.9664 11.5559 16.66 11.7248L14.314 13.0268L11.227 10.0048L14.327 6.93083C15.122 7.37383 15.904 7.81683 16.685 8.23383C16.9966 8.40774 17.2526 8.66642 17.4232 8.97987C17.5938 9.29332 17.6731 9.64871 17.65 10.0048Z" fill="white"/>
</svg>
