<svg width="23" height="23" viewBox="0 0 23 23" fill="none" xmlns="http://www.w3.org/2000/svg">
<g clip-path="url(#clip0_698_3028)">
<path d="M20.6042 3.83325H14.8542V4.79157H20.6042C21.3981 4.79157 22.0417 5.43517 22.0417 6.22907V17.7291C22.0417 18.523 21.3981 19.1666 20.6042 19.1666H2.39582C1.60191 19.1666 0.958318 18.523 0.958318 17.7291V6.22907C0.958318 5.43517 1.60191 4.79157 2.39582 4.79157H8.14582V3.83325H2.39582C1.07332 3.83487 0.00157227 4.90657 0 6.22912V17.7291C0.00157227 19.0517 1.07332 20.1234 2.39582 20.1249H20.6041C21.9267 20.1234 22.9984 19.0516 23 17.7291V6.22912C22.9984 4.90657 21.9267 3.83487 20.6042 3.83325Z" fill="url(#paint0_linear_698_3028)"/>
<path d="M16.2916 22.0417H6.70831V23.0001H16.2916V22.0417Z" fill="url(#paint1_linear_698_3028)"/>
<path d="M9.10413 19.6458H8.14581V22.5208H9.10413V19.6458Z" fill="url(#paint2_linear_698_3028)"/>
<path d="M14.8541 19.6458H13.8958V22.5208H14.8541V19.6458Z" fill="url(#paint3_linear_698_3028)"/>
<path d="M13.4167 2.875H9.58337C9.31873 2.875 9.10419 3.08955 9.10419 3.35418V11.9792C9.10419 12.2438 9.31873 12.4584 9.58337 12.4584H13.4167C13.6813 12.4584 13.8959 12.2438 13.8959 11.9792V3.35418C13.8958 3.08955 13.6813 2.875 13.4167 2.875ZM12.9375 11.5H10.0625V3.83332H12.9375V11.5Z" fill="url(#paint4_linear_698_3028)"/>
<path d="M11.8297 0.131194C11.6449 -0.0437314 11.3556 -0.0437314 11.1708 0.131194C10.8253 0.45845 9.10419 2.15039 9.10419 3.35407H10.0625C10.0625 2.85144 10.8215 1.86576 11.5 1.15613C12.179 1.86531 12.9375 2.85045 12.9375 3.35407H13.8958C13.8958 2.15039 12.1747 0.45845 11.8297 0.131194Z" fill="url(#paint5_linear_698_3028)"/>
<path d="M16.1513 10.682L13.7554 8.28613L13.0779 8.96369L15.3333 11.2191V11.4999H13.4166V12.4583H15.8125C16.0771 12.4583 16.2917 12.2437 16.2917 11.9791V11.0208C16.2916 10.8937 16.2411 10.7718 16.1513 10.682Z" fill="url(#paint6_linear_698_3028)"/>
<path d="M7.66669 11.2191L9.92213 8.96369L9.24457 8.28613L6.84875 10.682C6.75887 10.7718 6.70837 10.8937 6.70837 11.0207V11.979C6.70837 12.2437 6.92292 12.4582 7.18756 12.4582H9.58337V11.4999H7.66669V11.2191Z" fill="url(#paint7_linear_698_3028)"/>
<path d="M13.4167 4.79175H11.5V5.75007H13.4167V4.79175Z" fill="url(#paint8_linear_698_3028)"/>
<path d="M13.4166 9.58325H9.58331V10.5416H13.4166V9.58325Z" fill="url(#paint9_linear_698_3028)"/>
<path d="M11.5 12.9375C10.4415 12.9375 9.58331 13.7956 9.58331 14.8542C9.58331 15.7842 10.8828 17.2797 11.1435 17.5701C11.2344 17.6713 11.364 17.7292 11.5 17.7292C11.636 17.7292 11.7656 17.6713 11.8565 17.5701C12.1172 17.2797 13.4167 15.7842 13.4167 14.8542C13.4167 13.7956 12.5585 12.9375 11.5 12.9375ZM11.5 16.5078C10.9911 15.8695 10.5417 15.1513 10.5417 14.8541C10.5417 14.3249 10.9707 13.8958 11.5 13.8958C12.0293 13.8958 12.4583 14.3249 12.4583 14.8541C12.4583 15.1594 12.0084 15.8724 11.5 16.5078Z" fill="url(#paint10_linear_698_3028)"/>
<path d="M11.9791 13.4167H11.0208V14.8542H11.9791V13.4167Z" fill="url(#paint11_linear_698_3028)"/>
<path d="M9.10413 15.8125H2.39581V16.7708H9.10413V15.8125Z" fill="url(#paint12_linear_698_3028)"/>
<path d="M20.6041 15.8125H13.8958V16.7708H20.6041V15.8125Z" fill="url(#paint13_linear_698_3028)"/>
<path d="M3.35419 5.75C2.56028 5.75 1.91669 6.3936 1.91669 7.1875V8.14582H2.87501V7.1875C2.87501 6.92286 3.08955 6.70832 3.35419 6.70832H4.31251V5.75H3.35419Z" fill="url(#paint14_linear_698_3028)"/>
<path d="M2.87501 9.10425H1.91669V10.0626H2.87501V9.10425Z" fill="url(#paint15_linear_698_3028)"/>
<path d="M19.6458 5.75H18.6875V6.70832H19.6458C19.9105 6.70832 20.125 6.92286 20.125 7.1875V8.14582H21.0833V7.1875C21.0833 6.3936 20.4397 5.75 19.6458 5.75Z" fill="url(#paint16_linear_698_3028)"/>
<path d="M21.0833 9.10425H20.125V10.0626H21.0833V9.10425Z" fill="url(#paint17_linear_698_3028)"/>
</g>
<defs>
<linearGradient id="paint0_linear_698_3028" x1="1.04545" y1="11.9791" x2="23" y2="11.9791" gradientUnits="userSpaceOnUse">
<stop stop-color="#FC321C"/>
<stop offset="1" stop-color="#B3308D"/>
</linearGradient>
<linearGradient id="paint1_linear_698_3028" x1="7.14392" y1="22.5209" x2="16.2916" y2="22.5209" gradientUnits="userSpaceOnUse">
<stop stop-color="#FC321C"/>
<stop offset="1" stop-color="#B3308D"/>
</linearGradient>
<linearGradient id="paint2_linear_698_3028" x1="8.18937" y1="21.0833" x2="9.10413" y2="21.0833" gradientUnits="userSpaceOnUse">
<stop stop-color="#FC321C"/>
<stop offset="1" stop-color="#B3308D"/>
</linearGradient>
<linearGradient id="paint3_linear_698_3028" x1="13.9394" y1="21.0833" x2="14.8541" y2="21.0833" gradientUnits="userSpaceOnUse">
<stop stop-color="#FC321C"/>
<stop offset="1" stop-color="#B3308D"/>
</linearGradient>
<linearGradient id="paint4_linear_698_3028" x1="9.32199" y1="7.66668" x2="13.8959" y2="7.66668" gradientUnits="userSpaceOnUse">
<stop stop-color="#FC321C"/>
<stop offset="1" stop-color="#B3308D"/>
</linearGradient>
<linearGradient id="paint5_linear_698_3028" x1="9.32199" y1="1.67703" x2="13.8958" y2="1.67703" gradientUnits="userSpaceOnUse">
<stop stop-color="#FC321C"/>
<stop offset="1" stop-color="#B3308D"/>
</linearGradient>
<linearGradient id="paint6_linear_698_3028" x1="13.224" y1="10.3722" x2="16.2917" y2="10.3722" gradientUnits="userSpaceOnUse">
<stop stop-color="#FC321C"/>
<stop offset="1" stop-color="#B3308D"/>
</linearGradient>
<linearGradient id="paint7_linear_698_3028" x1="6.85445" y1="10.3722" x2="9.92213" y2="10.3722" gradientUnits="userSpaceOnUse">
<stop stop-color="#FC321C"/>
<stop offset="1" stop-color="#B3308D"/>
</linearGradient>
<linearGradient id="paint8_linear_698_3028" x1="11.5871" y1="5.27091" x2="13.4167" y2="5.27091" gradientUnits="userSpaceOnUse">
<stop stop-color="#FC321C"/>
<stop offset="1" stop-color="#B3308D"/>
</linearGradient>
<linearGradient id="paint9_linear_698_3028" x1="9.75755" y1="10.0624" x2="13.4166" y2="10.0624" gradientUnits="userSpaceOnUse">
<stop stop-color="#FC321C"/>
<stop offset="1" stop-color="#B3308D"/>
</linearGradient>
<linearGradient id="paint10_linear_698_3028" x1="9.75756" y1="15.3333" x2="13.4167" y2="15.3333" gradientUnits="userSpaceOnUse">
<stop stop-color="#FC321C"/>
<stop offset="1" stop-color="#B3308D"/>
</linearGradient>
<linearGradient id="paint11_linear_698_3028" x1="11.0644" y1="14.1355" x2="11.9791" y2="14.1355" gradientUnits="userSpaceOnUse">
<stop stop-color="#FC321C"/>
<stop offset="1" stop-color="#B3308D"/>
</linearGradient>
<linearGradient id="paint12_linear_698_3028" x1="2.70074" y1="16.2917" x2="9.10413" y2="16.2917" gradientUnits="userSpaceOnUse">
<stop stop-color="#FC321C"/>
<stop offset="1" stop-color="#B3308D"/>
</linearGradient>
<linearGradient id="paint13_linear_698_3028" x1="14.2007" y1="16.2917" x2="20.6041" y2="16.2917" gradientUnits="userSpaceOnUse">
<stop stop-color="#FC321C"/>
<stop offset="1" stop-color="#B3308D"/>
</linearGradient>
<linearGradient id="paint14_linear_698_3028" x1="2.02559" y1="6.94791" x2="4.31251" y2="6.94791" gradientUnits="userSpaceOnUse">
<stop stop-color="#FC321C"/>
<stop offset="1" stop-color="#B3308D"/>
</linearGradient>
<linearGradient id="paint15_linear_698_3028" x1="1.96025" y1="9.58341" x2="2.87501" y2="9.58341" gradientUnits="userSpaceOnUse">
<stop stop-color="#FC321C"/>
<stop offset="1" stop-color="#B3308D"/>
</linearGradient>
<linearGradient id="paint16_linear_698_3028" x1="18.7964" y1="6.94791" x2="21.0833" y2="6.94791" gradientUnits="userSpaceOnUse">
<stop stop-color="#FC321C"/>
<stop offset="1" stop-color="#B3308D"/>
</linearGradient>
<linearGradient id="paint17_linear_698_3028" x1="20.1686" y1="9.58341" x2="21.0833" y2="9.58341" gradientUnits="userSpaceOnUse">
<stop stop-color="#FC321C"/>
<stop offset="1" stop-color="#B3308D"/>
</linearGradient>
<clipPath id="clip0_698_3028">
<rect width="23" height="23" fill="white"/>
</clipPath>
</defs>
</svg>
