<svg width="23" height="23" viewBox="0 0 23 23" fill="none" xmlns="http://www.w3.org/2000/svg">
<path d="M8.14583 23C5.97041 23 3.92533 22.1528 2.38529 20.6147C-3.69342 14.3309 3.0082 4.7054 8.76012 1.34165C9.49899 0.867271 10.4382 0.832771 11.2096 1.25348C11.9801 1.67323 12.4593 2.48015 12.4593 3.35798V4.0566C12.8838 3.79498 13.3342 3.51227 13.7962 3.22285C15.7857 1.97606 17.8442 0.687105 19.0823 0.202188C20.1585 -0.220437 21.3354 0.0277711 22.1547 0.847146C22.9741 1.66652 23.2214 2.84431 22.7997 3.91956C22.3148 5.15773 21.0249 7.21431 19.779 9.20573C19.4896 9.66669 19.2069 10.1171 18.9453 10.5426H19.6439C20.5217 10.5426 21.3287 11.0218 21.7484 11.7923C22.1691 12.5647 22.1356 13.5019 21.6593 14.2418C18.9367 18.4766 13.9581 23.0019 8.14775 23.0019L8.14583 23ZM10.0548 2.87498C9.9772 2.87498 9.88808 2.8951 9.79608 2.95356C4.95841 5.8784 -1.25351 13.7961 3.74037 19.2596C9.20574 24.2525 17.1187 18.0435 20.0455 13.2039C20.1854 12.9844 20.1049 12.7851 20.0646 12.7094C20.0244 12.6337 19.8998 12.4583 19.642 12.4583H17.251C16.537 12.4804 16.0463 11.6322 16.4191 11.0237C16.8772 10.2244 17.4972 9.23544 18.1547 8.18702C19.298 6.3614 20.5955 4.29236 21.0143 3.21998C21.2252 2.68427 20.9032 2.30573 20.7987 2.20223C20.6952 2.09969 20.3147 1.77673 19.781 1.98565C18.7095 2.4054 16.6405 3.70298 14.8139 4.84627C13.7655 5.50369 12.7765 6.12373 11.9772 6.58181C11.6792 6.75048 11.316 6.74952 11.0199 6.57894C10.7237 6.4074 10.5426 6.09115 10.5426 5.74998V3.35894C10.5426 3.10115 10.3663 2.97752 10.2915 2.93631C10.2475 2.91331 10.1612 2.87594 10.0558 2.87594L10.0548 2.87498ZM8.625 18.2083C3.56979 18.0761 3.57074 10.6729 8.625 10.5416C13.6802 10.6739 13.6783 18.077 8.625 18.2083ZM8.625 12.4583C6.10649 12.5034 6.10649 16.2466 8.625 16.2916C11.1435 16.2466 11.1435 12.5034 8.625 12.4583Z" fill="url(#paint0_linear_698_3021)"/>
<defs>
<linearGradient id="paint0_linear_698_3021" x1="1.03" y1="11.5006" x2="23.0022" y2="11.5006" gradientUnits="userSpaceOnUse">
<stop stop-color="#FC321C"/>
<stop offset="1" stop-color="#B3308D"/>
</linearGradient>
</defs>
</svg>
