<svg width="152" height="113" viewBox="0 0 152 113" fill="none" xmlns="http://www.w3.org/2000/svg">
<g clip-path="url(#clip0_780_6279)">
<path d="M134.22 74.0947H20.8188V75.1254H134.22V74.0947Z" fill="url(#paint0_linear_780_6279)"/>
<path d="M51.9763 74.6104H51.1855V102.306H51.9763V74.6104Z" fill="url(#paint1_linear_780_6279)"/>
<path d="M104.981 74.6104H104.19V102.306H104.981V74.6104Z" fill="url(#paint2_linear_780_6279)"/>
<path d="M16.9082 0.371094H138.13V10.5646H16.9082V0.371094Z" fill="url(#paint3_linear_780_6279)"/>
<path d="M38.9687 88.4572C38.9687 91.6703 36.9705 94.2747 34.5054 94.2747V99.0015C38.9732 99.0015 42.5953 94.2805 42.5953 88.4573C42.5953 82.634 38.9732 77.9131 34.5054 77.9131V82.6398C36.9705 82.6396 38.9687 85.244 38.9687 88.4572Z" fill="url(#paint4_linear_780_6279)"/>
<path d="M34.5055 99.0018C36.7394 99.0018 38.7619 97.8216 40.2259 95.9134C38.9589 94.262 38.7501 93.9901 37.6617 92.5713C36.8538 93.6239 35.738 94.2751 34.5055 94.2751C33.273 94.2751 32.1573 93.6239 31.3493 92.5713L28.7852 95.9134C30.2492 97.8216 32.2716 99.0018 34.5055 99.0018Z" fill="url(#paint5_linear_780_6279)"/>
<path d="M30.042 88.4573C30.042 85.2442 32.0402 82.6398 34.5054 82.6398V77.9131C30.0376 77.9131 26.4155 82.634 26.4155 88.4573C26.4155 91.3689 27.321 94.005 28.785 95.9131L31.3492 92.571C30.5415 91.518 30.042 90.0635 30.042 88.4573Z" fill="url(#paint6_linear_780_6279)"/>
<path d="M68.3765 86.3994H70.7899V97.6955H68.3765V86.3994Z" fill="url(#paint7_linear_780_6279)"/>
<path d="M72.6611 90.0293H75.0747V97.6955H72.6611V90.0293Z" fill="url(#paint8_linear_780_6279)"/>
<path d="M76.9458 83.9795H79.3594V97.6955H76.9458V83.9795Z" fill="url(#paint9_linear_780_6279)"/>
<path d="M81.2305 85.7939H83.644V97.6951H81.2305V85.7939Z" fill="url(#paint10_linear_780_6279)"/>
<path d="M85.5151 80.3496H87.9286V97.6954H85.5151V80.3496Z" fill="url(#paint11_linear_780_6279)"/>
<path d="M119.34 90.013L122.204 84.1025V97.479H119.34V90.013Z" fill="url(#paint12_linear_780_6279)"/>
<path d="M125.068 82.5475L127.932 78.8145V97.4792H125.068V82.5475Z" fill="url(#paint13_linear_780_6279)"/>
<path d="M113.612 93.7464L116.476 91.2578V97.4793H113.612V93.7464Z" fill="url(#paint14_linear_780_6279)"/>
<path d="M127.933 78.5029H126.023C125.891 78.5029 125.785 78.6421 125.785 78.8141C125.785 78.986 125.891 79.1252 126.023 79.1252H127.356L124.933 82.2836L122.113 83.8154C122.105 83.8198 122.099 83.8284 122.092 83.8337C122.078 83.8435 122.065 83.8544 122.053 83.8678C122.04 83.8817 122.029 83.8966 122.019 83.9134C122.014 83.9219 122.007 83.9269 122.003 83.9363L119.355 89.3992L118.118 86.4422C118.113 86.4296 118.104 86.4218 118.098 86.4106C118.088 86.3926 118.078 86.3752 118.065 86.3603C118.053 86.346 118.039 86.3364 118.025 86.3259C118.015 86.3186 118.008 86.3077 117.997 86.3021C117.993 86.3001 117.989 86.3011 117.985 86.2993C117.971 86.2926 117.955 86.2911 117.94 86.2883C117.924 86.2856 117.909 86.2814 117.894 86.2826C117.88 86.2837 117.868 86.2896 117.854 86.2936C117.837 86.299 117.82 86.3036 117.805 86.3138C117.801 86.3159 117.797 86.3155 117.794 86.3179C117.785 86.3246 117.779 86.3359 117.77 86.344C117.757 86.3571 117.743 86.3696 117.731 86.3866C117.72 86.403 117.713 86.4215 117.704 86.4402C117.699 86.4526 117.691 86.4619 117.687 86.4756L116.282 91.052L113.48 93.487C113.37 93.5823 113.341 93.7752 113.414 93.9184C113.46 94.0083 113.535 94.0569 113.613 94.0569C113.658 94.0569 113.704 94.0399 113.745 94.0047L116.608 91.5164C116.632 91.496 116.652 91.4687 116.669 91.438C116.674 91.4281 116.678 91.4178 116.683 91.4071C116.688 91.3954 116.694 91.3855 116.698 91.3728L117.942 87.3204L119.131 90.162C119.134 90.1682 119.138 90.1726 119.14 90.1785C119.145 90.1871 119.149 90.1947 119.154 90.2029C119.169 90.228 119.186 90.2496 119.206 90.2669C119.209 90.2695 119.21 90.2737 119.213 90.2761C119.214 90.2771 119.216 90.2774 119.217 90.2785C119.23 90.2884 119.243 90.2951 119.257 90.3018C119.264 90.3051 119.27 90.3103 119.277 90.3127C119.295 90.319 119.313 90.3214 119.331 90.3224C119.334 90.3225 119.337 90.3242 119.34 90.3242H119.341H119.341C119.365 90.3242 119.39 90.3173 119.414 90.3072C119.428 90.3014 119.442 90.2955 119.455 90.2862L119.455 90.2861C119.455 90.2861 119.455 90.2857 119.455 90.2856C119.479 90.2684 119.5 90.2437 119.519 90.2157C119.524 90.2091 119.528 90.203 119.532 90.1961C119.535 90.1902 119.539 90.1856 119.542 90.1792L122.366 84.3516L125.158 82.8355C125.158 82.8353 125.159 82.8352 125.159 82.8351L125.161 82.8342C125.176 82.8257 125.187 82.8108 125.201 82.7988C125.213 82.7879 125.227 82.7811 125.237 82.7671L125.239 82.7656C125.239 82.7653 125.239 82.7649 125.239 82.7647L127.694 79.5653V81.303C127.694 81.475 127.801 81.614 127.933 81.614C128.065 81.614 128.171 81.475 128.171 81.303V78.8144C128.171 78.642 128.065 78.5029 127.933 78.5029Z" fill="url(#paint15_linear_780_6279)"/>
<path d="M113.612 98.4124C113.48 98.4124 113.374 98.2732 113.374 98.1013V97.4791C113.374 97.3072 113.48 97.168 113.612 97.168C113.744 97.168 113.851 97.307 113.851 97.4791V98.1013C113.851 98.2732 113.744 98.4124 113.612 98.4124Z" fill="url(#paint16_linear_780_6279)"/>
<path d="M116.476 98.4124C116.344 98.4124 116.237 98.2732 116.237 98.1013V97.4791C116.237 97.3072 116.344 97.168 116.476 97.168C116.608 97.168 116.715 97.307 116.715 97.4791V98.1013C116.715 98.2732 116.608 98.4124 116.476 98.4124Z" fill="url(#paint17_linear_780_6279)"/>
<path d="M119.34 98.4124C119.208 98.4124 119.101 98.2732 119.101 98.1013V97.4791C119.101 97.3072 119.208 97.168 119.34 97.168C119.472 97.168 119.579 97.307 119.579 97.4791V98.1013C119.579 98.2732 119.472 98.4124 119.34 98.4124Z" fill="url(#paint18_linear_780_6279)"/>
<path d="M122.204 98.4124C122.073 98.4124 121.966 98.2732 121.966 98.1013V97.4791C121.966 97.3072 122.073 97.168 122.204 97.168C122.336 97.168 122.443 97.307 122.443 97.4791V98.1013C122.443 98.2732 122.336 98.4124 122.204 98.4124Z" fill="url(#paint19_linear_780_6279)"/>
<path d="M125.068 98.4124C124.936 98.4124 124.83 98.2732 124.83 98.1013V97.4791C124.83 97.3072 124.936 97.168 125.068 97.168C125.2 97.168 125.307 97.307 125.307 97.4791V98.1013C125.307 98.2732 125.2 98.4124 125.068 98.4124Z" fill="url(#paint20_linear_780_6279)"/>
<path d="M113.612 82.8584H113.135C113.003 82.8584 112.896 82.7193 112.896 82.5473C112.896 82.3754 113.003 82.2363 113.135 82.2363H113.612C113.744 82.2363 113.851 82.3754 113.851 82.5473C113.851 82.7193 113.744 82.8584 113.612 82.8584Z" fill="url(#paint21_linear_780_6279)"/>
<path d="M113.612 86.5909H113.135C113.003 86.5909 112.896 86.4518 112.896 86.2799C112.896 86.1079 113.003 85.9688 113.135 85.9688H113.612C113.744 85.9688 113.851 86.1078 113.851 86.2799C113.851 86.4517 113.744 86.5909 113.612 86.5909Z" fill="url(#paint22_linear_780_6279)"/>
<path d="M113.612 90.3243H113.135C113.003 90.3243 112.896 90.1852 112.896 90.0132C112.896 89.8411 113.003 89.7021 113.135 89.7021H113.612C113.744 89.7021 113.851 89.8412 113.851 90.0132C113.851 90.1851 113.744 90.3243 113.612 90.3243Z" fill="url(#paint23_linear_780_6279)"/>
<path d="M113.612 94.0567H113.135C113.003 94.0567 112.896 93.9176 112.896 93.7456C112.896 93.5735 113.003 93.4346 113.135 93.4346H113.612C113.744 93.4346 113.851 93.5736 113.851 93.7456C113.851 93.9175 113.744 94.0567 113.612 94.0567Z" fill="url(#paint24_linear_780_6279)"/>
<path d="M113.612 97.7902H113.135C113.003 97.7902 112.896 97.6512 112.896 97.4791C112.896 97.307 113.003 97.168 113.135 97.168H113.612C113.744 97.168 113.851 97.307 113.851 97.4791C113.851 97.6512 113.744 97.7902 113.612 97.7902Z" fill="url(#paint25_linear_780_6279)"/>
<path d="M127.933 97.79H113.612C113.48 97.79 113.374 97.6509 113.374 97.4788V78.8141C113.374 78.6421 113.48 78.5029 113.612 78.5029C113.744 78.5029 113.851 78.6421 113.851 78.8141V97.1677H127.933C128.064 97.1677 128.171 97.3067 128.171 97.4788C128.171 97.6509 128.064 97.79 127.933 97.79Z" fill="url(#paint26_linear_780_6279)"/>
<path d="M122.205 91.5686C122.143 91.5686 122.08 91.5343 122.035 91.4783C121.992 91.4191 121.966 91.3413 121.966 91.2575C121.966 91.1733 121.992 91.0925 122.035 91.0366C122.123 90.9214 122.283 90.9214 122.374 91.0366C122.417 91.0955 122.443 91.1733 122.443 91.2575C122.443 91.3382 122.417 91.419 122.374 91.4783C122.329 91.5342 122.267 91.5686 122.205 91.5686Z" fill="url(#paint27_linear_780_6279)"/>
<path d="M122.205 90.3244C122.143 90.3244 122.08 90.2901 122.035 90.2342C121.992 90.175 121.966 90.0972 121.966 90.0133C121.966 89.9291 121.992 89.8514 122.035 89.7924C122.126 89.6773 122.283 89.6773 122.374 89.7924C122.417 89.8514 122.443 89.9291 122.443 90.0133C122.443 90.0971 122.417 90.1749 122.374 90.2342C122.329 90.2901 122.267 90.3244 122.205 90.3244Z" fill="url(#paint28_linear_780_6279)"/>
<path d="M122.205 89.0793C122.143 89.0793 122.08 89.0449 122.035 88.9891C121.992 88.9298 121.966 88.8521 121.966 88.7682C121.966 88.684 121.992 88.6062 122.035 88.5473C122.126 88.4321 122.283 88.4321 122.374 88.5473C122.417 88.6062 122.443 88.6874 122.443 88.7682C122.443 88.852 122.417 88.9298 122.374 88.9891C122.329 89.0449 122.267 89.0793 122.205 89.0793Z" fill="url(#paint29_linear_780_6279)"/>
<path d="M122.205 87.8352C122.143 87.8352 122.08 87.8008 122.035 87.7449C121.992 87.6858 121.966 87.608 121.966 87.5241C121.966 87.4399 121.992 87.3621 122.035 87.3032C122.126 87.188 122.283 87.188 122.374 87.3032C122.417 87.3621 122.443 87.4433 122.443 87.5241C122.443 87.6079 122.417 87.6856 122.374 87.7449C122.329 87.8008 122.267 87.8352 122.205 87.8352Z" fill="url(#paint30_linear_780_6279)"/>
<path d="M122.205 86.591C122.143 86.591 122.08 86.5568 122.035 86.5008C121.992 86.4416 121.966 86.3638 121.966 86.2799C121.966 86.1957 121.992 86.118 122.035 86.059C122.123 85.9439 122.286 85.9439 122.374 86.059C122.417 86.118 122.443 86.1991 122.443 86.2799C122.443 86.3607 122.417 86.4415 122.374 86.5008C122.329 86.5567 122.267 86.591 122.205 86.591Z" fill="url(#paint31_linear_780_6279)"/>
<path d="M122.205 96.5461C122.143 96.5461 122.08 96.5117 122.035 96.4559C121.992 96.3967 121.966 96.3189 121.966 96.235C121.966 96.1508 121.992 96.073 122.035 96.0141C122.123 95.8989 122.286 95.8989 122.374 96.0141C122.417 96.073 122.443 96.1542 122.443 96.235C122.443 96.3158 122.417 96.3966 122.374 96.4559C122.329 96.5117 122.267 96.5461 122.205 96.5461Z" fill="url(#paint32_linear_780_6279)"/>
<path d="M122.205 95.301C122.143 95.301 122.08 95.2697 122.035 95.2107C121.992 95.1516 121.966 95.0738 121.966 94.9899C121.966 94.9057 121.992 94.8249 122.035 94.769C122.123 94.6538 122.286 94.6538 122.374 94.769C122.417 94.8279 122.443 94.9057 122.443 94.9899C122.443 95.0707 122.417 95.1514 122.374 95.2107C122.329 95.2698 122.267 95.301 122.205 95.301Z" fill="url(#paint33_linear_780_6279)"/>
<path d="M122.205 94.0569C122.143 94.0569 122.08 94.0225 122.035 93.9666C121.992 93.9074 121.966 93.8265 121.966 93.7457C121.966 93.6615 121.992 93.5807 122.035 93.5249C122.123 93.4097 122.286 93.4097 122.374 93.5249C122.417 93.5838 122.443 93.6616 122.443 93.7457C122.443 93.8265 122.417 93.9073 122.374 93.9666C122.329 94.0226 122.267 94.0569 122.205 94.0569Z" fill="url(#paint34_linear_780_6279)"/>
<path d="M122.205 92.8127C122.143 92.8127 122.08 92.7783 122.035 92.7225C121.992 92.6633 121.966 92.5824 121.966 92.5016C121.966 92.4174 121.992 92.3366 122.035 92.2807C122.123 92.1655 122.283 92.1655 122.374 92.2807C122.417 92.3396 122.443 92.4174 122.443 92.5016C122.443 92.5824 122.417 92.6632 122.374 92.7225C122.329 92.7785 122.267 92.8127 122.205 92.8127Z" fill="url(#paint35_linear_780_6279)"/>
<path d="M125.068 91.5684C125.004 91.5684 124.944 91.5342 124.899 91.4782C124.856 91.419 124.83 91.3411 124.83 91.2573C124.83 91.1731 124.856 91.0923 124.899 91.0364C124.985 90.9243 125.149 90.9212 125.238 91.0364C125.281 91.0953 125.307 91.1731 125.307 91.2573C125.307 91.3411 125.281 91.4189 125.238 91.4782C125.192 91.534 125.133 91.5684 125.068 91.5684Z" fill="url(#paint36_linear_780_6279)"/>
<path d="M125.068 90.3244C125.006 90.3244 124.944 90.2901 124.899 90.2342C124.856 90.175 124.83 90.0941 124.83 90.0133C124.83 89.9325 124.856 89.8514 124.899 89.7924C124.987 89.6773 125.149 89.6773 125.238 89.7924C125.281 89.8514 125.307 89.9325 125.307 90.0133C125.307 90.0941 125.281 90.1749 125.238 90.2342C125.192 90.2901 125.13 90.3244 125.068 90.3244Z" fill="url(#paint37_linear_780_6279)"/>
<path d="M125.068 89.0793C125.004 89.0793 124.944 89.0449 124.899 88.9891C124.856 88.9298 124.83 88.8521 124.83 88.7682C124.83 88.684 124.856 88.6062 124.899 88.5473C124.987 88.4321 125.149 88.4321 125.238 88.5473C125.281 88.6062 125.307 88.684 125.307 88.7682C125.307 88.852 125.281 88.9298 125.238 88.9891C125.192 89.0449 125.133 89.0793 125.068 89.0793Z" fill="url(#paint38_linear_780_6279)"/>
<path d="M125.068 87.8352C125.006 87.8352 124.944 87.8008 124.899 87.7449C124.856 87.6858 124.83 87.6048 124.83 87.5241C124.83 87.4433 124.856 87.3621 124.899 87.3032C124.987 87.188 125.149 87.188 125.238 87.3032C125.281 87.3621 125.307 87.4433 125.307 87.5241C125.307 87.6048 125.281 87.6856 125.238 87.7449C125.192 87.8008 125.13 87.8352 125.068 87.8352Z" fill="url(#paint39_linear_780_6279)"/>
<path d="M125.068 86.591C125.004 86.591 124.944 86.5568 124.899 86.5008C124.856 86.4416 124.83 86.3638 124.83 86.2799C124.83 86.1957 124.856 86.118 124.899 86.059C124.987 85.9439 125.149 85.9439 125.238 86.059C125.281 86.118 125.307 86.1957 125.307 86.2799C125.307 86.3637 125.281 86.4415 125.238 86.5008C125.192 86.5567 125.133 86.591 125.068 86.591Z" fill="url(#paint40_linear_780_6279)"/>
<path d="M125.068 85.3469C125.006 85.3469 124.944 85.3125 124.899 85.2566C124.856 85.1973 124.83 85.1165 124.83 85.0358C124.83 84.955 124.856 84.8738 124.899 84.8149C124.987 84.6997 125.149 84.6997 125.238 84.8149C125.281 84.8738 125.307 84.955 125.307 85.0358C125.307 85.1165 125.281 85.1973 125.238 85.2566C125.192 85.3126 125.13 85.3469 125.068 85.3469Z" fill="url(#paint41_linear_780_6279)"/>
<path d="M125.068 84.1028C125.006 84.1028 124.944 84.0684 124.899 84.0125C124.856 83.9533 124.83 83.8724 124.83 83.7916C124.83 83.7074 124.856 83.6297 124.899 83.5708C124.987 83.4556 125.149 83.4556 125.238 83.5708C125.281 83.6297 125.307 83.7076 125.307 83.7916C125.307 83.8724 125.281 83.9532 125.238 84.0125C125.192 84.0685 125.13 84.1028 125.068 84.1028Z" fill="url(#paint42_linear_780_6279)"/>
<path d="M125.068 96.5461C125.004 96.5461 124.944 96.5117 124.899 96.4528C124.856 96.3967 124.83 96.3188 124.83 96.235C124.83 96.1542 124.856 96.073 124.899 96.0141C124.987 95.8989 125.149 95.8989 125.238 96.0141C125.281 96.073 125.307 96.1542 125.307 96.235C125.307 96.3188 125.281 96.3966 125.235 96.4559C125.192 96.5117 125.133 96.5461 125.068 96.5461Z" fill="url(#paint43_linear_780_6279)"/>
<path d="M125.068 95.301C125.006 95.301 124.944 95.2666 124.899 95.2107C124.856 95.1516 124.83 95.0707 124.83 94.9899C124.83 94.9057 124.856 94.8279 124.899 94.769C124.987 94.6538 125.149 94.6538 125.238 94.769C125.281 94.8279 125.307 94.9057 125.307 94.9899C125.307 95.0707 125.281 95.1514 125.238 95.2107C125.192 95.2667 125.13 95.301 125.068 95.301Z" fill="url(#paint44_linear_780_6279)"/>
<path d="M125.068 94.0569C125.004 94.0569 124.944 94.0225 124.899 93.9666C124.856 93.9074 124.83 93.8297 124.83 93.7457C124.83 93.6615 124.856 93.5838 124.899 93.5249C124.987 93.4097 125.149 93.4097 125.238 93.5249C125.281 93.5838 125.307 93.6649 125.307 93.7457C125.307 93.8295 125.281 93.9073 125.238 93.9666C125.192 94.0226 125.133 94.0569 125.068 94.0569Z" fill="url(#paint45_linear_780_6279)"/>
<path d="M125.068 92.8123C125.006 92.8123 124.944 92.778 124.899 92.7221C124.856 92.6629 124.83 92.582 124.83 92.5012C124.83 92.417 124.856 92.3362 124.899 92.2803C124.987 92.1652 125.149 92.1652 125.238 92.2834C125.281 92.3393 125.307 92.417 125.307 92.5012C125.307 92.582 125.281 92.6628 125.238 92.7221C125.192 92.7781 125.13 92.8123 125.068 92.8123Z" fill="url(#paint46_linear_780_6279)"/>
<path d="M119.34 91.5686C119.278 91.5686 119.216 91.5343 119.17 91.4783C119.127 91.4191 119.101 91.3382 119.101 91.2575C119.101 91.1767 119.127 91.0955 119.17 91.0366C119.259 90.9214 119.421 90.9214 119.509 91.0366C119.552 91.0955 119.579 91.1767 119.579 91.2575C119.579 91.3382 119.552 91.419 119.509 91.4783C119.464 91.5342 119.402 91.5686 119.34 91.5686Z" fill="url(#paint47_linear_780_6279)"/>
<path d="M119.34 96.5461C119.278 96.5461 119.216 96.5117 119.17 96.4559C119.127 96.3967 119.101 96.3158 119.101 96.235C119.101 96.1508 119.127 96.073 119.17 96.0141C119.261 95.8989 119.419 95.8989 119.509 96.0141C119.552 96.073 119.579 96.1542 119.579 96.235C119.579 96.3158 119.552 96.3966 119.509 96.4559C119.464 96.5117 119.402 96.5461 119.34 96.5461Z" fill="url(#paint48_linear_780_6279)"/>
<path d="M119.34 95.301C119.278 95.301 119.216 95.2666 119.17 95.2107C119.127 95.1516 119.101 95.0707 119.101 94.9899C119.101 94.9091 119.127 94.8279 119.17 94.769C119.261 94.6538 119.419 94.6538 119.509 94.769C119.552 94.8279 119.579 94.9091 119.579 94.9899C119.579 95.0707 119.552 95.1514 119.509 95.2107C119.464 95.2667 119.402 95.301 119.34 95.301Z" fill="url(#paint49_linear_780_6279)"/>
<path d="M119.34 94.0569C119.278 94.0569 119.216 94.0225 119.17 93.9666C119.127 93.9074 119.101 93.8297 119.101 93.7457C119.101 93.6615 119.127 93.5838 119.17 93.5249C119.261 93.4097 119.419 93.4097 119.509 93.5249C119.552 93.5838 119.579 93.6649 119.579 93.7457C119.579 93.8265 119.552 93.9073 119.509 93.9666C119.464 94.0226 119.402 94.0569 119.34 94.0569Z" fill="url(#paint50_linear_780_6279)"/>
<path d="M119.34 92.8127C119.278 92.8127 119.216 92.7783 119.17 92.7225C119.127 92.6633 119.101 92.5824 119.101 92.5016C119.101 92.4208 119.127 92.3396 119.17 92.2807C119.259 92.1655 119.421 92.1655 119.509 92.2807C119.552 92.3396 119.579 92.4208 119.579 92.5016C119.579 92.5824 119.552 92.6632 119.509 92.7225C119.464 92.7785 119.402 92.8127 119.34 92.8127Z" fill="url(#paint51_linear_780_6279)"/>
<path d="M116.476 96.5461C116.414 96.5461 116.352 96.5117 116.307 96.4559C116.263 96.3967 116.237 96.3158 116.237 96.235C116.237 96.1508 116.263 96.073 116.307 96.0141C116.395 95.8989 116.555 95.8989 116.645 96.0141C116.688 96.073 116.715 96.1508 116.715 96.235C116.715 96.3158 116.688 96.3966 116.645 96.4559C116.6 96.5117 116.538 96.5461 116.476 96.5461Z" fill="url(#paint52_linear_780_6279)"/>
<path d="M116.476 95.301C116.414 95.301 116.352 95.2666 116.307 95.2107C116.263 95.1516 116.237 95.0707 116.237 94.9899C116.237 94.9091 116.263 94.8279 116.307 94.769C116.395 94.6538 116.557 94.6538 116.645 94.769C116.688 94.8279 116.715 94.9091 116.715 94.9899C116.715 95.0737 116.688 95.1514 116.645 95.2107C116.6 95.2667 116.538 95.301 116.476 95.301Z" fill="url(#paint53_linear_780_6279)"/>
<path d="M116.476 94.0569C116.414 94.0569 116.352 94.0225 116.307 93.9666C116.263 93.9074 116.237 93.8297 116.237 93.7457C116.237 93.6649 116.263 93.5838 116.307 93.5249C116.395 93.4097 116.555 93.4097 116.645 93.5249C116.688 93.5838 116.715 93.6616 116.715 93.7457C116.715 93.8295 116.688 93.9073 116.645 93.9666C116.6 94.0226 116.538 94.0569 116.476 94.0569Z" fill="url(#paint54_linear_780_6279)"/>
<path d="M116.476 92.8127C116.414 92.8127 116.352 92.7783 116.307 92.7225C116.263 92.6633 116.237 92.5824 116.237 92.5016C116.237 92.4174 116.263 92.3396 116.307 92.2807C116.395 92.1655 116.555 92.1655 116.645 92.2807C116.688 92.3396 116.715 92.4174 116.715 92.5016C116.715 92.5824 116.688 92.6632 116.645 92.7225C116.6 92.7785 116.538 92.8127 116.476 92.8127Z" fill="url(#paint55_linear_780_6279)"/>
<g opacity="0.1">
<path d="M40.2639 39.8662L56.1385 56.6452L55.0184 58.4459L39.1431 41.6657L40.2639 39.8662Z" fill="black"/>
<path d="M91.3357 29.7871L109.913 39.0959L109.094 41.1431L90.5186 31.8356L91.3357 29.7871Z" fill="black"/>
<path d="M137.867 16.9863L139.179 19.1528L118.876 40.022L117.565 37.8556L137.867 16.9863Z" fill="black"/>
<path d="M83.3217 32.4893L84.3807 34.0601L63.3969 58.0595L62.3389 56.4875L83.3217 32.4893Z" fill="black"/>
<path d="M42.7965 37.9525C42.4737 41.9393 39.7325 44.8302 36.6737 44.4096C33.6149 43.989 31.397 40.4161 31.7197 36.4293C32.0424 32.4426 34.7836 29.5517 37.8424 29.9723C40.9012 30.3929 43.1192 33.9658 42.7965 37.9525Z" fill="black"/>
<path d="M145.306 17.6537C144.984 21.6405 142.242 24.5314 139.184 24.1107C136.125 23.6901 133.907 20.1173 134.229 16.1305C134.552 12.1437 137.293 9.25284 140.352 9.67347C143.411 10.0942 145.629 13.6671 145.306 17.6537Z" fill="black"/>
<path d="M119.537 40.7836C119.214 44.7695 116.473 47.6604 113.414 47.2397C110.355 46.8191 108.137 43.2463 108.46 39.2604C108.783 35.2736 111.524 32.3827 114.583 32.8034C117.641 33.224 119.859 36.7968 119.537 40.7836Z" fill="black"/>
<path d="M94.022 32.2826C93.6994 36.2685 90.9582 39.1594 87.8994 38.7388C84.8406 38.3181 82.6226 34.7453 82.9452 30.7594C83.268 26.7726 86.0092 23.8818 89.068 24.3024C92.1268 24.723 94.3448 28.2958 94.022 32.2826Z" fill="black"/>
<path d="M64.482 59.2074C64.1593 63.1942 61.4181 66.0851 58.3593 65.6644C55.3005 65.2438 53.0825 61.671 53.4052 57.6842C53.7279 53.6974 56.4692 50.8066 59.5279 51.2272C62.5867 51.6478 64.8047 55.2206 64.482 59.2074Z" fill="black"/>
</g>
<path d="M95.2746 24.0303L113.851 33.3391L113.033 35.3864L94.4575 26.0789L95.2746 24.0303Z" fill="url(#paint56_linear_780_6279)"/>
<path d="M44.2029 34.1094L60.0775 50.8884L58.9574 52.6891L43.082 35.9087L44.2029 34.1094Z" fill="url(#paint57_linear_780_6279)"/>
<path d="M141.807 11.2295L143.119 13.396L122.815 34.2651L121.504 32.0988L141.807 11.2295Z" fill="url(#paint58_linear_780_6279)"/>
<path d="M87.2606 26.7324L88.3197 28.3033L67.3359 52.3027L66.2778 50.7307L87.2606 26.7324Z" fill="url(#paint59_linear_780_6279)"/>
<path d="M46.7359 32.1947C46.4132 36.1815 43.672 39.0724 40.6132 38.6518C37.5544 38.2311 35.3364 34.6583 35.6591 30.6715C35.9818 26.6848 38.7231 23.7939 41.7818 24.2145C44.8406 24.6351 47.0586 28.208 46.7359 32.1947Z" fill="url(#paint60_linear_780_6279)"/>
<path d="M149.246 11.8969C148.923 15.8836 146.182 18.7745 143.123 18.3539C140.064 17.9333 137.846 14.3604 138.169 10.3737C138.492 6.3869 141.233 3.49601 144.292 3.91663C147.35 4.33713 149.568 7.90997 149.246 11.8969Z" fill="url(#paint61_linear_780_6279)"/>
<path d="M123.476 35.0268C123.154 39.0126 120.412 41.9035 117.354 41.4829C114.295 41.0623 112.077 37.4894 112.399 33.5036C112.722 29.5168 115.463 26.6259 118.522 27.0465C121.581 27.4671 123.799 31.0401 123.476 35.0268Z" fill="url(#paint62_linear_780_6279)"/>
<path d="M97.9615 26.5248C97.6389 30.5107 94.8977 33.4016 91.8389 32.981C88.7801 32.5603 86.5621 28.9875 86.8847 25.0016C87.2074 21.0148 89.9486 18.1239 93.0074 18.5446C96.0662 18.9652 98.2842 22.538 97.9615 26.5248Z" fill="url(#paint63_linear_780_6279)"/>
<path d="M68.4215 53.4506C68.0988 57.4373 65.3575 60.3282 62.2988 59.9076C59.24 59.487 57.022 55.9141 57.3447 51.9274C57.6674 47.9406 60.4086 45.0497 63.4674 45.4703C66.5262 45.891 68.7442 49.4638 68.4215 53.4506Z" fill="url(#paint64_linear_780_6279)"/>
<path d="M38.7848 62.1955H23.3835C23.3548 62.1955 23.3315 62.1651 23.3315 62.1277V61.5219C23.3315 61.4844 23.3548 61.4541 23.3835 61.4541H38.7849C38.8136 61.4541 38.8369 61.4844 38.8369 61.5219V62.1277C38.8369 62.1651 38.8136 62.1955 38.7848 62.1955Z" fill="white"/>
<path d="M38.7843 64.4201H23.383C23.3543 64.4201 23.3311 64.3897 23.3311 64.3523V63.7465C23.3311 63.7091 23.3543 63.6787 23.383 63.6787H38.7844C38.8131 63.6787 38.8364 63.7091 38.8364 63.7465V64.3523C38.8364 64.3897 38.8131 64.4201 38.7843 64.4201Z" fill="white"/>
<path d="M38.7843 66.6447H23.383C23.3543 66.6447 23.3311 66.6143 23.3311 66.5769V65.9711C23.3311 65.9337 23.3543 65.9033 23.383 65.9033H38.7844C38.8131 65.9033 38.8364 65.9337 38.8364 65.9711V66.5769C38.8364 66.6143 38.8131 66.6447 38.7843 66.6447Z" fill="white"/>
<path d="M38.7843 68.8693H23.383C23.3543 68.8693 23.3311 68.839 23.3311 68.8015V68.1957C23.3311 68.1583 23.3543 68.1279 23.383 68.1279H38.7844C38.8131 68.1279 38.8364 68.1583 38.8364 68.1957V68.8015C38.8364 68.839 38.8131 68.8693 38.7843 68.8693Z" fill="white"/>
<path d="M92.584 52.7902H76.1777C76.1424 52.7902 76.1138 52.7529 76.1138 52.7069V51.9622C76.1138 51.9162 76.1424 51.8789 76.1777 51.8789H92.584C92.6193 51.8789 92.6479 51.9162 92.6479 51.9622V52.7069C92.648 52.7529 92.6194 52.7902 92.584 52.7902Z" fill="white"/>
<path d="M92.5839 55.5236H76.1777C76.1424 55.5236 76.1138 55.4863 76.1138 55.4403V54.6956C76.1138 54.6496 76.1424 54.6123 76.1777 54.6123H92.5839C92.6193 54.6123 92.6479 54.6496 92.6479 54.6956V55.4403C92.6479 55.4863 92.6193 55.5236 92.5839 55.5236Z" fill="white"/>
<path d="M92.5839 58.258H76.1777C76.1424 58.258 76.1138 58.2207 76.1138 58.1746V57.43C76.1138 57.384 76.1424 57.3467 76.1777 57.3467H92.5839C92.6193 57.3467 92.6479 57.384 92.6479 57.43V58.1746C92.6479 58.2207 92.6193 58.258 92.5839 58.258Z" fill="white"/>
<path d="M92.584 60.9923H76.1777C76.1424 60.9923 76.1138 60.955 76.1138 60.909V60.1644C76.1138 60.1183 76.1424 60.0811 76.1777 60.0811H92.584C92.6193 60.0811 92.6479 60.1183 92.6479 60.1644V60.909C92.648 60.9549 92.6194 60.9923 92.584 60.9923Z" fill="white"/>
<path d="M131.468 58.7941H112.331C112.295 58.7941 112.267 58.7568 112.267 58.7108V57.9661C112.267 57.9201 112.295 57.8828 112.331 57.8828H131.468C131.503 57.8828 131.532 57.9201 131.532 57.9661V58.7108C131.532 58.7568 131.503 58.7941 131.468 58.7941Z" fill="white"/>
<path d="M131.468 61.5275H112.331C112.295 61.5275 112.267 61.4902 112.267 61.4442V60.6995C112.267 60.6535 112.295 60.6162 112.331 60.6162H131.468C131.503 60.6162 131.532 60.6535 131.532 60.6995V61.4442C131.532 61.4902 131.503 61.5275 131.468 61.5275Z" fill="white"/>
<path d="M131.468 64.2619H112.331C112.295 64.2619 112.267 64.2246 112.267 64.1786V63.4339C112.267 63.3879 112.295 63.3506 112.331 63.3506H131.468C131.503 63.3506 131.532 63.3879 131.532 63.4339V64.1786C131.532 64.2246 131.503 64.2619 131.468 64.2619Z" fill="white"/>
<path d="M131.468 66.9963H112.331C112.295 66.9963 112.267 66.959 112.267 66.9129V66.1683C112.267 66.1223 112.295 66.085 112.331 66.085H131.468C131.503 66.085 131.532 66.1223 131.532 66.1683V66.9129C131.532 66.9588 131.503 66.9963 131.468 66.9963Z" fill="white"/>
<path d="M62.8315 21.2951H55.1829C55.1541 21.2951 55.1309 21.2647 55.1309 21.2273V20.6215C55.1309 20.5841 55.1541 20.5537 55.1829 20.5537H62.8315C62.8602 20.5537 62.8835 20.5841 62.8835 20.6215V21.2273C62.8835 21.2647 62.8602 21.2951 62.8315 21.2951Z" fill="white"/>
<path d="M62.8315 23.5197H55.1829C55.1541 23.5197 55.1309 23.4893 55.1309 23.4519V22.8461C55.1309 22.8087 55.1541 22.7783 55.1829 22.7783H62.8315C62.8602 22.7783 62.8835 22.8087 62.8835 22.8461V23.4519C62.8835 23.4893 62.8602 23.5197 62.8315 23.5197Z" fill="white"/>
<path d="M62.8315 25.7443H55.1829C55.1541 25.7443 55.1309 25.714 55.1309 25.6765V25.0707C55.1309 25.0333 55.1541 25.0029 55.1829 25.0029H62.8315C62.8602 25.0029 62.8835 25.0333 62.8835 25.0707V25.6765C62.8835 25.714 62.8602 25.7443 62.8315 25.7443Z" fill="white"/>
<path d="M62.8315 27.9681H55.1829C55.1541 27.9681 55.1309 27.9377 55.1309 27.9003V27.2943C55.1309 27.2569 55.1541 27.2266 55.1829 27.2266H62.8315C62.8602 27.2266 62.8835 27.2569 62.8835 27.2943V27.9003C62.8835 27.9377 62.8602 27.9681 62.8315 27.9681Z" fill="white"/>
<path d="M39.3044 39.4717L30.4195 59.0595C30.3482 59.2167 30.0811 59.1828 29.8228 58.9838C29.5646 58.7848 29.4131 58.4961 29.4844 58.339L38.3692 38.7512C38.4405 38.594 38.7076 38.6279 38.9659 38.8269C39.2242 39.0258 39.3757 39.3144 39.3044 39.4717Z" fill="url(#paint65_linear_780_6279)"/>
<path d="M91.3726 33.5478L90.477 50.6726C90.4698 50.8101 90.2214 50.8998 89.9221 50.8733C89.6228 50.8467 89.386 50.7137 89.3932 50.5763L90.2888 33.4514C90.296 33.314 90.5444 33.2241 90.8438 33.2508C91.143 33.2775 91.3798 33.4103 91.3726 33.5478Z" fill="url(#paint66_linear_780_6279)"/>
<path d="M59.4225 29.1546L61.6631 44.2861C61.681 44.4075 61.4569 44.566 61.1624 44.6401C60.8679 44.7142 60.6145 44.6758 60.5966 44.5544L58.356 29.4229C58.338 29.3015 58.5622 29.143 58.8567 29.0689C59.1511 28.995 59.4045 29.0333 59.4225 29.1546Z" fill="url(#paint67_linear_780_6279)"/>
<path d="M119.025 42.2371L119.227 56.2155C119.228 56.3277 118.987 56.4247 118.687 56.432C118.387 56.4393 118.142 56.3544 118.141 56.2422L117.938 42.2637C117.937 42.1516 118.179 42.0546 118.479 42.0473C118.779 42.04 119.023 42.1249 119.025 42.2371Z" fill="url(#paint68_linear_780_6279)"/>
<path d="M139.572 39.0856C139.572 39.0856 138.802 41.0277 137.896 42.566C137.629 43.0198 137.35 43.4384 137.075 43.7615C136.629 44.2858 136.195 44.5601 135.841 44.3274C134.529 43.4651 131.603 36.6024 131.603 36.6024L132.324 35.4885C132.324 35.4885 133.626 37.4484 134.578 38.6212C135.456 39.7028 136.132 40.5115 136.132 40.5115C136.253 40.2702 136.383 40.0061 136.517 39.7264C136.66 39.4295 136.809 39.1152 136.96 38.7921C138.057 36.4456 139.838 34.7598 139.838 34.7598L139.572 39.0856Z" fill="#FDA893"/>
<path d="M132.515 36.1625C132.515 36.1625 132.812 35.5138 132.697 34.9329C132.582 34.3518 132.47 33.0388 131.993 33.0743C131.819 33.0873 132.073 33.636 131.957 34.1441C131.957 34.1441 131.446 33.8168 131.104 33.4806C130.803 33.1849 130.18 32.7048 129.89 32.4853C129.811 32.4252 129.719 32.5405 129.765 32.6441C129.84 32.8115 130.021 33.0615 130.441 33.4113C130.441 33.4113 129.398 32.6339 129.223 32.8048C129.048 32.9756 130.367 33.9162 130.367 33.9162C130.367 33.9162 129.302 33.3438 129.215 33.5533C129.162 33.6809 130.206 34.4968 130.206 34.4968C130.206 34.4968 129.169 34.0709 129.361 34.3939C129.417 34.488 131.387 35.6739 131.798 37.0509C131.798 37.0509 132.372 36.6328 132.515 36.1625Z" fill="#FDA893"/>
<path d="M139.734 34.6152C138.486 35.7072 136.644 39.0196 136.644 39.0196C136.644 39.0196 136.787 40.5748 138.444 41.8035L139.703 39.1426L139.734 34.6152Z" fill="url(#paint69_linear_780_6279)"/>
<path d="M140.907 77.4943V79.047L141.958 79.0242L142.026 77.3789L140.907 77.4943Z" fill="#FDA893"/>
<path d="M143.764 54.8079C143.756 54.9922 143.715 55.8786 143.653 57.1139C143.487 60.5082 143.176 66.54 142.994 67.895C142.807 69.2854 142.513 75.0995 142.574 77.486C142.583 77.8919 140.261 78.3017 140.282 77.486C140.333 75.4682 140.437 70.5324 140.32 67.6891C140.207 64.983 139.972 60.4532 139.992 57.21C139.992 57.21 139.921 55.1157 139.938 54.7471L143.764 54.8079Z" fill="url(#paint70_linear_780_6279)"/>
<path d="M145.841 77.4943L145.968 79.0446L147.02 79.0242L147.097 77.3789L145.841 77.4943Z" fill="#FDA893"/>
<path d="M147.503 67.6888C147.386 70.5321 147.448 75.3616 147.499 77.3793C147.518 78.195 145.196 77.8107 145.207 77.3793C145.267 74.9929 144.849 69.2849 144.662 67.8947C144.476 66.5162 144.157 60.3001 143.993 56.941C143.939 55.8194 143.901 55.0173 143.892 54.8193L147.723 54.8801C147.735 55.1193 147.753 55.488 147.774 55.9548C147.898 58.6411 147.634 64.5572 147.503 67.6888Z" fill="url(#paint71_linear_780_6279)"/>
<path d="M146.378 78.8066C146.378 78.8066 146.915 78.6342 147.063 78.6377C147.211 78.6413 148.205 79.9798 148.54 80.0587C149.146 80.2017 149.147 81.3429 148.778 81.3997C147.71 81.5637 145.883 81.0202 145.883 81.0202C145.883 81.0202 145.715 79.5557 145.788 79.0962C145.861 78.6365 146.08 78.9417 146.378 78.8066Z" fill="#333333"/>
<path d="M148.594 55.2839C145.133 56.3331 142.515 56.3361 139.061 55.2839C139.043 53.7296 139.407 46.2992 139.408 40.9713C139.408 40.871 138.837 35.6594 139.058 35.2925C139.058 35.2921 139.058 35.2921 139.058 35.2921C139.574 34.4391 142.163 33.077 142.88 32.4688C142.94 32.5846 143.292 33.2278 143.754 33.2754C144.261 33.3293 144.712 32.6107 144.712 32.6107V32.4747C145.432 33.0826 147.778 34.3432 148.292 35.1936C148.493 35.5251 148.135 37.8348 148.299 40.7759C148.594 46.0512 148.609 53.5776 148.594 55.2839Z" fill="url(#paint72_linear_780_6279)"/>
<path d="M151.497 56.7775C151.447 57.6921 151.026 58.3713 151.024 58.9733C151.022 59.576 150.488 59.1818 150.735 57.9922C150.982 56.8032 150.616 55.6522 150.421 55.6628C150.225 55.674 150.483 57.0033 150.277 57.4449C150.072 57.886 149.917 56.9592 149.736 56.3856C149.549 55.7902 149.654 54.5553 149.824 53.6855C149.993 52.8163 149.161 47.3002 149.27 45.7462L148.97 43.7298L148.795 42.5536L148.762 41.3259L150.365 40.498C150.425 40.8921 150.487 41.3007 150.548 41.7116C150.576 41.8928 150.602 42.0745 150.628 42.2555C150.843 43.7257 151.035 45.1731 151.114 46.1016C151.33 48.6697 150.975 53.9077 150.975 53.9077C150.975 53.9077 151.543 55.9199 151.497 56.7775Z" fill="#FDA893"/>
<path d="M151.017 40.8734C151.017 40.8734 150.826 41.1689 150.492 41.4935C150.088 41.8884 149.298 42.3271 148.564 42.3356C146.335 38.2096 148.51 36.0697 148.32 35.2256C148.659 35.7697 150.294 38.4375 151.017 40.8734Z" fill="url(#paint73_linear_780_6279)"/>
<path d="M146.149 26.8982C146.149 28.7414 145.278 30.0116 143.864 30.0116C142.45 30.0116 141.464 28.6459 141.464 26.8027C141.464 24.9595 142.251 23.9697 143.665 23.9697C145.361 23.9697 146.149 25.055 146.149 26.8982Z" fill="#333333"/>
<path d="M145.857 27.6913C145.857 27.6913 146.25 27.0086 146.542 27.5731C146.834 28.1378 146.421 29.8053 145.706 29.3983L145.857 27.6913Z" fill="#FDA893"/>
<path d="M141.808 27.6913C141.808 27.6913 141.415 27.0086 141.123 27.5731C140.83 28.1378 141.243 29.8053 141.959 29.3983L141.808 27.6913Z" fill="#FDA893"/>
<path d="M142.865 30.8135V32.4718C142.865 32.4718 143.245 33.3164 143.758 33.3739C144.27 33.4322 144.726 32.6467 144.726 32.6467V30.93L142.865 30.8135Z" fill="#FDA893"/>
<path d="M146.067 27.6395C146.048 27.9908 146.016 28.3619 145.964 28.7313C145.793 29.9538 145.409 31.1559 144.581 31.5417C142.706 32.4144 142.036 30.3184 141.768 29.0967C141.739 28.9613 141.713 28.8102 141.689 28.649C141.647 28.3579 141.614 28.0331 141.588 27.706C141.557 27.3091 141.686 27.0285 141.673 26.6755C141.645 25.9319 141.777 25.7771 142.311 25.5094C143.08 25.1243 144.247 24.8199 145.354 25.6378C145.763 25.939 145.913 25.9177 145.922 26.5297C145.927 26.8625 146.091 27.2013 146.067 27.6395Z" fill="#FDA893"/>
<path d="M141.54 78.8066C141.54 78.8066 141.004 78.6342 140.855 78.6377C140.707 78.6413 139.714 79.9798 139.379 80.0587C138.772 80.2017 138.771 81.3429 139.141 81.3997C140.209 81.5637 142.035 81.0202 142.035 81.0202C142.035 81.0202 142.204 79.5557 142.131 79.0962C142.058 78.6365 141.839 78.9417 141.54 78.8066Z" fill="#333333"/>
<path d="M2.73976 108.579L1.97085 109.959L1.18359 109.116L2.12546 107.728L2.73976 108.579Z" fill="#F39F86"/>
<path d="M1.55466 108.568C1.55466 108.568 1.53284 109.235 2.22668 109.499C2.92052 109.763 3.49408 112.317 3.49408 112.317C3.49408 112.317 3.78556 113.394 3.0052 112.684C2.22474 111.973 0.555664 109.289 0.555664 109.289C0.555664 109.289 0.70931 108.223 1.55466 108.568Z" fill="#333333"/>
<path d="M15.9782 110.327L16.2227 112.003L15.2119 112.172L15.0815 110.327H15.9782Z" fill="#F39F86"/>
<path d="M1.82275 107.982C2.24082 107.035 2.85803 105.389 3.24021 103.23C3.86082 99.7248 6.34343 96.2195 6.34343 96.2195C6.55033 92.9837 7.99844 83.2763 7.99844 83.0067C7.99844 83.0067 9.86045 78.4227 11.1018 84.0852C12.3431 89.7478 8.61915 94.8711 8.61915 96.489C8.61915 98.1069 2.61951 108.893 2.61951 108.893L2.62359 108.906C2.35703 108.797 2.0442 108.546 1.82275 107.982Z" fill="url(#paint74_linear_780_6279)"/>
<path opacity="0.15" d="M10.6077 90.957L9.56305 87.4315C9.56305 87.4315 9.05565 85.0724 7.78893 84.5834C7.55991 84.495 8.954 86.1961 9.32211 87.7691C9.72437 89.488 10.6077 90.957 10.6077 90.957Z" fill="black"/>
<path d="M8.15102 79.3693C9.91865 79.3693 11.7955 76.4971 11.7955 76.4971C11.7955 76.4971 12.6431 77.2703 13.0581 81.0835C13.2529 82.8745 13.8856 92.948 14.2994 95.3749C14.7062 97.7609 16.1129 110.313 16.16 110.733C15.8904 110.957 15.5001 111.084 14.9803 110.792C14.7297 109.182 14.1579 106.095 13.265 104.543C12.0236 102.386 12.4374 98.0713 12.0236 96.7231C11.6098 95.3749 9.95377 86.4787 8.29973 85.1282C6.11694 83.3462 7.72733 79.3693 8.15102 79.3693Z" fill="url(#paint75_linear_780_6279)"/>
<path d="M19.1401 71.3024C19.1401 71.3024 14.6063 70.2598 12.101 69.5337C12.101 69.5337 10.4384 66.9782 8.74465 67.2169C7.65262 67.3708 5.88868 68.5645 7.96806 69.727C10.0475 70.8895 11.635 71.8076 11.635 71.8076L18.9223 72.274C18.9223 72.274 19.1964 73.4901 19.5767 73.5494C19.957 73.6087 22.016 73.5948 21.7927 73.2248C21.5695 72.8547 20.332 72.3264 20.332 72.3264C20.332 72.3264 21.5997 72.5241 21.6301 72.1936C21.6606 71.8631 19.1401 71.3024 19.1401 71.3024Z" fill="#F39F86"/>
<path d="M14.4236 70.0891C14.4236 70.0891 13.8335 71.2897 14.2967 71.9054C14.2967 71.9054 14.0563 71.8858 13.8066 72.1723C13.5568 72.4587 13.3162 72.4462 13.239 72.3424C13.1618 72.2386 13.0045 72.1307 13.0045 72.1307C13.0045 72.1307 11.0459 73.1269 8.61089 71.3042C6.17591 69.4815 5.72495 68.4601 6.07018 67.6796C6.4154 66.8992 6.53209 65.7076 8.28458 66.1977C10.0372 66.6877 11.9015 68.7802 12.3737 69.1041C12.8459 69.428 13.3813 69.6515 13.3813 69.6515C13.3813 69.6515 13.5457 69.3697 13.7558 69.4778C13.9658 69.5858 14.2753 69.6821 14.4236 70.0891Z" fill="url(#paint76_linear_780_6279)"/>
<path d="M8.8519 68.1597C8.8519 68.1597 7.88947 67.5062 7.60487 67.1044C7.32018 66.7026 6.32961 65.1031 6.50732 64.1447C6.50732 64.1447 7.77957 64.773 8.16155 63.4563C8.65936 61.7404 6.25706 57.7456 5.67001 57.5217C5.08297 57.2978 3.77823 56.2626 2.55108 57.5535C1.32394 58.8446 3.08604 64.3544 4.41425 64.6167C4.41425 64.6167 5.83947 67.6848 5.34671 68.6779C5.34671 68.6779 7.37401 69.8016 8.13885 69.067C8.9036 68.3327 8.8519 68.1597 8.8519 68.1597Z" fill="#F39F86"/>
<mask id="mask0_780_6279" style="mask-type:luminance" maskUnits="userSpaceOnUse" x="2" y="56" width="7" height="14">
<path d="M8.8519 68.1597C8.8519 68.1597 7.88947 67.5062 7.60487 67.1044C7.32018 66.7026 6.32961 65.1031 6.50732 64.1447C6.50732 64.1447 7.77957 64.773 8.16155 63.4563C8.65936 61.7404 6.25706 57.7456 5.67001 57.5217C5.08297 57.2978 3.77823 56.2626 2.55108 57.5535C1.32394 58.8446 3.08604 64.3544 4.41425 64.6167C4.41425 64.6167 5.83947 67.6848 5.34671 68.6779C5.34671 68.6779 7.37401 69.8016 8.13885 69.067C8.9036 68.3327 8.8519 68.1597 8.8519 68.1597Z" fill="white"/>
</mask>
<g mask="url(#mask0_780_6279)">
<path opacity="0.29" d="M6.79183 64.5468L6.50713 64.145C6.50713 64.145 5.62356 63.9057 5.33887 63.5039C5.33887 63.5039 6.04474 64.7015 6.6377 64.7323C7.23066 64.763 6.79183 64.5468 6.79183 64.5468Z" fill="#F39F86"/>
</g>
<path d="M10.6937 81.0259C9.08333 81.3573 7.96366 81.5361 7.6425 80.2527C7.43676 79.4306 7.371 77.2643 6.03211 75.5026C5.06958 74.236 3.24142 70.7926 4.19561 68.7134C5.14989 66.6342 7.19581 67.7078 7.64046 67.7308C8.08521 67.7538 7.24295 66.1621 7.24295 66.1621C9.44883 66.857 10.6268 68.168 11.5723 70.2568C12.93 73.2563 13.3669 79.8924 12.982 80.6947L10.6937 81.0259Z" fill="url(#paint77_linear_780_6279)"/>
<path d="M28.034 47.3486V49.7645L25.439 53.1468V50.7309L28.034 47.3486Z" fill="url(#paint78_linear_780_6279)"/>
<path d="M29.8876 49.7646L27.2925 53.147H25.439L28.034 49.7646H29.8876Z" fill="url(#paint79_linear_780_6279)"/>
<path d="M22.5252 56.9448C21.1832 55.1958 19.3296 54.1133 17.2832 54.1133C13.1904 54.1133 9.86881 58.4427 9.86881 63.777C9.86881 69.1167 13.1905 73.4409 17.2832 73.4409C21.3759 73.4409 24.6976 69.1167 24.6976 63.777C24.6977 61.1099 23.8671 58.694 22.5252 56.9448ZM23.8377 55.2342C25.5133 57.4237 26.5512 60.4435 26.5512 63.777C26.5512 67.2754 25.4093 70.431 23.5855 72.6339C22.5437 73.8949 21.2795 74.842 19.8782 75.3736C19.0552 75.6877 18.1841 75.8568 17.2832 75.8568C16.3822 75.8568 15.5112 75.6877 14.6881 75.3736C13.2869 74.8421 12.0227 73.895 10.9809 72.6339C9.15702 70.4305 8.01514 67.2754 8.01514 63.777C8.01514 57.1091 12.1634 51.6973 17.2832 51.6973C19.8412 51.6974 22.162 53.0507 23.8377 55.2342Z" fill="url(#paint80_linear_780_6279)"/>
<path d="M21.2126 58.6552C20.208 57.3411 18.8178 56.5292 17.2829 56.5292C14.2135 56.5292 11.7221 59.7769 11.7221 63.777C11.7221 67.7777 14.2135 71.0249 17.2829 71.0249C20.3524 71.0249 22.8437 67.7777 22.8437 63.777C22.8437 61.7766 22.2209 59.9646 21.2126 58.6552ZM22.525 56.9446C23.8669 58.6939 24.6974 61.1098 24.6974 63.777C24.6974 69.1167 21.3757 73.4409 17.283 73.4409C13.1902 73.4409 9.86865 69.1167 9.86865 63.777C9.86865 58.4427 13.1903 54.1133 17.283 54.1133C19.3293 54.1132 21.1829 55.1956 22.525 56.9446Z" fill="url(#paint81_linear_780_6279)"/>
<path d="M19.9039 60.3616C19.2329 59.4864 18.3061 58.9452 17.283 58.9452C15.2404 58.9452 13.5757 61.1148 13.5757 63.7771C13.5757 66.4449 15.2404 68.6091 17.283 68.6091C19.3294 68.6091 20.9902 66.4449 20.9902 63.7771C20.9902 62.4436 20.575 61.2357 19.9039 60.3616ZM21.2126 58.6553C22.2212 59.9647 22.8438 61.7767 22.8438 63.7771C22.8438 67.7778 20.3524 71.025 17.283 71.025C14.2135 71.025 11.7222 67.7778 11.7222 63.7771C11.7222 59.777 14.2135 56.5293 17.283 56.5293C18.8178 56.5293 20.208 57.3416 21.2126 58.6553Z" fill="url(#paint82_linear_780_6279)"/>
<path d="M19.9043 60.3617C20.5754 61.2363 20.9907 62.4442 20.9907 63.7772C20.9907 66.445 19.3298 68.6092 17.2834 68.6092C15.2408 68.6092 13.5762 66.445 13.5762 63.7772C13.5762 61.1151 15.2408 58.9453 17.2834 58.9453C18.3066 58.9453 19.2333 59.4865 19.9043 60.3617ZM18.5958 62.0667C18.2584 61.6323 17.795 61.3612 17.2834 61.3612C16.2604 61.3612 15.4298 62.4437 15.4298 63.7771C15.4298 65.1113 16.2604 66.193 17.2834 66.193C18.3065 66.193 19.137 65.1113 19.137 63.7771C19.1371 63.1105 18.9294 62.5065 18.5958 62.0667Z" fill="url(#paint83_linear_780_6279)"/>
<path d="M18.5956 62.0668C18.9292 62.5066 19.1368 63.1106 19.1368 63.7772C19.1368 65.1114 18.3063 66.1931 17.2833 66.1931C16.2602 66.1931 15.4297 65.1114 15.4297 63.7772C15.4297 62.4438 16.2602 61.3613 17.2833 61.3613C17.7947 61.3613 18.2581 61.6325 18.5956 62.0668Z" fill="url(#paint84_linear_780_6279)"/>
<path d="M17.2835 64.2601C17.1886 64.2601 17.0935 64.2127 17.0214 64.1185C16.8763 63.9295 16.8763 63.6242 17.0214 63.4353L28.143 48.9396C28.288 48.7506 28.5222 48.7506 28.6672 48.9396C28.8122 49.1286 28.8122 49.4339 28.6672 49.6228L17.5455 64.1185C17.4734 64.2127 17.3783 64.2601 17.2835 64.2601Z" fill="url(#paint85_linear_780_6279)"/>
<path d="M6.62138 58.6727L5.97012 57.1127C5.97012 57.1127 7.2415 55.5661 6.47869 55.0137C5.71588 54.4614 4.19027 56.008 4.19027 56.008C4.19027 56.008 1.47806 56.7812 1.90185 58.3278C1.90185 58.3278 0.0372218 59.2115 1.73229 61.8628C3.42737 64.514 4.44451 64.6245 4.44451 64.6245C4.44451 64.6245 4.50523 64.3863 4.51231 64.0133C4.5223 63.4854 4.23664 63.0469 3.84767 62.899C3.82177 62.8892 3.79471 62.8754 3.76648 62.8569C3.42746 62.6359 3.00367 61.9732 3.08845 61.6417C3.17323 61.3103 4.19027 61.7522 4.19027 61.7522C4.19027 61.7522 4.61406 60.537 4.19027 59.9847C3.76648 59.4324 4.19027 59.2115 4.19027 59.2115C4.19027 59.2115 5.25814 58.6428 6.17944 58.1436C6.17944 58.1436 6.34037 58.2443 6.62138 58.6727Z" fill="#333333"/>
<path d="M19.2167 72.781C19.2167 72.781 13.8918 72.118 10.9388 71.5779C10.9388 71.5779 7.34477 67.7148 5.40002 68.1946C4.1461 68.5039 3.67507 71.2015 6.16573 72.2982C8.6564 73.3948 10.5599 74.2675 10.5599 74.2675L19.0332 73.9325C19.0332 73.9325 19.4367 75.308 19.8814 75.3312C20.3262 75.3542 22.7097 75.0907 22.4251 74.6889C22.1404 74.2871 20.6698 73.8239 20.6698 73.8239C20.6698 73.8239 22.1522 73.9006 22.164 73.5143C22.1756 73.1278 19.2167 72.781 19.2167 72.781Z" fill="#F39F86"/>
<path d="M12.8123 71.8565C12.8123 71.8565 12.2532 73.5015 12.7414 74.1822C12.7414 74.1822 12.4876 74.1612 12.2235 74.4792C11.9593 74.7972 11.7052 74.784 11.6239 74.6692C11.5426 74.5544 11.3766 74.4353 11.3766 74.4353C11.3766 74.4353 9.30696 75.5442 6.73889 73.5318C4.17072 71.5193 3.6963 70.389 4.06199 69.5236C4.42768 68.6581 4.5528 67.3379 6.40249 67.876C8.25218 68.4141 10.2174 70.7271 10.7154 71.0845C11.2134 71.4419 11.7784 71.6882 11.7784 71.6882C11.7784 71.6882 11.9523 71.3757 12.174 71.4946C12.3956 71.6137 12.6564 71.4061 12.8123 71.8565Z" fill="url(#paint86_linear_780_6279)"/>
<path d="M15.1606 111.445C15.1606 111.445 15.5182 111.922 16.1413 111.445C16.7645 110.967 18.5847 112.172 18.5847 112.172C18.5847 112.172 19.3864 112.634 18.4547 112.888C17.523 113.142 14.8794 112.888 14.8794 112.888C14.8794 112.888 14.3886 112.011 15.1606 111.445Z" fill="#333333"/>
</g>
<defs>
<linearGradient id="paint0_linear_780_6279" x1="20.8188" y1="74.61" x2="134.22" y2="74.61" gradientUnits="userSpaceOnUse">
<stop stop-color="white"/>
<stop offset="0.5591" stop-color="#DBE6F9"/>
<stop offset="1" stop-color="#C3D6F5"/>
</linearGradient>
<linearGradient id="paint1_linear_780_6279" x1="51.1856" y1="88.4582" x2="51.9763" y2="88.4582" gradientUnits="userSpaceOnUse">
<stop stop-color="white"/>
<stop offset="0.5591" stop-color="#DBE6F9"/>
<stop offset="1" stop-color="#C3D6F5"/>
</linearGradient>
<linearGradient id="paint2_linear_780_6279" x1="104.19" y1="88.4582" x2="104.981" y2="88.4582" gradientUnits="userSpaceOnUse">
<stop stop-color="white"/>
<stop offset="0.5591" stop-color="#DBE6F9"/>
<stop offset="1" stop-color="#C3D6F5"/>
</linearGradient>
<linearGradient id="paint3_linear_780_6279" x1="22.4183" y1="5.46783" x2="138.13" y2="5.46784" gradientUnits="userSpaceOnUse">
<stop stop-color="#FC321C"/>
<stop offset="1" stop-color="#B3308D"/>
</linearGradient>
<linearGradient id="paint4_linear_780_6279" x1="39.6756" y1="72.431" x2="34.8968" y2="100.191" gradientUnits="userSpaceOnUse">
<stop stop-color="#EA5759"/>
<stop offset="1" stop-color="#CB1517"/>
</linearGradient>
<linearGradient id="paint5_linear_780_6279" x1="44.1077" y1="94.7886" x2="20.6099" y2="96.0391" gradientUnits="userSpaceOnUse">
<stop stop-color="white"/>
<stop offset="0.5591" stop-color="#DBE6F5"/>
<stop offset="1" stop-color="#C3D5EF"/>
</linearGradient>
<linearGradient id="paint6_linear_780_6279" x1="26.4154" y1="86.9131" x2="34.5053" y2="86.9131" gradientUnits="userSpaceOnUse">
<stop stop-color="#3668AF"/>
<stop offset="1" stop-color="#38BEEF"/>
</linearGradient>
<linearGradient id="paint7_linear_780_6279" x1="68.3764" y1="92.0475" x2="70.7899" y2="92.0475" gradientUnits="userSpaceOnUse">
<stop stop-color="white"/>
<stop offset="0.5591" stop-color="#DBE6F9"/>
<stop offset="1" stop-color="#C3D6F5"/>
</linearGradient>
<linearGradient id="paint8_linear_780_6279" x1="72.6611" y1="93.8624" x2="75.0747" y2="93.8624" gradientUnits="userSpaceOnUse">
<stop stop-color="white"/>
<stop offset="0.5591" stop-color="#DBE6F9"/>
<stop offset="1" stop-color="#C3D6F5"/>
</linearGradient>
<linearGradient id="paint9_linear_780_6279" x1="76.9458" y1="90.8375" x2="79.3594" y2="90.8375" gradientUnits="userSpaceOnUse">
<stop stop-color="white"/>
<stop offset="0.5591" stop-color="#DBE6F9"/>
<stop offset="1" stop-color="#C3D6F5"/>
</linearGradient>
<linearGradient id="paint10_linear_780_6279" x1="81.2305" y1="91.7444" x2="83.6441" y2="91.7444" gradientUnits="userSpaceOnUse">
<stop stop-color="white"/>
<stop offset="0.5591" stop-color="#DBE6F9"/>
<stop offset="1" stop-color="#C3D6F5"/>
</linearGradient>
<linearGradient id="paint11_linear_780_6279" x1="85.5151" y1="89.0225" x2="87.9285" y2="89.0225" gradientUnits="userSpaceOnUse">
<stop stop-color="white"/>
<stop offset="0.5591" stop-color="#DBE6F9"/>
<stop offset="1" stop-color="#C3D6F5"/>
</linearGradient>
<linearGradient id="paint12_linear_780_6279" x1="119.34" y1="90.7908" x2="122.204" y2="90.7908" gradientUnits="userSpaceOnUse">
<stop stop-color="#F8B04B"/>
<stop offset="1" stop-color="#FDCB37"/>
</linearGradient>
<linearGradient id="paint13_linear_780_6279" x1="125.068" y1="88.1469" x2="127.932" y2="88.1469" gradientUnits="userSpaceOnUse">
<stop stop-color="#F8B04B"/>
<stop offset="1" stop-color="#FDCB37"/>
</linearGradient>
<linearGradient id="paint14_linear_780_6279" x1="113.612" y1="94.3685" x2="116.476" y2="94.3685" gradientUnits="userSpaceOnUse">
<stop stop-color="#F8B04B"/>
<stop offset="1" stop-color="#FDCB37"/>
</linearGradient>
<linearGradient id="paint15_linear_780_6279" x1="113.374" y1="86.2799" x2="128.171" y2="86.2799" gradientUnits="userSpaceOnUse">
<stop stop-color="white"/>
<stop offset="0.5591" stop-color="#DBE6F9"/>
<stop offset="1" stop-color="#C3D6F5"/>
</linearGradient>
<linearGradient id="paint16_linear_780_6279" x1="113.374" y1="97.7902" x2="113.851" y2="97.7902" gradientUnits="userSpaceOnUse">
<stop stop-color="white"/>
<stop offset="0.5591" stop-color="#DBE6F9"/>
<stop offset="1" stop-color="#C3D6F5"/>
</linearGradient>
<linearGradient id="paint17_linear_780_6279" x1="116.237" y1="97.7902" x2="116.715" y2="97.7902" gradientUnits="userSpaceOnUse">
<stop stop-color="white"/>
<stop offset="0.5591" stop-color="#DBE6F9"/>
<stop offset="1" stop-color="#C3D6F5"/>
</linearGradient>
<linearGradient id="paint18_linear_780_6279" x1="119.101" y1="97.7902" x2="119.578" y2="97.7902" gradientUnits="userSpaceOnUse">
<stop stop-color="white"/>
<stop offset="0.5591" stop-color="#DBE6F9"/>
<stop offset="1" stop-color="#C3D6F5"/>
</linearGradient>
<linearGradient id="paint19_linear_780_6279" x1="121.966" y1="97.7902" x2="122.443" y2="97.7902" gradientUnits="userSpaceOnUse">
<stop stop-color="white"/>
<stop offset="0.5591" stop-color="#DBE6F9"/>
<stop offset="1" stop-color="#C3D6F5"/>
</linearGradient>
<linearGradient id="paint20_linear_780_6279" x1="124.83" y1="97.7902" x2="125.307" y2="97.7902" gradientUnits="userSpaceOnUse">
<stop stop-color="white"/>
<stop offset="0.5591" stop-color="#DBE6F9"/>
<stop offset="1" stop-color="#C3D6F5"/>
</linearGradient>
<linearGradient id="paint21_linear_780_6279" x1="112.896" y1="82.5473" x2="113.851" y2="82.5473" gradientUnits="userSpaceOnUse">
<stop stop-color="white"/>
<stop offset="0.5591" stop-color="#DBE6F9"/>
<stop offset="1" stop-color="#C3D6F5"/>
</linearGradient>
<linearGradient id="paint22_linear_780_6279" x1="112.896" y1="86.2798" x2="113.851" y2="86.2798" gradientUnits="userSpaceOnUse">
<stop stop-color="white"/>
<stop offset="0.5591" stop-color="#DBE6F9"/>
<stop offset="1" stop-color="#C3D6F5"/>
</linearGradient>
<linearGradient id="paint23_linear_780_6279" x1="112.896" y1="90.0132" x2="113.851" y2="90.0132" gradientUnits="userSpaceOnUse">
<stop stop-color="white"/>
<stop offset="0.5591" stop-color="#DBE6F9"/>
<stop offset="1" stop-color="#C3D6F5"/>
</linearGradient>
<linearGradient id="paint24_linear_780_6279" x1="112.896" y1="93.7457" x2="113.851" y2="93.7457" gradientUnits="userSpaceOnUse">
<stop stop-color="white"/>
<stop offset="0.5591" stop-color="#DBE6F9"/>
<stop offset="1" stop-color="#C3D6F5"/>
</linearGradient>
<linearGradient id="paint25_linear_780_6279" x1="112.896" y1="97.4791" x2="113.851" y2="97.4791" gradientUnits="userSpaceOnUse">
<stop stop-color="white"/>
<stop offset="0.5591" stop-color="#DBE6F9"/>
<stop offset="1" stop-color="#C3D6F5"/>
</linearGradient>
<linearGradient id="paint26_linear_780_6279" x1="113.374" y1="88.1465" x2="128.171" y2="88.1465" gradientUnits="userSpaceOnUse">
<stop stop-color="white"/>
<stop offset="0.5591" stop-color="#DBE6F9"/>
<stop offset="1" stop-color="#C3D6F5"/>
</linearGradient>
<linearGradient id="paint27_linear_780_6279" x1="121.966" y1="91.2594" x2="122.443" y2="91.2594" gradientUnits="userSpaceOnUse">
<stop stop-color="white"/>
<stop offset="0.5591" stop-color="#DBE6F9"/>
<stop offset="1" stop-color="#C3D6F5"/>
</linearGradient>
<linearGradient id="paint28_linear_780_6279" x1="121.966" y1="90.0153" x2="122.443" y2="90.0153" gradientUnits="userSpaceOnUse">
<stop stop-color="white"/>
<stop offset="0.5591" stop-color="#DBE6F9"/>
<stop offset="1" stop-color="#C3D6F5"/>
</linearGradient>
<linearGradient id="paint29_linear_780_6279" x1="121.966" y1="88.7701" x2="122.443" y2="88.7701" gradientUnits="userSpaceOnUse">
<stop stop-color="white"/>
<stop offset="0.5591" stop-color="#DBE6F9"/>
<stop offset="1" stop-color="#C3D6F5"/>
</linearGradient>
<linearGradient id="paint30_linear_780_6279" x1="121.966" y1="87.526" x2="122.443" y2="87.526" gradientUnits="userSpaceOnUse">
<stop stop-color="white"/>
<stop offset="0.5591" stop-color="#DBE6F9"/>
<stop offset="1" stop-color="#C3D6F5"/>
</linearGradient>
<linearGradient id="paint31_linear_780_6279" x1="121.966" y1="86.2818" x2="122.443" y2="86.2818" gradientUnits="userSpaceOnUse">
<stop stop-color="white"/>
<stop offset="0.5591" stop-color="#DBE6F9"/>
<stop offset="1" stop-color="#C3D6F5"/>
</linearGradient>
<linearGradient id="paint32_linear_780_6279" x1="121.966" y1="96.2369" x2="122.443" y2="96.2369" gradientUnits="userSpaceOnUse">
<stop stop-color="white"/>
<stop offset="0.5591" stop-color="#DBE6F9"/>
<stop offset="1" stop-color="#C3D6F5"/>
</linearGradient>
<linearGradient id="paint33_linear_780_6279" x1="121.966" y1="94.9919" x2="122.443" y2="94.9919" gradientUnits="userSpaceOnUse">
<stop stop-color="white"/>
<stop offset="0.5591" stop-color="#DBE6F9"/>
<stop offset="1" stop-color="#C3D6F5"/>
</linearGradient>
<linearGradient id="paint34_linear_780_6279" x1="121.966" y1="93.7478" x2="122.443" y2="93.7478" gradientUnits="userSpaceOnUse">
<stop stop-color="white"/>
<stop offset="0.5591" stop-color="#DBE6F9"/>
<stop offset="1" stop-color="#C3D6F5"/>
</linearGradient>
<linearGradient id="paint35_linear_780_6279" x1="121.966" y1="92.5036" x2="122.443" y2="92.5036" gradientUnits="userSpaceOnUse">
<stop stop-color="white"/>
<stop offset="0.5591" stop-color="#DBE6F9"/>
<stop offset="1" stop-color="#C3D6F5"/>
</linearGradient>
<linearGradient id="paint36_linear_780_6279" x1="124.83" y1="91.2599" x2="125.307" y2="91.2599" gradientUnits="userSpaceOnUse">
<stop stop-color="white"/>
<stop offset="0.5591" stop-color="#DBE6F9"/>
<stop offset="1" stop-color="#C3D6F5"/>
</linearGradient>
<linearGradient id="paint37_linear_780_6279" x1="124.83" y1="90.0153" x2="125.307" y2="90.0153" gradientUnits="userSpaceOnUse">
<stop stop-color="white"/>
<stop offset="0.5591" stop-color="#DBE6F9"/>
<stop offset="1" stop-color="#C3D6F5"/>
</linearGradient>
<linearGradient id="paint38_linear_780_6279" x1="124.83" y1="88.7701" x2="125.307" y2="88.7701" gradientUnits="userSpaceOnUse">
<stop stop-color="white"/>
<stop offset="0.5591" stop-color="#DBE6F9"/>
<stop offset="1" stop-color="#C3D6F5"/>
</linearGradient>
<linearGradient id="paint39_linear_780_6279" x1="124.83" y1="87.526" x2="125.307" y2="87.526" gradientUnits="userSpaceOnUse">
<stop stop-color="white"/>
<stop offset="0.5591" stop-color="#DBE6F9"/>
<stop offset="1" stop-color="#C3D6F5"/>
</linearGradient>
<linearGradient id="paint40_linear_780_6279" x1="124.83" y1="86.2818" x2="125.307" y2="86.2818" gradientUnits="userSpaceOnUse">
<stop stop-color="white"/>
<stop offset="0.5591" stop-color="#DBE6F9"/>
<stop offset="1" stop-color="#C3D6F5"/>
</linearGradient>
<linearGradient id="paint41_linear_780_6279" x1="124.83" y1="85.0378" x2="125.307" y2="85.0378" gradientUnits="userSpaceOnUse">
<stop stop-color="white"/>
<stop offset="0.5591" stop-color="#DBE6F9"/>
<stop offset="1" stop-color="#C3D6F5"/>
</linearGradient>
<linearGradient id="paint42_linear_780_6279" x1="124.83" y1="83.7936" x2="125.307" y2="83.7936" gradientUnits="userSpaceOnUse">
<stop stop-color="white"/>
<stop offset="0.5591" stop-color="#DBE6F9"/>
<stop offset="1" stop-color="#C3D6F5"/>
</linearGradient>
<linearGradient id="paint43_linear_780_6279" x1="124.83" y1="96.2369" x2="125.307" y2="96.2369" gradientUnits="userSpaceOnUse">
<stop stop-color="white"/>
<stop offset="0.5591" stop-color="#DBE6F9"/>
<stop offset="1" stop-color="#C3D6F5"/>
</linearGradient>
<linearGradient id="paint44_linear_780_6279" x1="124.83" y1="94.9919" x2="125.307" y2="94.9919" gradientUnits="userSpaceOnUse">
<stop stop-color="white"/>
<stop offset="0.5591" stop-color="#DBE6F9"/>
<stop offset="1" stop-color="#C3D6F5"/>
</linearGradient>
<linearGradient id="paint45_linear_780_6279" x1="124.83" y1="93.7478" x2="125.307" y2="93.7478" gradientUnits="userSpaceOnUse">
<stop stop-color="white"/>
<stop offset="0.5591" stop-color="#DBE6F9"/>
<stop offset="1" stop-color="#C3D6F5"/>
</linearGradient>
<linearGradient id="paint46_linear_780_6279" x1="124.83" y1="92.5034" x2="125.307" y2="92.5034" gradientUnits="userSpaceOnUse">
<stop stop-color="white"/>
<stop offset="0.5591" stop-color="#DBE6F9"/>
<stop offset="1" stop-color="#C3D6F5"/>
</linearGradient>
<linearGradient id="paint47_linear_780_6279" x1="119.101" y1="91.2594" x2="119.578" y2="91.2594" gradientUnits="userSpaceOnUse">
<stop stop-color="white"/>
<stop offset="0.5591" stop-color="#DBE6F9"/>
<stop offset="1" stop-color="#C3D6F5"/>
</linearGradient>
<linearGradient id="paint48_linear_780_6279" x1="119.101" y1="96.2369" x2="119.578" y2="96.2369" gradientUnits="userSpaceOnUse">
<stop stop-color="white"/>
<stop offset="0.5591" stop-color="#DBE6F9"/>
<stop offset="1" stop-color="#C3D6F5"/>
</linearGradient>
<linearGradient id="paint49_linear_780_6279" x1="119.101" y1="94.9919" x2="119.578" y2="94.9919" gradientUnits="userSpaceOnUse">
<stop stop-color="white"/>
<stop offset="0.5591" stop-color="#DBE6F9"/>
<stop offset="1" stop-color="#C3D6F5"/>
</linearGradient>
<linearGradient id="paint50_linear_780_6279" x1="119.101" y1="93.7478" x2="119.578" y2="93.7478" gradientUnits="userSpaceOnUse">
<stop stop-color="white"/>
<stop offset="0.5591" stop-color="#DBE6F9"/>
<stop offset="1" stop-color="#C3D6F5"/>
</linearGradient>
<linearGradient id="paint51_linear_780_6279" x1="119.101" y1="92.5036" x2="119.578" y2="92.5036" gradientUnits="userSpaceOnUse">
<stop stop-color="white"/>
<stop offset="0.5591" stop-color="#DBE6F9"/>
<stop offset="1" stop-color="#C3D6F5"/>
</linearGradient>
<linearGradient id="paint52_linear_780_6279" x1="116.237" y1="96.2369" x2="116.715" y2="96.2369" gradientUnits="userSpaceOnUse">
<stop stop-color="white"/>
<stop offset="0.5591" stop-color="#DBE6F9"/>
<stop offset="1" stop-color="#C3D6F5"/>
</linearGradient>
<linearGradient id="paint53_linear_780_6279" x1="116.237" y1="94.9919" x2="116.715" y2="94.9919" gradientUnits="userSpaceOnUse">
<stop stop-color="white"/>
<stop offset="0.5591" stop-color="#DBE6F9"/>
<stop offset="1" stop-color="#C3D6F5"/>
</linearGradient>
<linearGradient id="paint54_linear_780_6279" x1="116.237" y1="93.7478" x2="116.715" y2="93.7478" gradientUnits="userSpaceOnUse">
<stop stop-color="white"/>
<stop offset="0.5591" stop-color="#DBE6F9"/>
<stop offset="1" stop-color="#C3D6F5"/>
</linearGradient>
<linearGradient id="paint55_linear_780_6279" x1="116.237" y1="92.5036" x2="116.715" y2="92.5036" gradientUnits="userSpaceOnUse">
<stop stop-color="white"/>
<stop offset="0.5591" stop-color="#DBE6F9"/>
<stop offset="1" stop-color="#C3D6F5"/>
</linearGradient>
<linearGradient id="paint56_linear_780_6279" x1="94.4576" y1="29.7082" x2="113.852" y2="29.7082" gradientUnits="userSpaceOnUse">
<stop stop-color="#F8B04B"/>
<stop offset="1" stop-color="#FDCB37"/>
</linearGradient>
<linearGradient id="paint57_linear_780_6279" x1="43.082" y1="43.3993" x2="60.0775" y2="43.3993" gradientUnits="userSpaceOnUse">
<stop stop-color="#F8B04B"/>
<stop offset="1" stop-color="#FDCB37"/>
</linearGradient>
<linearGradient id="paint58_linear_780_6279" x1="121.504" y1="22.7473" x2="143.119" y2="22.7473" gradientUnits="userSpaceOnUse">
<stop stop-color="#F8B04B"/>
<stop offset="1" stop-color="#FDCB37"/>
</linearGradient>
<linearGradient id="paint59_linear_780_6279" x1="66.2779" y1="39.5175" x2="88.3197" y2="39.5175" gradientUnits="userSpaceOnUse">
<stop stop-color="#F8B04B"/>
<stop offset="1" stop-color="#FDCB37"/>
</linearGradient>
<linearGradient id="paint60_linear_780_6279" x1="35.628" y1="31.4331" x2="46.7671" y2="31.4331" gradientUnits="userSpaceOnUse">
<stop stop-color="#3668AF"/>
<stop offset="1" stop-color="#38BEEF"/>
</linearGradient>
<linearGradient id="paint61_linear_780_6279" x1="138.138" y1="11.1352" x2="149.277" y2="11.1352" gradientUnits="userSpaceOnUse">
<stop stop-color="#3668AF"/>
<stop offset="1" stop-color="#38BEEF"/>
</linearGradient>
<linearGradient id="paint62_linear_780_6279" x1="112.368" y1="34.2648" x2="123.507" y2="34.2648" gradientUnits="userSpaceOnUse">
<stop stop-color="#3668AF"/>
<stop offset="1" stop-color="#38BEEF"/>
</linearGradient>
<linearGradient id="paint63_linear_780_6279" x1="86.8535" y1="25.7628" x2="97.9927" y2="25.7628" gradientUnits="userSpaceOnUse">
<stop stop-color="#3668AF"/>
<stop offset="1" stop-color="#38BEEF"/>
</linearGradient>
<linearGradient id="paint64_linear_780_6279" x1="57.3135" y1="52.689" x2="68.4527" y2="52.689" gradientUnits="userSpaceOnUse">
<stop stop-color="#3668AF"/>
<stop offset="1" stop-color="#38BEEF"/>
</linearGradient>
<linearGradient id="paint65_linear_780_6279" x1="29.4668" y1="48.9053" x2="39.322" y2="48.9053" gradientUnits="userSpaceOnUse">
<stop stop-color="white"/>
<stop offset="0.5591" stop-color="#DBE6F9"/>
<stop offset="1" stop-color="#C3D6F5"/>
</linearGradient>
<linearGradient id="paint66_linear_780_6279" x1="89.3931" y1="42.0621" x2="91.3728" y2="42.0621" gradientUnits="userSpaceOnUse">
<stop stop-color="white"/>
<stop offset="0.5591" stop-color="#DBE6F9"/>
<stop offset="1" stop-color="#C3D6F5"/>
</linearGradient>
<linearGradient id="paint67_linear_780_6279" x1="58.3549" y1="36.8546" x2="61.664" y2="36.8546" gradientUnits="userSpaceOnUse">
<stop stop-color="white"/>
<stop offset="0.5591" stop-color="#DBE6F9"/>
<stop offset="1" stop-color="#C3D6F5"/>
</linearGradient>
<linearGradient id="paint68_linear_780_6279" x1="117.939" y1="49.2397" x2="119.227" y2="49.2397" gradientUnits="userSpaceOnUse">
<stop stop-color="white"/>
<stop offset="0.5591" stop-color="#DBE6F9"/>
<stop offset="1" stop-color="#C3D6F5"/>
</linearGradient>
<linearGradient id="paint69_linear_780_6279" x1="144.063" y1="36.2644" x2="136.371" y2="38.0349" gradientUnits="userSpaceOnUse">
<stop stop-color="#3668AF"/>
<stop offset="1" stop-color="#38BEEF"/>
</linearGradient>
<linearGradient id="paint70_linear_780_6279" x1="127.031" y1="69.6538" x2="149.443" y2="66.4749" gradientUnits="userSpaceOnUse">
<stop stop-color="#595B68"/>
<stop offset="0.5384" stop-color="#38404E"/>
<stop offset="1" stop-color="#202D3B"/>
</linearGradient>
<linearGradient id="paint71_linear_780_6279" x1="127.182" y1="70.7223" x2="149.594" y2="67.5434" gradientUnits="userSpaceOnUse">
<stop stop-color="#595B68"/>
<stop offset="0.5384" stop-color="#38404E"/>
<stop offset="1" stop-color="#202D3B"/>
</linearGradient>
<linearGradient id="paint72_linear_780_6279" x1="121.512" y1="38.1922" x2="153.296" y2="43.4177" gradientUnits="userSpaceOnUse">
<stop stop-color="#3668AF"/>
<stop offset="1" stop-color="#38BEEF"/>
</linearGradient>
<linearGradient id="paint73_linear_780_6279" x1="155.542" y1="44.6069" x2="144.184" y2="39.1202" gradientUnits="userSpaceOnUse">
<stop stop-color="#3668AF"/>
<stop offset="1" stop-color="#38BEEF"/>
</linearGradient>
<linearGradient id="paint74_linear_780_6279" x1="-2.08318" y1="106.654" x2="15.4064" y2="91.6157" gradientUnits="userSpaceOnUse">
<stop stop-color="#595B68"/>
<stop offset="0.0581" stop-color="#505461"/>
<stop offset="0.2353" stop-color="#3B4350"/>
<stop offset="0.4318" stop-color="#2C3644"/>
<stop offset="0.6608" stop-color="#232F3D"/>
<stop offset="1" stop-color="#202D3B"/>
</linearGradient>
<linearGradient id="paint75_linear_780_6279" x1="20.6405" y1="116.201" x2="-1.40628" y2="75.2192" gradientUnits="userSpaceOnUse">
<stop stop-color="#595B68"/>
<stop offset="0.0662" stop-color="#4F5360"/>
<stop offset="0.2333" stop-color="#3A424F"/>
<stop offset="0.4213" stop-color="#2B3644"/>
<stop offset="0.6455" stop-color="#232F3D"/>
<stop offset="1" stop-color="#202D3B"/>
</linearGradient>
<linearGradient id="paint76_linear_780_6279" x1="15.5157" y1="72.6906" x2="9.17822" y2="70.5931" gradientUnits="userSpaceOnUse">
<stop stop-color="#EF7E1C"/>
<stop offset="1" stop-color="#FCC738"/>
</linearGradient>
<linearGradient id="paint77_linear_780_6279" x1="15.9069" y1="78.8624" x2="-1.86261" y2="71.9483" gradientUnits="userSpaceOnUse">
<stop stop-color="#EF7E1C"/>
<stop offset="1" stop-color="#FCC738"/>
</linearGradient>
<linearGradient id="paint78_linear_780_6279" x1="25.439" y1="50.2478" x2="28.034" y2="50.2478" gradientUnits="userSpaceOnUse">
<stop stop-color="#3AA45B"/>
<stop offset="1" stop-color="#A8CB64"/>
</linearGradient>
<linearGradient id="paint79_linear_780_6279" x1="25.4389" y1="51.4558" x2="29.8876" y2="51.4558" gradientUnits="userSpaceOnUse">
<stop stop-color="#3AA45B"/>
<stop offset="1" stop-color="#A8CB64"/>
</linearGradient>
<linearGradient id="paint80_linear_780_6279" x1="8.2469" y1="52.6181" x2="38.4881" y2="74.5991" gradientUnits="userSpaceOnUse">
<stop stop-color="#EA5759"/>
<stop offset="1" stop-color="#CB1517"/>
</linearGradient>
<linearGradient id="paint81_linear_780_6279" x1="9.86855" y1="63.777" x2="24.6974" y2="63.777" gradientUnits="userSpaceOnUse">
<stop stop-color="white"/>
<stop offset="0.5591" stop-color="#DBE6F5"/>
<stop offset="1" stop-color="#C3D5EF"/>
</linearGradient>
<linearGradient id="paint82_linear_780_6279" x1="8.24544" y1="52.6198" x2="38.4866" y2="74.6007" gradientUnits="userSpaceOnUse">
<stop stop-color="#EA5759"/>
<stop offset="1" stop-color="#CB1517"/>
</linearGradient>
<linearGradient id="paint83_linear_780_6279" x1="13.5762" y1="63.7772" x2="20.9907" y2="63.7772" gradientUnits="userSpaceOnUse">
<stop stop-color="white"/>
<stop offset="0.5591" stop-color="#DBE6F5"/>
<stop offset="1" stop-color="#C3D5EF"/>
</linearGradient>
<linearGradient id="paint84_linear_780_6279" x1="8.24718" y1="52.6178" x2="38.4884" y2="74.5988" gradientUnits="userSpaceOnUse">
<stop stop-color="#EA5759"/>
<stop offset="1" stop-color="#CB1517"/>
</linearGradient>
<linearGradient id="paint85_linear_780_6279" x1="16.9126" y1="56.529" x2="28.7759" y2="56.529" gradientUnits="userSpaceOnUse">
<stop stop-color="#595B68"/>
<stop offset="0.5384" stop-color="#38404E"/>
<stop offset="1" stop-color="#202D3B"/>
</linearGradient>
<linearGradient id="paint86_linear_780_6279" x1="14.5882" y1="66.0164" x2="6.45644" y2="70.2098" gradientUnits="userSpaceOnUse">
<stop stop-color="#EF7E1C"/>
<stop offset="1" stop-color="#FCC738"/>
</linearGradient>
<clipPath id="clip0_780_6279">
<rect width="151" height="113" fill="white" transform="translate(0.5)"/>
</clipPath>
</defs>
</svg>
