<svg width="285" height="166" viewBox="0 0 285 166" fill="none" xmlns="http://www.w3.org/2000/svg">
<g clip-path="url(#clip0_638_3704)">
<path d="M59.0526 129.943C59.1628 129.888 59.2453 129.794 59.2848 129.678C59.3244 129.562 59.3162 129.437 59.2619 129.327C59.1498 129.099 58.8735 129.006 58.646 129.118C57.7554 129.556 56.8976 130.075 56.0966 130.661C55.9975 130.733 55.9324 130.84 55.9135 130.961C55.8946 131.083 55.9242 131.204 55.9967 131.303C56.0829 131.421 56.2219 131.492 56.3683 131.492C56.4663 131.492 56.56 131.461 56.6394 131.403C57.3973 130.849 58.2092 130.358 59.0526 129.943Z" fill="#0A0A0A"/>
<path d="M52.507 153.077C52.4416 152.973 52.3397 152.9 52.2199 152.873C52.1 152.846 51.9768 152.867 51.8728 152.932C51.6581 153.067 51.5933 153.352 51.7282 153.566C52.2574 154.407 52.8631 155.207 53.5282 155.942C53.6152 156.038 53.7396 156.093 53.8694 156.093C53.9837 156.093 54.0932 156.051 54.1779 155.974C54.366 155.804 54.3805 155.513 54.2104 155.325C53.581 154.629 53.0079 153.873 52.507 153.077Z" fill="#0A0A0A"/>
<path d="M59.6668 159.259C58.8052 158.88 57.9732 158.424 57.194 157.903C56.9833 157.762 56.697 157.818 56.5559 158.029C56.415 158.24 56.4717 158.526 56.6826 158.667C57.5065 159.218 58.386 159.701 59.2964 160.101C59.3554 160.127 59.4176 160.14 59.4815 160.14C59.6638 160.14 59.8292 160.032 59.9027 159.865C60.0047 159.633 59.8989 159.361 59.6668 159.259Z" fill="#0A0A0A"/>
<path d="M65.8924 128.139C65.9758 128.049 66.0191 127.932 66.0144 127.809C66.0097 127.686 65.9572 127.573 65.8667 127.489C65.7764 127.406 65.6594 127.363 65.5368 127.368C64.5461 127.406 63.5513 127.533 62.5803 127.744C62.4602 127.77 62.3575 127.841 62.2911 127.945C62.2247 128.048 62.2025 128.171 62.2285 128.291C62.2742 128.501 62.4631 128.653 62.6777 128.653C62.7105 128.653 62.7436 128.65 62.7758 128.643C63.6946 128.443 64.6355 128.323 65.5726 128.287C65.6954 128.282 65.809 128.229 65.8924 128.139Z" fill="#0A0A0A"/>
<path d="M50.1811 146.765C50.1635 146.644 50.0996 146.536 50.0011 146.463C49.9026 146.389 49.7814 146.358 49.6599 146.376C49.4089 146.412 49.2344 146.646 49.2707 146.897C49.4129 147.878 49.6427 148.854 49.9537 149.797C50.016 149.986 50.1915 150.113 50.3905 150.113C50.4394 150.113 50.4879 150.105 50.5345 150.09C50.6512 150.051 50.7459 149.97 50.8012 149.86C50.8566 149.75 50.8658 149.626 50.8274 149.509C50.533 148.616 50.3156 147.693 50.1811 146.765Z" fill="#0A0A0A"/>
<path d="M49.5941 143.234C49.61 143.236 49.6256 143.237 49.6413 143.237C49.8777 143.237 50.0743 143.059 50.0985 142.824C50.194 141.893 50.3728 140.961 50.6299 140.054C50.6634 139.936 50.6489 139.812 50.589 139.705C50.5292 139.597 50.431 139.52 50.3128 139.486C50.0689 139.417 49.814 139.559 49.7449 139.803C49.4732 140.761 49.2842 141.746 49.1834 142.73C49.1709 142.852 49.2067 142.972 49.2842 143.067C49.3618 143.163 49.4718 143.222 49.5941 143.234Z" fill="#0A0A0A"/>
<path d="M52.1549 136.417C52.6208 135.602 53.1619 134.822 53.7632 134.101C53.8419 134.007 53.8791 133.887 53.868 133.765C53.8568 133.643 53.7987 133.532 53.7044 133.453C53.6101 133.375 53.4906 133.338 53.3683 133.348C53.2459 133.36 53.1352 133.418 53.0565 133.512C52.4209 134.275 51.8488 135.099 51.3562 135.961C51.2953 136.068 51.2795 136.192 51.3118 136.31C51.3442 136.429 51.4207 136.527 51.5274 136.588C51.5968 136.628 51.6756 136.649 51.7552 136.649C51.9201 136.649 52.0732 136.56 52.1549 136.417Z" fill="#0A0A0A"/>
<path d="M81.8156 139.161C81.8698 139.161 81.9233 139.151 81.975 139.132C82.2129 139.045 82.3349 138.78 82.247 138.542C81.903 137.611 81.4753 136.704 80.9758 135.847C80.914 135.741 80.8145 135.665 80.6957 135.634C80.5768 135.602 80.453 135.619 80.3469 135.681C80.1277 135.808 80.0532 136.091 80.1809 136.31C80.6539 137.122 81.0587 137.98 81.3841 138.86C81.4505 139.04 81.6239 139.161 81.8156 139.161Z" fill="#0A0A0A"/>
<path d="M66.2529 160.639L66.2045 160.64C65.2824 160.64 64.3533 160.559 63.4429 160.401C63.1926 160.357 62.9544 160.525 62.9109 160.775C62.8674 161.024 63.0352 161.263 63.2851 161.307C64.2476 161.474 65.2302 161.559 66.2057 161.559H66.2058L66.2559 161.559C66.3788 161.559 66.4942 161.511 66.5808 161.423C66.6673 161.336 66.7148 161.221 66.7144 161.098C66.7135 160.845 66.5072 160.639 66.2529 160.639Z" fill="#0A0A0A"/>
<path d="M78.9115 155.213C78.82 155.131 78.702 155.089 78.5794 155.096C78.4567 155.103 78.3441 155.157 78.2621 155.249C77.6362 155.947 76.9436 156.596 76.2035 157.176C76.1069 157.252 76.0455 157.361 76.0308 157.483C76.016 157.605 76.0498 157.726 76.1256 157.822C76.2134 157.934 76.3454 157.998 76.4877 157.998C76.5914 157.998 76.6896 157.964 76.7715 157.9C77.5535 157.286 78.2855 156.601 78.9472 155.863C79.1164 155.674 79.1004 155.382 78.9115 155.213Z" fill="#0A0A0A"/>
<path d="M83.2049 142.597C83.1914 142.475 83.131 142.365 83.0348 142.288C82.9389 142.211 82.8187 142.177 82.6974 142.19C82.5753 142.204 82.4657 142.264 82.3889 142.36C82.312 142.456 82.2771 142.576 82.2905 142.698C82.3544 143.279 82.3868 143.87 82.3868 144.454C82.3868 144.807 82.3749 145.165 82.3516 145.516C82.3348 145.769 82.527 145.989 82.7801 146.006C82.7904 146.006 82.8006 146.007 82.8108 146.007C83.052 146.007 83.2534 145.818 83.2695 145.577C83.2942 145.205 83.3067 144.827 83.3067 144.454C83.3066 143.836 83.2724 143.212 83.2049 142.597Z" fill="#0A0A0A"/>
<path d="M82.1898 149.092C82.0728 149.055 81.9482 149.065 81.8389 149.122C81.7297 149.178 81.6491 149.273 81.6116 149.391L81.6048 149.412C81.3158 150.31 80.9484 151.185 80.5128 152.012C80.3948 152.236 80.4812 152.515 80.7056 152.633C80.7715 152.668 80.8454 152.686 80.9196 152.686C81.091 152.686 81.2471 152.592 81.3269 152.44C81.7873 151.566 82.1755 150.642 82.4809 149.693L82.488 149.67C82.5651 149.429 82.4313 149.17 82.1898 149.092Z" fill="#0A0A0A"/>
<path d="M72.2034 129.433C72.258 129.454 72.3151 129.465 72.3735 129.465C72.563 129.465 72.7308 129.352 72.8009 129.176C72.8947 128.94 72.7793 128.672 72.5437 128.578C72.1815 128.434 71.8096 128.3 71.438 128.181C70.8645 127.997 70.2767 127.841 69.6909 127.718C69.5709 127.693 69.448 127.716 69.3451 127.783C69.2422 127.85 69.1715 127.953 69.1464 128.074C69.0944 128.322 69.2539 128.566 69.5022 128.618C70.0566 128.734 70.6132 128.882 71.1564 129.056C71.5081 129.17 71.8603 129.296 72.2034 129.433Z" fill="#0A0A0A"/>
<path d="M77.7968 133.168C77.884 133.258 78.0012 133.307 78.1266 133.307C78.247 133.307 78.3608 133.261 78.4471 133.177C78.5352 133.092 78.5848 132.977 78.5865 132.854C78.5883 132.731 78.5421 132.615 78.4565 132.527C77.7638 131.815 77.0043 131.159 76.1991 130.58C75.9932 130.431 75.7053 130.479 75.557 130.684C75.4852 130.784 75.4566 130.906 75.4763 131.027C75.496 131.148 75.5618 131.254 75.6615 131.326C76.4233 131.874 77.1416 132.494 77.7968 133.168Z" fill="#0A0A0A"/>
<path d="M73.1798 159.206C73.065 159.162 72.9399 159.166 72.828 159.217C71.9706 159.602 71.0747 159.914 70.1649 160.145C69.919 160.207 69.7698 160.458 69.8322 160.704C69.884 160.908 70.0672 161.05 70.2778 161.05C70.3161 161.05 70.3543 161.046 70.3911 161.036C71.3521 160.793 72.2989 160.463 73.205 160.055C73.3171 160.005 73.4028 159.914 73.4465 159.799C73.4901 159.684 73.4864 159.56 73.4361 159.448C73.3858 159.336 73.2947 159.25 73.1798 159.206Z" fill="#0A0A0A"/>
<path d="M64.7379 114.959L64.679 114.956C64.4254 114.942 64.2314 114.725 64.2457 114.471C64.2599 114.218 64.476 114.025 64.7287 114.038C64.7293 114.038 64.73 114.038 64.7306 114.038L64.7858 114.041C65.9942 114.104 67.2195 114.096 68.4275 114.016C68.6812 114 68.8999 114.191 68.9166 114.445C68.9333 114.698 68.7414 114.917 68.488 114.933C67.244 115.015 65.9822 115.024 64.7379 114.959ZM59.4794 114.235C59.4538 114.233 59.4278 114.23 59.4018 114.224C58.1709 113.947 56.9399 113.592 55.7431 113.169C55.5037 113.084 55.3783 112.821 55.4629 112.582C55.5475 112.343 55.8101 112.217 56.0496 112.302C57.2123 112.713 58.4081 113.058 59.6039 113.327C59.8516 113.383 60.0072 113.629 59.9514 113.876C59.9014 114.098 59.699 114.246 59.4794 114.235ZM73.6256 114.153C73.4269 114.143 73.2505 114.003 73.2024 113.8C73.1438 113.553 73.2966 113.305 73.5437 113.246C74.7387 112.963 75.9303 112.605 77.0853 112.182C77.3237 112.095 77.5879 112.218 77.6752 112.456C77.7626 112.694 77.6401 112.958 77.4016 113.046C76.2126 113.481 74.986 113.85 73.7557 114.141C73.712 114.151 73.6683 114.155 73.6256 114.153ZM51.0814 111.045C51.0141 111.041 50.9464 111.023 50.8835 110.988C49.7745 110.376 48.692 109.691 47.6662 108.952C47.4601 108.804 47.4133 108.516 47.5618 108.31C47.7102 108.104 47.9975 108.057 48.2036 108.206C49.1998 108.923 50.251 109.588 51.328 110.183C51.5503 110.306 51.631 110.586 51.5082 110.808C51.4202 110.967 51.2516 111.054 51.0814 111.045ZM81.9848 110.866C81.8333 110.858 81.689 110.775 81.6085 110.634C81.483 110.413 81.5603 110.132 81.7812 110.007C82.8507 109.399 83.8945 108.722 84.8835 107.993C85.0879 107.842 85.3757 107.885 85.5265 108.09C85.6772 108.294 85.6336 108.582 85.4292 108.733C84.411 109.483 83.3365 110.181 82.2354 110.806C82.1562 110.851 82.0694 110.87 81.9848 110.866ZM43.9216 105.623C43.8111 105.617 43.7023 105.572 43.6185 105.487C42.7301 104.587 41.8859 103.623 41.1095 102.622C40.9539 102.421 40.9904 102.132 41.1911 101.977C41.3918 101.821 41.6806 101.857 41.8362 102.058C42.5904 103.031 43.4101 103.967 44.273 104.841C44.4513 105.022 44.4495 105.313 44.2687 105.491C44.1729 105.586 44.0462 105.629 43.9216 105.623ZM89.0848 105.364C88.9779 105.359 88.8724 105.316 88.7894 105.236C88.6069 105.059 88.6019 104.768 88.7784 104.586C89.6334 103.702 90.4433 102.757 91.1859 101.777C91.3393 101.575 91.6276 101.535 91.83 101.688C92.0324 101.842 92.0722 102.13 91.9188 102.332C91.1542 103.341 90.3201 104.314 89.4396 105.225C89.3434 105.324 89.213 105.371 89.0848 105.364ZM38.5872 98.3964C38.4319 98.3884 38.2847 98.3018 38.2057 98.155C37.6063 97.0406 37.0674 95.8787 36.6037 94.7017C36.5107 94.4654 36.6268 94.1986 36.8631 94.1055C37.0993 94.0125 37.3663 94.1285 37.4594 94.3648C37.9098 95.5083 38.4334 96.6371 39.0156 97.7196C39.1359 97.9433 39.0521 98.2219 38.8285 98.3422C38.7517 98.3834 38.6683 98.4007 38.5872 98.3964ZM94.3384 98.0784C94.2744 98.0751 94.2103 98.0583 94.1498 98.0267C93.9247 97.9093 93.8375 97.6316 93.955 97.4065C94.522 96.3204 95.0318 95.1854 95.4701 94.0331L95.4851 93.9935C95.575 93.756 95.8404 93.6364 96.0778 93.7261C96.3154 93.8159 96.4351 94.0813 96.3453 94.3187L96.3302 94.3585C95.8785 95.5458 95.3539 96.714 94.7702 97.8319C94.6843 97.9966 94.5126 98.0875 94.3384 98.0784ZM35.4944 89.9652C35.2916 89.9546 35.1131 89.8095 35.0689 89.6014C34.8059 88.363 34.6149 87.097 34.5012 85.8385C34.4784 85.5857 34.6648 85.3621 34.9177 85.3393C35.1709 85.3169 35.3942 85.5029 35.4171 85.7558C35.5275 86.978 35.713 88.2076 35.9685 89.4104C36.0212 89.6587 35.8626 89.9028 35.6142 89.9555C35.5739 89.9642 35.5337 89.9672 35.4944 89.9652ZM97.3418 89.5684C97.3199 89.5673 97.2977 89.5646 97.2754 89.5601C97.0264 89.5104 96.8647 89.2684 96.9143 89.0194C97.1547 87.8132 97.3244 86.5807 97.4188 85.3563C97.4383 85.1032 97.6579 84.9137 97.9125 84.9333C98.1657 84.9529 98.3551 85.1739 98.3356 85.427C98.2384 86.6879 98.0637 87.957 97.8161 89.1992C97.771 89.4258 97.5661 89.5801 97.3418 89.5684ZM34.9022 81.0062C34.8983 81.006 34.8943 81.0057 34.8904 81.0055C34.6372 80.9858 34.4479 80.7646 34.4676 80.5116C34.5656 79.2509 34.7412 77.9819 34.9896 76.7399C35.0394 76.4909 35.2813 76.3294 35.5306 76.3792C35.7796 76.429 35.9411 76.6711 35.8914 76.9201C35.6502 78.1263 35.4796 79.3586 35.3844 80.5828C35.3651 80.8319 35.1504 81.0192 34.9022 81.0062ZM97.8159 80.6006C97.5912 80.5889 97.4036 80.4137 97.3826 80.1832C97.2713 78.9609 97.0849 77.7315 96.8287 76.529C96.7757 76.2808 96.9342 76.0365 97.1825 75.9836C97.4306 75.9307 97.6751 76.0892 97.7281 76.3374C97.9919 77.5754 98.1838 78.8413 98.2984 80.0999C98.3214 80.3527 98.1351 80.5764 97.8822 80.5993C97.8598 80.6014 97.8377 80.6017 97.8159 80.6006ZM36.8699 72.2432C36.8235 72.2408 36.7766 72.2312 36.7308 72.2138C36.4934 72.1238 36.3739 71.8583 36.4639 71.6209L36.4725 71.5985C36.9204 70.4212 37.4416 69.2596 38.0211 68.1478C38.1385 67.9227 38.4161 67.8351 38.6413 67.9526C38.8665 68.0699 38.954 68.3475 38.8366 68.5727C38.2736 69.6528 37.7671 70.7815 37.3313 71.9271L37.3237 71.9469C37.2511 72.1385 37.0642 72.2533 36.8699 72.2432ZM95.7383 71.8662C95.564 71.8571 95.4026 71.7486 95.3343 71.5756C94.8832 70.4324 94.3587 69.304 93.7758 68.222C93.6555 67.9985 93.739 67.7196 93.9626 67.5992C94.1864 67.4789 94.4651 67.5624 94.5855 67.786C95.1855 68.8998 95.7253 70.0612 96.1898 71.2381C96.283 71.4743 96.1671 71.7413 95.9308 71.8345C95.8676 71.8595 95.8021 71.8695 95.7383 71.8662ZM41.2118 64.3821C41.1231 64.3774 41.0348 64.3472 40.9588 64.2895C40.7563 64.1363 40.7163 63.848 40.8696 63.6456C41.6334 62.6364 42.4668 61.6626 43.3467 60.7513C43.5231 60.5687 43.8142 60.5636 43.9969 60.7398C44.1795 60.9162 44.1847 61.2072 44.0084 61.3899C43.154 62.2748 42.3446 63.2204 41.6029 64.2004C41.5073 64.3267 41.3589 64.3897 41.2118 64.3821ZM91.2918 64.0625C91.163 64.0559 91.0377 63.9953 90.9523 63.8854C90.1976 62.9135 89.3772 61.9777 88.5136 61.1042C88.3351 60.9237 88.3369 60.6326 88.5175 60.4541C88.6981 60.2756 88.9892 60.2775 89.1677 60.458C90.0568 61.3575 90.9017 62.321 91.6787 63.3216C91.8345 63.5222 91.7981 63.8109 91.5975 63.9666C91.5068 64.037 91.3981 64.0681 91.2918 64.0625ZM47.6041 58.0695C47.4715 58.0626 47.343 57.9986 47.258 57.8835C47.1071 57.6793 47.1505 57.3915 47.3547 57.2407C48.3722 56.4895 49.4463 55.7911 50.5471 55.1647C50.7678 55.0391 51.0486 55.1162 51.1741 55.3369C51.2997 55.5576 51.2226 55.8382 51.0019 55.9638C49.9326 56.5722 48.8893 57.2507 47.901 57.9804C47.8118 58.046 47.7068 58.0748 47.6041 58.0695ZM84.8248 57.8279C84.7397 57.8234 84.6549 57.7953 84.5807 57.7419C83.584 57.0253 82.5323 56.3606 81.4549 55.7668C81.2325 55.6442 81.1516 55.3646 81.2743 55.1423C81.3969 54.9199 81.6765 54.8391 81.8989 54.9616C83.0084 55.5732 84.0912 56.2576 85.1177 56.9956C85.3238 57.1439 85.3707 57.431 85.2225 57.6371C85.1276 57.769 84.9758 57.8357 84.8248 57.8279ZM55.514 53.8129C55.3356 53.8035 55.1716 53.6902 55.1061 53.512C55.0186 53.2737 55.1409 53.0096 55.3793 52.9221C56.5675 52.486 57.7939 52.1166 59.0244 51.8243C59.2716 51.7652 59.5194 51.9182 59.5781 52.1652C59.6368 52.4123 59.4841 52.6601 59.237 52.7187C58.0417 53.0027 56.8504 53.3616 55.6962 53.7851C55.636 53.8073 55.5742 53.816 55.514 53.8129ZM76.861 53.6771C76.818 53.6748 76.7746 53.6665 76.7318 53.6514C75.5689 53.2413 74.3728 52.8972 73.1768 52.6288C72.9291 52.5731 72.7733 52.3272 72.8289 52.0795C72.8846 51.8318 73.1306 51.6763 73.3783 51.7317C74.6096 52.0082 75.8407 52.3623 77.0378 52.7844C77.2772 52.8689 77.4029 53.1314 77.3184 53.3709C77.249 53.5675 77.0593 53.6874 76.861 53.6771ZM64.2976 51.946C64.0683 51.934 63.879 51.7522 63.8634 51.5174C63.8465 51.2641 64.0383 51.0451 64.2917 51.0282C65.5427 50.9448 66.8112 50.9357 68.0617 51.001C68.0624 51.001 68.0629 51.0011 68.0636 51.0011L68.0992 51.0029C68.3528 51.0162 68.5476 51.2325 68.5344 51.486C68.5211 51.7395 68.3048 51.9343 68.0513 51.921L68.0156 51.9191C68.0151 51.9191 68.0145 51.9191 68.014 51.9191C66.7994 51.8557 65.5677 51.8646 64.3528 51.9455C64.3341 51.9468 64.3157 51.9469 64.2976 51.946Z" fill="#0A0A0A"/>
<path d="M213.869 161.055C213.544 161.055 213.279 160.794 213.275 160.468C213.271 160.14 213.534 159.87 213.863 159.867C215.097 159.852 216.345 159.803 217.572 159.719C217.9 159.697 218.183 159.945 218.205 160.272C218.227 160.6 217.98 160.883 217.652 160.905C216.403 160.99 215.133 161.041 213.877 161.055C213.874 161.055 213.872 161.055 213.869 161.055ZM208.63 160.911C208.617 160.911 208.604 160.911 208.59 160.91C207.337 160.826 206.072 160.706 204.829 160.551C204.503 160.511 204.272 160.214 204.312 159.888C204.352 159.563 204.649 159.332 204.975 159.372C206.196 159.523 207.439 159.642 208.669 159.724C208.997 159.746 209.245 160.029 209.223 160.357C209.202 160.671 208.941 160.911 208.63 160.911ZM222.823 160.345C222.533 160.345 222.279 160.133 222.235 159.838C222.187 159.513 222.412 159.211 222.736 159.163C223.956 158.982 225.185 158.764 226.39 158.514C226.712 158.448 227.026 158.654 227.093 158.976C227.159 159.297 226.953 159.612 226.631 159.678C225.404 159.932 224.153 160.155 222.911 160.339C222.881 160.343 222.852 160.345 222.823 160.345ZM199.731 159.704C199.691 159.704 199.65 159.7 199.61 159.692C198.381 159.438 197.144 159.146 195.932 158.823C195.615 158.739 195.426 158.413 195.511 158.096C195.595 157.779 195.921 157.59 196.239 157.675C197.428 157.992 198.643 158.279 199.85 158.527C200.172 158.594 200.379 158.908 200.312 159.23C200.254 159.511 200.007 159.704 199.731 159.704ZM231.596 158.423C231.339 158.423 231.102 158.254 231.026 157.995C230.934 157.68 231.115 157.35 231.43 157.258C232.612 156.912 233.8 156.527 234.96 156.115C235.27 156.005 235.609 156.166 235.72 156.475C235.83 156.785 235.668 157.125 235.359 157.235C234.177 157.655 232.968 158.047 231.764 158.399C231.708 158.415 231.652 158.423 231.596 158.423ZM191.078 157.291C191.012 157.291 190.945 157.28 190.88 157.257C189.695 156.837 188.507 156.377 187.349 155.889C187.046 155.762 186.904 155.414 187.032 155.111C187.159 154.808 187.508 154.666 187.81 154.794C188.947 155.272 190.113 155.724 191.277 156.136C191.586 156.246 191.748 156.586 191.639 156.895C191.552 157.139 191.323 157.291 191.078 157.291ZM240.021 155.317C239.794 155.317 239.577 155.187 239.478 154.966C239.343 154.667 239.477 154.315 239.777 154.181C240.898 153.677 242.021 153.134 243.112 152.567C243.404 152.416 243.763 152.53 243.914 152.821C244.066 153.112 243.952 153.471 243.661 153.622C242.549 154.2 241.406 154.752 240.264 155.265C240.185 155.3 240.102 155.317 240.021 155.317ZM182.829 153.71C182.737 153.71 182.644 153.689 182.556 153.643C181.441 153.065 180.329 152.448 179.249 151.807C178.966 151.639 178.873 151.275 179.041 150.992C179.208 150.71 179.573 150.617 179.855 150.785C180.916 151.414 182.009 152.02 183.104 152.588C183.395 152.739 183.509 153.098 183.358 153.389C183.252 153.593 183.044 153.71 182.829 153.71ZM247.937 151.091C247.739 151.091 247.546 150.992 247.433 150.811C247.259 150.533 247.343 150.166 247.622 149.992C248.664 149.34 249.703 148.649 250.709 147.938C250.977 147.748 251.348 147.812 251.538 148.08C251.727 148.348 251.664 148.719 251.396 148.909C250.371 149.633 249.314 150.337 248.252 151C248.154 151.061 248.045 151.091 247.937 151.091ZM175.151 149.037C175.032 149.037 174.913 149.002 174.808 148.928C173.784 148.205 172.766 147.442 171.784 146.661C171.527 146.456 171.484 146.082 171.688 145.825C171.893 145.568 172.267 145.526 172.524 145.73C173.489 146.497 174.488 147.247 175.495 147.957C175.763 148.147 175.827 148.518 175.637 148.786C175.521 148.95 175.338 149.037 175.151 149.037ZM255.209 145.824C255.039 145.824 254.87 145.751 254.752 145.61C254.542 145.358 254.576 144.983 254.828 144.773C255.774 143.984 256.71 143.158 257.61 142.318C257.85 142.094 258.226 142.107 258.45 142.347C258.675 142.586 258.662 142.963 258.422 143.187C257.506 144.042 256.553 144.883 255.589 145.686C255.478 145.779 255.343 145.824 255.209 145.824ZM168.181 143.367C168.036 143.367 167.891 143.314 167.776 143.207C166.859 142.352 165.955 141.458 165.087 140.552C164.861 140.315 164.869 139.938 165.106 139.711C165.343 139.485 165.72 139.493 165.947 139.73C166.799 140.621 167.687 141.498 168.587 142.338C168.827 142.562 168.84 142.938 168.616 143.178C168.499 143.304 168.34 143.367 168.181 143.367ZM261.702 139.619C261.559 139.619 261.415 139.568 261.301 139.464C261.059 139.242 261.042 138.866 261.263 138.624C262.094 137.715 262.91 136.769 263.688 135.814C263.896 135.559 264.27 135.521 264.525 135.728C264.78 135.936 264.818 136.31 264.61 136.564C263.818 137.537 262.987 138.5 262.141 139.426C262.024 139.554 261.863 139.619 261.702 139.619ZM162.046 136.807C161.874 136.807 161.703 136.733 161.585 136.589C160.793 135.617 160.018 134.61 159.282 133.595C159.089 133.33 159.149 132.958 159.415 132.765C159.68 132.573 160.052 132.632 160.245 132.898C160.968 133.894 161.729 134.883 162.507 135.837C162.714 136.092 162.676 136.466 162.422 136.674C162.311 136.764 162.178 136.807 162.046 136.807ZM267.297 132.59C267.181 132.59 267.063 132.556 266.96 132.485C266.69 132.298 266.622 131.928 266.808 131.658C267.509 130.643 268.189 129.595 268.831 128.543C269.002 128.263 269.368 128.174 269.648 128.345C269.928 128.516 270.017 128.881 269.846 129.162C269.193 130.233 268.5 131.3 267.787 132.333C267.672 132.5 267.486 132.59 267.297 132.59ZM156.858 129.48C156.658 129.48 156.462 129.379 156.35 129.195C155.698 128.125 155.067 127.023 154.477 125.919C154.322 125.629 154.431 125.269 154.721 125.114C155.01 124.959 155.37 125.069 155.525 125.358C156.105 126.443 156.724 127.525 157.365 128.576C157.536 128.856 157.448 129.222 157.168 129.393C157.071 129.452 156.964 129.48 156.858 129.48ZM271.886 124.864C271.796 124.864 271.705 124.843 271.619 124.8C271.326 124.652 271.208 124.294 271.356 124.001C271.912 122.899 272.444 121.768 272.935 120.637C273.066 120.336 273.417 120.198 273.717 120.329C274.019 120.46 274.157 120.81 274.026 121.111C273.525 122.262 272.984 123.415 272.418 124.537C272.313 124.744 272.104 124.864 271.886 124.864ZM275.378 116.578C275.314 116.578 275.249 116.568 275.186 116.546C274.875 116.44 274.709 116.102 274.816 115.791C275.215 114.626 275.585 113.434 275.916 112.248C276.005 111.932 276.333 111.748 276.649 111.836C276.965 111.924 277.15 112.252 277.062 112.568C276.724 113.775 276.347 114.989 275.941 116.176C275.856 116.423 275.625 116.578 275.378 116.578ZM277.697 107.903C277.659 107.903 277.621 107.899 277.583 107.892C277.26 107.829 277.05 107.517 277.113 107.194C277.348 105.987 277.552 104.755 277.718 103.534C277.762 103.209 278.062 102.981 278.387 103.025C278.713 103.07 278.94 103.369 278.896 103.694C278.727 104.938 278.52 106.192 278.28 107.422C278.225 107.706 277.976 107.903 277.697 107.903ZM278.808 98.9919C278.796 98.9919 278.785 98.9916 278.774 98.9909C278.446 98.9726 278.195 98.692 278.214 98.3642C278.282 97.1369 278.317 95.8891 278.317 94.6553L278.317 94.5266C278.317 94.1983 278.582 93.9317 278.911 93.9311C278.911 93.9311 278.911 93.9311 278.912 93.9311C279.24 93.9311 279.506 94.1966 279.506 94.5245L279.506 94.6553C279.506 95.9112 279.471 97.1814 279.401 98.4308C279.383 98.7472 279.121 98.9919 278.808 98.9919ZM147.264 95.3147C146.936 95.3147 146.67 95.0493 146.67 94.7213V94.6553C146.67 93.4208 146.704 92.1725 146.772 90.9452C146.79 90.6174 147.07 90.3649 147.398 90.3845C147.726 90.4025 147.977 90.6829 147.959 91.0107C147.893 92.2163 147.859 93.4426 147.859 94.6553V94.7193C147.859 95.0476 147.594 95.3141 147.265 95.3147C147.265 95.3147 147.265 95.3147 147.264 95.3147ZM278.695 89.883C278.389 89.883 278.129 89.6474 278.104 89.3365C278.004 88.107 277.869 86.8661 277.7 85.6483C277.655 85.3231 277.882 85.0231 278.208 84.9781C278.533 84.9333 278.833 85.1604 278.878 85.4856C279.049 86.7256 279.188 87.989 279.289 89.2408C279.315 89.568 279.071 89.8547 278.744 89.8811C278.728 89.8824 278.711 89.883 278.695 89.883ZM147.861 86.3553C147.835 86.3553 147.808 86.3535 147.781 86.3498C147.455 86.3059 147.227 86.0066 147.271 85.6812C147.439 84.4378 147.645 83.1835 147.884 81.9532C147.946 81.631 148.257 81.4208 148.58 81.4827C148.903 81.5451 149.113 81.857 149.051 82.1793C148.817 83.3875 148.614 84.6192 148.449 85.8404C148.409 86.1387 148.154 86.3553 147.861 86.3553ZM277.365 81.0029C277.092 81.0029 276.846 80.8139 276.785 80.5365C276.519 79.3335 276.215 78.1227 275.882 76.938C275.793 76.6219 275.977 76.2937 276.293 76.2046C276.609 76.1156 276.937 76.2997 277.026 76.6157C277.366 77.8222 277.675 79.0551 277.946 80.2802C278.017 80.6009 277.814 80.9181 277.493 80.9888C277.45 80.9984 277.407 81.0029 277.365 81.0029ZM149.67 77.5596C149.617 77.5596 149.563 77.5524 149.51 77.5377C149.194 77.4497 149.009 77.1219 149.097 76.8056C149.433 75.5974 149.809 74.3831 150.214 73.1962C150.32 72.8854 150.658 72.7197 150.969 72.8256C151.28 72.9317 151.446 73.2694 151.34 73.5802C150.942 74.7456 150.573 75.938 150.242 77.1244C150.169 77.3874 149.93 77.5596 149.67 77.5596ZM274.831 72.3875C274.59 72.3875 274.363 72.2393 274.274 71.9995C273.847 70.8472 273.381 69.6918 272.888 68.5652C272.757 68.2644 272.894 67.914 273.195 67.7826C273.495 67.6511 273.846 67.7884 273.978 68.0893C274.479 69.2365 274.954 70.4131 275.389 71.5865C275.503 71.8943 275.346 72.2363 275.038 72.3504C274.97 72.3756 274.9 72.3875 274.831 72.3875ZM152.669 69.0903C152.591 69.0903 152.51 69.0744 152.433 69.0411C152.132 68.9104 151.994 68.5604 152.124 68.2592C152.624 67.1076 153.164 65.9546 153.729 64.8324C153.877 64.5392 154.234 64.4211 154.527 64.5688C154.821 64.7165 154.939 65.0738 154.791 65.367C154.236 66.4691 153.706 67.6013 153.215 68.7322C153.118 68.9563 152.899 69.0903 152.669 69.0903ZM271.145 64.2097C270.933 64.2097 270.728 64.0959 270.621 63.896C270.04 62.8119 269.419 61.73 268.777 60.6801C268.606 60.4 268.694 60.0341 268.974 59.8629C269.254 59.6916 269.62 59.7798 269.792 60.0599C270.446 61.1289 271.077 62.2306 271.669 63.3344C271.824 63.6238 271.715 63.984 271.426 64.1391C271.336 64.1869 271.24 64.2097 271.145 64.2097ZM156.803 61.1082C156.698 61.1082 156.592 61.0803 156.495 61.0217C156.214 60.8511 156.125 60.4854 156.296 60.205C156.948 59.133 157.64 58.0652 158.352 57.0312C158.538 56.7608 158.908 56.6927 159.179 56.8789C159.449 57.0651 159.517 57.4353 159.331 57.7056C158.632 58.721 157.952 59.7697 157.312 60.8226C157.2 61.0066 157.004 61.1082 156.803 61.1082ZM266.375 56.6062C266.191 56.6062 266.01 56.5213 265.894 56.3611C265.17 55.3657 264.408 54.3773 263.629 53.4235C263.421 53.1693 263.459 52.7948 263.713 52.5871C263.968 52.3794 264.342 52.4172 264.55 52.6713C265.343 53.6424 266.119 54.6487 266.855 55.6622C267.049 55.9278 266.99 56.2995 266.724 56.4925C266.618 56.5693 266.496 56.6062 266.375 56.6062ZM161.985 53.7664C161.853 53.7664 161.721 53.7228 161.61 53.6332C161.356 53.4261 161.317 53.0518 161.524 52.797C162.315 51.824 163.145 50.8604 163.991 49.9332C164.212 49.6906 164.588 49.6731 164.83 49.8943C165.073 50.1155 165.09 50.4914 164.869 50.734C164.039 51.6448 163.224 52.5912 162.447 53.5468C162.329 53.6914 162.158 53.7664 161.985 53.7664ZM260.614 49.7173C260.458 49.7173 260.302 49.656 260.185 49.5342C259.332 48.6446 258.443 47.768 257.542 46.9288C257.301 46.705 257.288 46.3289 257.512 46.0887C257.736 45.8487 258.112 45.8352 258.352 46.0591C259.27 46.9135 260.175 47.8059 261.043 48.7116C261.271 48.9486 261.263 49.3249 261.026 49.552C260.91 49.6624 260.762 49.7173 260.614 49.7173ZM168.113 47.1969C167.954 47.1969 167.796 47.1337 167.679 47.0087C167.454 46.769 167.467 46.3929 167.706 46.1685C168.622 45.3117 169.574 44.4698 170.536 43.666C170.788 43.4556 171.163 43.4892 171.374 43.7412C171.584 43.9932 171.551 44.368 171.298 44.5785C170.353 45.3679 169.418 46.1949 168.519 47.0364C168.404 47.1437 168.258 47.1969 168.113 47.1969ZM253.971 43.6693C253.842 43.6693 253.712 43.6272 253.602 43.5406C252.637 42.7744 251.636 42.0259 250.629 41.3161C250.361 41.127 250.297 40.7561 250.486 40.4878C250.675 40.2194 251.046 40.1552 251.314 40.3444C252.34 41.0673 253.358 41.8292 254.341 42.6093C254.599 42.8134 254.642 43.1872 254.438 43.4444C254.32 43.5923 254.147 43.6693 253.971 43.6693ZM175.071 41.5192C174.885 41.5192 174.702 41.4319 174.586 41.2684C174.396 41.0006 174.459 40.6296 174.727 40.4398C175.75 39.715 176.807 39.0102 177.868 38.3451C178.147 38.1708 178.513 38.255 178.688 38.5332C178.862 38.8113 178.778 39.1781 178.5 39.3525C177.457 40.0057 176.419 40.6979 175.415 41.4098C175.31 41.4837 175.19 41.5192 175.071 41.5192ZM246.568 38.5763C246.465 38.5763 246.36 38.5496 246.265 38.4933C245.204 37.8651 244.11 37.2594 243.016 36.6931C242.724 36.5423 242.61 36.1837 242.761 35.8921C242.911 35.6005 243.27 35.4862 243.562 35.6372C244.677 36.2138 245.79 36.8306 246.871 37.4703C247.154 37.6375 247.247 38.0021 247.08 38.2846C246.969 38.4721 246.771 38.5763 246.568 38.5763ZM182.733 36.8403C182.518 36.8403 182.311 36.7238 182.205 36.5203C182.053 36.2291 182.166 35.8702 182.457 35.7186C183.569 35.1398 184.712 34.5859 185.853 34.0725C186.152 33.9376 186.504 34.0712 186.639 34.3705C186.774 34.6699 186.64 35.0217 186.341 35.1565C185.22 35.6608 184.098 36.2047 183.007 36.773C182.919 36.8187 182.825 36.8403 182.733 36.8403ZM238.536 34.5383C238.46 34.5383 238.382 34.5234 238.306 34.4918C237.168 34.0144 236.002 33.5639 234.838 33.1527C234.529 33.0432 234.367 32.7037 234.476 32.3942C234.586 32.0847 234.925 31.9223 235.235 32.0319C236.419 32.4506 237.608 32.9094 238.767 33.3957C239.069 33.5227 239.212 33.871 239.085 34.1738C238.989 34.4014 238.769 34.5383 238.536 34.5383ZM190.955 33.2522C190.711 33.2522 190.482 33.1006 190.396 32.8575C190.285 32.5483 190.446 32.2081 190.756 32.0978C191.937 31.6763 193.146 31.2834 194.35 30.9301C194.665 30.8377 194.995 31.0181 195.088 31.3331C195.18 31.648 195 31.9783 194.684 32.0708C193.503 32.4176 192.315 32.8034 191.155 33.2173C191.089 33.241 191.022 33.2522 190.955 33.2522ZM230.029 31.6394C229.978 31.6394 229.927 31.6329 229.876 31.6193C228.685 31.3033 227.47 31.0176 226.263 30.7702C225.942 30.7042 225.734 30.3901 225.8 30.0684C225.866 29.7469 226.18 29.5394 226.502 29.6055C227.731 29.8576 228.969 30.1485 230.181 30.4703C230.498 30.5545 230.687 30.88 230.603 31.1973C230.532 31.4636 230.292 31.6394 230.029 31.6394ZM199.601 30.8219C199.326 30.8219 199.078 30.6292 199.02 30.3486C198.953 30.0272 199.159 29.7124 199.481 29.6455C200.708 29.3901 201.959 29.1666 203.201 28.9814C203.525 28.9329 203.828 29.1569 203.876 29.4815C203.925 29.8062 203.701 30.1087 203.376 30.1571C202.157 30.339 200.928 30.5584 199.723 30.8093C199.682 30.8179 199.642 30.8219 199.601 30.8219ZM221.21 29.9355C221.186 29.9355 221.162 29.934 221.137 29.931C219.916 29.7808 218.673 29.6635 217.443 29.5824C217.115 29.5608 216.867 29.2777 216.888 28.9502C216.91 28.6227 217.192 28.3754 217.521 28.3961C218.774 28.4787 220.039 28.5981 221.282 28.751C221.608 28.7911 221.84 29.0878 221.8 29.4136C221.763 29.7147 221.506 29.9355 221.21 29.9355ZM208.499 29.5968C208.189 29.5968 207.928 29.3568 207.906 29.0432C207.884 28.7157 208.131 28.4319 208.458 28.4094C209.708 28.3233 210.978 28.2717 212.234 28.2559C212.564 28.2506 212.832 28.5145 212.836 28.8429C212.84 29.1711 212.577 29.4405 212.249 29.4447C211.015 29.4603 209.767 29.5109 208.54 29.5954C208.526 29.5964 208.513 29.5968 208.499 29.5968Z" fill="#0A0A0A"/>
<path d="M20.896 61.627H22.9582C23.2512 61.627 23.4887 61.8645 23.4887 62.1574C23.4887 62.4503 23.2512 62.6878 22.9582 62.6878H20.896C20.6031 62.6878 20.3655 62.4504 20.3655 62.1574C20.3655 62.011 20.425 61.8783 20.5209 61.7824C20.6169 61.6864 20.7495 61.627 20.896 61.627Z" fill="#0A0A0A"/>
<path d="M28.5969 62.1484C28.5994 62.2983 28.5397 62.4344 28.4416 62.5325C28.3456 62.6285 28.2129 62.6878 28.0665 62.6878H26.0043C25.7114 62.6878 25.4738 62.4503 25.4738 62.1574C25.4738 61.8645 25.7114 61.627 26.0043 61.627H28.0537C28.3453 61.627 28.592 61.8568 28.5969 62.1484Z" fill="#0A0A0A"/>
<path d="M25.0119 58.5734V60.6349C25.0119 60.9278 24.7743 61.1654 24.4813 61.1654C24.1882 61.1654 23.9507 60.9278 23.9507 60.6349V58.5734C23.9507 58.2803 24.1883 58.043 24.4812 58.043C24.6279 58.043 24.7605 58.1022 24.8565 58.1982C24.9524 58.2941 25.0119 58.4268 25.0119 58.5734Z" fill="#0A0A0A"/>
<path d="M24.4812 63.1504C24.7743 63.1504 25.0118 63.3879 25.0118 63.6809V65.7425C25.0118 66.0353 24.7742 66.2729 24.4811 66.2729C24.3347 66.2729 24.202 66.2134 24.1061 66.1175C24.0099 66.0216 23.9506 65.889 23.9506 65.7426V63.681C23.9506 63.3879 24.1881 63.1504 24.4812 63.1504Z" fill="#0A0A0A"/>
<path d="M88.8193 1.96777C87.3582 1.96777 86.1737 3.15202 86.1737 4.61282C86.1737 6.07363 87.3582 7.2578 88.8193 7.2578C90.2804 7.2578 91.4649 6.07363 91.4649 4.61282C91.4649 3.15202 90.2804 1.96777 88.8193 1.96777ZM88.8193 6.08228C88.0076 6.08228 87.3496 5.42438 87.3496 4.61282C87.3496 3.80127 88.0076 3.14337 88.8193 3.14337C89.6311 3.14337 90.2891 3.80127 90.2891 4.61282C90.2891 5.42438 89.6311 6.08228 88.8193 6.08228Z" fill="#0A0A0A"/>
<path d="M37.6541 117.573C36.193 117.573 35.0085 118.757 35.0085 120.218C35.0085 121.679 36.193 122.863 37.6541 122.863C39.1152 122.863 40.2997 121.679 40.2997 120.218C40.2997 118.757 39.1152 117.573 37.6541 117.573ZM37.6541 121.688C36.8424 121.688 36.1844 121.03 36.1844 120.218C36.1844 119.407 36.8424 118.749 37.6541 118.749C38.4659 118.749 39.1239 119.407 39.1239 120.218C39.1239 121.03 38.4659 121.688 37.6541 121.688Z" fill="#0A0A0A"/>
<path d="M94.3008 108.844H95.7892C96.0007 108.844 96.1721 109.015 96.1721 109.227C96.1721 109.438 96.0007 109.609 95.7892 109.609H94.3008C94.0895 109.609 93.918 109.438 93.918 109.227C93.918 109.121 93.9609 109.025 94.0302 108.956C94.0994 108.887 94.1952 108.844 94.3008 108.844Z" fill="#0A0A0A"/>
<path d="M99.859 109.22C99.8608 109.328 99.8176 109.426 99.7468 109.497C99.6776 109.567 99.5818 109.609 99.4761 109.609H97.9877C97.7763 109.609 97.6048 109.438 97.6048 109.227C97.6048 109.015 97.7763 108.844 97.9877 108.844H99.4668C99.6774 108.844 99.8555 109.01 99.859 109.22Z" fill="#0A0A0A"/>
<path d="M97.2714 106.64V108.127C97.2714 108.339 97.1 108.51 96.8885 108.51C96.677 108.51 96.5055 108.339 96.5055 108.127V106.64C96.5055 106.428 96.677 106.257 96.8884 106.257C96.9942 106.257 97.09 106.3 97.1592 106.369C97.2285 106.438 97.2714 106.534 97.2714 106.64Z" fill="#0A0A0A"/>
<path d="M96.8885 109.943C97.1 109.943 97.2714 110.115 97.2714 110.326V111.814C97.2714 112.026 97.0999 112.197 96.8884 112.197C96.7827 112.197 96.6869 112.154 96.6177 112.085C96.5483 112.016 96.5055 111.92 96.5055 111.814V110.326C96.5055 110.115 96.677 109.943 96.8885 109.943Z" fill="#0A0A0A"/>
<path d="M235.944 55.9023C234.994 55.9023 234.223 56.673 234.223 57.6236C234.223 58.5742 234.994 59.3448 235.944 59.3448C236.895 59.3448 237.666 58.5742 237.666 57.6236C237.666 56.673 236.895 55.9023 235.944 55.9023ZM235.944 58.5798C235.416 58.5798 234.988 58.1517 234.988 57.6236C234.988 57.0955 235.416 56.6673 235.944 56.6673C236.473 56.6673 236.901 57.0954 236.901 57.6236C236.901 58.1517 236.473 58.5798 235.944 58.5798Z" fill="#0A0A0A"/>
<path d="M245.228 107.431H247.065C247.326 107.431 247.537 107.642 247.537 107.903C247.537 108.164 247.326 108.376 247.065 108.376H245.228C244.967 108.376 244.755 108.164 244.755 107.903C244.755 107.773 244.808 107.655 244.893 107.569C244.979 107.484 245.097 107.431 245.228 107.431Z" fill="#0A0A0A"/>
<path d="M252.088 107.895C252.09 108.029 252.037 108.15 251.95 108.237C251.864 108.323 251.746 108.376 251.616 108.376H249.778C249.517 108.376 249.306 108.164 249.306 107.903C249.306 107.642 249.517 107.431 249.778 107.431H251.604C251.864 107.431 252.084 107.635 252.088 107.895Z" fill="#0A0A0A"/>
<path d="M248.894 104.71V106.546C248.894 106.807 248.683 107.019 248.422 107.019C248.16 107.019 247.949 106.807 247.949 106.546V104.71C247.949 104.449 248.16 104.237 248.421 104.237C248.552 104.237 248.67 104.29 248.756 104.376C248.841 104.461 248.894 104.579 248.894 104.71Z" fill="#0A0A0A"/>
<path d="M248.422 108.787C248.683 108.787 248.894 108.999 248.894 109.26V111.096C248.894 111.357 248.683 111.569 248.421 111.569C248.291 111.569 248.173 111.516 248.087 111.43C248.002 111.345 247.949 111.227 247.949 111.096V109.26C247.949 108.999 248.16 108.787 248.422 108.787Z" fill="#0A0A0A"/>
<path d="M250.467 161.144H252.304C252.565 161.144 252.777 161.355 252.777 161.616C252.777 161.877 252.565 162.088 252.304 162.088H250.467C250.206 162.088 249.995 161.877 249.995 161.616C249.995 161.486 250.048 161.367 250.133 161.282C250.219 161.196 250.337 161.144 250.467 161.144Z" fill="#0A0A0A"/>
<path d="M257.327 161.608C257.329 161.742 257.276 161.863 257.188 161.95C257.103 162.036 256.985 162.088 256.854 162.088H255.017C254.756 162.088 254.545 161.877 254.545 161.616C254.545 161.355 254.756 161.144 255.017 161.144H256.843C257.103 161.144 257.322 161.348 257.327 161.608Z" fill="#0A0A0A"/>
<path d="M254.133 158.424V160.26C254.133 160.521 253.922 160.732 253.661 160.732C253.4 160.732 253.188 160.521 253.188 160.26V158.424C253.188 158.163 253.4 157.951 253.661 157.951C253.791 157.951 253.909 158.004 253.995 158.089C254.08 158.175 254.133 158.293 254.133 158.424Z" fill="#0A0A0A"/>
<path d="M253.661 162.5C253.922 162.5 254.133 162.712 254.133 162.973V164.809C254.133 165.07 253.922 165.281 253.661 165.281C253.53 165.281 253.412 165.228 253.327 165.143C253.241 165.057 253.188 164.939 253.188 164.809V162.973C253.188 162.712 253.4 162.5 253.661 162.5Z" fill="#0A0A0A"/>
<path d="M273.705 28.54C272.48 28.54 271.487 29.5331 271.487 30.7581C271.487 31.9832 272.48 32.9763 273.705 32.9763C274.93 32.9763 275.924 31.9832 275.924 30.7581C275.924 29.5331 274.93 28.54 273.705 28.54ZM273.705 31.9905C273.024 31.9905 272.473 31.4387 272.473 30.7581C272.473 30.0776 273.024 29.5258 273.705 29.5258C274.386 29.5258 274.938 30.0776 274.938 30.7581C274.938 31.4387 274.386 31.9905 273.705 31.9905Z" fill="#0A0A0A"/>
<path d="M178.943 10.6475H180.78C181.041 10.6475 181.253 10.859 181.253 11.12C181.253 11.381 181.041 11.5925 180.78 11.5925H178.943C178.682 11.5925 178.471 11.3811 178.471 11.12C178.471 10.9895 178.524 10.8714 178.609 10.7859C178.695 10.7005 178.813 10.6475 178.943 10.6475Z" fill="#0A0A0A"/>
<path d="M185.804 11.112C185.806 11.2456 185.753 11.3668 185.665 11.4542C185.58 11.5397 185.462 11.5925 185.331 11.5925H183.494C183.233 11.5925 183.021 11.381 183.021 11.12C183.021 10.859 183.233 10.6475 183.494 10.6475H185.32C185.58 10.6475 185.8 10.8522 185.804 11.112Z" fill="#0A0A0A"/>
<path d="M182.61 7.92664V9.76312C182.61 10.0241 182.398 10.2357 182.137 10.2357C181.876 10.2357 181.665 10.0241 181.665 9.76312V7.92664C181.665 7.66558 181.876 7.4541 182.137 7.4541C182.268 7.4541 182.386 7.5069 182.472 7.59242C182.557 7.67786 182.61 7.79604 182.61 7.92664Z" fill="#0A0A0A"/>
<path d="M182.137 12.0039C182.398 12.0039 182.61 12.2155 182.61 12.4765V14.3132C182.61 14.5741 182.398 14.7857 182.137 14.7857C182.007 14.7857 181.889 14.7327 181.803 14.6473C181.717 14.5618 181.665 14.4437 181.665 14.3132V12.4765C181.665 12.2155 181.876 12.0039 182.137 12.0039Z" fill="#0A0A0A"/>
<path d="M262.23 59.1666C260.989 59.1666 259.741 59.0585 258.517 58.8454C258.275 58.8031 258.112 58.5722 258.155 58.3297C258.197 58.0871 258.427 57.9248 258.671 57.967C259.844 58.1714 261.041 58.2751 262.229 58.2751L262.291 58.2749C262.291 58.2749 262.292 58.2749 262.292 58.2749C262.538 58.2749 262.737 58.4735 262.738 58.7192C262.739 58.9653 262.54 59.1656 262.294 59.1665L262.23 59.1666ZM267.44 58.515C267.241 58.515 267.06 58.3806 267.009 58.1787C266.948 57.94 267.092 57.6975 267.331 57.6369C268.503 57.3397 269.657 56.9374 270.762 56.4411C270.986 56.3402 271.251 56.4403 271.352 56.665C271.452 56.8895 271.352 57.1534 271.128 57.2543C269.976 57.7718 268.772 58.1913 267.55 58.5011C267.514 58.5106 267.477 58.515 267.44 58.515ZM253.626 57.3503C253.566 57.3503 253.505 57.3381 253.447 57.3125C252.289 56.8035 251.171 56.1902 250.124 55.4897C249.919 55.3528 249.864 55.0759 250.001 54.8712C250.138 54.6666 250.415 54.6116 250.62 54.7486C251.624 55.4203 252.696 56.0083 253.806 56.4963C254.031 56.5954 254.133 56.8585 254.034 57.0839C253.961 57.2509 253.797 57.3503 253.626 57.3503ZM275.386 54.6092C275.254 54.6092 275.123 54.5506 275.035 54.4386C274.883 54.2448 274.917 53.9646 275.111 53.8127C276.064 53.0646 276.956 52.229 277.763 51.3289C277.927 51.1456 278.209 51.1301 278.393 51.2944C278.576 51.4587 278.591 51.7405 278.427 51.9239C277.586 52.8625 276.655 53.734 275.661 54.514C275.58 54.5781 275.483 54.6092 275.386 54.6092ZM246.445 52.1726C246.324 52.1726 246.203 52.1231 246.115 52.0258C245.269 51.0912 244.499 50.0753 243.826 49.0062C243.695 48.7978 243.758 48.5226 243.967 48.3915C244.175 48.2604 244.45 48.3232 244.581 48.5316C245.226 49.5569 245.965 50.5314 246.776 51.4277C246.941 51.6103 246.927 51.8922 246.744 52.0574C246.659 52.1345 246.552 52.1726 246.445 52.1726ZM281.057 47.8124C280.987 47.8124 280.916 47.7959 280.85 47.761C280.632 47.6463 280.548 47.3767 280.663 47.1588C281.224 46.0926 281.697 44.9656 282.07 43.8091L282.078 43.7813C282.153 43.5468 282.404 43.4171 282.639 43.4923C282.874 43.5672 283.003 43.818 282.928 44.0526L282.919 44.0812C282.531 45.2876 282.037 46.4625 281.452 47.5741C281.372 47.7258 281.217 47.8124 281.057 47.8124ZM241.994 44.5203C241.806 44.5203 241.632 44.4014 241.57 44.2139C241.175 43.0145 240.883 41.7741 240.702 40.5272C240.667 40.2835 240.836 40.0573 241.079 40.0221C241.323 39.9867 241.549 40.1557 241.585 40.3993C241.758 41.595 242.038 42.7846 242.417 43.9347C242.494 44.1686 242.367 44.4206 242.133 44.4976C242.087 44.513 242.04 44.5203 241.994 44.5203ZM283.477 39.2657C283.467 39.2657 283.457 39.2654 283.447 39.2648C283.201 39.2485 283.015 39.0361 283.032 38.7904C283.062 38.337 283.077 37.8763 283.077 37.4211C283.077 36.6684 283.035 35.9074 282.953 35.159C282.926 34.9143 283.103 34.694 283.348 34.6672C283.592 34.6397 283.813 34.8168 283.839 35.0615C283.925 35.8422 283.969 36.636 283.969 37.4211C283.969 37.896 283.953 38.3766 283.922 38.8495C283.906 39.0851 283.71 39.2657 283.477 39.2657ZM241.035 35.7218C241.02 35.7218 241.005 35.7211 240.989 35.7195C240.744 35.6944 240.566 35.4755 240.591 35.2305C240.719 33.9795 240.959 32.7276 241.305 31.5098C241.372 31.273 241.619 31.1354 241.855 31.2025C242.092 31.2696 242.23 31.5161 242.163 31.753C241.831 32.9211 241.601 34.1217 241.478 35.3214C241.455 35.5509 241.261 35.7218 241.035 35.7218ZM282.204 30.5071C282.022 30.5071 281.852 30.3957 281.785 30.2158C281.366 29.0811 280.844 27.9755 280.235 26.9295C280.111 26.7168 280.183 26.4438 280.396 26.3199C280.609 26.1959 280.882 26.268 281.006 26.4808C281.641 27.5711 282.185 28.7238 282.622 29.9066C282.707 30.1376 282.589 30.394 282.358 30.4793C282.307 30.4982 282.255 30.5071 282.204 30.5071ZM243.74 27.2927C243.665 27.2927 243.589 27.2738 243.519 27.2339C243.305 27.1118 243.231 26.8395 243.353 26.6257C243.979 25.5296 244.707 24.4823 245.515 23.5128C245.672 23.3236 245.954 23.2981 246.143 23.4557C246.332 23.6133 246.357 23.8944 246.2 24.0836C245.425 25.013 244.728 26.017 244.128 27.0678C244.045 27.212 243.895 27.2927 243.74 27.2927ZM277.483 23.0175C277.367 23.0175 277.251 22.9723 277.164 22.8824C276.319 22.0139 275.394 21.2155 274.412 20.5091C274.213 20.3652 274.167 20.0866 274.311 19.8868C274.455 19.687 274.734 19.6417 274.934 19.7855C275.957 20.5223 276.923 21.3552 277.803 22.261C277.975 22.4375 277.971 22.7198 277.794 22.8914C277.707 22.9756 277.595 23.0175 277.483 23.0175ZM249.643 20.6943C249.505 20.6943 249.37 20.631 249.282 20.5115C249.137 20.3128 249.18 20.0338 249.379 19.8885C250.397 19.1444 251.488 18.4844 252.62 17.9267C252.841 17.8179 253.108 17.9088 253.217 18.1296C253.326 18.3504 253.235 18.6178 253.014 18.7265C251.928 19.2614 250.882 19.8946 249.906 20.6083C249.826 20.6664 249.734 20.6943 249.643 20.6943ZM270.122 18.1004C270.067 18.1004 270.011 18.0902 269.957 18.0686C269.516 17.893 269.062 17.73 268.608 17.584C267.909 17.359 267.192 17.169 266.477 17.0192C266.236 16.9687 266.082 16.7323 266.132 16.4914C266.183 16.2505 266.42 16.0961 266.66 16.1466C267.405 16.3027 268.152 16.5008 268.881 16.7352C269.354 16.8873 269.827 17.0573 270.287 17.2403C270.516 17.3314 270.627 17.5907 270.536 17.8194C270.467 17.9941 270.299 18.1004 270.122 18.1004ZM257.716 17.0615C257.511 17.0615 257.326 16.9189 257.281 16.7103C257.228 16.4697 257.381 16.2322 257.622 16.18C258.856 15.9116 260.12 15.7506 261.38 15.7015C261.625 15.6916 261.833 15.8837 261.843 16.1297C261.852 16.3757 261.661 16.583 261.414 16.5925C260.207 16.6395 258.994 16.7938 257.811 17.0512C257.779 17.0582 257.747 17.0615 257.716 17.0615Z" fill="#0A0A0A"/>
<path d="M39.5583 82.7391C38.9073 82.8783 38.2426 82.9989 37.5829 83.0976C37.316 83.1375 37.0673 82.9535 37.0274 82.6868C36.9875 82.4199 37.1712 82.1718 37.4384 82.1313C38.0781 82.0356 38.7226 81.9187 39.3539 81.7836C39.9955 81.6464 40.641 81.4867 41.2723 81.3094C41.5322 81.2378 41.8018 81.3878 41.8749 81.6475C41.9479 81.9072 41.7965 82.1769 41.5367 82.2499C40.8856 82.4329 40.22 82.5975 39.5583 82.7391ZM32.0512 83.4305C32.014 83.4385 31.9753 83.4423 31.9357 83.4412C31.1282 83.4198 30.3098 83.3677 29.5036 83.2863C28.9717 83.2327 28.4352 83.1654 27.9089 83.0862C27.6421 83.0461 27.4583 82.7973 27.4984 82.5305C27.5386 82.2638 27.7874 82.0801 28.0542 82.1201C28.5648 82.1968 29.0853 82.2622 29.6015 82.3142C30.384 82.3932 31.1779 82.4437 31.9614 82.4645C32.2311 82.4716 32.444 82.696 32.4369 82.9657C32.4309 83.1958 32.2667 83.3844 32.0512 83.4305ZM46.7158 80.2871C46.5005 80.3331 46.2737 80.2285 46.1738 80.0213C46.0567 79.7783 46.1587 79.4864 46.4018 79.3692C47.575 78.8038 48.7253 78.1585 49.8209 77.451C50.0475 77.3044 50.3501 77.3697 50.4964 77.5963C50.6428 77.823 50.5778 78.1252 50.351 78.2716C49.2215 79.0009 48.0355 79.6663 46.8261 80.2492C46.7902 80.2666 46.7532 80.2791 46.7158 80.2871ZM22.6668 81.7779C22.5841 81.7956 22.4958 81.7921 22.4097 81.7632C21.1343 81.3355 19.8735 80.8227 18.6623 80.2388C18.4192 80.1216 18.3172 79.8297 18.4344 79.5866C18.5516 79.3437 18.8436 79.2417 19.0867 79.3587C20.2612 79.9249 21.4838 80.4223 22.7205 80.8369C22.9763 80.9228 23.1142 81.1996 23.0284 81.4554C22.9714 81.6251 22.8302 81.743 22.6668 81.7779ZM54.5896 74.9228C54.4266 74.9576 54.2499 74.9082 54.1284 74.7771C53.9451 74.579 53.957 74.27 54.155 74.0867C55.1121 73.2008 56.0229 72.2463 56.8622 71.2494C57.036 71.043 57.3442 71.0166 57.5507 71.1903C57.7571 71.364 57.7836 71.6722 57.6098 71.8787C56.7445 72.9063 55.8055 73.8904 54.8189 74.8037C54.7521 74.8655 54.6726 74.9051 54.5896 74.9228ZM14.1889 77.4262C14.0586 77.454 13.9175 77.4289 13.8008 77.3448C12.7115 76.5597 11.6595 75.6971 10.6741 74.781C10.4765 74.5972 10.4653 74.2882 10.649 74.0906C10.8328 73.893 11.1419 73.8818 11.3396 74.0656C12.2954 74.9542 13.3157 75.7909 14.3722 76.5524C14.5911 76.7101 14.6407 77.0155 14.4828 77.2343C14.4092 77.3365 14.3032 77.4017 14.1889 77.4262ZM60.5413 67.4831C60.427 67.5075 60.3035 67.4912 60.1944 67.4281C59.9609 67.2929 59.8812 66.9941 60.0165 66.7606C60.6702 65.6319 61.2586 64.4509 61.7654 63.2501C61.8703 63.0016 62.1571 62.8851 62.4055 62.9899C62.6541 63.0948 62.7706 63.3814 62.6657 63.6299C62.143 64.8682 61.5362 66.0862 60.862 67.2502C60.7901 67.3745 60.6716 67.4552 60.5413 67.4831ZM7.37348 70.7679C7.19376 70.8063 6.99977 70.7413 6.88143 70.5851C6.06986 69.5136 5.31755 68.3809 4.64534 67.2183C4.51027 66.9847 4.59021 66.6859 4.82383 66.551C5.05709 66.416 5.35625 66.4958 5.49132 66.7294C6.14339 67.8572 6.87314 68.9559 7.66042 69.9953C7.82335 70.2104 7.78102 70.5168 7.56594 70.6796C7.50695 70.7241 7.4412 70.7533 7.37348 70.7679ZM64.0253 58.6144C63.958 58.6288 63.8865 58.6292 63.815 58.6128C63.5519 58.5529 63.3871 58.2911 63.447 58.0281C63.7353 56.7617 63.9481 55.4598 64.0794 54.1586L64.0835 54.1177C64.1103 53.8491 64.3496 53.6533 64.6181 53.68C64.8866 53.7067 65.0826 53.946 65.0558 54.2144L65.0516 54.2569C64.9163 55.5977 64.697 56.9395 64.3998 58.2449C64.3562 58.4364 64.2056 58.5759 64.0253 58.6144ZM2.81278 62.4056C2.57821 62.4558 2.33658 62.3267 2.25206 62.095C1.79165 60.8321 1.40681 59.5278 1.10823 58.2185C1.04822 57.9555 1.2129 57.6936 1.47605 57.6337C1.73913 57.5712 2.00098 57.7384 2.06099 58.0015C2.35047 59.271 2.7236 60.5358 3.17013 61.7604C3.26257 62.0139 3.13187 62.2943 2.87839 62.3867C2.85671 62.3946 2.83474 62.401 2.81278 62.4056ZM64.7443 49.073C64.7226 49.0777 64.7004 49.0809 64.6777 49.0826C64.4086 49.1025 64.1742 48.9006 64.1542 48.6315C64.0576 47.3309 63.8776 46.0243 63.6192 44.7478C63.5661 44.4853 63.7344 44.2292 63.9958 44.1733C63.9976 44.1729 63.9994 44.1725 64.0012 44.1721C64.2656 44.1186 64.5235 44.2896 64.5769 44.554C64.8434 45.8704 65.029 47.2179 65.1287 48.5591C65.147 48.8055 64.9793 49.0227 64.7443 49.073ZM0.930756 53.0683C0.90508 53.0738 0.878681 53.0774 0.851623 53.0786C0.58214 53.0917 0.353022 52.8838 0.339929 52.6144C0.274977 51.2763 0.293526 49.9165 0.394991 48.5726C0.415284 48.3036 0.649926 48.1019 0.918973 48.1223C1.18802 48.1426 1.38972 48.3771 1.36935 48.6462C1.27094 49.95 1.25297 51.2691 1.31596 52.567C1.32767 52.8095 1.1606 53.0192 0.930756 53.0683ZM62.6199 39.7872C62.3904 39.8363 62.1525 39.7139 62.0637 39.4884C61.5864 38.2773 61.0275 37.0829 60.4023 35.9386C60.273 35.7018 60.3601 35.405 60.5969 35.2757C60.8338 35.1465 61.1305 35.2336 61.2599 35.4703C61.9044 36.6501 62.4807 37.8815 62.9728 39.1303C63.0717 39.3813 62.9483 39.665 62.6972 39.7638C62.6717 39.7739 62.6458 39.7816 62.6199 39.7872ZM1.87944 43.5896C1.80831 43.6048 1.73281 43.6043 1.6576 43.5852C1.39597 43.5189 1.2377 43.2532 1.30396 42.9917C1.63469 41.6867 2.0511 40.3908 2.5414 39.1402C2.63981 38.8889 2.92341 38.7652 3.17456 38.8636C3.42579 38.962 3.54966 39.2455 3.45117 39.4967C2.97571 40.7095 2.57195 41.9661 2.25119 43.2317C2.20391 43.4179 2.05546 43.552 1.87944 43.5896ZM57.8488 31.5438C57.6734 31.5813 57.4838 31.5205 57.3643 31.3708C56.5508 30.3518 55.6654 29.3736 54.7327 28.4635C54.5396 28.275 54.5359 27.9658 54.7244 27.7727C54.9128 27.5797 55.2222 27.5758 55.4153 27.7643C56.3768 28.7026 57.2895 29.7109 58.1281 30.7614C58.2964 30.9723 58.2619 31.2796 58.051 31.4479C57.9898 31.4968 57.9205 31.5286 57.8488 31.5438ZM5.57976 34.8075C5.46157 34.8328 5.33385 34.8146 5.22257 34.7464C4.99243 34.6056 4.92006 34.3049 5.06094 34.0748C5.76218 32.9294 6.54372 31.8159 7.38381 30.7648C7.55227 30.5542 7.85972 30.5198 8.07051 30.6882C8.28129 30.8566 8.31562 31.1639 8.14717 31.3748C7.33246 32.3941 6.57449 33.4741 5.89434 34.5849C5.82154 34.7037 5.7061 34.7805 5.57976 34.8075ZM50.8655 25.0617C50.7393 25.0887 50.6027 25.066 50.4877 24.9874C49.41 24.2519 48.2757 23.5775 47.1162 22.9833C46.8761 22.8603 46.7812 22.5659 46.9043 22.3258C47.0274 22.0857 47.3218 21.9909 47.562 22.114C48.7576 22.7268 49.9274 23.4221 51.0387 24.1806C51.2615 24.3327 51.3189 24.6367 51.1667 24.8595C51.0931 24.9672 50.9838 25.0364 50.8655 25.0617ZM11.7116 27.514C11.5446 27.5497 11.3636 27.4967 11.2426 27.3595C11.0641 27.1572 11.0834 26.8485 11.2858 26.67C12.2938 25.7812 13.3677 24.9466 14.4774 24.1893C14.7005 24.0372 15.0043 24.0947 15.1564 24.3175C15.3084 24.5403 15.2511 24.8443 15.0282 24.9963C13.9517 25.7309 12.91 26.5405 11.9322 27.4028C11.8671 27.4602 11.7909 27.4971 11.7116 27.514ZM42.2778 20.9302C42.199 20.947 42.115 20.9446 42.0326 20.9193C40.7896 20.5376 39.5068 20.23 38.2198 20.0048C37.954 19.9583 37.7762 19.7051 37.8228 19.4394C37.8693 19.1737 38.1225 18.9959 38.3883 19.0425C39.7151 19.2747 41.0377 19.5919 42.3194 19.9854C42.5774 20.0646 42.7223 20.3379 42.6431 20.5957C42.5892 20.7711 42.4454 20.8943 42.2778 20.9302ZM19.7112 22.3423C19.4914 22.3894 19.2608 22.279 19.1644 22.0658C19.0531 21.82 19.1622 21.5305 19.4081 21.4194C20.6332 20.8652 21.9046 20.3834 23.187 19.9871C23.4446 19.9069 23.7184 20.0518 23.798 20.3096C23.8777 20.5673 23.7333 20.8409 23.4755 20.9205C22.2319 21.3048 20.9989 21.7721 19.8108 22.3094C19.7782 22.3242 19.7449 22.3351 19.7112 22.3423ZM32.856 19.516C32.8227 19.5231 32.7882 19.5268 32.7528 19.5268C31.4471 19.5255 30.1302 19.6064 28.8388 19.7672C28.571 19.8005 28.3269 19.6106 28.2936 19.3428C28.2602 19.0751 28.4507 18.832 28.718 18.7977C30.0497 18.6319 31.4075 18.5485 32.7538 18.5498C33.0236 18.5501 33.2422 18.7691 33.2419 19.0389C33.2416 19.2732 33.0763 19.4689 32.856 19.516Z" fill="#0A0A0A"/>
<path d="M58.392 69.0234H236.974C244.644 69.0234 250.883 75.2622 250.883 82.9296C250.883 90.5969 244.644 96.8357 236.974 96.8357H58.392C50.7228 96.8357 44.4828 90.5969 44.4828 82.9296C44.4828 75.2622 50.7228 69.0234 58.392 69.0234Z" fill="white" stroke="#FF260F"/>
<path d="M58.392 67.6641H236.974C245.393 67.6641 252.243 74.5126 252.243 82.9293C252.243 91.3459 245.393 98.1944 236.974 98.1944H58.392C49.9732 98.1944 43.1235 91.3459 43.1235 82.9293C43.1235 74.5126 49.9732 67.6641 58.392 67.6641Z" fill="white" stroke="#FF260F"/>
<path d="M236.974 98.1944H58.392C49.9732 98.1944 43.1235 91.3459 43.1235 82.9292C43.1235 74.5125 49.9732 67.6641 58.392 67.6641H236.974C245.393 67.6641 252.243 74.5126 252.243 82.9292C252.243 91.3459 245.393 98.1944 236.974 98.1944ZM58.392 68.0231C50.1708 68.0231 43.4828 74.7094 43.4828 82.9293C43.4828 91.1491 50.1708 97.8354 58.392 97.8354H236.974C245.196 97.8354 251.883 91.1491 251.883 82.9293C251.883 74.7095 245.196 68.0231 236.974 68.0231H58.392Z" fill="#FFB6AE" stroke="#FF260F"/>
<path d="M68.7058 72.6152C74.403 78.3112 74.403 87.5462 68.7058 93.2423C63.0086 98.9383 53.7717 98.9383 48.0745 93.2423C42.3773 87.5462 42.3773 78.3112 48.0745 72.6152C53.7717 66.9191 63.0086 66.9191 68.7058 72.6152Z" fill="#FFB6AE" stroke="#FF260F"/>
<path d="M65.0072 89.6409L65.0071 89.6407L60.0181 84.6527L59.7153 84.35L59.9678 84.0042C61.2225 82.2865 61.0494 79.9089 59.5274 78.3874L59.5274 78.3873C58.7093 77.5692 57.6217 77.1191 56.4603 77.1191L65.0072 89.6409ZM65.0072 89.6409C65.0555 89.6891 65.0812 89.7508 65.0812 89.8197C65.0812 89.8884 65.0555 89.9502 65.0071 89.9985L65.0069 89.9988C64.9589 90.0468 64.897 90.0727 64.8279 90.0727C64.7591 90.0727 64.6972 90.0469 64.649 89.9987L64.6487 89.9984L59.6597 85.0104L59.3576 84.7084L59.0121 84.9597C58.276 85.495 57.3776 85.7882 56.4603 85.7882C55.2988 85.7882 54.2113 85.3383 53.3932 84.5201L53.3931 84.52M65.0072 89.6409L53.3931 84.52M53.3931 84.52C52.5748 83.7019 52.1247 82.6148 52.1247 81.4537C52.1247 80.2927 52.5748 79.2055 53.3931 78.3874C54.2114 77.5692 55.2989 77.1192 56.4603 77.1191L53.3931 84.52ZM59.1693 84.1622L59.1693 84.1622C60.6632 82.6684 60.6632 80.2389 59.1693 78.7451L59.1693 78.7451C58.447 78.0231 57.4832 77.625 56.4603 77.625C55.4373 77.625 54.4736 78.0231 53.7513 78.7451L53.7512 78.7451C52.2573 80.2389 52.2573 82.6684 53.7512 84.1622L53.7512 84.1622C55.2452 85.6559 57.6753 85.6559 59.1693 84.1622Z" fill="white" stroke="#FF260F"/>
<path d="M236.237 82.2878C236.237 83.8969 234.918 85.2157 233.308 85.2157C231.698 85.2157 230.38 83.8969 230.38 82.2878C230.38 82.2878 230.38 82.2878 230.38 82.2878V77.9973C230.38 76.3881 231.698 75.0693 233.308 75.0693C234.918 75.0693 236.237 76.3881 236.237 77.9973V82.2878Z" fill="#FFB6AE" stroke="#FF260F"/>
<path d="M233.266 87.9238V87.4686L232.813 87.426C230.146 87.1757 228.051 84.9238 228.051 82.1936C228.051 82.1703 228.07 82.1514 228.093 82.1514C228.117 82.1514 228.136 82.1704 228.136 82.1936C228.136 85.0458 230.456 87.3651 233.308 87.3651C236.161 87.3651 238.481 85.0458 238.481 82.1936C238.481 82.1704 238.499 82.1514 238.523 82.1514C238.547 82.1514 238.565 82.1704 238.565 82.1936C238.565 84.9238 236.471 87.1757 233.804 87.426L233.351 87.4686V87.9238V90.2048V90.7048H233.851H235.766C235.789 90.7048 235.808 90.7238 235.808 90.7471C235.808 90.7703 235.789 90.7893 235.766 90.7893H230.85C230.827 90.7893 230.808 90.7703 230.808 90.7471C230.808 90.7238 230.827 90.7048 230.85 90.7048H232.766H233.266V90.2048V87.9238Z" fill="#FFB6AE" stroke="#FF260F"/>
<path d="M186.419 147.583L186.379 147.623C185.046 148.913 182.919 148.9 181.602 147.583L157.886 123.872L157.886 123.872L155.3 121.285C157.168 119.968 158.799 118.338 160.116 116.47L186.419 142.767C187.749 144.097 187.749 146.253 186.419 147.583Z" fill="#FFF3F1" stroke="#FF260F"/>
<path d="M159.088 125.072L159.088 125.072L156.501 122.486C158.37 121.169 160.001 119.538 161.318 117.67L166.779 123.131C165.479 125.012 163.845 126.645 161.963 127.947L159.088 125.072Z" fill="#0A0A0A" stroke="#FF260F"/>
<path d="M125.207 111.881L125.207 111.881C124.424 109.747 123.997 107.442 123.997 105.038C123.997 104.134 124.058 103.243 124.176 102.371L125.207 111.881ZM125.207 111.881C126.583 115.625 129.051 118.84 132.226 121.137M125.207 111.881L132.226 121.137M160.46 115.965L160.46 115.965C158.975 118.214 157.045 120.145 154.795 121.63L154.795 121.63C154.242 121.994 153.671 122.331 153.082 122.64C153.082 122.64 153.082 122.64 153.082 122.64L152.85 122.197L160.46 115.965ZM160.46 115.965C161.619 114.21 162.506 112.261 163.062 110.175C163.426 108.815 163.648 107.398 163.713 105.94M160.46 115.965L124.176 102.371C125.165 95.0033 130.192 88.9169 136.957 86.4082C139.109 85.6101 141.437 85.174 143.866 85.174C144.744 85.174 145.608 85.2308 146.457 85.3422C150.486 85.8661 154.135 87.5974 157.031 90.1603C161.141 93.7988 163.734 99.1157 163.734 105.038C163.734 105.34 163.727 105.641 163.713 105.94M132.226 121.137C135.497 123.505 139.519 124.901 143.866 124.901M132.226 121.137L143.866 124.901M143.866 124.901C145.671 124.901 147.422 124.661 149.086 124.208L143.866 124.901ZM163.713 105.94C163.713 105.94 163.713 105.94 163.713 105.94L163.213 105.918L163.713 105.941C163.713 105.941 163.713 105.941 163.713 105.94ZM166.903 104.043L166.903 104.043C166.917 104.374 166.924 104.705 166.924 105.038V105.038C166.924 107.252 166.612 109.393 166.03 111.418C165.326 113.871 164.223 116.157 162.798 118.202H162.557V118.542C161.084 120.576 159.288 122.359 157.243 123.818L157.165 123.873C153.408 126.531 148.82 128.092 143.866 128.092C139.393 128.092 135.218 126.819 131.683 124.616C131.173 124.298 130.676 123.96 130.194 123.604L130.194 123.604C127.255 121.437 124.849 118.591 123.21 115.297V115.297L123.159 115.192C122.017 112.87 121.255 110.328 120.953 107.646C120.857 106.79 120.807 105.92 120.807 105.038C120.807 92.3051 131.131 81.9834 143.866 81.9834C149.654 81.9834 154.943 84.1152 158.992 87.6376L158.993 87.6377C162.928 91.0594 165.69 95.7941 166.599 101.158L166.599 101.158C166.759 102.102 166.862 103.064 166.903 104.043Z" fill="#FFF3F1" stroke="#FF260F"/>
<path d="M127.891 105.359C127.891 106.081 128.477 106.667 129.199 106.667C129.922 106.667 130.508 106.081 130.508 105.359C130.508 101.707 131.932 98.271 134.515 95.6887L127.891 105.359ZM127.891 105.359C127.891 101.006 129.585 96.9164 132.664 93.8384M127.891 105.359L132.664 93.8384M132.664 93.8384C135.742 90.7605 139.833 89.0664 144.187 89.0664M132.664 93.8384L144.187 89.0664M144.187 89.0664C144.91 89.0664 145.496 89.6523 145.496 90.3748M144.187 89.0664L145.496 90.3748M145.496 90.3748C145.496 91.0972 144.91 91.6831 144.187 91.6831M145.496 90.3748L144.187 91.6831M144.187 91.6831C140.534 91.6831 137.097 93.1063 134.515 95.6887L144.187 91.6831Z" fill="#F2F8FF" stroke="#FF260F"/>
<path d="M247.33 139.741L268.748 121.647L261.007 146.785L259.908 150.351L256.72 147.661L256.72 147.661L247.33 139.741Z" fill="#FFB6AE" stroke="#FF260F"/>
<path d="M241.032 136.157L229.738 132.415L265.862 121.82L241.032 136.157Z" fill="#FFF3F1" stroke="#FF260F"/>
<path d="M265.121 123.403L246.233 139.36L246.154 139.426L246.108 139.518L242.45 146.831L241.613 136.977L265.121 123.403Z" fill="#0A0A0A" stroke="#FF260F"/>
<path d="M211.165 32.6535L220.523 23.4482C222.88 21.1294 226.259 19.793 229.819 19.793C230.528 19.793 230.884 20.225 230.884 20.5197V33.0614V45.1235C230.884 45.1587 230.865 45.2547 230.768 45.4058C230.676 45.5491 230.537 45.7052 230.367 45.8505C230.01 46.156 229.614 46.3298 229.351 46.3298H224.239L211.165 33.4692C211.165 33.4692 211.165 33.4692 211.165 33.4692C210.922 33.2302 210.922 32.8926 211.165 32.6535C211.165 32.6535 211.165 32.6535 211.165 32.6535Z" fill="#FFF3F1" stroke="#FF260F"/>
<path d="M209.669 32.6477L210.02 32.2912L209.669 32.6477C209.912 32.8867 209.912 33.2244 209.669 33.4635L196.595 46.3246L191.318 46.3408C191.318 46.3408 191.317 46.3408 191.317 46.3408C191.043 46.3405 190.688 46.1883 190.386 45.9283C190.069 45.6551 189.95 45.3876 189.95 45.2654V33.0556V20.5138C189.95 20.2191 190.306 19.7871 191.015 19.7871C194.575 19.7871 197.954 21.1235 200.311 23.4424L209.669 32.6477Z" fill="#FFF3F1" stroke="#FF260F"/>
<path d="M230.884 40.3793L211.32 28.4005C211.32 28.4005 211.32 28.4004 211.32 28.4004C211.053 28.2371 210.713 28.1524 210.365 28.1618L230.884 40.3793ZM230.884 40.3793V45.4052C230.884 45.6143 230.775 45.8375 230.533 46.0241C230.289 46.2112 229.932 46.3411 229.516 46.3411H191.317C190.902 46.3411 190.545 46.2112 190.301 46.0241C190.058 45.8374 189.949 45.6143 189.949 45.4052V40.3793L209.514 28.4005C209.514 28.4005 209.514 28.4004 209.514 28.4004C209.753 28.2541 210.052 28.1704 210.365 28.1618L230.884 40.3793Z" fill="#FFB6AE" stroke="#FF260F"/>
<path d="M230.884 38.1479L230.884 39.2064L220.515 32.856L230.884 38.1479Z" fill="#0A0A0A" stroke="#FF260F"/>
<path d="M189.949 39.2064L189.949 38.1479L200.319 32.856L189.949 39.2064Z" fill="#0A0A0A" stroke="#FF260F"/>
<path d="M193.843 20.9174L192.546 19.7959H228.155L226.857 20.9172L211.143 34.4942C210.675 34.8201 210.01 34.8201 209.542 34.4942L193.843 20.9174L193.516 21.2956L193.843 20.9174Z" fill="#0A0A0A" stroke="#FF260F"/>
<path d="M206.779 56.9218H206.61C206.505 56.9218 206.42 56.837 206.42 56.7325V51.9979C206.42 51.8935 206.505 51.8086 206.61 51.8086H206.779C206.884 51.8086 206.969 51.8935 206.969 51.9979V56.7325C206.969 56.837 206.884 56.9218 206.779 56.9218Z" fill="#7B7B7B" stroke="#FF260F"/>
<path d="M210.351 61.22C210.2 61.22 210.077 61.0972 210.077 60.946V52.0826C210.077 51.9314 210.2 51.8086 210.351 51.8086C210.502 51.8086 210.625 51.9314 210.625 52.0826V60.946C210.625 61.0972 210.503 61.22 210.351 61.22Z" fill="#7B7B7B" stroke="#FF260F"/>
<path d="M214.008 55.2328C213.856 55.2328 213.733 55.11 213.733 54.9588V52.235C213.733 52.0838 213.856 51.9609 214.008 51.9609C214.159 51.9609 214.282 52.0837 214.282 52.235V54.9588C214.282 55.11 214.159 55.2328 214.008 55.2328Z" fill="#7B7B7B" stroke="#FF260F"/>
<path d="M206.694 59.6572C206.543 59.6572 206.42 59.5344 206.42 59.3832V58.7018C206.42 58.5505 206.543 58.4277 206.694 58.4277C206.846 58.4277 206.969 58.5505 206.969 58.7018V59.3831C206.969 59.3831 206.969 59.3831 206.969 59.3832C206.969 59.5345 206.846 59.6572 206.694 59.6572Z" fill="#7B7B7B" stroke="#FF260F"/>
<path d="M214.008 59.8005C213.856 59.8005 213.733 59.6777 213.733 59.5265V57.483C213.733 57.3318 213.856 57.209 214.008 57.209C214.159 57.209 214.282 57.3318 214.282 57.483V59.5265C214.282 59.6777 214.159 59.8005 214.008 59.8005Z" fill="#7B7B7B" stroke="#FF260F"/>
<path d="M85.0113 37.8012C85.0113 42.013 81.5962 45.4276 77.3832 45.4276C73.1703 45.4276 69.7551 42.013 69.7551 37.8012C69.7551 33.5894 73.1703 30.1748 77.3832 30.1748C81.5962 30.1749 85.0113 33.5894 85.0113 37.8012Z" fill="#FFB6AE" stroke="#FF260F"/>
<path d="M84.7439 30.442L84.7439 30.4419C82.7737 28.4721 80.1611 27.3887 77.3832 27.3887C74.6057 27.3887 71.9928 28.4721 70.0225 30.4419C68.0522 32.4118 66.9687 35.0238 66.9687 37.801C66.9687 40.5782 68.0523 43.1902 70.0225 45.16L69.669 45.5136L70.0225 45.16C71.9927 47.1299 74.6053 48.2133 77.3832 48.2133C77.7231 48.2133 78.0587 48.197 78.3901 48.1651M84.7439 30.442L78.3901 48.1651M84.7439 30.442C86.7142 32.4118 87.7978 35.0238 87.7978 37.801C87.7978 43.2018 83.6615 47.6571 78.3901 48.1651M84.7439 30.442L78.3901 48.1651M78.3182 47.433L78.3182 47.433C78.0106 47.4626 77.6983 47.4778 77.3832 47.4778C74.8026 47.4778 72.3717 46.4692 70.5425 44.6405L70.5425 44.6405C68.7134 42.8117 67.7045 40.3813 67.7045 37.8011C67.7045 35.2208 68.7134 32.7904 70.5425 30.9616L78.3182 47.433ZM78.3182 47.433C83.2187 46.9613 87.0619 42.8225 87.0619 37.801M78.3182 47.433L87.0619 37.801M87.0619 37.801C87.0619 32.4647 82.7204 28.1242 77.3831 28.1242C77.067 28.1242 76.753 28.1394 76.442 28.1694C74.2149 28.3839 72.1469 29.3575 70.5425 30.9616L87.0619 37.801Z" fill="#FFF3F1" stroke="#FF260F"/>
<path d="M79.7394 37.0791V38.7568C79.7394 39.2655 79.8103 39.6466 79.9605 40.0155C79.9993 40.1107 80.0433 40.2044 80.0913 40.298H74.6752C74.7233 40.2044 74.7673 40.1107 74.806 40.0155C74.9563 39.6466 75.0271 39.2655 75.0271 38.7568V37.0791C75.0271 35.7783 76.0818 34.7236 77.3832 34.7236H77.3833C78.6846 34.7236 79.7394 35.7783 79.7394 37.0791Z" fill="white" stroke="#FF260F"/>
<path d="M77.3833 41.7536C77.2776 41.7536 77.1786 41.7252 77.0934 41.6758H77.6731C77.5879 41.7252 77.4889 41.7536 77.3833 41.7536Z" fill="white" stroke="#FF260F"/>
<mask id="path-73-inside-1_638_3704" fill="white">
<path d="M77.3833 33.3486C76.9001 33.3486 76.5085 33.7402 76.5085 34.2232C76.5085 34.7062 76.9002 35.0978 77.3833 35.0978C77.8664 35.0978 78.2581 34.7062 78.2581 34.2232C78.2581 33.7402 77.8664 33.3486 77.3833 33.3486ZM77.3833 34.7487C77.093 34.7487 76.8577 34.5135 76.8577 34.2232C76.8577 33.933 77.093 33.6978 77.3833 33.6978C77.6736 33.6978 77.9088 33.933 77.9088 34.2232C77.9088 34.5135 77.6735 34.7487 77.3833 34.7487Z"/>
</mask>
<path d="M77.3833 33.3486C76.9001 33.3486 76.5085 33.7402 76.5085 34.2232C76.5085 34.7062 76.9002 35.0978 77.3833 35.0978C77.8664 35.0978 78.2581 34.7062 78.2581 34.2232C78.2581 33.7402 77.8664 33.3486 77.3833 33.3486ZM77.3833 34.7487C77.093 34.7487 76.8577 34.5135 76.8577 34.2232C76.8577 33.933 77.093 33.6978 77.3833 33.6978C77.6736 33.6978 77.9088 33.933 77.9088 34.2232C77.9088 34.5135 77.6735 34.7487 77.3833 34.7487Z" fill="white"/>
<path d="M77.3833 32.3486C76.3479 32.3486 75.5085 33.1878 75.5085 34.2232H77.5085C77.5085 34.2927 77.4522 34.3486 77.3833 34.3486V32.3486ZM75.5085 34.2232C75.5085 35.2587 76.3481 36.0978 77.3833 36.0978V34.0978C77.4523 34.0978 77.5085 34.1538 77.5085 34.2232H75.5085ZM77.3833 36.0978C78.4185 36.0978 79.2581 35.2587 79.2581 34.2232H77.2581C77.2581 34.1538 77.3143 34.0978 77.3833 34.0978V36.0978ZM79.2581 34.2232C79.2581 33.1878 78.4185 32.3486 77.3833 32.3486V34.3486C77.3143 34.3486 77.2581 34.2927 77.2581 34.2232H79.2581ZM77.3833 33.7487C77.6451 33.7487 77.8577 33.961 77.8577 34.2232H75.8577C75.8577 35.0659 76.5409 35.7487 77.3833 35.7487V33.7487ZM77.8577 34.2232C77.8577 34.4855 77.6451 34.6978 77.3833 34.6978V32.6978C76.5409 32.6978 75.8577 33.3805 75.8577 34.2232H77.8577ZM77.3833 34.6978C77.1215 34.6978 76.9088 34.4855 76.9088 34.2232H78.9088C78.9088 33.3805 78.2256 32.6978 77.3833 32.6978V34.6978ZM76.9088 34.2232C76.9088 33.9609 77.1215 33.7487 77.3833 33.7487V35.7487C78.2255 35.7487 78.9088 35.066 78.9088 34.2232H76.9088Z" fill="#FF260F" mask="url(#path-73-inside-1_638_3704)"/>
<path d="M78.5354 115.179L78.5355 115.179L75.8175 109.566C75.8175 109.566 75.8175 109.566 75.8175 109.566C75.5189 108.95 74.7771 108.692 74.1606 108.991L74.1606 108.991L57.2291 117.187L57.2291 117.187C56.6127 117.485 56.3549 118.227 56.6534 118.843C56.6534 118.843 56.6534 118.843 56.6534 118.843L72.1552 150.853L71.7159 151.066L72.1552 150.853C72.4218 151.403 73.0432 151.668 73.6125 151.504L73.6453 151.495C73.7013 151.477 73.7569 151.455 73.8121 151.429C73.8122 151.429 73.8122 151.429 73.8123 151.429L90.7432 143.232L78.5354 115.179ZM78.5354 115.179L78.5387 115.185M78.5354 115.179L78.5387 115.185M78.5387 115.185L78.5396 115.187M78.5387 115.185L78.5396 115.187M78.5396 115.187L78.5397 115.187M78.5396 115.187L78.5397 115.187M78.5397 115.187L91.3192 141.576L91.7692 141.358L91.3192 141.576C91.5858 142.126 91.4083 142.778 90.9269 143.123L90.8986 143.143M78.5397 115.187L90.8986 143.143M90.8986 143.143C90.8499 143.176 90.7983 143.206 90.7435 143.232L90.8986 143.143Z" fill="#FFB6AE" stroke="#FF260F"/>
<path d="M91.7692 141.358L91.3192 141.576L83.197 124.804C83.5991 126.197 83.974 127.672 84.2848 129.186C85.0695 133.01 85.4532 137.121 84.8102 140.812C84.377 143.3 83.4744 145.611 81.9069 147.51L90.7432 143.232L91.7692 141.358ZM91.7692 141.358L91.3192 141.576C91.5858 142.126 91.4082 142.778 90.9268 143.123L90.8986 143.143M91.7692 141.358L90.8986 143.143M90.8986 143.143C90.8499 143.176 90.7982 143.206 90.7435 143.232L90.8986 143.143Z" fill="#FFF3F1" stroke="#FF260F"/>
<path d="M74.8403 110.469L74.8403 110.469L88.5437 138.765C88.5437 138.765 88.5437 138.765 88.5437 138.765C88.6108 138.904 88.5529 139.07 88.4143 139.137L88.4143 139.137L72.0432 147.062C71.9044 147.13 71.7376 147.072 71.6706 146.933L71.2206 147.151L71.6706 146.933L57.9671 118.637C57.9671 118.637 57.9671 118.637 57.9671 118.637C57.9002 118.498 57.958 118.332 58.0966 118.265L58.0966 118.265L74.4677 110.34L74.4678 110.34C74.6066 110.272 74.7733 110.331 74.8403 110.469Z" fill="white" stroke="#FF260F"/>
<path d="M67.5991 113.664L71.4138 111.818L64.4152 131.951L62.5683 128.137L67.5991 113.664Z" fill="#F2F8FF" stroke="#FF260F"/>
<path d="M71.6707 146.933L71.6707 146.933L69.9018 143.28L78.6066 118.245L83.4912 128.332L77.9792 144.189L72.0433 147.062C71.9045 147.129 71.7377 147.071 71.6707 146.933Z" fill="#F2F8FF" stroke="#FF260F"/>
<path d="M82.6937 141.907L80.864 142.792L84.888 131.216L85.7739 133.045L82.6937 141.907Z" fill="#F2F8FF" stroke="#FF260F"/>
<path d="M68.8696 113.82L68.8695 113.82L68.8696 113.82Z" fill="#9DBDE4" stroke="#FF260F"/>
<path d="M68.8695 113.82L68.8695 113.82L68.8695 113.82Z" fill="#8DB3E0" stroke="#FF260F"/>
<mask id="path-83-inside-2_638_3704" fill="white">
<path d="M88.6827 139.692L72.3117 147.617C71.8675 147.832 71.3311 147.645 71.1161 147.201L57.4127 118.905C57.1976 118.461 57.384 117.925 57.8282 117.71L74.1993 109.785C74.6435 109.57 75.1798 109.756 75.3949 110.2L89.0983 138.496C89.2024 138.711 89.2166 138.954 89.1381 139.18C89.0597 139.406 88.8979 139.588 88.6827 139.692ZM74.3005 109.994L57.9294 117.919C57.6005 118.078 57.4625 118.475 57.6217 118.804L71.3251 147.1C71.4843 147.429 71.8815 147.567 72.2104 147.408L88.5814 139.483C88.7408 139.406 88.8605 139.271 88.9186 139.104C88.9767 138.937 88.9663 138.757 88.8891 138.598L75.1857 110.301C75.0265 109.973 74.6294 109.835 74.3005 109.994Z"/>
</mask>
<path d="M88.6827 139.692L72.3117 147.617C71.8675 147.832 71.3311 147.645 71.1161 147.201L57.4127 118.905C57.1976 118.461 57.384 117.925 57.8282 117.71L74.1993 109.785C74.6435 109.57 75.1798 109.756 75.3949 110.2L89.0983 138.496C89.2024 138.711 89.2166 138.954 89.1381 139.18C89.0597 139.406 88.8979 139.588 88.6827 139.692ZM74.3005 109.994L57.9294 117.919C57.6005 118.078 57.4625 118.475 57.6217 118.804L71.3251 147.1C71.4843 147.429 71.8815 147.567 72.2104 147.408L88.5814 139.483C88.7408 139.406 88.8605 139.271 88.9186 139.104C88.9767 138.937 88.9663 138.757 88.8891 138.598L75.1857 110.301C75.0265 109.973 74.6294 109.835 74.3005 109.994Z" fill="#0A0A0A"/>
<path d="M88.6827 139.692L88.2471 138.792L88.247 138.792L88.6827 139.692ZM72.3117 147.617L71.876 146.717L71.876 146.717L72.3117 147.617ZM71.1161 147.201L70.216 147.637L70.2161 147.637L71.1161 147.201ZM57.4127 118.905L58.3127 118.469L58.3127 118.469L57.4127 118.905ZM57.8282 117.71L57.3925 116.81L57.3925 116.81L57.8282 117.71ZM74.1993 109.785L74.635 110.685L74.635 110.685L74.1993 109.785ZM75.3949 110.2L76.2949 109.764L76.2949 109.764L75.3949 110.2ZM89.0983 138.496L89.9983 138.061L89.9983 138.06L89.0983 138.496ZM74.3005 109.994L74.7362 110.894L74.7363 110.894L74.3005 109.994ZM57.9294 117.919L58.365 118.819L58.3651 118.819L57.9294 117.919ZM57.6217 118.804L56.7217 119.24L56.7217 119.24L57.6217 118.804ZM71.3251 147.1L72.2252 146.664L72.2251 146.664L71.3251 147.1ZM72.2104 147.408L72.646 148.308L72.6461 148.308L72.2104 147.408ZM88.5814 139.483L89.0171 140.383L89.0172 140.383L88.5814 139.483ZM88.9186 139.104L89.8631 139.432L89.8632 139.432L88.9186 139.104ZM88.8891 138.598L87.9891 139.034L87.9891 139.034L88.8891 138.598ZM75.1857 110.301L74.2857 110.737L74.2857 110.737L75.1857 110.301ZM88.247 138.792L71.876 146.717L72.7474 148.517L89.1185 140.592L88.247 138.792ZM71.876 146.717C71.9287 146.691 71.9904 146.712 72.0161 146.765L70.2161 147.637C70.6719 148.578 71.8063 148.972 72.7474 148.517L71.876 146.717ZM72.0161 146.765L58.3127 118.469L56.5127 119.341L70.216 147.637L72.0161 146.765ZM58.3127 118.469C58.3385 118.522 58.3168 118.584 58.264 118.61L57.3925 116.81C56.4513 117.265 56.0568 118.4 56.5127 119.341L58.3127 118.469ZM58.2639 118.61L74.635 110.685L73.7636 108.885L57.3925 116.81L58.2639 118.61ZM74.635 110.685C74.5822 110.71 74.5206 110.689 74.4949 110.636L76.2949 109.764C75.8391 108.823 74.7048 108.429 73.7636 108.885L74.635 110.685ZM74.4949 110.636L88.1983 138.932L89.9983 138.06L76.2949 109.764L74.4949 110.636ZM88.1982 138.932C88.1935 138.922 88.1893 138.909 88.1884 138.892C88.1875 138.876 88.1899 138.862 88.1936 138.852L90.0827 139.508C90.2483 139.032 90.218 138.514 89.9983 138.061L88.1982 138.932ZM88.1936 138.852C88.1972 138.841 88.2041 138.829 88.2147 138.817C88.2254 138.805 88.2372 138.796 88.2471 138.792L89.1184 140.592C89.5723 140.372 89.9171 139.985 90.0827 139.508L88.1936 138.852ZM73.8648 109.094L57.4937 117.019L58.3651 118.819L74.7362 110.894L73.8648 109.094ZM57.4938 117.019C56.6676 117.419 56.3218 118.414 56.7217 119.24L58.5218 118.368C58.6032 118.536 58.5334 118.737 58.365 118.819L57.4938 117.019ZM56.7217 119.24L70.4251 147.536L72.2251 146.664L58.5218 118.368L56.7217 119.24ZM70.4251 147.536C70.8251 148.362 71.8203 148.707 72.646 148.308L71.7747 146.508C71.9426 146.426 72.1436 146.496 72.2252 146.664L70.4251 147.536ZM72.6461 148.308L89.0171 140.383L88.1457 138.583L71.7746 146.508L72.6461 148.308ZM89.0172 140.383C89.4152 140.19 89.7179 139.85 89.8631 139.432L87.9741 138.775C88.0031 138.692 88.0664 138.621 88.1457 138.583L89.0172 140.383ZM89.8632 139.432C90.0084 139.015 89.9819 138.56 89.7891 138.162L87.9891 139.034C87.9506 138.954 87.9451 138.859 87.9741 138.776L89.8632 139.432ZM89.7891 138.162L76.0858 109.866L74.2857 110.737L87.9891 139.034L89.7891 138.162ZM76.0858 109.866C75.6859 109.04 74.6906 108.694 73.8647 109.094L74.7363 110.894C74.5682 110.975 74.3672 110.906 74.2857 110.737L76.0858 109.866Z" fill="#FF260F" mask="url(#path-83-inside-2_638_3704)"/>
</g>
<defs>
<clipPath id="clip0_638_3704">
<rect width="284" height="166" fill="white" transform="translate(0.18042)"/>
</clipPath>
</defs>
</svg>
