<svg width="25" height="25" viewBox="0 0 25 25" fill="none" xmlns="http://www.w3.org/2000/svg">
<path d="M21.375 3.65003C21.1171 3.4832 20.8222 3.38227 20.5162 3.35612C20.2102 3.32996 19.9024 3.37938 19.62 3.50003L10.365 7.14502C10.1459 7.2342 9.91156 7.28005 9.675 7.28003H3.75C3.25272 7.28003 2.77581 7.47757 2.42417 7.8292C2.07254 8.18083 1.875 8.65774 1.875 9.15503V9.30503H0V13.805H1.875V14C1.88675 14.4895 2.08947 14.9549 2.43983 15.2969C2.7902 15.6388 3.26042 15.8302 3.75 15.83L6 20.6C6.15236 20.9212 6.39222 21.193 6.69204 21.384C6.99187 21.575 7.33949 21.6776 7.695 21.68H8.64C9.13468 21.6761 9.60775 21.4768 9.95614 21.1256C10.3045 20.7744 10.5 20.2997 10.5 19.805V16.01L19.62 19.655C19.8443 19.7443 20.0836 19.7901 20.325 19.79C20.6996 19.784 21.0643 19.6693 21.375 19.46C21.6217 19.2934 21.8252 19.0705 21.9687 18.8097C22.1121 18.5488 22.1914 18.2576 22.2 17.96V5.19503C22.1986 4.8898 22.1228 4.58952 21.979 4.32028C21.8352 4.05103 21.6279 3.82095 21.375 3.65003ZM8.625 9.15503V14H3.75V9.15503H8.625ZM8.625 19.805H7.68L5.835 15.83H8.625V19.805ZM11.055 14.225C10.8769 14.134 10.6912 14.0587 10.5 14V9.05002C10.6894 9.01095 10.875 8.95575 11.055 8.88503L20.325 5.19503V17.915L11.055 14.225ZM22.245 9.68003V13.43C22.7423 13.43 23.2192 13.2325 23.5708 12.8808C23.9225 12.5292 24.12 12.0523 24.12 11.555C24.12 11.0577 23.9225 10.5808 23.5708 10.2292C23.2192 9.87757 22.7423 9.68003 22.245 9.68003Z" fill="white"/>
</svg>
