<svg width="20" height="20" viewBox="0 0 20 20" fill="none" xmlns="http://www.w3.org/2000/svg">
<path d="M10.68 4H9.32L5 14H7L7.73 12H12.27L13 14H15L10.68 4ZM8.3 10.5L10 6L11.7 10.5H8.3ZM15.4 18.4L17 20H12V15L14 17C16.39 15.61 18 12.95 18 10C18 5.59 14.41 2 10 2C5.59 2 2 5.59 2 10C2 12.95 3.61 15.53 6 16.92V19.16C2.47 17.61 0 14.1 0 10C0 4.5 4.5 0 10 0C15.5 0 20 4.5 20 10C20 13.53 18.17 16.62 15.4 18.4Z" fill="url(#paint0_linear_690_6581)"/>
<defs>
<linearGradient id="paint0_linear_690_6581" x1="0.909091" y1="10" x2="20" y2="10" gradientUnits="userSpaceOnUse">
<stop stop-color="#FC321C"/>
<stop offset="1" stop-color="#B3308D"/>
</linearGradient>
</defs>
</svg>
