<svg width="60" height="60" viewBox="0 0 60 60" fill="none" xmlns="http://www.w3.org/2000/svg">
<path d="M30 60C46.5685 60 60 46.5685 60 30C60 13.4315 46.5685 0 30 0C13.4315 0 0 13.4315 0 30C0 46.5685 13.4315 60 30 60Z" fill="#7B7B7B"/>
<path d="M41.1884 17.9378C38.1224 16.0038 34.0824 16.464 30.4919 18.7475C26.8956 16.4582 22.8614 15.998 19.7954 17.9378C14.9485 20.9961 14.3607 28.8777 18.4814 35.5419C21.5186 40.4526 26.2675 43.3303 30.4919 43.2779C34.7163 43.3303 39.4652 40.4526 42.5024 35.5419C46.6231 28.8777 46.0353 20.9961 41.1884 17.9378ZM20.706 34.138C19.8415 32.7341 19.2018 31.2544 18.8041 29.7399C18.4295 28.3127 18.2912 26.9146 18.3949 25.5922C18.5793 23.1281 19.5706 21.2116 21.1843 20.1922C22.798 19.1727 24.9419 19.1087 27.2069 20.0232C27.5469 20.1631 27.8869 20.3203 28.2212 20.4951C27.0109 21.6019 25.8986 22.9359 24.9534 24.4621C22.4522 28.5107 21.6915 33.0078 22.5617 36.6021C21.8817 35.8564 21.2592 35.0292 20.706 34.138ZM42.1797 29.734C41.782 31.2544 41.1481 32.7341 40.2778 34.1321C39.7245 35.0292 39.1021 35.8506 38.4163 36.5962C39.1943 33.3807 38.6699 29.4369 36.7507 25.7437C36.6182 25.4816 36.307 25.4 36.0591 25.5515L30.0942 29.3204C29.8637 29.4661 29.7945 29.769 29.9386 30.002L30.8146 31.4175C30.9587 31.6506 31.2584 31.7205 31.4889 31.5748L35.356 29.134C35.4828 29.5068 35.6039 29.8855 35.7018 30.27C36.0764 31.6972 36.2148 33.0952 36.111 34.4176C35.9266 36.8817 34.9353 38.7982 33.3216 39.8176C32.5148 40.3303 31.5754 40.5982 30.5553 40.6273H30.4285C29.4084 40.5982 28.469 40.3303 27.6622 39.8176C26.0485 38.7982 25.0572 36.8817 24.8728 34.4176C24.7748 33.0952 24.9131 31.6972 25.282 30.27C25.6738 28.7495 26.3136 27.2699 27.1838 25.8719C28.0483 24.468 29.0857 23.2388 30.2614 22.2136C31.3679 21.2466 32.5494 20.5126 33.7712 20.0232C36.0419 19.1087 38.18 19.1727 39.7937 20.1922C41.4074 21.2116 42.3987 23.1281 42.5831 25.5922C42.6868 26.9088 42.5485 28.3068 42.1797 29.734Z" fill="white"/>
</svg>
