<svg width="383" height="242" viewBox="0 0 383 242" fill="none" xmlns="http://www.w3.org/2000/svg">
<path d="M71.2008 194.65H47.5439V226.195H71.2008V194.65Z" fill="white"/>
<path d="M115.463 181.357H91.8057V226.194H115.463V181.357Z" fill="white"/>
<path d="M159.723 167.854H136.066V226.194H159.723V167.854Z" fill="white"/>
<path d="M203.985 170.807H180.328V226.194H203.985V170.807Z" fill="white"/>
<path d="M248.247 137.932H224.59V226.195H248.247V137.932Z" fill="white"/>
<path d="M292.507 120.551H268.851V226.193H292.507V120.551Z" fill="white"/>
<path d="M336.769 102.443H313.112V226.194H336.769V102.443Z" fill="#FFC6BF"/>
<path d="M71.2008 206.137H47.5439V226.195H71.2008V206.137Z" fill="url(#paint0_linear_1220_11572)"/>
<path d="M115.463 197.684H91.8057V226.195H115.463V197.684Z" fill="url(#paint1_linear_1220_11572)"/>
<path d="M159.723 189.096H136.066V226.194H159.723V189.096Z" fill="url(#paint2_linear_1220_11572)"/>
<path d="M203.985 190.975H180.328V226.194H203.985V190.975Z" fill="url(#paint3_linear_1220_11572)"/>
<path d="M248.247 161.994H224.59V226.194H248.247V161.994Z" fill="url(#paint4_linear_1220_11572)"/>
<path d="M292.507 146.807H268.851V226.195H292.507V146.807Z" fill="url(#paint5_linear_1220_11572)"/>
<path d="M336.769 121.779H313.112V226.194H336.769V121.779Z" fill="url(#paint6_linear_1220_11572)"/>
<path opacity="0.27" d="M321.124 127.355H320.774C319.964 127.355 319.308 128.012 319.308 128.821V220.13C319.308 220.94 319.964 221.596 320.774 221.596H321.124C321.934 221.596 322.591 220.94 322.591 220.13V128.822C322.591 128.012 321.934 127.355 321.124 127.355Z" fill="white"/>
<path opacity="0.27" d="M275.747 153.443H275.397C274.587 153.443 273.931 154.1 273.931 154.909V220.13C273.931 220.939 274.587 221.596 275.397 221.596H275.747C276.557 221.596 277.214 220.939 277.214 220.13V154.909C277.214 154.1 276.557 153.443 275.747 153.443Z" fill="white"/>
<path opacity="0.27" d="M232.8 168.658H232.45C231.64 168.658 230.983 169.315 230.983 170.124V220.131C230.983 220.94 231.64 221.597 232.45 221.597H232.8C233.61 221.597 234.267 220.94 234.267 220.131V170.124C234.267 169.315 233.61 168.658 232.8 168.658Z" fill="white"/>
<path opacity="0.27" d="M188.616 195.127H188.267C187.456 195.127 186.8 195.783 186.8 196.593V220.13C186.8 220.94 187.457 221.596 188.267 221.596H188.616C189.426 221.596 190.083 220.94 190.083 220.13V196.593C190.083 195.783 189.426 195.127 188.616 195.127Z" fill="white"/>
<path opacity="0.27" d="M145.026 192.336H144.677C143.867 192.336 143.21 192.992 143.21 193.802V220.13C143.21 220.94 143.867 221.596 144.677 221.596H145.026C145.837 221.596 146.493 220.939 146.493 220.13V193.802C146.493 192.992 145.837 192.336 145.026 192.336Z" fill="white"/>
<path opacity="0.27" d="M100.697 201.062H100.348C99.5375 201.062 98.8809 201.719 98.8809 202.528V220.131C98.8809 220.941 99.5376 221.597 100.348 221.597H100.697C101.507 221.597 102.164 220.941 102.164 220.131V202.528C102.164 201.719 101.507 201.062 100.697 201.062Z" fill="white"/>
<path opacity="0.27" d="M56.7461 211.939H56.3965C55.5864 211.939 54.9297 212.596 54.9297 213.405V220.131C54.9297 220.94 55.5864 221.597 56.3965 221.597H56.7461C57.5562 221.597 58.2129 220.94 58.2129 220.131V213.405C58.2129 212.596 57.5562 211.939 56.7461 211.939Z" fill="white"/>
<path d="M212.289 130.133C240.119 130.133 262.679 107.586 262.679 79.7717C262.679 51.9578 240.119 29.4102 212.289 29.4102C184.46 29.4102 161.899 51.9578 161.899 79.7717C161.899 107.586 184.46 130.133 212.289 130.133Z" fill="white"/>
<path d="M212.289 119.646C206.904 119.646 201.679 118.591 196.759 116.511C192.008 114.503 187.742 111.628 184.078 107.967C180.415 104.305 177.538 100.041 175.529 95.2925C173.448 90.3754 172.393 85.1533 172.393 79.771C172.393 74.3888 173.448 69.1666 175.529 64.2495C177.538 59.5011 180.415 55.2369 184.078 51.5755C187.742 47.9141 192.008 45.0392 196.759 43.0308C201.679 40.9511 206.904 39.8965 212.289 39.8965C217.675 39.8965 222.9 40.951 227.82 43.0308C232.571 45.0393 236.837 47.9141 240.501 51.5755C244.164 55.2369 247.041 59.5011 249.05 64.2495C251.131 69.1667 252.186 74.3888 252.186 79.771C252.186 85.1533 251.131 90.3754 249.05 95.2925C247.041 100.041 244.164 104.305 240.501 107.967C236.837 111.628 232.571 114.503 227.82 116.511C222.9 118.591 217.675 119.646 212.289 119.646ZM212.289 43.6206C192.345 43.6206 176.119 59.8376 176.119 79.7709C176.119 99.7043 192.345 115.921 212.289 115.921C232.234 115.921 248.46 99.7043 248.46 79.7709C248.46 59.8376 232.234 43.6206 212.289 43.6206Z" fill="url(#paint7_linear_1220_11572)"/>
<path d="M212.289 106.011C208.745 106.011 205.307 105.317 202.069 103.949C198.942 102.627 196.135 100.735 193.724 98.3259C191.313 95.9167 189.421 93.1106 188.098 89.9858C186.729 86.7495 186.034 83.3129 186.034 79.7713C186.034 76.2297 186.729 72.7931 188.098 69.5569C189.421 66.432 191.313 63.6261 193.724 61.2168C196.135 58.8075 198.942 56.9158 202.069 55.5941C205.307 54.2253 208.745 53.5312 212.289 53.5312C215.833 53.5312 219.271 54.2253 222.509 55.5941C225.636 56.9158 228.443 58.8076 230.854 61.2168C233.265 63.626 235.157 66.432 236.48 69.5569C237.849 72.7931 238.544 76.2298 238.544 79.7713C238.544 83.3128 237.849 86.7495 236.48 89.9858C235.157 93.1107 233.265 95.9167 230.854 98.3259C228.443 100.735 225.636 102.627 222.509 103.949C219.271 105.317 215.833 106.011 212.289 106.011ZM212.289 57.2555C199.867 57.2555 189.76 67.356 189.76 79.7713C189.76 92.1866 199.867 102.287 212.289 102.287C224.711 102.287 234.818 92.1866 234.818 79.7713C234.818 67.356 224.711 57.2555 212.289 57.2555Z" fill="url(#paint8_linear_1220_11572)"/>
<path d="M212.289 85.9038C215.678 85.9038 218.424 83.1586 218.424 79.7722C218.424 76.3858 215.678 73.6406 212.289 73.6406C208.901 73.6406 206.154 76.3858 206.154 79.7722C206.154 83.1586 208.901 85.9038 212.289 85.9038Z" fill="url(#paint9_linear_1220_11572)"/>
<path d="M156.412 66.4554C155.339 66.1798 154.691 65.0845 154.965 64.0136C155.19 63.1259 155.99 62.5039 156.91 62.5039C157.103 62.5039 157.295 62.5319 157.481 62.5872L211.648 78.5916C212.154 78.741 212.447 79.2676 212.307 79.7757C212.167 80.2837 211.645 80.586 211.134 80.4553L156.412 66.4554Z" fill="#FF8331"/>
<path d="M153.903 57.7476L155.78 61.7282L155.936 58.3815L160.47 59.7946L163.56 66.2583L157.341 69.8186L147.86 66.8628L148.913 65.2914C148.845 65.3273 146.682 66.4958 146.61 66.4734L143.621 65.5416L149.594 61.9047L146.749 55.5176L153.903 57.7476Z" fill="url(#paint10_linear_1220_11572)"/>
<path d="M165.817 207.618C165.544 207.647 165.267 207.663 164.989 207.663C162.856 207.664 160.855 206.789 159.352 205.2C157.865 203.627 157.046 201.54 157.045 199.323C157.044 197.106 157.861 195.018 159.346 193.443C160.847 191.853 162.848 190.976 164.979 190.975C169.357 190.972 172.921 194.713 172.923 199.314C172.924 201.532 172.107 203.62 170.622 205.194C169.318 206.577 167.636 207.42 165.817 207.618ZM164.385 193.121C163.065 193.264 161.84 193.881 160.885 194.894C159.772 196.074 159.159 197.646 159.16 199.322C159.161 200.997 159.775 202.569 160.89 203.748C161.988 204.91 163.443 205.55 164.987 205.549C166.531 205.548 167.986 204.907 169.083 203.744C170.197 202.564 170.809 200.991 170.808 199.316C170.806 195.88 168.192 193.087 164.981 193.089C164.781 193.089 164.582 193.1 164.385 193.121Z" fill="#E66C07"/>
<path d="M181.784 198.039L148.183 198.057C146.808 198.058 145.695 199.172 145.695 200.546L145.708 223.708C145.709 225.082 146.823 226.194 148.198 226.194L181.8 226.176C183.174 226.175 184.288 225.061 184.287 223.687L184.274 200.525C184.274 199.151 183.159 198.038 181.784 198.039Z" fill="url(#paint11_linear_1220_11572)"/>
<path opacity="0.68" d="M181.674 198.039L148.293 198.057C146.857 198.058 145.694 199.221 145.695 200.656L145.699 207.341L164.611 214.229L184.278 207.317L184.274 200.635C184.273 199.201 183.109 198.038 181.674 198.039Z" fill="white"/>
<path d="M165.659 211.189L163.879 211.19C163.616 211.191 163.402 211.404 163.402 211.668L163.405 216.445C163.405 216.709 163.619 216.922 163.882 216.922L165.662 216.921C165.926 216.921 166.139 216.707 166.139 216.444L166.136 211.666C166.136 211.403 165.922 211.189 165.659 211.189Z" fill="#E66C07"/>
<path d="M165.741 210.629L163.796 210.63C163.454 210.63 163.178 210.907 163.178 211.249L163.18 215.077C163.18 215.419 163.457 215.696 163.799 215.696L165.744 215.694C166.085 215.694 166.362 215.417 166.362 215.076L166.36 211.247C166.36 210.905 166.083 210.629 165.741 210.629Z" fill="white"/>
<path d="M77.4375 67.7424H73.1847C73.1059 64.5446 70.4894 61.976 67.2708 61.976C66.7461 61.976 66.2377 62.045 65.7534 62.1731C64.7642 58.8108 61.6792 56.3574 58.0245 56.3574C53.5716 56.3574 49.9617 59.9983 49.9617 64.4896C49.9617 65.6627 50.2099 66.7767 50.6532 67.784C49.095 68.0234 47.8906 69.3738 47.8906 70.9953C47.8906 72.7844 49.3552 74.2482 51.1453 74.2482H77.4375C79.2276 74.2482 80.6922 72.7844 80.6922 70.9953C80.6922 69.2062 79.2276 67.7424 77.4375 67.7424Z" fill="white"/>
<path d="M295.578 77.271H272.273C271.475 77.271 270.748 76.9446 270.222 76.418C269.696 75.8923 269.368 75.1664 269.368 74.3675C269.368 72.9201 270.444 71.7153 271.834 71.5013C271.439 70.6024 271.217 69.6078 271.217 68.5613C271.217 64.5523 274.439 61.3027 278.414 61.3027C281.675 61.3027 284.429 63.4927 285.312 66.4933C285.744 66.3794 286.198 66.3173 286.665 66.3173C289.538 66.3173 291.874 68.6103 291.944 71.4641H294.683C295.042 73.3525 295.328 75.2686 295.569 77.2001C295.572 77.2235 295.575 77.2476 295.578 77.271Z" fill="white"/>
<path d="M147.378 45.6738H144.7C144.651 43.6605 143.004 42.0433 140.977 42.0433C140.647 42.0433 140.327 42.0868 140.022 42.1674C139.399 40.0505 137.457 38.5059 135.156 38.5059C132.352 38.5059 130.079 40.7981 130.079 43.6258C130.079 44.3644 130.236 45.0658 130.515 45.7C129.534 45.8507 128.775 46.7009 128.775 47.7218C128.775 48.8481 129.697 49.7698 130.825 49.7698H147.378C148.505 49.7698 149.427 48.8482 149.427 47.7218C149.427 46.5954 148.505 45.6738 147.378 45.6738Z" fill="white"/>
<path d="M141.342 124.768L139.74 123.892C139.705 123.873 139.679 123.84 139.668 123.801L138.791 120.551C138.752 120.405 138.544 120.405 138.505 120.551L137.628 123.801C137.617 123.84 137.591 123.873 137.556 123.892L135.954 124.768C135.851 124.824 135.851 124.972 135.954 125.028L137.556 125.904C137.591 125.923 137.617 125.956 137.628 125.995L138.505 129.245C138.544 129.391 138.752 129.391 138.791 129.245L139.668 125.995C139.679 125.956 139.705 125.923 139.74 125.904L141.342 125.028C141.445 124.972 141.445 124.824 141.342 124.768Z" fill="white"/>
<path d="M280.708 90.7478L279.391 90.0281C279.362 90.0122 279.341 89.985 279.332 89.9529L278.611 87.2817C278.579 87.1613 278.408 87.1613 278.376 87.2817L277.655 89.9529C277.646 89.985 277.625 90.0122 277.596 90.0281L276.279 90.7478C276.195 90.794 276.195 90.9156 276.279 90.9619L277.596 91.6814C277.625 91.6973 277.646 91.7246 277.655 91.7567L278.376 94.4279C278.408 94.5482 278.579 94.5482 278.611 94.4279L279.332 91.7567C279.341 91.7245 279.362 91.6973 279.391 91.6814L280.708 90.9619C280.792 90.9156 280.792 90.794 280.708 90.7478Z" fill="white"/>
<path d="M50.2372 149.479L48.6357 148.603C48.6002 148.584 48.5741 148.551 48.5636 148.512L47.6868 145.262C47.6473 145.116 47.4396 145.116 47.4001 145.262L46.5234 148.512C46.5128 148.551 46.4869 148.584 46.4513 148.603L44.8497 149.479C44.7467 149.535 44.7467 149.683 44.8497 149.739L46.4513 150.615C46.4868 150.634 46.5128 150.667 46.5234 150.706L47.4001 153.956C47.4396 154.102 47.6474 154.102 47.6868 153.956L48.5636 150.706C48.5741 150.667 48.6001 150.634 48.6357 150.615L50.2372 149.739C50.3402 149.683 50.3402 149.535 50.2372 149.479Z" fill="white"/>
<path d="M130.034 63.0135L129.047 62.4741C129.025 62.4621 129.009 62.4418 129.003 62.4177L128.463 60.4153C128.438 60.3251 128.31 60.3251 128.286 60.4153L127.746 62.4177C127.739 62.4418 127.723 62.4622 127.701 62.4741L126.715 63.0135C126.651 63.0482 126.651 63.1393 126.715 63.174L127.701 63.7135C127.723 63.7255 127.739 63.7459 127.746 63.7699L128.286 65.7723C128.31 65.8625 128.438 65.8625 128.463 65.7723L129.003 63.7699C129.009 63.7458 129.025 63.7254 129.047 63.7135L130.034 63.174C130.098 63.1393 130.098 63.0482 130.034 63.0135Z" fill="white"/>
<path d="M149.454 115.424L148.719 115.022C148.703 115.013 148.691 114.998 148.686 114.98L148.283 113.488C148.265 113.421 148.17 113.421 148.152 113.488L147.749 114.98C147.744 114.998 147.732 115.013 147.716 115.022L146.981 115.424C146.933 115.45 146.933 115.518 146.981 115.543L147.716 115.945C147.732 115.954 147.744 115.969 147.749 115.987L148.152 117.479C148.17 117.547 148.265 117.547 148.283 117.479L148.686 115.987C148.691 115.969 148.703 115.954 148.719 115.945L149.454 115.543C149.501 115.518 149.501 115.45 149.454 115.424Z" fill="white"/>
<path d="M41.5089 140.508L40.7736 140.106C40.7573 140.097 40.7453 140.082 40.7405 140.064L40.338 138.572C40.3199 138.505 40.2245 138.505 40.2063 138.572L39.8038 140.064C39.799 140.082 39.7871 140.097 39.7707 140.106L39.0355 140.508C38.9882 140.534 38.9882 140.602 39.0355 140.627L39.7707 141.029C39.7871 141.038 39.799 141.053 39.8038 141.071L40.2063 142.563C40.2245 142.631 40.3199 142.631 40.338 142.563L40.7405 141.071C40.7453 141.053 40.7573 141.038 40.7736 141.029L41.5089 140.627C41.5561 140.602 41.5561 140.534 41.5089 140.508Z" fill="white"/>
<path d="M346.171 184.826L345.436 184.424C345.419 184.415 345.407 184.4 345.403 184.382L345 182.89C344.982 182.823 344.887 182.823 344.869 182.89L344.466 184.382C344.461 184.4 344.449 184.415 344.433 184.424L343.698 184.826C343.65 184.852 343.65 184.92 343.698 184.946L344.433 185.348C344.449 185.357 344.461 185.372 344.466 185.39L344.869 186.882C344.887 186.949 344.982 186.949 345 186.882L345.403 185.39C345.407 185.372 345.419 185.357 345.436 185.348L346.171 184.946C346.218 184.92 346.218 184.852 346.171 184.826Z" fill="white"/>
<path d="M184.607 146.2C184.699 146.046 184.648 145.848 184.494 145.756L182.595 144.628C182.465 144.551 182.409 144.396 182.454 144.252C182.828 143.059 182.998 141.832 182.977 140.617C182.975 140.466 183.073 140.333 183.219 140.296L185.362 139.751C185.536 139.707 185.64 139.531 185.596 139.357L184.565 135.305C184.52 135.132 184.344 135.027 184.17 135.071L182.028 135.616C181.882 135.653 181.731 135.584 181.662 135.45C181.099 134.373 180.363 133.376 179.463 132.507C179.355 132.402 179.33 132.239 179.407 132.11L180.536 130.212C180.627 130.058 180.577 129.859 180.423 129.767L176.827 127.632C176.673 127.54 176.474 127.591 176.382 127.745L175.254 129.643C175.177 129.772 175.021 129.829 174.877 129.784C173.684 129.409 172.456 129.239 171.24 129.261C171.089 129.263 170.956 129.165 170.919 129.019L170.374 126.877C170.329 126.704 170.153 126.599 169.979 126.643L165.948 127.781C165.775 127.825 165.647 127.895 165.691 128.068L166.237 130.21C166.274 130.356 166.204 130.506 166.071 130.575C164.992 131.138 163.995 131.874 163.126 132.773C163.021 132.881 162.857 132.906 162.728 132.829L160.829 131.701C160.675 131.609 160.476 131.66 160.384 131.814L158.247 135.408C158.156 135.562 158.207 135.761 158.361 135.852L160.26 136.98C160.389 137.057 160.446 137.212 160.401 137.356C160.026 138.549 159.856 139.776 159.877 140.992C159.88 141.142 159.781 141.275 159.635 141.312L157.492 141.857C157.319 141.901 157.214 142.078 157.258 142.251L158.29 146.303C158.334 146.476 158.511 146.581 158.684 146.537L160.827 145.992C160.973 145.955 161.123 146.024 161.193 146.158C161.756 147.235 162.492 148.232 163.392 149.101C163.5 149.206 163.524 149.369 163.447 149.499L162.319 151.397C162.227 151.55 162.278 151.749 162.432 151.841L166.028 153.977C166.182 154.068 166.381 154.017 166.472 153.864L167.601 151.966C167.678 151.836 167.833 151.779 167.977 151.824C169.171 152.199 170.399 152.369 171.615 152.348C171.766 152.345 171.898 152.444 171.935 152.589L172.481 154.731C172.525 154.905 172.702 155.009 172.875 154.965L176.929 153.934C177.103 153.89 177.207 153.714 177.163 153.54L176.618 151.398C176.581 151.253 176.65 151.103 176.784 151.033C177.862 150.47 178.859 149.734 179.729 148.835C179.834 148.727 179.997 148.703 180.127 148.78L182.026 149.907C182.18 149.999 182.379 149.948 182.47 149.794L184.607 146.2ZM168.115 146.997C164.132 144.574 163.537 139.998 165.438 137.133C167.712 133.705 172.059 133.011 175.017 134.767C177.974 136.524 179.378 140.699 177.467 144.392C175.887 147.446 171.054 148.785 168.115 146.997Z" fill="url(#paint12_linear_1220_11572)"/>
<path d="M61.6372 126.079C61.7086 125.959 61.669 125.804 61.5489 125.732L60.066 124.852C59.9649 124.792 59.9205 124.67 59.9558 124.558C60.2482 123.626 60.381 122.668 60.3645 121.719C60.3624 121.601 60.4394 121.498 60.5535 121.469L62.2268 121.043C62.3623 121.009 62.4443 120.871 62.4098 120.735L61.6041 117.571C61.5696 117.436 61.4317 117.354 61.2962 117.388L59.6228 117.814C59.5088 117.843 59.3917 117.789 59.3372 117.685C58.8977 116.843 58.3227 116.065 57.6201 115.386C57.5356 115.304 57.5165 115.177 57.5766 115.076L58.4578 113.594C58.5292 113.473 58.4897 113.318 58.3695 113.247L55.5613 111.579C55.4411 111.507 55.2857 111.547 55.2142 111.667L54.3329 113.149C54.2729 113.25 54.1515 113.295 54.0393 113.259C53.1069 112.967 52.1481 112.834 51.1984 112.851C51.0807 112.853 50.9771 112.776 50.9481 112.662L50.5223 110.99C50.4877 110.854 50.3499 110.772 50.2143 110.807L47.0665 111.695C46.9309 111.73 46.8312 111.784 46.8658 111.92L47.2916 113.592C47.3207 113.706 47.2664 113.823 47.1621 113.877C46.3201 114.317 45.5413 114.891 44.8623 115.594C44.7806 115.678 44.6528 115.697 44.5516 115.637L43.0688 114.756C42.9485 114.685 42.7931 114.725 42.7216 114.845L41.0528 117.651C40.9814 117.771 41.021 117.927 41.1412 117.998L42.6241 118.879C42.7252 118.939 42.7696 119.06 42.7343 119.172C42.4419 120.104 42.3091 121.063 42.3256 122.012C42.3277 122.129 42.2507 122.233 42.1366 122.262L40.4633 122.687C40.3278 122.722 40.2459 122.86 40.2803 122.995L41.0859 126.159C41.1205 126.295 41.2583 126.376 41.3939 126.342L43.0672 125.916C43.1812 125.887 43.2984 125.942 43.3528 126.046C43.7923 126.887 44.3674 127.666 45.0699 128.344C45.1545 128.426 45.1736 128.554 45.1134 128.655L44.2322 130.137C44.1608 130.257 44.2004 130.412 44.3206 130.484L47.1287 132.152C47.2489 132.223 47.4044 132.184 47.4758 132.063L48.357 130.581C48.4171 130.48 48.5384 130.436 48.6507 130.471C49.583 130.763 50.5418 130.896 51.4915 130.88C51.6092 130.878 51.7128 130.955 51.7419 131.069L52.1677 132.741C52.2022 132.876 52.34 132.958 52.4756 132.924L55.6413 132.119C55.7768 132.084 55.8587 131.946 55.8243 131.811L55.3984 130.139C55.3694 130.025 55.4237 129.907 55.5279 129.853C56.3699 129.414 57.1487 128.839 57.8277 128.137C57.9094 128.052 58.0372 128.033 58.1383 128.093L59.6212 128.974C59.7414 129.046 59.8969 129.006 59.9683 128.886L61.6372 126.079ZM48.7589 126.701C45.6483 124.81 45.1837 121.236 46.6682 118.999C48.4443 116.322 51.8388 115.78 54.148 117.151C56.4574 118.523 57.5535 121.783 56.0617 124.667C54.828 127.052 51.0537 128.097 48.7589 126.701Z" fill="url(#paint13_linear_1220_11572)"/>
<path d="M154.071 148.823C154.09 148.704 154.01 148.592 153.892 148.572L152.428 148.327C152.328 148.31 152.255 148.227 152.248 148.126C152.193 147.287 152.001 146.477 151.692 145.721C151.653 145.628 151.683 145.521 151.765 145.462L152.975 144.6C153.073 144.53 153.096 144.394 153.026 144.296L151.394 142.009C151.324 141.911 151.188 141.889 151.09 141.958L149.881 142.82C149.798 142.879 149.688 142.872 149.611 142.805C148.997 142.267 148.293 141.822 147.518 141.496C147.425 141.457 147.37 141.36 147.387 141.261L147.632 139.798C147.652 139.679 147.572 139.567 147.453 139.547L144.682 139.083C144.563 139.063 144.451 139.143 144.431 139.262L144.185 140.725C144.169 140.824 144.085 140.898 143.984 140.904C143.146 140.96 142.335 141.152 141.579 141.461C141.485 141.499 141.378 141.469 141.319 141.387L140.457 140.178C140.387 140.08 140.251 140.057 140.153 140.127L137.905 141.819C137.807 141.889 137.744 141.964 137.814 142.062L138.676 143.27C138.735 143.353 138.728 143.464 138.661 143.54C138.123 144.154 137.677 144.857 137.351 145.631C137.312 145.725 137.215 145.78 137.115 145.763L135.652 145.518C135.533 145.498 135.421 145.578 135.401 145.697L134.937 148.467C134.917 148.585 134.997 148.698 135.116 148.718L136.579 148.963C136.679 148.979 136.752 149.063 136.759 149.164C136.815 150.002 137.007 150.812 137.315 151.568C137.354 151.662 137.324 151.769 137.242 151.827L136.032 152.689C135.934 152.759 135.912 152.895 135.981 152.993L137.613 155.28C137.683 155.378 137.819 155.401 137.917 155.331L139.126 154.469C139.209 154.41 139.32 154.417 139.396 154.484C140.01 155.022 140.714 155.467 141.489 155.793C141.582 155.832 141.637 155.929 141.62 156.029L141.375 157.491C141.355 157.61 141.435 157.722 141.554 157.742L144.326 158.206C144.444 158.226 144.557 158.146 144.576 158.027L144.822 156.565C144.838 156.465 144.922 156.391 145.023 156.385C145.862 156.329 146.672 156.137 147.429 155.829C147.522 155.79 147.629 155.82 147.688 155.902L148.551 157.111C148.62 157.209 148.757 157.232 148.854 157.162L151.143 155.531C151.241 155.461 151.263 155.326 151.194 155.228L150.331 154.019C150.272 153.936 150.279 153.826 150.346 153.749C150.885 153.135 151.33 152.432 151.656 151.658C151.695 151.565 151.792 151.509 151.892 151.526L153.355 151.771C153.474 151.791 153.586 151.711 153.606 151.592L154.071 148.823ZM144.112 152.913C141.028 152.363 139.781 150.193 140.274 147.937C140.865 145.237 142.933 144.036 145.212 144.418C147.492 144.799 149.031 146.576 148.733 149.353C148.486 151.649 146.387 153.318 144.112 152.913Z" fill="url(#paint14_linear_1220_11572)"/>
<path d="M328.055 210.029C328.089 209.825 327.951 209.632 327.747 209.597L325.226 209.175C325.055 209.147 324.928 209.003 324.917 208.829C324.821 207.386 324.49 205.991 323.959 204.689C323.893 204.527 323.943 204.343 324.085 204.242L326.168 202.758C326.337 202.637 326.376 202.403 326.256 202.235L323.446 198.296C323.326 198.128 323.092 198.089 322.923 198.209L320.84 199.693C320.698 199.794 320.507 199.782 320.376 199.667C319.318 198.741 318.106 197.974 316.772 197.413C316.611 197.345 316.516 197.179 316.545 197.007L316.967 194.488C317.002 194.284 316.864 194.09 316.659 194.056L311.886 193.257C311.682 193.223 311.488 193.361 311.454 193.565L311.032 196.084C311.003 196.256 310.859 196.382 310.686 196.394C309.241 196.489 307.846 196.82 306.543 197.351C306.381 197.417 306.197 197.367 306.096 197.225L304.611 195.143C304.49 194.974 304.256 194.935 304.087 195.055L300.216 197.969C300.048 198.09 299.939 198.218 300.059 198.387L301.544 200.468C301.646 200.61 301.634 200.801 301.519 200.932C300.591 201.99 299.824 203.201 299.263 204.534C299.195 204.695 299.029 204.79 298.857 204.761L296.336 204.339C296.132 204.305 295.939 204.442 295.904 204.647L295.105 209.417C295.071 209.621 295.209 209.815 295.413 209.849L297.933 210.271C298.105 210.3 298.232 210.443 298.243 210.617C298.339 212.061 298.67 213.455 299.201 214.758C299.267 214.919 299.217 215.103 299.075 215.204L296.992 216.689C296.823 216.809 296.784 217.043 296.904 217.212L299.714 221.15C299.834 221.319 300.068 221.358 300.237 221.238L302.32 219.753C302.462 219.652 302.653 219.664 302.784 219.779C303.842 220.706 305.054 221.473 306.388 222.034C306.549 222.101 306.643 222.267 306.615 222.439L306.192 224.958C306.158 225.163 306.296 225.356 306.5 225.39L311.273 226.189C311.478 226.223 311.671 226.086 311.705 225.881L312.128 223.362C312.156 223.191 312.3 223.064 312.474 223.053C313.919 222.957 315.314 222.626 316.617 222.095C316.778 222.029 316.963 222.08 317.064 222.222L318.549 224.303C318.669 224.472 318.904 224.511 319.072 224.391L323.013 221.583C323.182 221.463 323.221 221.228 323.1 221.06L321.615 218.978C321.514 218.836 321.526 218.646 321.641 218.514C322.568 217.457 323.336 216.246 323.897 214.912C323.965 214.752 324.131 214.657 324.303 214.686L326.823 215.108C327.028 215.142 327.221 215.004 327.255 214.8L328.055 210.029ZM310.905 217.073C305.594 216.127 303.446 212.39 304.296 208.504C305.314 203.855 308.875 201.786 312.8 202.444C316.725 203.101 319.377 206.161 318.863 210.943C318.439 214.897 314.823 217.772 310.905 217.073Z" fill="url(#paint15_linear_1220_11572)"/>
<defs>
<linearGradient id="paint0_linear_1220_11572" x1="48.6193" y1="216.166" x2="71.2008" y2="216.166" gradientUnits="userSpaceOnUse">
<stop stop-color="#FC321C"/>
<stop offset="1" stop-color="#B3308D"/>
</linearGradient>
<linearGradient id="paint1_linear_1220_11572" x1="92.881" y1="211.939" x2="115.463" y2="211.939" gradientUnits="userSpaceOnUse">
<stop stop-color="#FC321C"/>
<stop offset="1" stop-color="#B3308D"/>
</linearGradient>
<linearGradient id="paint2_linear_1220_11572" x1="137.142" y1="207.645" x2="159.723" y2="207.645" gradientUnits="userSpaceOnUse">
<stop stop-color="#FC321C"/>
<stop offset="1" stop-color="#B3308D"/>
</linearGradient>
<linearGradient id="paint3_linear_1220_11572" x1="181.403" y1="208.584" x2="203.985" y2="208.584" gradientUnits="userSpaceOnUse">
<stop stop-color="#FC321C"/>
<stop offset="1" stop-color="#B3308D"/>
</linearGradient>
<linearGradient id="paint4_linear_1220_11572" x1="225.665" y1="194.094" x2="248.247" y2="194.094" gradientUnits="userSpaceOnUse">
<stop stop-color="#FC321C"/>
<stop offset="1" stop-color="#B3308D"/>
</linearGradient>
<linearGradient id="paint5_linear_1220_11572" x1="269.926" y1="186.501" x2="292.507" y2="186.501" gradientUnits="userSpaceOnUse">
<stop stop-color="#FC321C"/>
<stop offset="1" stop-color="#B3308D"/>
</linearGradient>
<linearGradient id="paint6_linear_1220_11572" x1="314.188" y1="173.987" x2="336.769" y2="173.987" gradientUnits="userSpaceOnUse">
<stop stop-color="#FC321C"/>
<stop offset="1" stop-color="#B3308D"/>
</linearGradient>
<linearGradient id="paint7_linear_1220_11572" x1="172.393" y1="79.771" x2="252.186" y2="79.771" gradientUnits="userSpaceOnUse">
<stop stop-color="#FFBF31"/>
<stop offset="1" stop-color="#FF8031"/>
</linearGradient>
<linearGradient id="paint8_linear_1220_11572" x1="186.034" y1="79.7714" x2="238.544" y2="79.7714" gradientUnits="userSpaceOnUse">
<stop stop-color="#FFBF31"/>
<stop offset="1" stop-color="#FF8031"/>
</linearGradient>
<linearGradient id="paint9_linear_1220_11572" x1="206.154" y1="79.7723" x2="218.424" y2="79.7723" gradientUnits="userSpaceOnUse">
<stop stop-color="#FFBF31"/>
<stop offset="1" stop-color="#FF8031"/>
</linearGradient>
<linearGradient id="paint10_linear_1220_11572" x1="144.527" y1="62.6681" x2="163.56" y2="62.6681" gradientUnits="userSpaceOnUse">
<stop stop-color="#FC321C"/>
<stop offset="1" stop-color="#B3308D"/>
</linearGradient>
<linearGradient id="paint11_linear_1220_11572" x1="163.281" y1="196.402" x2="166.697" y2="227.832" gradientUnits="userSpaceOnUse">
<stop stop-color="#FFBF31"/>
<stop offset="1" stop-color="#FF8031"/>
</linearGradient>
<linearGradient id="paint12_linear_1220_11572" x1="170.183" y1="126.565" x2="172.6" y2="154.253" gradientUnits="userSpaceOnUse">
<stop stop-color="#FFBF31"/>
<stop offset="1" stop-color="#FF8031"/>
</linearGradient>
<linearGradient id="paint13_linear_1220_11572" x1="50.3731" y1="110.746" x2="52.2609" y2="132.367" gradientUnits="userSpaceOnUse">
<stop stop-color="#FFBF31"/>
<stop offset="1" stop-color="#FF8031"/>
</linearGradient>
<linearGradient id="paint14_linear_1220_11572" x1="134.934" y1="148.645" x2="154.074" y2="148.645" gradientUnits="userSpaceOnUse">
<stop stop-color="#FFC6BF"/>
<stop offset="1" stop-color="#F76754"/>
</linearGradient>
<linearGradient id="paint15_linear_1220_11572" x1="295.1" y1="209.723" x2="328.06" y2="209.723" gradientUnits="userSpaceOnUse">
<stop stop-color="#FFC6BF"/>
<stop offset="1" stop-color="#FFC6BF"/>
</linearGradient>
</defs>
</svg>
