<svg width="116" height="30" viewBox="0 0 116 30" fill="none" xmlns="http://www.w3.org/2000/svg">
<path d="M37.4564 11.7958C37.4564 9.71494 35.4329 7.50487 31.9312 7.50487C27.999 7.50487 23.6793 10.3894 23.0192 16.1442C22.3447 21.9564 25.9612 24.5396 29.6063 24.5396C33.2515 24.5396 35.1602 23.1189 37.112 21.2245C35.4329 19.1149 33.2659 20.0908 32.8497 20.3061C32.3904 20.5357 31.8021 20.8514 30.5966 20.8514C29.1902 20.8514 27.755 20.2199 27.755 17.5937C36.7675 16.7039 37.4564 13.8768 37.4564 11.7958ZM32.9932 12.1403C32.9358 12.7861 32.6775 13.8911 28.1138 14.5082C29.0753 11.0926 30.9123 10.8343 31.759 10.8343C32.5483 10.8343 33.0506 11.4514 32.9932 12.1403ZM17.7236 12.7C17.7236 12.7 15.7862 18.7848 15.6284 19.2871C15.571 18.7705 14.1502 7.84929 14.1502 7.84929C10.8494 7.84929 9.08425 10.2029 8.15143 12.6856C8.15143 12.6856 5.79785 18.7848 5.59693 19.3015C5.58258 18.8279 5.23815 12.7574 5.23815 12.7574C5.03724 9.71494 2.25312 7.86365 0 7.86365L2.72671 24.4105C6.18533 24.3961 8.05097 22.0569 9.02685 19.5741C9.02685 19.5741 11.1078 14.1925 11.1939 13.9485C11.2082 14.1781 12.6864 24.4105 12.6864 24.4105C16.1593 24.4105 18.025 22.2148 19.0296 19.8181L23.8946 7.86365C20.4647 7.86365 18.6564 10.2029 17.7236 12.7ZM50.2002 7.47617C48.0619 7.47617 46.4258 8.63861 45.0481 10.3464V10.332L46.2823 0.386719C43.4408 0.386719 41.1303 2.85511 40.6854 6.52899L38.5327 24.2813C40.1688 24.2813 41.9052 23.8077 42.8381 22.6022C43.6704 23.6786 44.919 24.5396 46.7703 24.5396C51.5635 24.5396 54.8499 18.9714 54.8499 13.7476C54.8212 8.98303 52.5107 7.47617 50.2002 7.47617ZM49.7553 16.0151C49.253 18.9284 47.6313 20.9088 46.0671 20.9088C44.4884 20.9088 43.8139 20.2056 43.8139 20.2056C44.1153 17.6511 44.3019 16.0868 44.8759 14.7378C45.45 13.3888 46.8133 11.2362 48.2341 11.2362C49.6261 11.2362 50.2576 13.0874 49.7553 16.0151ZM66.8188 7.86365H63.4749L63.4893 7.69143C63.7189 5.51006 64.2356 4.36198 65.9433 4.17541C67.1058 4.0606 67.6224 3.45786 67.7516 2.7977C67.852 2.28106 68.1678 0.487177 68.1678 0.487177C61.4514 0.444123 59.3418 3.34305 58.7965 7.76319L58.7821 7.86365H58.7104C57.6197 7.86365 56.4142 9.09784 56.2133 10.6621L56.1415 11.2362H58.3803L56.5003 26.7641L55.9263 29.5482C55.998 29.5482 56.0841 29.5625 56.1559 29.5625C59.2988 29.4477 61.3079 26.965 61.7528 23.3628L63.2166 11.2362H64.2643C65.2975 11.2362 66.503 10.2029 66.7183 8.48074L66.8188 7.86365ZM84.2123 7.57662C80.3518 7.57662 76.7067 10.4181 75.5873 14.8813C74.4679 19.3445 76.1613 24.6257 81.8444 24.6257C87.513 24.6257 90.7851 19.1293 90.7851 14.5513C90.7851 10.002 87.6996 7.57662 84.2123 7.57662ZM85.7766 15.8716C85.5757 17.8951 84.6859 20.9662 82.2462 20.9662C79.7922 20.9662 80.1366 17.3784 80.3805 15.6706C80.6389 13.8481 81.6578 11.2505 83.8535 11.2505C85.8196 11.2505 86.0062 13.5897 85.7766 15.8716ZM109.858 12.7C109.858 12.7 107.92 18.7848 107.762 19.2871C107.705 18.7705 106.284 7.84929 106.284 7.84929C102.984 7.84929 101.218 10.2029 100.286 12.6856C100.286 12.6856 97.932 18.7848 97.731 19.3015C97.7167 18.8279 97.3723 12.7574 97.3723 12.7574C97.1713 9.71494 94.3872 7.86365 92.1341 7.86365L94.8465 24.4105C98.3051 24.3961 100.171 22.0569 101.147 19.5741C101.147 19.5741 103.228 14.1925 103.299 13.9485C103.314 14.1781 104.792 24.4105 104.792 24.4105C108.265 24.4105 110.13 22.2148 111.135 19.8181L116 7.86365C112.584 7.86365 110.776 10.2029 109.858 12.7ZM69.976 0.487177L67.1632 23.1763L66.5891 25.9747C66.6609 25.9747 66.747 25.9891 66.8188 25.9891C69.8468 25.946 71.9995 23.2911 72.4013 19.9473L74.023 6.93082C74.5109 2.95557 72.143 0.487177 69.976 0.487177Z" fill="#7B7B7B"/>
</svg>
