<svg width="113" height="170" viewBox="0 0 113 170" fill="none" xmlns="http://www.w3.org/2000/svg">
<g clip-path="url(#clip0_635_3912)">
<path d="M57.0775 169.752H56.7718C47.9963 169.752 40.8569 162.476 40.8569 153.533V151.439C40.8569 142.496 47.9963 135.221 56.7718 135.221H57.0775C65.853 135.221 72.9924 142.496 72.9924 151.439V153.533C72.9924 162.476 65.853 169.752 57.0775 169.752ZM56.7717 136.804C48.8529 136.804 42.4106 143.37 42.4106 151.439V153.533C42.4106 161.603 48.8529 168.168 56.7717 168.168H57.0774C64.9962 168.168 71.4386 161.603 71.4386 153.533V151.439C71.4386 143.37 64.9962 136.804 57.0774 136.804H56.7717Z" fill="url(#paint0_linear_635_3912)"/>
<path d="M68.3271 123.174H45.697C44.3615 123.174 43.2749 122.067 43.2749 120.706V104.723C43.2749 98.8538 44.4987 94.1086 46.9125 90.6189C49.2099 87.3014 53.9643 82.8184 61.4475 76.9134C71.8255 68.7955 77.0864 60.2038 77.0864 51.375C77.0864 44.7069 75.2043 39.5981 71.3326 35.7564C67.4961 31.953 62.3831 30.0244 56.1359 30.0244C48.7916 30.0244 43.1367 32.5166 38.848 37.6434C34.451 42.8994 31.5265 51.0217 30.1557 61.7847C30.0494 62.6208 29.5348 63.3276 28.7792 63.6756C28.345 63.8755 27.8401 63.9324 27.3323 63.8399L1.97407 59.2155C0.771595 58.9962 -0.0810327 57.8533 0.0329088 56.6139C1.63651 39.1918 8.07913 25.2885 19.182 15.29C30.2656 5.30882 43.7183 0.248047 59.1667 0.248047C74.5492 0.248047 87.4804 4.99569 97.6013 14.3593C107.788 23.7874 112.953 35.682 112.953 49.7132C112.953 56.6783 111.528 63.3919 108.717 69.6677C105.921 75.9008 102.664 80.8311 99.0349 84.3219C95.5535 87.6672 88.1816 93.5467 77.1235 101.797C74.3866 103.819 72.6559 105.724 71.9765 107.46C71.5588 108.524 70.8446 111.661 70.7492 120.731C70.735 122.078 69.6486 123.174 68.3271 123.174ZM56.136 28.4409C62.802 28.4409 68.2795 30.5204 72.4163 34.6216C76.6046 38.7772 78.6403 44.2572 78.6403 51.375C78.6403 60.722 73.1749 69.7363 62.3962 78.1675C55.0395 83.9728 50.3891 88.3449 48.1823 91.5317C45.957 94.7485 44.8288 99.1869 44.8288 104.723V120.706C44.8288 121.194 45.2184 121.591 45.6972 121.591H68.3272C68.801 121.591 69.1906 121.197 69.1957 120.714C69.2705 113.6 69.7208 108.943 70.5338 106.873C71.3235 104.854 73.233 102.716 76.2088 100.517C87.212 92.3073 94.5343 86.4701 97.9689 83.1698C101.451 79.8201 104.592 75.0558 107.304 69.0096C110.021 62.9421 111.399 56.4495 111.399 49.7129C111.399 36.1469 106.406 24.6466 96.5569 15.5313C86.731 6.44057 74.1512 1.83121 59.167 1.83121C44.109 1.83121 31.0023 6.75858 20.2112 16.4762C9.41406 26.1994 3.14572 39.7533 1.58019 56.7614C1.54096 57.1879 1.83435 57.5811 2.24804 57.6566L27.6062 62.281C27.8042 62.3171 27.9927 62.3002 28.1398 62.2324C28.4009 62.1122 28.5786 61.8686 28.6153 61.5808C30.0254 50.5086 33.0705 42.1092 37.666 36.6158C42.2674 31.1149 48.309 28.4409 56.136 28.4409Z" fill="url(#paint1_linear_635_3912)"/>
</g>
<defs>
<linearGradient id="paint0_linear_635_3912" x1="42.3176" y1="152.486" x2="72.9924" y2="152.486" gradientUnits="userSpaceOnUse">
<stop stop-color="#FC321C"/>
<stop offset="1" stop-color="#B3308D"/>
</linearGradient>
<linearGradient id="paint1_linear_635_3912" x1="5.15589" y1="61.7112" x2="112.953" y2="61.7112" gradientUnits="userSpaceOnUse">
<stop stop-color="#FC321C"/>
<stop offset="1" stop-color="#B3308D"/>
</linearGradient>
<clipPath id="clip0_635_3912">
<rect width="113" height="170" fill="white"/>
</clipPath>
</defs>
</svg>
